<svg xmlns="http://www.w3.org/2000/svg" viewBox="0 0 500 500"><g id="freepik--Floor--inject-254"><path id="freepik--floor--inject-254" d="M77.66,229.56c-95.18,54.95-95.17,144.05,0,199s249.49,54.95,344.67,0,95.17-144,0-199S172.84,174.61,77.66,229.56Z" style="fill:#fafafa"></path></g><g id="freepik--Pictures--inject-254"><g id="freepik--Picture--inject-254"><g id="freepik--Frame--inject-254"><polygon points="28.74 133.26 30.44 134.27 65.33 114.13 63.63 113.11 28.74 133.26" style="fill:#fafafa"></polygon><polygon points="63.63 113.11 30.44 132.27 30.44 97.51 63.63 78.37 63.63 113.11" style="fill:#fff"></polygon><path d="M68.54,71.81,27.23,95.66v44.17L68.54,116Zm-3.21,42.32L30.44,134.27V97.51L65.33,77.37Z" style="fill:#f0f0f0"></path><polygon points="65.33 114.13 63.63 113.11 63.63 78.37 65.33 77.37 65.33 114.13" style="fill:#e0e0e0"></polygon><polygon points="68.54 71.81 66.81 70.82 25.5 94.67 27.23 95.66 68.54 71.81" style="fill:#fafafa"></polygon><polygon points="25.5 94.67 27.23 95.66 27.23 139.83 25.5 138.84 25.5 94.67" style="fill:#e0e0e0"></polygon></g><g id="freepik--Land--inject-254"><polygon points="62.33 112.08 31.73 129.74 31.73 120.91 39.38 103.24 44.15 107.66 42.44 115.06 53 92.47 62.33 103.24 62.33 112.08" style="fill:#f0f0f0"></polygon><path d="M43.86,94.71a5,5,0,0,0-2.26,3.92c0,1.44,1,2,2.26,1.31A5,5,0,0,0,46.13,96C46.13,94.57,45.11,94,43.86,94.71Z" style="fill:#f0f0f0"></path></g></g><g id="freepik--picture--inject-254"><g id="freepik--frame--inject-254"><polygon points="28.74 196.07 30.44 197.08 65.33 176.94 63.63 175.92 28.74 196.07" style="fill:#fafafa"></polygon><polygon points="63.63 175.92 30.44 195.08 30.44 160.32 63.63 141.17 63.63 175.92" style="fill:#fff"></polygon><path d="M68.54,134.62,27.23,158.47v44.17l41.31-23.85Zm-3.21,42.31L30.44,197.08V160.32l34.89-20.14Z" style="fill:#f0f0f0"></path><polygon points="65.33 176.94 63.63 175.92 63.63 141.17 65.33 140.18 65.33 176.94" style="fill:#e0e0e0"></polygon><polygon points="68.54 134.62 66.81 133.63 25.5 157.48 27.23 158.47 68.54 134.62" style="fill:#fafafa"></polygon><polygon points="25.5 157.48 27.23 158.47 27.23 202.64 25.5 201.65 25.5 157.48" style="fill:#e0e0e0"></polygon></g><g id="freepik--land--inject-254"><polygon points="62.33 174.88 31.73 192.55 31.73 183.72 39.38 166.05 44.15 170.46 42.44 177.87 53 155.27 62.33 166.05 62.33 174.88" style="fill:#f0f0f0"></polygon><path d="M43.86,157.52a5,5,0,0,0-2.26,3.92c0,1.44,1,2,2.26,1.3a5,5,0,0,0,2.27-3.92C46.13,157.38,45.11,156.8,43.86,157.52Z" style="fill:#f0f0f0"></path></g></g><g id="freepik--picture--inject-254"><g id="freepik--frame--inject-254"><polygon points="81.66 165.09 83.49 166.18 121 144.52 119.17 143.43 81.66 165.09" style="fill:#fafafa"></polygon><polygon points="119.17 143.43 83.49 164.03 83.49 67.36 119.17 46.78 119.17 143.43" style="fill:#fff"></polygon><path d="M124.45,39.73,80,65.37V172.15l44.41-25.64ZM121,144.52,83.49,166.18V67.36L121,45.7Z" style="fill:#f0f0f0"></path><polygon points="121 144.52 119.17 143.43 119.17 46.78 121 45.7 121 144.52" style="fill:#e0e0e0"></polygon><polygon points="124.45 39.73 122.59 38.67 78.18 64.31 80.04 65.37 124.45 39.73" style="fill:#fafafa"></polygon><polygon points="78.18 64.31 80.04 65.37 80.04 172.15 78.18 171.09 78.18 64.31" style="fill:#e0e0e0"></polygon></g><g id="freepik--land--inject-254"><polygon points="116.5 141.29 86.16 158.8 86.16 70.59 116.5 53.08 116.5 141.29" style="fill:#f0f0f0"></polygon></g><g id="freepik--land--inject-254"><polygon points="116.5 141.29 86.16 158.8 86.16 70.59 116.5 53.08 116.5 141.29" style="fill:#f0f0f0"></polygon></g><path d="M86.16,129.39a28.58,28.58,0,0,0,4.34,0,54.56,54.56,0,0,0,14.77-3.21c3.67-1.36,7.34-3.11,11.23-3.22v18.37l-4.11,2.37a13.8,13.8,0,0,0-5.63-3.12c-5.85-1.54-11.84,1.4-17.85,2.08a22.92,22.92,0,0,1-2.75.14Z" style="fill:#fafafa"></path><path d="M86.16,107.42c6.79-2,13.75-3.68,18.59-8.66,3.91-4,5.75-9.57,7-15s2.17-11.08,4.64-16.1a1.09,1.09,0,0,1,.08-.15v40.57c-.39.57-.76,1.14-1.17,1.69-4.46,6-11,11.08-18.52,11.47-3.52.18-7.16-.64-10.65-.63Z" style="fill:#fafafa"></path><path d="M86.16,87.24a20.68,20.68,0,0,0,6.72-18.82c-.09-.51-.21-1-.34-1.51l11.67-6.74c0,.77-.08,1.53-.1,2.3-.13,4.45,0,9-1,13.31A26.15,26.15,0,0,1,89.85,93a23.37,23.37,0,0,1-3.69,1.54Z" style="fill:#fafafa"></path></g></g><g id="freepik--Window--inject-254"><g id="freepik--window--inject-254"><path d="M468,126.47C468,96,448,59.78,423.23,45.5c-13.09-7.56-24.87-7.44-33.06-1.14C380,48.59,373.48,60.29,373.48,77.64v190L463,319.35l5-2.87Z" style="fill:#e6e6e6"></path><path d="M463,319.35v-190c0-30.44-20-66.7-44.77-81s-44.78-1.18-44.78,29.26v190Z" style="fill:#f5f5f5"></path><path d="M458.14,129.35V310.86l-79.76-46.05V77.65c0-15.22,5.35-25.71,14.35-29a18.51,18.51,0,0,1,6.53-1.13c5.09,0,10.66,1.72,16.55,5.12C439.15,66.1,458.14,100.51,458.14,129.35Z" style="fill:#e0e0e0"></path><polygon points="378.38 264.81 383.43 261.9 458.14 305.03 458.14 310.87 378.38 264.81" style="fill:#ebebeb"></polygon><path d="M458.14,129.35V305L383.43,261.9V74.72c0-12.09,3.4-21.2,9.31-26.09a18.51,18.51,0,0,1,6.53-1.13c5.09,0,10.66,1.72,16.55,5.12C439.15,66.1,458.14,100.51,458.14,129.35Z" style="fill:#fff"></path><polygon points="420.7 289.25 415.81 286.42 415.81 50.86 420.7 50.86 420.7 289.25" style="fill:#f5f5f5"></polygon><path d="M425.61,59.7V286.43l-4.9,2.82V55.8C422.37,57,424,58.29,425.61,59.7Z" style="fill:#e0e0e0"></path><polygon points="378.38 216.82 415.81 238.43 415.81 244.18 378.38 222.57 378.38 216.82" style="fill:#f5f5f5"></polygon><polygon points="383.43 213.9 378.38 216.82 415.81 238.43 415.81 232.68 383.43 213.9" style="fill:#ebebeb"></polygon><polygon points="420.7 241.25 458.14 262.86 458.14 268.61 420.7 247 420.7 241.25" style="fill:#f5f5f5"></polygon><polygon points="425.76 238.34 420.7 241.25 458.14 262.86 458.14 257.12 425.76 238.34" style="fill:#ebebeb"></polygon><polygon points="378.38 88.55 415.81 110.16 415.81 115.91 378.38 94.3 378.38 88.55" style="fill:#f5f5f5"></polygon><polygon points="383.43 85.64 378.38 88.55 415.81 110.16 415.81 104.42 383.43 85.64" style="fill:#ebebeb"></polygon><polygon points="420.7 112.99 458.14 134.6 458.14 140.34 420.7 118.74 420.7 112.99" style="fill:#f5f5f5"></polygon><polygon points="425.76 110.07 420.7 112.99 458.14 134.6 458.14 128.85 425.76 110.07" style="fill:#ebebeb"></polygon></g></g><g id="freepik--Shadows--inject-254"><path id="freepik--Shadow--inject-254" d="M167.76,251.86c-9.37,5.41-9.37,14.18,0,19.59s24.56,5.41,33.93,0,9.37-14.18,0-19.59S177.13,246.45,167.76,251.86Z" style="fill:#e0e0e0"></path><path id="freepik--shadow--inject-254" d="M307.75,399.35c-5.83-5.3-11.7-11-19.17-13.92-9.32-3.65-19.84-2.43-29.52.12-3.75,1-7.58,2.23-10.42,4.85s-4.45,7-2.81,10.49c.4.87,1.24,1.82.72,2.75a4.72,4.72,0,0,1-2.23,1.7L238.79,408a13.77,13.77,0,0,0-3.13,1.88,4.68,4.68,0,0,0-1.72,3.12,2.87,2.87,0,0,0,1.78,2.9,1.68,1.68,0,0,0,.76,1.11c.1.06,1.31.31,1.23.06a2.38,2.38,0,0,0,1.85,1.51,5.89,5.89,0,0,0,4.34-.42,22.25,22.25,0,0,0,2.92-2.22,22.14,22.14,0,0,1,14.6-4.85c-.53,0,.62,2.42.75,2.59a4.23,4.23,0,0,0,2.3,1.19.76.76,0,0,1,.33.18.78.78,0,0,1,.13.34c.66,3.08,3.18,5.16,5.87,6.49,6.1,3,12.89,3.51,19.5,4.31a44.22,44.22,0,0,0,14.34-.22A21.82,21.82,0,0,0,317,419.06a37.1,37.1,0,0,1,2.55-3.05,22.84,22.84,0,0,1,3.33-2.42,21.92,21.92,0,0,0,5.88-5.26A11,11,0,0,0,331,400.9a1,1,0,0,0-.4-.83c-.44-.22-.9.26-1.19.67-2.12,3.09-5.78,6.67-9.66,7.34-2.5.43-3.16-.67-4.71-2.22C312.78,403.58,310.14,401.52,307.75,399.35Z" style="fill:#e0e0e0"></path><path id="freepik--shadow--inject-254" d="M76.25,405.46c9,5.26,9,13.78,0,19s-23.59,5.26-32.59,0-9-13.77,0-19S67.25,400.21,76.25,405.46Z" style="fill:#e0e0e0"></path><path id="freepik--shadow--inject-254" d="M483.22,408.07a10.58,10.58,0,0,1-1.7,3.95,18.64,18.64,0,0,1-6.37,5.66c-11,6.36-28.89,6.36-39.92,0a18.83,18.83,0,0,1-6.37-5.66,10.7,10.7,0,0,1-1.68-3.95h0c-1-4.78,1.71-9.76,8.06-13.43,11-6.37,28.9-6.37,39.92,0C481.51,398.31,484.2,403.29,483.22,408.07Z" style="fill:#e0e0e0"></path><path id="freepik--shadow--inject-254" d="M115.6,410.23,35.12,363.77c-1.44-.84-1.44-2.19,0-3l105.2-60.6a5.72,5.72,0,0,1,5.22,0L226,346.61c1.44.84,1.44,2.19,0,3l-105.2,60.6A5.74,5.74,0,0,1,115.6,410.23Z" style="fill:#e0e0e0"></path><path id="freepik--shadow--inject-254" d="M408.8,414.86l-120.53-69.5c-1.51-.87-1.51-2.28,0-3.15l30.59-17.66a6,6,0,0,1,5.46,0L444.85,394c1.51.87,1.51,2.28,0,3.15l-30.59,17.67A6,6,0,0,1,408.8,414.86Z" style="fill:#e0e0e0"></path></g><g id="freepik--Lamp--inject-254"><g id="freepik--lamp--inject-254"><path d="M203.84,257.42h0c0-2.82-1.85-5.65-5.59-7.8-7.46-4.31-19.57-4.31-27,0-3.73,2.15-5.58,5-5.58,7.8h0v2.64h0c.05,2.79,1.92,5.57,5.6,7.7,7.47,4.31,19.58,4.31,27,0,3.69-2.13,5.56-4.91,5.6-7.7h0Z" style="fill:#ebebeb"></path><path d="M171.2,249.62c-7.46,4.31-7.46,11.3,0,15.61s19.58,4.31,27,0,7.47-11.3,0-15.61S178.67,245.31,171.2,249.62Z" style="fill:#f5f5f5"></path><path d="M186.78,95.74h-4.12V256.19h0a1,1,0,0,0,.59.94,3.24,3.24,0,0,0,2.91,0,1,1,0,0,0,.58-.94h0Z" style="fill:#e0e0e0"></path><path d="M209.36,85.06h0l-9.19-34.15h-31l-9.07,34.15h0c-1.66,4.51.62,9.4,6.84,12.9,9.83,5.54,25.76,5.54,35.59,0C208.74,94.46,211,89.57,209.36,85.06Z" style="fill:#ebebeb"></path><path d="M173.7,58.2c6.09,3.43,16,3.43,22,0s6.09-9,0-12.42-16-3.42-22,0S167.62,54.77,173.7,58.2Z" style="fill:#f5f5f5"></path><path d="M184.72,58.62a19.81,19.81,0,0,1-9.54-2.21c-2.23-1.25-3.46-2.82-3.46-4.42s1.23-3.16,3.46-4.41a21.72,21.72,0,0,1,19.09,0c2.23,1.25,3.45,2.82,3.45,4.41s-1.22,3.17-3.45,4.42A19.82,19.82,0,0,1,184.72,58.62Z" style="fill:#e0e0e0"></path></g></g><g id="freepik--Device--inject-254"><g id="freepik--Mobile--inject-254"><path d="M299.45,333.93V87.86c0-6.33,3.15-8.08,5.94-9.69s7.39-2.59,11.36-.3l101.61,58.67A15.87,15.87,0,0,1,425.55,149V395.05c0,4.59-2.88,7.29-5.67,8.9s-7.66,3.38-11.63,1.09L306.64,346.38A13.53,13.53,0,0,1,299.45,333.93Z" style="fill:#37474f"></path><path d="M305.91,336.26,410.4,396.58l0-247.13,13.07-7.55a14.69,14.69,0,0,1,2.11,7.08V395.05c0,4.59-2.88,7.29-5.67,8.9s-7.66,3.38-11.63,1.09L306.64,346.38a13.81,13.81,0,0,1-6.23-6.95l.41-.23Z" style="fill:#263238"></path><path d="M301.11,89V334.67a12.66,12.66,0,0,0,5.71,9.9L406,401.84c4.26,2.46,7.75.45,7.75-4.47V153.3a11.16,11.16,0,0,0-5-8.73L306.82,85.73C303.68,83.92,301.11,85.4,301.11,89Z" style="fill:#455a64"></path><path d="M306.08,100.7V328.85a12,12,0,0,0,5.43,9.41l91.87,53c3,1.74,5.42.34,5.42-3.13V158.34a12.13,12.13,0,0,0-3.81-8.18l-.51-.46a10.83,10.83,0,0,0-1.1-.76L377.54,134l-1.69-1c-.93-.54-1.68-.11-1.68,1s-.81,1.49-1.8.91l-30.12-17.39a3.89,3.89,0,0,1-1.8-3,3.81,3.81,0,0,0-1.51-2.82l-.17-.11L313.49,97.05l-.54-.32C309.17,94.55,306.08,96.33,306.08,100.7Z"></path><path d="M319.39,332.17a12,12,0,0,1-5.42-9.41V97.32l24.8,14.31.17.11a3.81,3.81,0,0,1,1.51,2.82,3.89,3.89,0,0,0,1.8,3l30.12,17.39c1,.58,1.8.16,1.8-.91s.75-1.51,1.68-1l1.69,1,25.84,14.92a10.83,10.83,0,0,1,1.1.76l.51.46a12.13,12.13,0,0,1,3.81,8.18V383.79Z" style="fill:#263238"></path><path d="M367.79,125.74l-13.8-8c-.82-.47-1.49-.13-1.49.76A3.19,3.19,0,0,0,354,121l13.8,8c.83.48,1.49.14,1.49-.75A3.2,3.2,0,0,0,367.79,125.74Z" style="fill:#263238"></path><path d="M346.91,113c-.93-.54-1.68-.1-1.68,1a3.72,3.72,0,0,0,1.68,2.91c.92.53,1.68.1,1.68-1A3.74,3.74,0,0,0,346.91,113Z" style="fill:#263238"></path><path d="M416.12,178.51a6.08,6.08,0,0,1,2.66-4.81,1.77,1.77,0,0,1,1.82-.15c.33.2,1.64.93,2,1.14a2.09,2.09,0,0,1,.82,1.89v20a6.07,6.07,0,0,1-2.66,4.8,1.8,1.8,0,0,1-1.75.19c-.37-.2-1.71-1-2.06-1.18a2.07,2.07,0,0,1-.82-1.88Z" style="fill:#455a64"></path><path d="M418.1,179.64v20.05c0,1.81,1.19,2.59,2.66,1.74a6.07,6.07,0,0,0,2.66-4.8v-20c0-1.81-1.19-2.58-2.66-1.74A6.07,6.07,0,0,0,418.1,179.64Z" style="fill:#37474f"></path><path d="M416.12,213.6a6.08,6.08,0,0,1,2.66-4.81,1.79,1.79,0,0,1,1.82-.15c.33.21,1.64.94,2,1.14a2.11,2.11,0,0,1,.82,1.89v20.05a6,6,0,0,1-2.66,4.8,1.8,1.8,0,0,1-1.75.19c-.37-.19-1.71-1-2.06-1.17a2.11,2.11,0,0,1-.82-1.89Z" style="fill:#455a64"></path><path d="M418.1,214.74v20c0,1.8,1.19,2.58,2.66,1.73a6,6,0,0,0,2.66-4.8V211.67c0-1.81-1.19-2.58-2.66-1.74A6.07,6.07,0,0,0,418.1,214.74Z" style="fill:#37474f"></path></g></g><g id="freepik--Screen--inject-254"><g id="freepik--window--inject-254"><g id="freepik--window--inject-254"><path d="M308,105c1.2-.68,2.85-.59,4.67.46l.52.31,24.41,14.09a1,1,0,0,1,.17.1,3.69,3.69,0,0,1,1.46,2.73A3.74,3.74,0,0,0,341,125.6l29.08,16.79.07,0a1.12,1.12,0,0,1,.47-1l1.68-1a1.14,1.14,0,0,1,1.15.12l1.63.94L400,155.93a8.82,8.82,0,0,1,1.07.73c.17.14.33.29.49.45a11.7,11.7,0,0,1,3.68,7.9V387a3.68,3.68,0,0,1-1.53,3.39l-1.69,1a3.69,3.69,0,0,1-3.7-.38l-88.72-51.22a11.6,11.6,0,0,1-5.24-9.09V110.3c0-2.1.74-3.58,1.94-4.28Z" style="fill:#BA68C8"></path><path d="M397.85,390.24v.44l.5.28a3.69,3.69,0,0,0,3.7.38l1.69-1a3.68,3.68,0,0,0,1.53-3.39V165a10.9,10.9,0,0,0-1.81-5.6l-2,1.15a10.62,10.62,0,0,1,1.76,5.42v222a4.07,4.07,0,0,1-.72,2.53,2.24,2.24,0,0,1-1.8.85,4.47,4.47,0,0,1-2.16-.68Z" style="opacity:0.30000000000000004"></path><path d="M336.6,122a3.09,3.09,0,0,1,.61,1.69,3.69,3.69,0,0,0,.65,2l2-1.16a3.31,3.31,0,0,1-.61-1.76,3.48,3.48,0,0,0-.66-1.88Z" style="opacity:0.30000000000000004"></path><path d="M400.7,391.31a2.22,2.22,0,0,0,1.8-.84,4,4,0,0,0,.72-2.53V166a11.37,11.37,0,0,0-3.56-7.63l-.16-.15c-.11-.1-.21-.2-.33-.29a7.78,7.78,0,0,0-1-.69l-25-14.41-1.63-.94a1.12,1.12,0,0,0-.54-.17c-.47,0-.52.55-.52.79a1.34,1.34,0,0,1-1.3,1.5,1.91,1.91,0,0,1-1-.31l-29.09-16.79a4.07,4.07,0,0,1-1.92-3.2,3.31,3.31,0,0,0-1.3-2.42l-.14-.08L311.36,107.1l-.53-.31a5.7,5.7,0,0,0-2.76-.85c-2,0-3.31,1.68-3.31,4.36V330.65a11.18,11.18,0,0,0,5.05,8.76l88.73,51.23A4.41,4.41,0,0,0,400.7,391.31Z" style="fill:#fafafa"></path><path d="M308.07,106a5.68,5.68,0,0,1,2.76.84l.53.31,24.41,14.09.14.09a3.28,3.28,0,0,1,1.3,2.42,4.1,4.1,0,0,0,1.92,3.2l29.08,16.78a2,2,0,0,0,1,.31,1.33,1.33,0,0,0,1.29-1.5c0-.24.06-.79.53-.79a1.12,1.12,0,0,1,.54.17l1.63.94,25,14.41a9,9,0,0,1,1,.69l.33.29.16.15a11.37,11.37,0,0,1,3.56,7.63V191.9L304.76,135V110.3C304.76,107.62,306,106,308.07,106Z" style="fill:#BA68C8"></path><g style="opacity:0.30000000000000004"><path d="M308.07,106a5.68,5.68,0,0,1,2.76.84l.53.31,24.41,14.09.14.09a3.28,3.28,0,0,1,1.3,2.42,4.1,4.1,0,0,0,1.92,3.2l29.08,16.78a2,2,0,0,0,1,.31,1.33,1.33,0,0,0,1.29-1.5c0-.24.06-.79.53-.79a1.12,1.12,0,0,1,.54.17l1.63.94,25,14.41a9,9,0,0,1,1,.69l.33.29.16.15a11.37,11.37,0,0,1,3.56,7.63V191.9L304.76,135V110.3C304.76,107.62,306,106,308.07,106Z" style="fill:#fff"></path></g><path d="M310.94,116.63a.12.12,0,0,1,0,.1.08.08,0,0,1-.09,0l-.2-.11a.2.2,0,0,1-.09-.11.25.25,0,0,1,0-.14v-3.58l-.79.34s-.06,0-.1,0a.2.2,0,0,1-.09-.11l-.12-.27a.26.26,0,0,1,0-.15.08.08,0,0,1,.05-.08l1-.47h.08l.08,0,.2.12a.3.3,0,0,1,.09.1.28.28,0,0,1,0,.15Z" style="fill:#fafafa"></path><path d="M313,117.81a.11.11,0,0,1,0,.1.07.07,0,0,1-.09,0l-.2-.12a.18.18,0,0,1-.09-.1.28.28,0,0,1,0-.15V114l-.79.35a.1.1,0,0,1-.1,0,.38.38,0,0,1-.09-.12l-.11-.27a.19.19,0,0,1,0-.14c0-.05,0-.08,0-.09l1-.46h.08l.08,0,.2.11a.35.35,0,0,1,.09.11.27.27,0,0,1,0,.14Z" style="fill:#fafafa"></path><path d="M314.14,115.59a.18.18,0,0,1,.09.1.28.28,0,0,1,0,.15v.44a.12.12,0,0,1,0,.1s-.05,0-.09,0l-.33-.18a.35.35,0,0,1-.09-.11.42.42,0,0,1,0-.15v-.43a.13.13,0,0,1,0-.1.07.07,0,0,1,.09,0Zm0,2.27a.2.2,0,0,1,.09.11.27.27,0,0,1,0,.14v.44a.11.11,0,0,1,0,.1s-.05,0-.09,0l-.33-.19a.35.35,0,0,1-.09-.11.33.33,0,0,1,0-.14v-.44a.15.15,0,0,1,0-.1.07.07,0,0,1,.09,0Z" style="fill:#fafafa"></path><path d="M315.27,118.12a1.46,1.46,0,0,0,.28.64,1.67,1.67,0,0,0,.49.47.83.83,0,0,0,.31.11.33.33,0,0,0,.24,0,.38.38,0,0,0,.17-.2,1,1,0,0,0,.06-.38,1.65,1.65,0,0,0-.23-.84,1.83,1.83,0,0,0-.24-.31,1.72,1.72,0,0,0-.31-.24.66.66,0,0,0-.29-.11.51.51,0,0,0-.18,0l-.13.05a.21.21,0,0,1-.13,0l-.25-.15A.19.19,0,0,1,315,117a.27.27,0,0,1,0-.12l.14-2.09a.15.15,0,0,1,0-.1.09.09,0,0,1,.1,0l1.71,1a.24.24,0,0,1,.1.1.42.42,0,0,1,0,.15v.23a.13.13,0,0,1,0,.1.09.09,0,0,1-.1,0l-1.41-.82-.08,1.08.23,0a1.44,1.44,0,0,1,.35.16,2.11,2.11,0,0,1,.48.38,2.63,2.63,0,0,1,.4.53,2.89,2.89,0,0,1,.26.63,2.37,2.37,0,0,1,.1.7,1.37,1.37,0,0,1-.1.58.68.68,0,0,1-.26.33.66.66,0,0,1-.4.08,1.3,1.3,0,0,1-.48-.18,2.14,2.14,0,0,1-.46-.36,2.28,2.28,0,0,1-.39-.48,2.81,2.81,0,0,1-.27-.55,1.65,1.65,0,0,1-.11-.57.11.11,0,0,1,0-.08h.08l.22.13a.3.3,0,0,1,.08.08A.46.46,0,0,1,315.27,118.12Z" style="fill:#fafafa"></path><path d="M318.15,119.87a2.17,2.17,0,0,0,.07.24,1.11,1.11,0,0,0,.13.27,2.53,2.53,0,0,0,.23.26,2.08,2.08,0,0,0,.38.27.94.94,0,0,0,.28.12.37.37,0,0,0,.24,0,.33.33,0,0,0,.17-.16.75.75,0,0,0,.06-.33,1.23,1.23,0,0,0-.06-.39,1.07,1.07,0,0,0-.16-.32,1.22,1.22,0,0,0-.24-.27,1.94,1.94,0,0,0-.29-.21l-.41-.23a.35.35,0,0,1-.09-.11.27.27,0,0,1,0-.14v-.24a.12.12,0,0,1,0-.09l.05-.06.88-.75L318,116.9a.35.35,0,0,1-.09-.11.27.27,0,0,1,0-.14v-.24a.12.12,0,0,1,0-.1.08.08,0,0,1,.09,0l1.92,1.11a.27.27,0,0,1,.1.11.39.39,0,0,1,0,.14v.24a.16.16,0,0,1,0,.1l-.06.07-.87.74a2,2,0,0,1,.45.36,2.73,2.73,0,0,1,.35.47,2.34,2.34,0,0,1,.3,1.14,1.14,1.14,0,0,1-.1.53.54.54,0,0,1-.26.29.6.6,0,0,1-.38.06,1.2,1.2,0,0,1-.47-.18,2.48,2.48,0,0,1-.57-.42,3.49,3.49,0,0,1-.39-.49,2.25,2.25,0,0,1-.22-.51,1.54,1.54,0,0,1-.08-.46s0-.07,0-.08,0,0,.07,0l.23.13a.24.24,0,0,1,.08.09A.28.28,0,0,1,318.15,119.87Z" style="fill:#fafafa"></path><path d="M325.76,121h0m0,0-1.51,3.38v-2.23l-1.67-1,3.18-.19m0-.39,0,0a.46.46,0,0,0-.18-.15l-.08,0h0l-3.17.2c-.12,0-.12.21,0,.49a2.19,2.19,0,0,0,.29.47,1.37,1.37,0,0,0,.19.17l1.1.63v1.57a1.53,1.53,0,0,0,.33.76l.06.07c.16.19.31.25.36.14l1.49-3.36a.18.18,0,0,0,0-.11,1.55,1.55,0,0,0-.38-.82Zm0,.77Z" style="fill:#fafafa"></path><polygon points="377.85 155.38 377.03 154.91 377.03 153.31 377.85 153.78 377.85 155.38" style="fill:#fafafa"></polygon><polygon points="379.14 156.13 378.32 155.66 378.32 153.37 379.14 153.84 379.14 156.13" style="fill:#fafafa"></polygon><polygon points="380.43 156.87 379.62 156.4 379.62 153.26 380.43 153.73 380.43 156.87" style="fill:#fafafa"></polygon><polygon points="381.73 157.62 380.91 157.15 380.91 153.17 381.73 153.64 381.73 157.62" style="fill:#BA68C8"></polygon><path d="M387.41,156.81a1.93,1.93,0,0,0-2.16-.07l.54,1a1.43,1.43,0,0,1,1.62.05,4.62,4.62,0,0,1,1.63,1.82l.53-.43A6.19,6.19,0,0,0,387.41,156.81ZM386,158.2l.49,1a.83.83,0,0,1,.92,0,2.58,2.58,0,0,1,.92,1l.5-.39a4,4,0,0,0-1.42-1.59A1.25,1.25,0,0,0,386,158.2Zm.73,1.42.68,1.33.69-.55a2,2,0,0,0-.69-.77A.58.58,0,0,0,386.73,159.62Z" style="fill:#fafafa"></path><path d="M397.25,162.6a1.27,1.27,0,0,1,.53,1v2.57c0,.39-.24.57-.53.4l-4.58-2.64a1.27,1.27,0,0,1-.53-1v-2.57c0-.39.23-.56.53-.4l4.58,2.65m0-.22-4.58-2.65c-.39-.22-.7,0-.7.53v2.57a1.67,1.67,0,0,0,.7,1.33l4.58,2.64c.38.22.7,0,.7-.52v-2.57a1.68,1.68,0,0,0-.7-1.33Z" style="fill:#BA68C8"></path><path d="M395.4,164.87l-2.59-1.49a.51.51,0,0,1-.21-.41v-2.13c0-.16.09-.23.21-.16l2.59,1.49a.53.53,0,0,1,.21.41v2.13C395.61,164.87,395.51,164.94,395.4,164.87Z" style="fill:#fafafa"></path><path d="M398.44,166l-.19-.1v-1.39l.19.1a1.28,1.28,0,0,1,.18.8C398.62,165.77,398.54,166,398.44,166Z" style="fill:#BA68C8"></path><path d="M389.7,171.3l8.33,4.81c.22.13.41-.05.41-.4a1.1,1.1,0,0,0-.41-.87L389.7,170c-.23-.13-.41.05-.41.4A1.07,1.07,0,0,0,389.7,171.3Zm8.33,7-8.33-4.81c-.23-.13-.41.05-.41.39a1.07,1.07,0,0,0,.41.87l8.33,4.81c.22.13.41,0,.41-.39A1.1,1.1,0,0,0,398,178.28Zm0,3.44-8.33-4.81c-.23-.13-.41,0-.41.39a1.07,1.07,0,0,0,.41.87L398,183c.22.13.41,0,.41-.4A1.1,1.1,0,0,0,398,181.72Z" style="fill:#fafafa"></path><path d="M308.07,106.32a5.26,5.26,0,0,1,2.58.8l.52.3,24.41,14.09.11.07a2.92,2.92,0,0,1,1.14,2.11,4.5,4.5,0,0,0,2.12,3.53L368,144a2.39,2.39,0,0,0,1.19.35,1.7,1.7,0,0,0,1.67-1.87c0-.05,0-.42.15-.42a.73.73,0,0,1,.35.12l1.63.94,25,14.41a8,8,0,0,1,1,.67c.09.07.19.17.29.26l.17.16a11,11,0,0,1,3.44,7.35v222c0,1.88-.81,3-2.15,3a4.12,4.12,0,0,1-2-.62L310,339.09a10.93,10.93,0,0,1-4.87-8.44V110.3c0-2.49,1.1-4,2.94-4h0m0-.75c-2.18,0-3.68,1.74-3.68,4.73V330.65a11.6,11.6,0,0,0,5.24,9.09L398.35,391a4.78,4.78,0,0,0,2.35.73c1.71,0,2.89-1.38,2.89-3.75V166a11.74,11.74,0,0,0-3.68-7.91c-.16-.15-.32-.3-.49-.44a7.81,7.81,0,0,0-1.07-.73l-25-14.41-1.63-.94a1.48,1.48,0,0,0-.73-.22c-.53,0-.9.42-.9,1.16s-.37,1.13-.92,1.13a1.73,1.73,0,0,1-.82-.26l-29.08-16.79a3.74,3.74,0,0,1-1.74-2.88,3.67,3.67,0,0,0-1.46-2.72,1,1,0,0,0-.17-.1l-24.41-14.09-.52-.31a6,6,0,0,0-2.95-.9Z" style="fill:#BA68C8"></path></g><path d="M363.18,236.69c-4.19,2.42-10,2.07-16.38-1.62-12.8-7.39-23.17-25.36-23.17-40.13,0-7.39,2.59-12.58,6.78-15l4.84-2.8c4.2-2.42,10-2.07,16.39,1.62,12.79,7.39,23.17,25.36,23.17,40.13,0,7.39-2.6,12.58-6.79,15Z" style="fill:#BA68C8"></path><path d="M323.63,194.94c0-7.39,2.59-12.58,6.78-15s10-2.07,16.39,1.62C359.59,189,370,206.92,370,221.69c0,7.39-2.6,12.58-6.79,15s-10,2.07-16.38-1.62C334,227.68,323.63,209.71,323.63,194.94Z" style="fill:#BA68C8"></path><path d="M323.63,194.94c0-7.39,2.59-12.58,6.78-15s10-2.07,16.39,1.62C359.59,189,370,206.92,370,221.69c0,7.39-2.6,12.58-6.79,15s-10,2.07-16.38-1.62C334,227.68,323.63,209.71,323.63,194.94Z" style="fill:#fff;opacity:0.30000000000000004"></path><polygon points="342.45 221.29 334.24 208.16 338.29 203.44 343.13 211.21 354.93 197.46 358.3 202.82 342.45 221.29" style="fill:#fff"></polygon><path d="M316.56,240.11c0,.16,0,.38,0,.66s0,.58,0,.88,0,.6,0,.9,0,.52,0,.68a5.41,5.41,0,0,0,.11.89,3.43,3.43,0,0,0,.72,1.58,2.76,2.76,0,0,0,.69.57,1.43,1.43,0,0,0,.68.24.66.66,0,0,0,.43-.11.7.7,0,0,0,.26-.32,2.49,2.49,0,0,0,.14-.41.88.88,0,0,1,.13-.34c0-.05.14,0,.28,0l1.58.92a.41.41,0,0,1,.19.23.8.8,0,0,1,.08.33,4.28,4.28,0,0,1-.3,1.61,2.12,2.12,0,0,1-.8,1,2,2,0,0,1-1.19.29,3.23,3.23,0,0,1-1.48-.49,6,6,0,0,1-1.55-1.3,8.17,8.17,0,0,1-1.17-1.76,9.36,9.36,0,0,1-.74-2,10.42,10.42,0,0,1-.3-2.11c0-.52,0-1.07,0-1.65s0-1.14,0-1.66a5.87,5.87,0,0,1,.29-1.78,2.67,2.67,0,0,1,.75-1.18,1.67,1.67,0,0,1,1.16-.42,3.24,3.24,0,0,1,1.56.5,6.45,6.45,0,0,1,1.48,1.22,9.3,9.3,0,0,1,1.19,1.66,9.5,9.5,0,0,1,.8,1.92,7.59,7.59,0,0,1,.3,2,.33.33,0,0,1-.08.24c0,.05-.11.05-.19,0L320,242a.63.63,0,0,1-.28-.28,2.33,2.33,0,0,1-.13-.5,5.71,5.71,0,0,0-.14-.56,3.36,3.36,0,0,0-.26-.63,3.79,3.79,0,0,0-.43-.61,2.89,2.89,0,0,0-.68-.54,1.27,1.27,0,0,0-.69-.22.66.66,0,0,0-.46.21,1.15,1.15,0,0,0-.26.53A3.47,3.47,0,0,0,316.56,240.11Z" style="fill:#BA68C8"></path><path d="M322.82,243.63a6.27,6.27,0,0,1,.29-1.79,2.61,2.61,0,0,1,.74-1.18,1.86,1.86,0,0,1,1.16-.41,3.21,3.21,0,0,1,1.58.52,5.89,5.89,0,0,1,1.57,1.3,8.62,8.62,0,0,1,1.17,1.75,10,10,0,0,1,.73,2,10.51,10.51,0,0,1,.3,2.13c0,.55,0,1.11,0,1.69s0,1.13,0,1.63a6.31,6.31,0,0,1-.3,1.79,2.65,2.65,0,0,1-.73,1.18,1.71,1.71,0,0,1-1.17.41,3.36,3.36,0,0,1-1.57-.52,6.16,6.16,0,0,1-1.58-1.3,8.44,8.44,0,0,1-1.16-1.75,10,10,0,0,1-.74-2,10.58,10.58,0,0,1-.29-2.14q0-.78,0-1.65C322.79,244.71,322.8,244.15,322.82,243.63Zm5.3,6.28c0-.22,0-.46,0-.73s0-.54,0-.83,0-.56,0-.83,0-.52,0-.73a5.63,5.63,0,0,0-.12-.93,4.47,4.47,0,0,0-.29-.85,3.19,3.19,0,0,0-.47-.72,2.64,2.64,0,0,0-.65-.55,1.39,1.39,0,0,0-.65-.21.71.71,0,0,0-.47.19,1.14,1.14,0,0,0-.29.51,3.33,3.33,0,0,0-.13.78c0,.21,0,.44,0,.7v1.67c0,.27,0,.53,0,.76a5,5,0,0,0,.42,1.78,2.61,2.61,0,0,0,1.12,1.26q.75.44,1.11,0A2.15,2.15,0,0,0,328.12,249.91Z" style="fill:#BA68C8"></path><path d="M337.27,260.14a.83.83,0,0,1-.33-.36,2.56,2.56,0,0,1-.17-.35l-2.76-8v6.29a.37.37,0,0,1-.1.29.17.17,0,0,1-.23,0l-1.58-.91a.58.58,0,0,1-.23-.29.85.85,0,0,1-.1-.4v-12a.38.38,0,0,1,.1-.3.18.18,0,0,1,.23,0l1.25.73a.91.91,0,0,1,.34.36,2.76,2.76,0,0,1,.16.35l2.77,8v-6.29a.4.4,0,0,1,.09-.29.17.17,0,0,1,.23,0l1.59.91a.7.7,0,0,1,.23.29,1,1,0,0,1,.09.41v12a.41.41,0,0,1-.09.3.18.18,0,0,1-.23,0Z" style="fill:#BA68C8"></path><path d="M346.39,252.39a.55.55,0,0,1,.23.28.86.86,0,0,1,.1.41v2a.39.39,0,0,1-.1.3.18.18,0,0,1-.23,0l-3.61-2.08v2.55l3.37,1.94a.6.6,0,0,1,.23.28.91.91,0,0,1,.1.41v2a.37.37,0,0,1-.1.29.18.18,0,0,1-.23,0l-3.37-1.95v4a.38.38,0,0,1-.1.3.18.18,0,0,1-.23,0l-1.58-.92a.61.61,0,0,1-.23-.28,1,1,0,0,1-.09-.41v-12a.45.45,0,0,1,.09-.3.18.18,0,0,1,.23,0Z" style="fill:#BA68C8"></path><path d="M348.33,266.53a.58.58,0,0,1-.23-.29.85.85,0,0,1-.1-.4v-12a.38.38,0,0,1,.1-.3.18.18,0,0,1,.23,0l1.58.92a.55.55,0,0,1,.23.28,1,1,0,0,1,.1.41v12a.4.4,0,0,1-.1.29.17.17,0,0,1-.23,0Z" style="fill:#BA68C8"></path><path d="M355.53,257.66a7.35,7.35,0,0,1,1.43,1.08,6.88,6.88,0,0,1,1.06,1.4,6.71,6.71,0,0,1,.68,1.72,8.25,8.25,0,0,1,.24,2,4.6,4.6,0,0,1-.38,2.1,1.37,1.37,0,0,1-1.06.79l1.5,5.29a1.11,1.11,0,0,1,0,.23.33.33,0,0,1-.07.24.14.14,0,0,1-.19,0l-1.64-.94a.83.83,0,0,1-.35-.37,2.85,2.85,0,0,1-.16-.43l-1.34-4.76-1.12-.64v4a.41.41,0,0,1-.09.3.18.18,0,0,1-.23,0l-1.58-.92a.62.62,0,0,1-.24-.28,1,1,0,0,1-.09-.41v-12a.4.4,0,0,1,.09-.29.18.18,0,0,1,.24,0Zm-1.37,4.85,1.37.79a1.11,1.11,0,0,0,.84.19c.22-.07.33-.37.33-.89a2.22,2.22,0,0,0-.33-1.27,2.41,2.41,0,0,0-.84-.78l-1.37-.79Z" style="fill:#BA68C8"></path><path d="M363.86,272.21a3,3,0,0,1-.16-.4l-1.14-3.73v6.16a.41.41,0,0,1-.09.3.18.18,0,0,1-.23,0l-1.59-.92a.61.61,0,0,1-.23-.28,1,1,0,0,1-.09-.41v-12a.45.45,0,0,1,.09-.3.18.18,0,0,1,.23,0l1.41.81a.85.85,0,0,1,.36.41l.16.39,1.95,6.28,2-4a1,1,0,0,1,.16-.21c.08-.09.2-.08.36,0l1.4.81a.55.55,0,0,1,.23.28.88.88,0,0,1,.1.41v12a.4.4,0,0,1-.1.3.18.18,0,0,1-.23,0l-1.58-.91a.6.6,0,0,1-.23-.28,1.07,1.07,0,0,1-.1-.41v-6.16l-1.13,2.41a.87.87,0,0,1-.17.22c-.06.06-.16.06-.28,0l-.77-.45A.65.65,0,0,1,363.86,272.21Z" style="fill:#BA68C8"></path><path d="M376.48,279.81a.55.55,0,0,1,.23.28.86.86,0,0,1,.1.41v2a.39.39,0,0,1-.1.3.18.18,0,0,1-.23,0l-5.72-3.3a.63.63,0,0,1-.23-.29.86.86,0,0,1-.1-.41v-12a.38.38,0,0,1,.1-.3.18.18,0,0,1,.23,0l5.63,3.25a.67.67,0,0,1,.23.28,1,1,0,0,1,.09.41v2a.4.4,0,0,1-.09.29.17.17,0,0,1-.23,0l-3.72-2.15v2l3.45,2a.55.55,0,0,1,.23.28.86.86,0,0,1,.1.41v2a.4.4,0,0,1-.1.3.18.18,0,0,1-.23,0l-3.45-2v2.08Z" style="fill:#BA68C8"></path><path d="M381.73,272.79a6.18,6.18,0,0,1,1.52,1.26,8.3,8.3,0,0,1,1.19,1.75,10,10,0,0,1,.79,2.1,11,11,0,0,1,.32,2.28c0,.27,0,.51,0,.73v1.23c0,.21,0,.44,0,.68a6.4,6.4,0,0,1-.32,1.92,2.65,2.65,0,0,1-.76,1.2,1.79,1.79,0,0,1-1.17.4,3.21,3.21,0,0,1-1.51-.49L378.53,284a.55.55,0,0,1-.23-.28.88.88,0,0,1-.1-.41v-12a.4.4,0,0,1,.1-.3.18.18,0,0,1,.23,0Zm1.58,6a3.4,3.4,0,0,0-1.64-3.09l-1.23-.71v7.07l1.29.74c1,.59,1.54.18,1.58-1.22,0-.26,0-.5,0-.73v-1.33C383.32,279.33,383.32,279.08,383.31,278.82Z" style="fill:#BA68C8"></path><path d="M325.44,268.15l-3.2-1.85-.48,1.61a.41.41,0,0,1-.1.18c-.05.05-.13,0-.25,0l-.35-.2a.41.41,0,0,1-.14-.17.62.62,0,0,1-.06-.26.45.45,0,0,1,0-.18l2.26-7.65a.76.76,0,0,1,.13-.23c.07-.07.16-.07.28,0l.55.32a.67.67,0,0,1,.28.32,2.66,2.66,0,0,1,.14.39l2.25,10.25a1.78,1.78,0,0,1,0,.22.26.26,0,0,1-.07.19s-.08,0-.14,0l-.34-.2a.61.61,0,0,1-.26-.27,1.43,1.43,0,0,1-.1-.29Zm-2.87-2.94,2.55,1.47-1.27-5.8Z" style="fill:#455a64"></path><path d="M331.1,263.72a.46.46,0,0,1,.18.22.82.82,0,0,1,.07.31v.51a.37.37,0,0,1-.07.23.15.15,0,0,1-.18,0l-1.72-1v8.28a.28.28,0,0,1-.08.22.13.13,0,0,1-.17,0l-.38-.22a.44.44,0,0,1-.17-.22.68.68,0,0,1-.08-.31V263.5l-1.72-1a.48.48,0,0,1-.18-.21.92.92,0,0,1-.07-.31v-.51a.35.35,0,0,1,.07-.23.14.14,0,0,1,.18,0Z" style="fill:#455a64"></path><path d="M336.34,266.75a.48.48,0,0,1,.18.21.74.74,0,0,1,.07.32v.51a.28.28,0,0,1-.07.22.14.14,0,0,1-.18,0l-1.72-1v8.27a.3.3,0,0,1-.07.23.14.14,0,0,1-.18,0l-.37-.22a.43.43,0,0,1-.18-.21.7.7,0,0,1-.07-.31v-8.27l-1.73-1a.54.54,0,0,1-.17-.21.76.76,0,0,1-.08-.32v-.51a.28.28,0,0,1,.08-.22.14.14,0,0,1,.17,0Z" style="fill:#455a64"></path><path d="M341.57,278.42a.46.46,0,0,1,.18.22.82.82,0,0,1,.07.31v.51a.37.37,0,0,1-.07.23.15.15,0,0,1-.18,0l-3.72-2.15a.46.46,0,0,1-.18-.22.67.67,0,0,1-.07-.31v-9.16a.3.3,0,0,1,.07-.23.14.14,0,0,1,.18,0l3.65,2.1a.51.51,0,0,1,.17.22.71.71,0,0,1,.08.31v.51a.3.3,0,0,1-.08.23.12.12,0,0,1-.17,0l-3-1.74v3l2.82,1.63a.48.48,0,0,1,.18.21.73.73,0,0,1,.07.31v.51a.3.3,0,0,1-.07.23.14.14,0,0,1-.18,0l-2.82-1.62v3.1Z" style="fill:#455a64"></path><path d="M347.29,283a.57.57,0,0,1-.21-.26c-.06-.12-.11-.25-.16-.38l-3-8.66v7a.32.32,0,0,1-.07.22.14.14,0,0,1-.18,0l-.38-.22a.51.51,0,0,1-.17-.22.68.68,0,0,1-.08-.31V271a.3.3,0,0,1,.08-.23.12.12,0,0,1,.17,0l.32.18a.58.58,0,0,1,.22.26,3,3,0,0,1,.15.38l3,8.67v-7a.3.3,0,0,1,.07-.23.14.14,0,0,1,.18,0l.38.22a.54.54,0,0,1,.17.21.73.73,0,0,1,.07.31V283a.32.32,0,0,1-.07.23.14.14,0,0,1-.17,0Z" style="fill:#455a64"></path><path d="M354.45,281.05c0,.43,0,.81,0,1.13s0,.69,0,1.11a4.88,4.88,0,0,1-.2,1.49,2,2,0,0,1-.53.91,1.14,1.14,0,0,1-.81.29,2.18,2.18,0,0,1-1.05-.34l-2.16-1.25a.48.48,0,0,1-.18-.21.74.74,0,0,1-.07-.32V274.7a.3.3,0,0,1,.07-.23.14.14,0,0,1,.18,0l2.11,1.22a4.27,4.27,0,0,1,1.05.87,5.51,5.51,0,0,1,.84,1.24,7.9,7.9,0,0,1,.55,1.53A7.52,7.52,0,0,1,354.45,281.05Zm-.87-.43a6.24,6.24,0,0,0-.11-1.05,4.31,4.31,0,0,0-.31-1,3.68,3.68,0,0,0-.55-.91,3,3,0,0,0-.84-.71l-1.44-.83v7.38l1.49.86a1.51,1.51,0,0,0,.83.26.72.72,0,0,0,.54-.28,1.53,1.53,0,0,0,.29-.67,5.41,5.41,0,0,0,.1-.93v-.56c0-.17,0-.33,0-.48s0-.32,0-.49Z" style="fill:#455a64"></path><path d="M359.61,287.87l-3.2-1.85-.48,1.61a.4.4,0,0,1-.1.18c-.05.05-.14,0-.26,0l-.34-.2a.35.35,0,0,1-.14-.17.62.62,0,0,1-.06-.26.67.67,0,0,1,0-.17l2.26-7.65a.59.59,0,0,1,.14-.23c.06-.07.15-.07.28,0l.55.32a.71.71,0,0,1,.28.31,2.32,2.32,0,0,1,.13.4L361,290.38a.79.79,0,0,1,0,.22.24.24,0,0,1-.06.18.11.11,0,0,1-.14,0l-.34-.19a.66.66,0,0,1-.26-.27,1.05,1.05,0,0,1-.1-.3Zm-2.88-2.94,2.55,1.48-1.27-5.8Z" style="fill:#455a64"></path><path d="M366.18,293.9a.5.5,0,0,1-.22-.25,3,3,0,0,1-.15-.38l-3-8.67v7a.32.32,0,0,1-.07.23.15.15,0,0,1-.18,0l-.37-.22a.48.48,0,0,1-.18-.21.74.74,0,0,1-.07-.32v-9.16a.3.3,0,0,1,.07-.23.14.14,0,0,1,.18,0l.32.19a.55.55,0,0,1,.22.25l.15.38,3,8.67v-7A.32.32,0,0,1,366,284a.13.13,0,0,1,.17,0l.38.22a.41.41,0,0,1,.17.21.76.76,0,0,1,.08.32v9.16a.3.3,0,0,1-.08.23c0,.05-.1.05-.17,0Z" style="fill:#455a64"></path><path d="M369,289.36c0,.42,0,.81,0,1.18s0,.77,0,1.2a5.7,5.7,0,0,0,.46,2.18,3.14,3.14,0,0,0,1.26,1.46,1.76,1.76,0,0,0,.75.26.8.8,0,0,0,.5-.15,1,1,0,0,0,.31-.44,3.89,3.89,0,0,0,.16-.61q0-.15.09-.18a.16.16,0,0,1,.15,0l.42.25a.35.35,0,0,1,.14.17.62.62,0,0,1,.06.26,3.35,3.35,0,0,1-.15.93,1.9,1.9,0,0,1-.46.78,1.24,1.24,0,0,1-.79.36,2.05,2.05,0,0,1-1.18-.36,4.14,4.14,0,0,1-1.07-.9,6.07,6.07,0,0,1-.8-1.27,6.9,6.9,0,0,1-.52-1.51,8.38,8.38,0,0,1-.21-1.66c0-.85,0-1.7,0-2.53a5.24,5.24,0,0,1,.21-1.41,2,2,0,0,1,.52-.92,1.19,1.19,0,0,1,.8-.34,2.05,2.05,0,0,1,1.07.33,4.21,4.21,0,0,1,1.18,1,6.79,6.79,0,0,1,1.25,2.58,5.68,5.68,0,0,1,.15,1.12.24.24,0,0,1-.06.18s-.08,0-.14,0l-.42-.25a.39.39,0,0,1-.15-.16.62.62,0,0,1-.09-.29c0-.25-.09-.52-.16-.79a3.81,3.81,0,0,0-.31-.79,3.51,3.51,0,0,0-.5-.73,2.65,2.65,0,0,0-.75-.6q-.81-.48-1.26,0A2.53,2.53,0,0,0,369,289.36Z" style="fill:#455a64"></path><path d="M378.45,299.72a.43.43,0,0,1,.18.21.73.73,0,0,1,.07.31v.51a.3.3,0,0,1-.07.23.14.14,0,0,1-.18,0l-3.72-2.15a.48.48,0,0,1-.18-.21.92.92,0,0,1-.07-.31v-9.17a.37.37,0,0,1,.07-.23.15.15,0,0,1,.18,0l3.65,2.11a.41.41,0,0,1,.17.21.75.75,0,0,1,.08.31v.52a.28.28,0,0,1-.08.22c0,.05-.1.05-.17,0l-3-1.74v3l2.82,1.63a.51.51,0,0,1,.17.22.67.67,0,0,1,.07.31v.51a.32.32,0,0,1-.07.23.14.14,0,0,1-.17,0l-2.82-1.63v3.11Z" style="fill:#455a64"></path><path d="M392.32,368.88l-76.66-44.26a5.2,5.2,0,0,1-2-4.19V283.61c0-1.68.88-2.53,2-1.9L392.32,326a5.23,5.23,0,0,1,2,4.19V367C394.3,368.66,393.41,369.51,392.32,368.88Z" style="fill:#fafafa"></path><path d="M393,369.54a1.83,1.83,0,0,1-.92-.27L315.43,325a5.66,5.66,0,0,1-2.2-4.58V283.61a2.62,2.62,0,0,1,1-2.37,1.6,1.6,0,0,1,1.63.08l76.66,44.26a5.64,5.64,0,0,1,2.21,4.58V367a2.62,2.62,0,0,1-1,2.37A1.48,1.48,0,0,1,393,369.54ZM315,282a.55.55,0,0,0-.28.07c-.27.16-.56.66-.56,1.59v36.82a4.82,4.82,0,0,0,1.75,3.8l76.66,44.27a.72.72,0,0,0,.74.07c.28-.16.57-.66.57-1.59V330.16a4.82,4.82,0,0,0-1.75-3.8L315.43,282.1A.92.92,0,0,0,315,282Z" style="fill:#e0e0e0"></path><path id="freepik--Pin--inject-254" d="M325.94,293.6c-3.91-2.26-7.08.79-7.08,6.81,0,10.33,7.08,24.19,7.08,24.19a21.52,21.52,0,0,0,7.08-16C333,302.57,329.85,295.86,325.94,293.6Zm0,15.5c-1.89-1.1-3.43-4.34-3.43-7.26s1.54-4.39,3.43-3.29,3.43,4.34,3.43,7.25S327.83,310.19,325.94,309.1Z" style="fill:#BA68C8"></path><path d="M375.75,329.79l-33.5-19.34a4.31,4.31,0,0,1-1.8-3.44v-.36c0-1.33.81-1.94,1.8-1.36l33.5,19.34a4.28,4.28,0,0,1,1.8,3.44v.36C377.55,329.76,376.75,330.37,375.75,329.79Z" style="fill:#BA68C8"></path><path d="M387.77,344.23a.79.79,0,0,1-.44-.12L340,316.79a.9.9,0,0,1,.9-1.55l47.32,27.32a.9.9,0,0,1,.33,1.23A.91.91,0,0,1,387.77,344.23Z" style="fill:#e0e0e0"></path><path d="M387.77,351.58a.88.88,0,0,1-.44-.12L340,324.14a.9.9,0,0,1,.9-1.55l47.32,27.32a.89.89,0,0,1,.33,1.22A.9.9,0,0,1,387.77,351.58Z" style="fill:#e0e0e0"></path><path d="M387.77,358.93a.88.88,0,0,1-.44-.12L340,331.49a.91.91,0,0,1-.32-1.23.89.89,0,0,1,1.22-.32l47.32,27.32a.89.89,0,0,1,.33,1.22A.9.9,0,0,1,387.77,358.93Z" style="fill:#e0e0e0"></path></g></g><g id="freepik--character-4--inject-254"><g id="freepik--Character--inject-254"><g id="freepik--character--inject-254"><path d="M234.93,244.16c0,7.93,2.76,16.71,7.24,24.51.7,1.24,1.46,2.46,2.25,3.65s1.63,2.32,2.49,3.43,1.55,1.93,2.36,2.84c.39.44.78.87,1.17,1.28a43.38,43.38,0,0,0,9.54,7.68,28.82,28.82,0,0,0,5.22,2.39c.58.19,1.16.35,1.73.49a15.06,15.06,0,0,0,8.93-.28c5.6-2.07,9.17-8.06,9.18-17.06,0-16-11.22-35.41-25.06-43.39S234.93,228.18,234.93,244.16Z" style="fill:#fafafa"></path><g id="freepik--character--inject-254"><g id="freepik--Chest--inject-254"><path d="M241.6,267.68c.19.34.37.67.56,1,.38.68.79,1.35,1.22,2l1,1.63c.8,1.19,1.63,2.33,2.49,3.44l.23.28,1.35-7.44A17.55,17.55,0,0,0,241.6,267.68Z" style="fill:#263238"></path><g id="freepik--chest--inject-254"><path d="M243.38,270.68l1,1.63c.8,1.19,1.63,2.33,2.49,3.44l.23.28c.69.89,1.4,1.75,2.14,2.57l1.16,1.27a43.15,43.15,0,0,0,9.54,7.68,28.82,28.82,0,0,0,5.22,2.39c.59.19,1.16.35,1.73.49a16.23,16.23,0,0,0,6.55.34,11.94,11.94,0,0,0,5.19-2.1c-.27-2.07-.83-3.69-1.74-4.43-3.3-2.6-11.44-11.31-19.08-13.25-3-.78-6-1.65-9.36-2.4C246.65,268.18,244.89,268.86,243.38,270.68Z" style="fill:#BA68C8"></path></g><g id="freepik--chest--inject-254" style="opacity:0.2"><path d="M243.38,270.68l1,1.63c.8,1.19,1.63,2.33,2.49,3.44l.23.28c.69.89,1.4,1.75,2.14,2.57l1.16,1.27a43.15,43.15,0,0,0,9.54,7.68,28.82,28.82,0,0,0,5.22,2.39c.59.19,1.16.35,1.73.49a16.23,16.23,0,0,0,6.55.34,11.94,11.94,0,0,0,5.19-2.1c-.27-2.07-.83-3.69-1.74-4.43-3.3-2.6-11.44-11.31-19.08-13.25-3-.78-6-1.65-9.36-2.4C246.65,268.18,244.89,268.86,243.38,270.68Z" style="fill:#fff"></path></g><g id="freepik--Head--inject-254"><path d="M271.42,244.6a4.88,4.88,0,0,1-.27.64c3.35,1.53,6,5.46,1.87,7.94,2.5,2,1.38,5-1.27,6.19-.46.55-.07,1.36,0,2.08a2.22,2.22,0,0,1-2.94,2.29c.18,1.2-.67,3.07-2.2,3l.25-3.25s.41-2.86-1.06-3.5c-1.27-.29-2.58.26-3.87.3-4.71.52-8.64-2.82-11.35-6.33a1.26,1.26,0,0,0-.77-.66c-1.53-.9-1.62-2.94-1.14-4.48a2.84,2.84,0,0,1-3.37-4.56,2.26,2.26,0,0,1-2.7-3.48,1.21,1.21,0,0,0,2,1.15c.62-.6.42-1.62.19-2.45a2.45,2.45,0,0,1,.3-2.44c.73-1.26,3.44-2,5.11-1A3.63,3.63,0,0,1,253,232.2c2.3-.76,4.25.86,6.28,1.56,3.42-1.25,7.41.71,7.45,4.62C270.41,238.57,272.68,240.86,271.42,244.6Z" style="fill:#263238"></path><path d="M270.34,265.21c-1.89.89-3.48-1.7-3.48-1.7l-.94,12.41s-1,2.46-7.34,2.35c-4.94-.08-8.49-3-4.65-6.19l.2-3.78a17.78,17.78,0,0,1-3.69-1.35c-1.74-1-3.13-4.17-3.74-7.19-1-4.85-.26-10.2,1.54-18.69,2.93,3.05,9.29-1.59,14.57,4.16-1.44,2.82.63,8,2.52,9.11-.61,2.45-.3,3.63.41,3.89,1.25.46,2.09-1.25,2.82-1.91s3.08-1.23,4.14,1.83S272,264.44,270.34,265.21Z" style="fill:#ffa8a7"></path><path d="M254.13,268.3c1,.18,4.74.28,6.08-.28a8.55,8.55,0,0,0,5.15-4.82,7,7,0,0,1-3.63,5.59,12.05,12.05,0,0,1-7.71,1.38Z" style="fill:#f28f8f"></path><path d="M257.86,248.71l2.18,2.16a1.88,1.88,0,0,0-.35-2.23A1.13,1.13,0,0,0,257.86,248.71Z" style="fill:#263238"></path><path d="M248.74,246.85l2.64-.15a1.62,1.62,0,0,0-1.56-1.46A1.28,1.28,0,0,0,248.74,246.85Z" style="fill:#263238"></path><path d="M259.06,253.33a.9.9,0,0,1-1.15.92,1.56,1.56,0,0,1-1-1.55.9.9,0,0,1,1.16-.91A1.55,1.55,0,0,1,259.06,253.33Z" style="fill:#37474f"></path><path d="M251.17,250.5a.91.91,0,0,1-1.16.92,1.55,1.55,0,0,1-1-1.55.89.89,0,0,1,1.15-.91A1.54,1.54,0,0,1,251.17,250.5Z" style="fill:#37474f"></path><polygon points="255.2 250.19 253.63 257.44 250.07 254.9 255.2 250.19" style="fill:#f28f8f"></polygon><path d="M256.59,260.45l-3.88.21a1.85,1.85,0,0,0,2,1.77A2,2,0,0,0,256.59,260.45Z" style="fill:#b16668"></path><path d="M254.67,262.43a1.79,1.79,0,0,1-1-.21,2.32,2.32,0,0,1,2.1-1.34,2.47,2.47,0,0,1,.72.12A2.05,2.05,0,0,1,254.67,262.43Z" style="fill:#f28f8f"></path></g><path d="M273.48,290.77a11.94,11.94,0,0,0,5.19-2.1,12.37,12.37,0,0,0,1.69-1.47,35.17,35.17,0,0,0-3.43-3A16.1,16.1,0,0,0,273.48,290.77Z" style="fill:#263238"></path></g></g><path d="M248.79,227.66a21.57,21.57,0,0,1,10.5,3.24c13.43,7.75,24.36,26.68,24.36,42.19,0,8.07-3,13.82-8.27,15.76a11.79,11.79,0,0,1-4.21.73,16.57,16.57,0,0,1-3.91-.5c-.53-.12-1.07-.28-1.63-.46a27.57,27.57,0,0,1-5-2.27,41.62,41.62,0,0,1-9.22-7.43c-.38-.4-.77-.82-1.14-1.24-.76-.85-1.53-1.79-2.31-2.78s-1.66-2.21-2.43-3.36-1.52-2.35-2.2-3.55c-4.55-7.94-7.06-16.4-7.06-23.83,0-10.18,4.78-16.5,12.48-16.5h0m0-1.39c-8.22,0-13.86,6.56-13.86,17.89,0,7.93,2.76,16.71,7.24,24.51.7,1.24,1.46,2.46,2.25,3.65s1.63,2.32,2.49,3.43,1.55,1.93,2.36,2.84c.38.44.78.87,1.17,1.28a43.38,43.38,0,0,0,9.54,7.68,28.82,28.82,0,0,0,5.22,2.39c.58.19,1.16.35,1.73.49a17.86,17.86,0,0,0,4.24.54,13.24,13.24,0,0,0,4.69-.82c5.6-2.07,9.17-8.06,9.18-17.06,0-16-11.22-35.41-25.06-43.39a22.64,22.64,0,0,0-11.19-3.43Z" style="fill:#BA68C8"></path></g><path d="M234.56,215.54c-5.66-3.27-10.26-.62-10.26,5.91s4.6,14.49,10.26,17.76,10.25.62,10.25-5.92S240.22,218.8,234.56,215.54Z" style="fill:#BA68C8"></path><path d="M234.56,215.54c-5.66-3.27-10.26-.62-10.26,5.91s4.6,14.49,10.26,17.76,10.25.62,10.25-5.92S240.22,218.8,234.56,215.54Z" style="fill:#fff;opacity:0.30000000000000004"></path><polygon points="232.81 233.72 228.92 227.51 230.84 225.28 233.13 228.96 238.7 222.46 240.29 224.99 232.81 233.72" style="fill:#fff"></polygon></g></g><g id="freepik--character-3--inject-254"><g id="freepik--character--inject-254"><g id="freepik--character--inject-254"><path d="M234.93,172.15c0,7.93,2.76,16.7,7.24,24.51.7,1.24,1.46,2.46,2.25,3.64s1.63,2.33,2.49,3.44,1.55,1.93,2.36,2.84l1.17,1.28a43.38,43.38,0,0,0,9.54,7.68,28.75,28.75,0,0,0,5.22,2.38c.58.19,1.16.36,1.73.49a15,15,0,0,0,8.94-.27c5.59-2.07,9.16-8.06,9.17-17.07,0-16-11.22-35.4-25.06-43.38S234.93,156.17,234.93,172.15Z" style="fill:#fafafa"></path><g id="freepik--character--inject-254"><path d="M273.86,180.13a22.54,22.54,0,0,1-.1,8.81,33.88,33.88,0,0,0-.7,8.8c.06.58.12,1.27-.33,1.65a1.17,1.17,0,0,1-1.45-.14,3.54,3.54,0,0,1-.8-1.35c-.17,2.11-.35,4.23-.53,6.34a3.68,3.68,0,0,1-.59,2.07,3,3,0,0,1-3.28.56,9,9,0,0,1-5.47-6,17.63,17.63,0,0,1-.19-8.36,34.65,34.65,0,0,1,3.88-10.78,32.21,32.21,0,0,0,2.88-5.52,6,6,0,0,1,1-2.2c.27-.32.51-.22.86-.07a7,7,0,0,1,1,.5,7.45,7.45,0,0,1,1.68,1.44,9.17,9.17,0,0,1,1.28,1.86,10.64,10.64,0,0,1,.83,2.11A2.68,2.68,0,0,1,273.86,180.13Z" style="fill:#37474f"></path><g id="freepik--Arm--inject-254"><path d="M242.17,196.66c.7,1.24,1.46,2.46,2.25,3.64s1.63,2.33,2.49,3.44l2.23-6.41h0C246.12,196.41,244.15,195.94,242.17,196.66Z" style="fill:#ffbda7"></path></g><g id="freepik--chest--inject-254"><path d="M244.57,199.29c.79,1.18,1.62,2.32,2.49,3.44s1.55,1.93,2.36,2.84c.38.43.78.86,1.17,1.28a43,43,0,0,0,9.53,7.67,27.94,27.94,0,0,0,5.23,2.39c.58.19,1.16.36,1.72.49a28.66,28.66,0,0,1,2.7-11.81s-2.08-1.11-6-3.27a1,1,0,0,0-.13-.09c-3.16-2.17-5.29-1.78-11.11-4.27-.1-.05.71-.47.61-.51l-3.81-1.14h0A40.86,40.86,0,0,0,244.57,199.29Z" style="fill:#BA68C8"></path></g><g id="freepik--head--inject-254"><path d="M263.93,195.64c.47-1.77,2.67-3,4.74-6.12s4.75-10,.52-13.18c.78-4.13-2.53-9.21-7.05-11.24-5.94-2.67-12.89-2.3-16.91,2.78-4.75,6,.16,11.73.16,11.73Z" style="fill:#455a64"></path><path d="M246,189.1a8.23,8.23,0,0,0,1.76,3.48c1,1.23,2.45,1.89,4.79,2.69l-.07,1.6,0,1,0,1.07,0,1.84s-2.83,3.33-3,5.77l1.17,1.28a27.22,27.22,0,0,0,13.13-4.27v-.26l.13-2.68.29-6.55.05-1.84a1.75,1.75,0,0,0,.3.69,2.56,2.56,0,0,0,1,.81,2.82,2.82,0,0,0,2.38.13l.17-.09a.85.85,0,0,0,.25-.13.67.67,0,0,0,.2-.12,1,1,0,0,0,.17-.12h0l.16-.13a4.7,4.7,0,0,0,1.41-5.46c-.58-1.39-2.15-2.61-3.33-2.14s-1.34,1.21-1.86,2.05-2.94-1.73-1.26-6.08a7.88,7.88,0,0,1-2.41-7c-.87-3.16-6.74-3.56-7.77-2.37-.86-2-.76-3.19-2.42-2.68s-4.46,1.63-5.44,8.51A29,29,0,0,0,246,189.1Z" style="fill:#ffbda7"></path><path d="M256.31,188.45l-3.5.1a2.3,2.3,0,0,0,2.29,2C256.06,190.51,256.48,189.62,256.31,188.45Z" style="fill:#b16668"></path><path d="M254.11,190.37a1.52,1.52,0,0,1,2.05-1.25l.17.08a1.35,1.35,0,0,1-1.23,1.38A1.89,1.89,0,0,1,254.11,190.37Z" style="fill:#f28f8f"></path><polygon points="253.05 179.23 252.24 186.07 248.97 183.85 253.05 179.23" style="fill:#f0997a"></polygon><path d="M249.5,179.56a.9.9,0,0,1-1.11,1,1.51,1.51,0,0,1-1.14-1.42.9.9,0,0,1,1.1-1A1.53,1.53,0,0,1,249.5,179.56Z" style="fill:#263238"></path><path d="M257.61,182.31a.9.9,0,0,1-1.1,1,1.54,1.54,0,0,1-1.15-1.42.91.91,0,0,1,1.11-1A1.52,1.52,0,0,1,257.61,182.31Z" style="fill:#263238"></path><path d="M252.49,195.27a15.63,15.63,0,0,0,7-.32,6.93,6.93,0,0,0,3.28-2.72s.24,2.22-3.07,3.76c-2.58,1.21-7.26.89-7.26.89Z" style="fill:#f0997a"></path><path d="M247.37,176.18l2.5.16a2,2,0,0,0-1.63-1.47C247.55,174.82,247.16,175.41,247.37,176.18Z" style="fill:#263238"></path><path d="M255.65,178.4l2.73,1.82a1.94,1.94,0,0,0-.93-2.06C256.7,177.66,255.89,177.77,255.65,178.4Z" style="fill:#263238"></path><path d="M251,169.37c-.5,2.72,2.67,9,6.92,11.89s7,2.31,7,2.31.49-8.69-3.73-12S251,169.37,251,169.37Z" style="fill:#455a64"></path></g><g id="freepik--arm--inject-254"><path d="M265.2,217.92c.58.19,1.16.36,1.73.49a15,15,0,0,0,8.94-.27,9.59,9.59,0,0,0,2.77-2.19c-3.07-7.26-4.69-8.64-8.87-10.36h0C266.94,207.66,265.67,214.72,265.2,217.92Z" style="fill:#ffbda7"></path></g></g><path d="M248.79,155.65a21.66,21.66,0,0,1,10.5,3.23c13.43,7.76,24.36,26.68,24.36,42.19,0,8.08-3,13.83-8.27,15.77a12,12,0,0,1-4.21.73,16.57,16.57,0,0,1-3.91-.5c-.53-.13-1.07-.28-1.63-.46a27.57,27.57,0,0,1-5-2.27,41.4,41.4,0,0,1-9.22-7.44c-.38-.4-.77-.82-1.14-1.24-.76-.85-1.53-1.78-2.31-2.77s-1.65-2.22-2.43-3.36-1.52-2.36-2.2-3.56c-4.55-7.93-7.06-16.39-7.06-23.82,0-10.18,4.78-16.5,12.48-16.5h0m0-1.39c-8.22,0-13.86,6.55-13.86,17.89,0,7.93,2.76,16.7,7.24,24.51.7,1.24,1.46,2.46,2.25,3.64s1.63,2.33,2.49,3.44,1.55,1.93,2.36,2.84l1.17,1.28a43.38,43.38,0,0,0,9.54,7.68,28.75,28.75,0,0,0,5.22,2.38c.58.19,1.16.36,1.73.49a17.86,17.86,0,0,0,4.24.54,13.24,13.24,0,0,0,4.69-.81c5.6-2.07,9.17-8.06,9.18-17.07,0-16-11.22-35.4-25.06-43.38a22.64,22.64,0,0,0-11.19-3.43Z" style="fill:#BA68C8"></path></g><path d="M234.56,147.68c-5.67-3.27-10.26-.61-10.26,5.92s4.6,14.49,10.26,17.76,10.25.62,10.25-5.92S240.22,151,234.56,147.68Z" style="fill:#fafafa"></path><path d="M239.14,173.21a9.8,9.8,0,0,1-4.81-1.46c-5.77-3.34-10.47-11.48-10.47-18.15,0-3.32,1.14-5.82,3.22-7s4.82-1,7.7.72h0c5.78,3.33,10.48,11.47,10.48,18.14,0,3.33-1.15,5.82-3.23,7A5.68,5.68,0,0,1,239.14,173.21ZM230,146.73a4.83,4.83,0,0,0-2.45.62c-1.79,1-2.78,3.26-2.78,6.25,0,6.39,4.5,14.18,10,17.37,2.59,1.5,5,1.76,6.8.72s2.78-3.25,2.78-6.25c0-6.38-4.5-14.18-10-17.37h0A8.85,8.85,0,0,0,230,146.73Z" style="fill:#e0e0e0"></path></g></g><g id="freepik--character-2--inject-254"><g id="freepik--character--inject-254"><g id="freepik--character--inject-254"><path d="M235,100.18c0,7.93,2.76,16.71,7.24,24.51.7,1.24,1.46,2.46,2.25,3.65s1.63,2.32,2.49,3.43,1.55,1.93,2.36,2.84c.39.43.78.87,1.17,1.28a43.38,43.38,0,0,0,9.54,7.68,28.82,28.82,0,0,0,5.22,2.39c.58.19,1.16.35,1.73.49a15.1,15.1,0,0,0,8.94-.28c5.59-2.07,9.16-8.06,9.17-17.06,0-16-11.22-35.41-25.06-43.39S235,84.2,235,100.18Z" style="fill:#fafafa"></path><g id="freepik--character--inject-254"><g id="freepik--chest--inject-254"><path d="M241.65,123.7l.56,1c.38.68.79,1.35,1.22,2s.69,1.09,1,1.63c.79,1.19,1.62,2.33,2.48,3.44l.23.28,1.35-7.44A17.55,17.55,0,0,0,241.65,123.7Z" style="fill:#263238"></path><g id="freepik--chest--inject-254"><path d="M243.43,126.7c.34.54.69,1.09,1,1.63.79,1.19,1.62,2.33,2.48,3.44l.23.28c.69.89,1.4,1.75,2.14,2.57.38.42.78.86,1.16,1.26a42.92,42.92,0,0,0,9.54,7.69,28.82,28.82,0,0,0,5.22,2.39c.59.19,1.16.35,1.73.49a16.23,16.23,0,0,0,6.55.34,11.94,11.94,0,0,0,5.19-2.1c-.27-2.07-.83-3.69-1.74-4.43-3.3-2.6-5.18-4.25-6.83-5.44A24.84,24.84,0,0,0,257.9,127c-3-.78-6-1.65-9.36-2.4C246.7,124.2,244.94,124.88,243.43,126.7Z" style="fill:#37474f"></path></g><g id="freepik--head--inject-254"><path d="M270.46,98.92c3.28,5.41,2.07,12.38-.32,17-1.07,2.05-2.69,5.87-3.58,8.2,0,0-5.75,2.16-18.38-16.1-2.29-3.3-1-11.24,2.08-14.19C254.59,89.63,264,88.65,270.46,98.92Z" style="fill:#263238"></path><path d="M270.39,121.23c-1.89.89-3.48-1.7-3.48-1.7L266,131.94s0,1.61-3.28,2.74c-2.15.74-6.62.31-9.16,2.5-1.07-2.36-1.93-6.45.45-9.08l.2-3.78a17.78,17.78,0,0,1-3.69-1.35,8,8,0,0,1-4.16-5.58,24.47,24.47,0,0,1-.52-5.89,79.65,79.65,0,0,1,1.71-11.37C247.76,99,249,96.41,250,96c2.52-1,2.22,2.95,5.15,3.95s11.2-1,9.49,2.55a16.57,16.57,0,0,0,.72,9.71,6.54,6.54,0,0,0,.94,1.72c.82,1,1.57-.94,2.29-1.6s3.08-1.23,4.14,1.83S272,120.46,270.39,121.23Z" style="fill:#c8856a"></path><path d="M254.18,124.32c2.23.51,6.48.34,8.15-1a12.4,12.4,0,0,0,2.75-3.27,7.76,7.76,0,0,1-2.44,4.52c-3.41,2.69-8.57,1.61-8.57,1.61Z" style="fill:#af6152"></path><path d="M265.12,111.5c.26,1.85-1.81,6.31-5,6s-3.79-2.39-6.61-3.13c-2.51-.66-4.08.16-5.34-.35a6.7,6.7,0,0,1-2.38-2.48s-.71,5.73.63,8.56c1.78,3.75,6.48,4.58,9.3,4.84a10.21,10.21,0,0,0,7-1.67c1.78-1.29,2.86-3.52,3.69-5.77s2.16-5.12,2.16-5.12l-3.35-1.08" style="fill:#263238"></path><path d="M258.68,105.58l2.18,2.16a1.91,1.91,0,0,0-.36-2.24A1.12,1.12,0,0,0,258.68,105.58Z" style="fill:#263238"></path><path d="M248.79,102.87l2.64-.16a1.62,1.62,0,0,0-1.56-1.45A1.28,1.28,0,0,0,248.79,102.87Z" style="fill:#263238"></path><path d="M259.61,109.4a.91.91,0,0,1-1.16.92,1.56,1.56,0,0,1-1-1.55.9.9,0,0,1,1.16-.91A1.54,1.54,0,0,1,259.61,109.4Z" style="fill:#263238"></path><path d="M251.22,106.52a.91.91,0,0,1-1.16.92,1.57,1.57,0,0,1-1-1.55.89.89,0,0,1,1.15-.91A1.54,1.54,0,0,1,251.22,106.52Z" style="fill:#263238"></path><path d="M255.39,106.73,253.81,114l-3.55-2.54C251.63,109.33,253.84,107.17,255.39,106.73Z" style="fill:#af6152"></path><path d="M255.82,116.8l-3.89.21a1.87,1.87,0,0,0,2,1.77A2,2,0,0,0,255.82,116.8Z" style="fill:#af6152"></path><path d="M253.89,118.78a1.79,1.79,0,0,1-1-.21,2.32,2.32,0,0,1,2.1-1.34,2.48,2.48,0,0,1,.73.12A2.05,2.05,0,0,1,253.89,118.78Z" style="fill:#f28f8f"></path></g><g id="freepik--head--inject-254"><path d="M253.53,137.18c1.4-.56,5.11-1.35,5.41-.22.21.8.81,3.67,1.85,3.89a9.49,9.49,0,0,0,7.64-2.87,5.77,5.77,0,0,0,1.71-3.16s-1.23-3.17-2-4.69-1-2.38-1.82-2.7l-.23,2.62a6.49,6.49,0,0,1-2.55,2.38C261.05,133.7,256.06,134.47,253.53,137.18Z" style="fill:#263238"></path><path d="M253.53,137.18c-.76-1.06-2-5-2.69-5-1.36-.08-2.3.79-2.3,0s1-2.28,2.26-4.31c.95-1.56,2.45-2.65,3.34-2.58l-.21,3.61a8.7,8.7,0,0,0-.71,3A12.55,12.55,0,0,0,253.53,137.18Z" style="fill:#263238"></path></g><path d="M273.53,146.79a11.94,11.94,0,0,0,5.19-2.1,12.37,12.37,0,0,0,1.69-1.47,35.17,35.17,0,0,0-3.43-3A16.1,16.1,0,0,0,273.53,146.79Z" style="fill:#263238"></path></g></g><path d="M248.84,83.68a21.57,21.57,0,0,1,10.5,3.24c13.43,7.75,24.36,26.68,24.36,42.19,0,8.07-3,13.82-8.27,15.76a11.79,11.79,0,0,1-4.21.73,16.57,16.57,0,0,1-3.91-.5c-.53-.12-1.07-.28-1.63-.46a27.57,27.57,0,0,1-5-2.27,41.62,41.62,0,0,1-9.22-7.43c-.38-.4-.77-.82-1.14-1.24-.76-.85-1.53-1.79-2.31-2.78s-1.66-2.21-2.43-3.36-1.52-2.36-2.2-3.55c-4.55-7.94-7.06-16.4-7.06-23.83,0-10.18,4.78-16.5,12.48-16.5h0m0-1.39c-8.22,0-13.86,6.56-13.86,17.89,0,7.93,2.76,16.71,7.24,24.51.7,1.24,1.46,2.46,2.25,3.65s1.63,2.32,2.49,3.43,1.55,1.93,2.36,2.84c.39.43.78.87,1.17,1.28a43.38,43.38,0,0,0,9.54,7.68,28.82,28.82,0,0,0,5.22,2.39c.58.19,1.16.35,1.73.49a17.86,17.86,0,0,0,4.24.54,13.34,13.34,0,0,0,4.7-.82c5.59-2.07,9.16-8.06,9.17-17.06,0-16-11.22-35.41-25.06-43.39a22.64,22.64,0,0,0-11.19-3.43Z" style="fill:#BA68C8"></path></g><path d="M234.61,75.79c-5.63-3.24-10.18-.62-10.18,5.87S229,96,234.61,99.27s10.18.61,10.18-5.87S240.23,79,234.61,75.79Z" style="fill:#BA68C8"></path><path d="M234.61,75.79c-5.63-3.24-10.18-.62-10.18,5.87S229,96,234.61,99.27s10.18.61,10.18-5.87S240.23,79,234.61,75.79Z" style="fill:#fff;opacity:0.30000000000000004"></path><polygon points="232.81 94.17 228.92 87.97 230.84 85.74 233.13 89.41 238.7 82.91 240.29 85.44 232.81 94.17" style="fill:#fff"></polygon></g></g><g id="freepik--speech-bubble--inject-254"><g id="freepik--speech-bubble--inject-254"><g id="freepik--speech-bubble--inject-254"><path d="M158.89,133.31a29,29,0,0,0-9.4,19.18l-.07,3.32a29,29,0,0,0,57.84,2.74l.24-3.32a29.05,29.05,0,0,0-48.61-21.92Z" style="fill:#fff"></path><path d="M157.23,131.5a31.57,31.57,0,0,0-5.31,40.36l-4.38,8.77a1.83,1.83,0,0,0,2.3,2.52l9.14-3.52a31.54,31.54,0,1,0-1.75-48.13ZM200,135.26a29,29,0,0,1,7.54,20l-.24,3.32a29,29,0,0,1-57.84-2.74l.07-3.32A29.05,29.05,0,0,1,200,135.26Z" style="fill:#455a64"></path><path d="M200,135.26a29,29,0,0,1,7.54,20l-.24,3.32a29,29,0,0,1-57.84-2.74l.07-3.32A29.05,29.05,0,0,1,200,135.26Z" style="fill:#fff;opacity:0.7000000000000001"></path></g><g id="freepik--Icon--inject-254"><path d="M194.3,143.31v5.1H162.62v-5.1c0-2.52,1.77-4.57,4-4.57h2.88v2a2.76,2.76,0,1,0,5.47,0v-2H182v2a2.76,2.76,0,1,0,5.47,0v-2h2.89C192.53,138.74,194.3,140.79,194.3,143.31Z" style="fill:#BA68C8"></path><path d="M190.05,171.63H166.87a4.25,4.25,0,0,1-4.25-4.26v-17H194.3v17A4.25,4.25,0,0,1,190.05,171.63Z" style="fill:#fafafa"></path><path d="M163.61,151.35h29.7v16a3.27,3.27,0,0,1-3.26,3.27H166.87a3.27,3.27,0,0,1-3.26-3.27v-16m-1-1v17a4.25,4.25,0,0,0,4.25,4.26h23.18a4.25,4.25,0,0,0,4.25-4.26v-17Z" style="fill:#e0e0e0"></path><path d="M172.2,142.54h0a1.7,1.7,0,0,1-1.7-1.69v-4.22a1.69,1.69,0,0,1,1.7-1.69h0a1.69,1.69,0,0,1,1.69,1.69v4.22A1.69,1.69,0,0,1,172.2,142.54Z" style="fill:#e0e0e0"></path><path d="M184.72,142.54h0a1.7,1.7,0,0,0,1.7-1.69v-4.22a1.69,1.69,0,0,0-1.7-1.69h0a1.69,1.69,0,0,0-1.69,1.69v4.22A1.69,1.69,0,0,0,184.72,142.54Z" style="fill:#e0e0e0"></path><path d="M176.09,155.45h-1a.44.44,0,0,0-.25.08l-.22.18-2.89,2.63a.42.42,0,0,0-.14.28.43.43,0,0,0,.07.31l.63.9a.39.39,0,0,0,.24.17.32.32,0,0,0,.26-.09l1.9-1.71v7.61a.45.45,0,0,0,.1.29.34.34,0,0,0,.26.12h1.08a.33.33,0,0,0,.25-.12.44.44,0,0,0,.11-.29v-9.95a.44.44,0,0,0-.11-.29A.33.33,0,0,0,176.09,155.45Zm9,6.15a2.86,2.86,0,0,0-.83-1.06,2.76,2.76,0,0,0,.58-.92,3.13,3.13,0,0,0,.21-1.17,3.19,3.19,0,0,0-.25-1.29,2.87,2.87,0,0,0-.7-1,3.07,3.07,0,0,0-1.06-.64,3.83,3.83,0,0,0-1.33-.23,3.89,3.89,0,0,0-1.34.23,3.07,3.07,0,0,0-1.06.64,3,3,0,0,0-.7,1,3.19,3.19,0,0,0-.25,1.29,2.86,2.86,0,0,0,.79,2.09,2.89,2.89,0,0,0-.84,1.06,3.74,3.74,0,0,0,0,2.79,2.9,2.9,0,0,0,.74,1.05,3.34,3.34,0,0,0,1.16.69,4.93,4.93,0,0,0,3,0,3.39,3.39,0,0,0,1.15-.69,2.9,2.9,0,0,0,.74-1.05,3.38,3.38,0,0,0,.26-1.37A3.22,3.22,0,0,0,185.08,161.6Zm-4.8-3.69a1.12,1.12,0,0,1,.34-.38,1.43,1.43,0,0,1,.5-.23,1.81,1.81,0,0,1,.58-.08,2.22,2.22,0,0,1,.57.07,1.65,1.65,0,0,1,.5.24,1.12,1.12,0,0,1,.34.38,1.05,1.05,0,0,1,.13.54,1.08,1.08,0,0,1-.13.54,1.12,1.12,0,0,1-.34.38,1.43,1.43,0,0,1-.5.23,2.24,2.24,0,0,1-.57.08,2.14,2.14,0,0,1-.58-.08,1.64,1.64,0,0,1-.5-.23,1.12,1.12,0,0,1-.34-.38,1.08,1.08,0,0,1-.13-.54A1,1,0,0,1,180.28,157.91Zm3.14,5.73a1.51,1.51,0,0,1-.42.45,2,2,0,0,1-.6.27,2.74,2.74,0,0,1-.7.09,2.69,2.69,0,0,1-.7-.09,1.83,1.83,0,0,1-.6-.27,1.29,1.29,0,0,1-.42-.45,1.28,1.28,0,0,1,0-1.24,1.23,1.23,0,0,1,.42-.43,1.83,1.83,0,0,1,.6-.27,2.32,2.32,0,0,1,.7-.1,2.37,2.37,0,0,1,.7.1,2,2,0,0,1,.6.27,1.44,1.44,0,0,1,.42.43,1.28,1.28,0,0,1,0,1.24Z" style="fill:#455a64"></path></g></g></g><g id="freepik--character-1--inject-254"><g id="freepik--character--inject-254"><g id="freepik--Couch--inject-254"><polygon points="117.67 405.28 119.14 384.29 129.31 378.42 123.49 401.92 117.67 405.28" style="fill:#b16668"></polygon><polygon points="117.67 405.28 111.86 401.92 111.97 380.15 119.14 384.29 117.67 405.28" style="fill:#9a4a4d"></polygon><polygon points="46.43 364.15 47.89 343.17 58.06 337.3 52.24 360.8 46.43 364.15" style="fill:#b16668"></polygon><polygon points="46.43 364.15 40.61 360.8 40.73 339.03 47.89 343.17 46.43 364.15" style="fill:#9a4a4d"></polygon><polygon points="215.91 348.57 214.44 329.27 204.27 335.14 210.09 351.93 215.91 348.57" style="fill:#b16668"></polygon><polygon points="210.09 351.93 204.27 348.57 197.11 331 204.27 335.14 210.09 351.93" style="fill:#9a4a4d"></polygon><polygon points="117.67 383.44 216.85 326.19 216.85 332.9 117.67 390.16 117.67 383.44" style="fill:#b16668"></polygon><polygon points="36.26 343.15 117.67 390.16 117.67 383.44 36.26 336.44 36.26 343.15" style="fill:#9a4a4d"></polygon><polygon points="117.67 383.44 216.85 326.19 135.44 279.18 36.26 336.44 117.67 383.44" style="fill:#9a4a4d"></polygon><path d="M217,284.85v35.47a12.61,12.61,0,0,1-5.69,9.85l-1.64.95-.08,0a12.69,12.69,0,0,1-7.1,1.22l-71.7,38.12a12.71,12.71,0,0,1-5.62,9.45.09.09,0,0,0-.06,0l-1.63.94a2.32,2.32,0,0,1-.44.23,1.67,1.67,0,0,1-.23.12l-.07,0a13,13,0,0,1-8.82.41,8.38,8.38,0,0,1-1-.37l-.15-.06c-.24-.11-.46-.23-.67-.35l-74-42.69a12.59,12.59,0,0,1-5.68-9.85l0-76.84a12.62,12.62,0,0,1,5.69-9.85l87.83-50.75a12.52,12.52,0,0,1,11.37,0l4.64,2.66a15.11,15.11,0,0,1,6.55,9.8L153,241.33,211.27,275A12.61,12.61,0,0,1,217,284.85Z" style="fill:#37474f"></path><path d="M141.94,193.61l-4.63-2.68a12.58,12.58,0,0,0-11.37,0L38.1,241.7c-.33.19-.69.44-.58.36a13,13,0,0,0-5,8.52c.42-2.9,2.78-4,5.62-2.32l4.63,2.67a12.52,12.52,0,0,0,11.37,0l87.84-50.76C145.08,198.36,145.08,195.42,141.94,193.61Z" style="fill:#455a64"></path><path d="M217,284.85v35.47a12.61,12.61,0,0,1-5.69,9.85l-1.64.95-.08,0a12,12,0,0,1-6.65,1.26,11.1,11.1,0,0,1-4.64-1.3l-52.62-30.39a12.61,12.61,0,0,1-5.69-9.85V255.41a12.58,12.58,0,0,1,5.69-9.85l7.31-4.23L211.27,275A12.61,12.61,0,0,1,217,284.85Z" style="fill:#263238"></path><path d="M153,241.33l-7.33,4.23c-3.12,1.81-3.12,4.76,0,6.56l52.63,30.39a12.61,12.61,0,0,1,5.69,9.85v35.48c0,3.61,2.56,5.08,5.68,3.28l1.64-.95a12.61,12.61,0,0,0,5.68-9.85V284.84a12.58,12.58,0,0,0-5.68-9.84Z" style="fill:#455a64"></path><path d="M204,292.36v35.48c0,3.61,2.56,5.08,5.68,3.28l1.64-.95a12.61,12.61,0,0,0,5.68-9.85V284.84a11.67,11.67,0,0,0-1.67-5.6l-13,7.52A11.61,11.61,0,0,1,204,292.36Z" style="fill:#37474f"></path><path d="M201.58,332.42a13.33,13.33,0,0,1-2.08,3.13,24.85,24.85,0,0,1-5.34,3.74c-20,11.55-36.54,21.14-56.53,32.68a6.27,6.27,0,0,1-5.69,0l-18.49-10.68-37-21.35c-3.14-1.81-5.69-6-5.69-9.43s2.55-7.63,5.69-9.44l21-12.12,16-9.23L133,288.41a12.65,12.65,0,0,1,11.37,0L197,318.81c3.13,1.81,5.68,3.21,5.68,7.38A20.87,20.87,0,0,1,201.58,332.42Z" style="fill:#263238"></path><path d="M137.63,359.66l62.16-35.94c1.57-.9,2.84-.17,2.84,1.64v5.76a6.28,6.28,0,0,1-2.84,4.92L137.63,372c-1.57.91-2.85.17-2.85-1.64v-5.75A6.27,6.27,0,0,1,137.63,359.66Z" style="fill:#37474f"></path><path d="M132.31,268.34,76.47,300.61a12.57,12.57,0,0,0-5.69,9.85v3.82a12.55,12.55,0,0,0,5.68,9.85l52.63,30.38a12.52,12.52,0,0,0,11.37,0l55.83-32.27a12.57,12.57,0,0,0,5.69-9.85v-3.82a12.57,12.57,0,0,0-5.69-9.85l-52.62-30.38A12.52,12.52,0,0,0,132.31,268.34Z" style="fill:#37474f"></path><path d="M134.79,338.91v17a11.6,11.6,0,0,1-5.69-1.37L76.47,324.13a12.57,12.57,0,0,1-5.69-9.85v-3.82A12.75,12.75,0,0,1,75.89,301c-2.55,1.83-2.35,4.5.58,6.2l52.63,30.38A11.62,11.62,0,0,0,134.79,338.91Z" style="fill:#263238"></path><path d="M140.47,337.56l55.83-32.28c3.14-1.81,3.14-4.75,0-6.56l-52.62-30.38a12.52,12.52,0,0,0-11.37,0L76.47,300.61c-3.14,1.81-3.14,4.75,0,6.56l52.63,30.39A12.58,12.58,0,0,0,140.47,337.56Z" style="fill:#455a64"></path><g id="freepik--Cushion--inject-254"><path d="M102.75,238.59c-3.64-.37-6.65,3.83-12.72,6.8-11.31,5.53-16.4,10.56-21.66,16.7s-7.26,5.1-8.87,8.92,2.84,5.47,5,10.89c3.58,9.15,8,15.29,12.64,19.1,8.17,6.73,6.92,11.41,10.64,11.37,4-.05,3.67-3.44,9.89-5.86,14.71-5.72,20.76-10.81,27.55-20.87,2.66-3.93,6-3.6,6.69-7.39.32-1.9-2.44-2.92-4.93-8.88-4.14-9.9-10.75-19.18-17.19-24C106.94,243.26,106.46,239,102.75,238.59Z" style="fill:#BA68C8"></path><path d="M102.75,238.59c-3.64-.37-6.65,3.83-12.72,6.8-11.31,5.53-16.4,10.56-21.66,16.7s-7.26,5.1-8.87,8.92,2.84,5.47,5,10.89c3.58,9.15,8,15.29,12.64,19.1,8.17,6.73,6.92,11.41,10.64,11.37,4-.05,3.67-3.44,9.89-5.86,14.71-5.72,20.76-10.81,27.55-20.87,2.66-3.93,6-3.6,6.69-7.39.32-1.9-2.44-2.92-4.93-8.88-4.14-9.9-10.75-19.18-17.19-24C106.94,243.26,106.46,239,102.75,238.59Z" style="opacity:0.30000000000000004"></path><path d="M63.5,277.38c3.11,4.41,2.7,8.81,9.1,16.91,6.14,7.78,10.58,10,12.42,13.45,1.53,2.9,3.62,4.26,4.12.87S87,295.51,80.78,287.2C73.66,277.64,69.11,274,66,272.58,61.21,270.38,61.06,273.92,63.5,277.38Z" style="opacity:0.2"></path><path d="M97.88,302.77c-4.06,1.4-4.24,5-6.28,7.78a16.09,16.09,0,0,1,6-4,69.29,69.29,0,0,0,15.6-7.95C108,301.29,100.82,301.75,97.88,302.77Zm25.42-18.65c-2.52,2.31-2.27,6.44-5.3,10.42a56.83,56.83,0,0,0,7.18-8.9c2.43-3.59,5.46-3.63,6.45-6.5C129.41,282,126.33,281.32,123.3,284.12Z" style="opacity:0.2"></path><path d="M97.69,247.35A42.14,42.14,0,0,0,74.4,260.1a6.88,6.88,0,0,0-1.58,5,6.73,6.73,0,0,0,3.49,5.48c2,1.15,5,1.16,7.15.88,4.48-.57,7.13-1.74,12.93-1.83a13.31,13.31,0,0,1,6.11,1.54c2.86,1.59,5,3.39,7.5,4.73,3.45,1.85,9.58,1,11.71-1.12,2.27-2.28,2.78-5.69.75-10C117.94,255.32,109.51,246.05,97.69,247.35Z" style="fill:#BA68C8;opacity:0.30000000000000004"></path></g></g><g id="freepik--character--inject-254"><g id="freepik--Bottom--inject-254"><path d="M152.67,274.12s15.75,8,24.49,12.77,18.42,8.24,21.66,15.36c2.55,5.61,1.55,12.21-2.7,23.59s-14.76,32.13-16,36.45l-14.57-2.78.4-3,.17-.54,4.36-33.43-38.85-39.14Z" style="fill:#ffbda7"></path><path d="M166,356.55l-.4,3,14.57,2.78c.74-2.57,4.75-10.94,8.78-19.69h0s-1.76-16.24-3-21.72-2.29-6.72-7.45-10.84-31.64-21.66-31.64-21.66l-8.42,1.88,32.08,32.32L166.12,356Z" style="fill:#f0997a"></path><path d="M159.26,366.91a6,6,0,0,0-.69,1.93c-.06,1.17,2.58,5.06,3.62,6.47a9.39,9.39,0,0,1,1.9,6.71c-.16,3.77,1.5,7.39,3.92,10.51A25.91,25.91,0,0,0,180.85,401c6.21,1.93,8.41-1.18,8.41-1.18s1.93-3,.78-4.23S159.26,366.91,159.26,366.91Z" style="fill:#37474f"></path><path d="M166.22,355.26c-.19,0-.46,0-.95.54-.19.23-1.33,3-2.27,4.48s-3.42,4.24-3.74,6.63c1.43,4.61,5.74,7.82,6.38,12.17s.7,9.4,7.37,14.74,13.53,5.9,16,4.5,2.25-4.05-1.18-9.1c-3.64-5.35-6.07-17-6.07-17a37.34,37.34,0,0,1-.63-4.93,31,31,0,0,1,.47-4.88,3.6,3.6,0,0,0-.31-2.21,3.75,3.75,0,0,0-1.83-1.28A16.94,16.94,0,0,0,176,357.8a5.52,5.52,0,0,0-3.54.42c-.77.41-1.41,1.07-2.22,1.41A3.18,3.18,0,0,1,167,359a2.74,2.74,0,0,1-.88-3S166.22,355.26,166.22,355.26Z" style="fill:#BA68C8"></path><path d="M166.22,355.26c-.19,0-.46,0-.95.54-.19.23-1.33,3-2.27,4.48s-3.42,4.24-3.74,6.63c1.43,4.61,5.74,7.82,6.38,12.17s.7,9.4,7.37,14.74,13.53,5.9,16,4.5,2.25-4.05-1.18-9.1c-3.64-5.35-6.07-17-6.07-17a37.34,37.34,0,0,1-.63-4.93,31,31,0,0,1,.47-4.88,3.6,3.6,0,0,0-.31-2.21,3.75,3.75,0,0,0-1.83-1.28A16.94,16.94,0,0,0,176,357.8a5.52,5.52,0,0,0-3.54.42c-.77.41-1.41,1.07-2.22,1.41A3.18,3.18,0,0,1,167,359a2.74,2.74,0,0,1-.88-3S166.22,355.26,166.22,355.26Z" style="opacity:0.4"></path><path d="M169.11,389.54a10.63,10.63,0,0,1,9.7-5.21c7.09,0,9.54,3.66,10.61,5.79,1.28,2.53,2.61,7.11-.32,8.42-3.17,1.42-6.83,1-12.58-1.94S169.11,389.54,169.11,389.54Z" style="fill:#fafafa"></path><path d="M170.46,368.17a.72.72,0,0,0,.64,0c1.1-.56,6.9-1.76,10.27,1.39.44-.35.35-1-.2-1.9-3.95-2.52-9.44-1.41-10.77-.74a.67.67,0,0,0-.27.94A.71.71,0,0,0,170.46,368.17Z" style="fill:#fafafa"></path><path d="M182.09,373.69a2.18,2.18,0,0,0-.4-1.95c-3.89-2.12-9-1.08-10.27-.43a.67.67,0,0,0-.28.94.82.82,0,0,0,.33.31.78.78,0,0,0,.65,0C173.19,372,178.69,370.89,182.09,373.69Z" style="fill:#fafafa"></path><path d="M185,383.29a4,4,0,0,0-.9-2.57c-3.93-2.39-9.3-1.3-10.6-.64a.67.67,0,0,0-.28.94.76.76,0,0,0,.33.31.71.71,0,0,0,.65,0C175.32,380.74,181.71,379.44,185,383.29Z" style="fill:#fafafa"></path><path d="M172.49,376.94a.71.71,0,0,0,.65,0c1.09-.55,6.77-1.72,10.15,1.29a2.47,2.47,0,0,0-.58-2.1c-3.9-2.13-9-1.08-10.27-.44a.68.68,0,0,0-.28.95A.73.73,0,0,0,172.49,376.94Z" style="fill:#fafafa"></path><path d="M131.63,283.44s41.4,26.95,46.08,30.64,5.72,7,7.41,15.19,8.35,48.54,9.66,53.53,3.88,12.25,3.88,12.25l-16.85,3.25-.84-5.57a65,65,0,0,0-4.83-12.23c-4.07-8.31-7.24-13.11-11.14-20.64-4.21-8.14-4.16-15.08-4.46-19-.21-2.72-.86-3.72-4.84-5.06s-5.67-1.91-10.76-3.33-25.3-6.13-35-15.47-11.7-16.71-12.23-23.92,0-9.63,0-9.63Z" style="fill:#ffbda7"></path><path d="M179.52,405.88a6.34,6.34,0,0,0,.24,2.13c.47,1.14,4.74,3.59,6.36,4.44A9.88,9.88,0,0,1,191,417.9c1.57,3.62,4.79,6.28,8.49,8.11a27.1,27.1,0,0,0,15.95,2.09c6.73-1,7.38-5,7.38-5s.45-3.7-1.2-4.33S179.52,405.88,179.52,405.88Z" style="fill:#37474f"></path><path d="M180.71,391.79c-.19.08-.4.12-.6.89-.07.29.13,3.44-.09,5.25s-1.28,5.56-.5,7.95c3.45,3.69,9,4.75,11.57,8.55S196,423,204.75,424.94s15.45-.62,17.13-3.07.28-4.84-5.26-8c-5.87-3.38-13.45-13.19-13.46-13.19a40.08,40.08,0,0,1-2.84-4.35,32.92,32.92,0,0,1-1.78-4.81,3.77,3.77,0,0,0-1.3-1.94,3.94,3.94,0,0,0-2.31-.37,17.07,17.07,0,0,0-3.77.47,5.71,5.71,0,0,0-3.14,2,25.13,25.13,0,0,1-1.44,2.33,3.3,3.3,0,0,1-3.36.94,3.75,3.75,0,0,1-2.28-2.32Z" style="fill:#BA68C8"></path><path d="M180.71,391.79c-.19.08-.4.12-.6.89-.07.29.13,3.44-.09,5.25s-1.28,5.56-.5,7.95c3.45,3.69,9,4.75,11.57,8.55S196,423,204.75,424.94s15.45-.62,17.13-3.07.28-4.84-5.26-8c-5.87-3.38-13.45-13.19-13.46-13.19a40.08,40.08,0,0,1-2.84-4.35,32.92,32.92,0,0,1-1.78-4.81,3.77,3.77,0,0,0-1.3-1.94,3.94,3.94,0,0,0-2.31-.37,17.07,17.07,0,0,0-3.77.47,5.71,5.71,0,0,0-3.14,2,25.13,25.13,0,0,1-1.44,2.33,3.3,3.3,0,0,1-3.36.94,3.75,3.75,0,0,1-2.28-2.32Z" style="opacity:0.4"></path><path d="M199.13,422.69a11.13,11.13,0,0,1,6.75-9.33c6.71-3.2,10.66-.91,12.64.6,2.36,1.8,5.71,5.51,3.54,8.08-2.33,2.78-6,4-12.73,3.92S199.13,422.69,199.13,422.69Z" style="fill:#fafafa"></path><path d="M190.64,402a.76.76,0,0,0,.61-.3c.78-1,5.7-4.8,10.31-3.38.25-.53-.13-1.1-1.06-1.69-4.87-.57-9.54,3-10.48,4.21a.72.72,0,0,0,.17,1A.85.85,0,0,0,190.64,402Z" style="fill:#fafafa"></path><path d="M204.12,401.84a2.29,2.29,0,0,0-1.27-1.65c-4.64-.22-9,3.09-9.87,4.28a.71.71,0,0,0,.17,1,.77.77,0,0,0,.45.14.75.75,0,0,0,.61-.29C195,404.33,199.64,400.75,204.12,401.84Z" style="fill:#fafafa"></path><path d="M211.21,409.57a4.25,4.25,0,0,0-2-2c-4.79-.45-9.34,3-10.27,4.24a.7.7,0,0,0,.17,1,.67.67,0,0,0,.45.14.78.78,0,0,0,.61-.29C201,411.58,206.39,407.43,211.21,409.57Z" style="fill:#fafafa"></path><path d="M196.57,409.29a.76.76,0,0,0,.61-.3c.77-1,5.58-4.71,10.14-3.42a2.57,2.57,0,0,0-1.51-1.71c-4.64-.22-9,3.09-9.87,4.27a.72.72,0,0,0,.17,1A.86.86,0,0,0,196.57,409.29Z" style="fill:#fafafa"></path></g><g id="freepik--Top--inject-254"><path id="freepik--Hair--inject-254" d="M100.41,171.44c-.4-7.62,13.87-14.55,28.07-5.68,5.19-.18,8.24,3.53,9.72,8.13,1,3.06.08,9.05-4.78,11.53-2,5.71-.92,9.23-4.27,14.25a23.59,23.59,0,0,1-3.06,3.9,13.24,13.24,0,0,1-8.57,4,55.09,55.09,0,0,1-7.59.41,26,26,0,0,1-3.74-.83,2.12,2.12,0,0,0-2.26,1.28,7.57,7.57,0,0,0-.78,2.38,5.62,5.62,0,0,1-.39-5.73,6.85,6.85,0,0,0-5.59.07,6.61,6.61,0,0,1,4.34-3.55c-1-1.26-2.24-2.28-3.26-3.57a20,20,0,0,1-2.65-4.33,28.26,28.26,0,0,1-2.47-12.25C93.31,176.72,95,171.72,100.41,171.44Z" style="fill:#263238"></path><path d="M134.57,216.41c6.64.71,10.24,1.75,14.69,7.84S170,257.63,170,257.63L155.59,267l-16.77-25.29Z" style="fill:#f0997a"></path><path d="M134.57,216.08c5.27.67,7.56,1.12,10.32,3.33s10.7,12.52,10.7,12.52c-4.31,6.23-10.66,9-17,10.48l-4-4.11Z" style="fill:#BA68C8"></path><path d="M172.92,283.44c-6.22-3.3-16.35-7.62-19.14-12.32-.89-8.28-2-16-3.93-28.18-2-12.71-4.06-13.1-7.43-18-4.43-6.37-7.85-8.9-7.85-8.9s-5.19-.49-7-.73c0,0-4.95-.59-6.19-.6-2.52,0-8.53,2.3-15.11,3.89-3,.72-3.66-.21-5.57.52-3,1.14-7.51,2.92-7.51,2.92-2.43,2.49-3.11,10.44-.31,21.62,1.28,5.13,4,11,3.54,23-.07,2.08-.89,14.12-.89,23.11,0,16.19,5.69,24.59,15.43,33.49s27,14,27,14l10-4.08-3-.76s.21-7,5.69-16.59c9-15.71,22.18-20.74,37.14-24C187.77,291.89,179.86,287.13,172.92,283.44Z" style="fill:#fafafa"></path><g id="freepik--Tablet--inject-254"><path d="M174.18,243.1h0l-1.22-.94h0a1.32,1.32,0,0,0-1.22-.06l-13.51,4.56a4.67,4.67,0,0,0-2.7,2.82l-7.62,26.84a1.23,1.23,0,0,0,.25,1.34h0l1.26,1v0a1.33,1.33,0,0,0,1.23.08l13.51-4.56a4.67,4.67,0,0,0,2.7-2.83c1.5-5.27,6.12-21.56,7.62-26.84C174.68,243.81,174.54,243.33,174.18,243.1Z" style="fill:#455a64"></path><path d="M158.14,248.42a4.56,4.56,0,0,0-1.36,2l-7.62,26.83a1.27,1.27,0,0,0,.2,1.31l-1.19-.91h0a1.21,1.21,0,0,1-.25-1.33l7.62-26.84a4.62,4.62,0,0,1,1.25-1.91Z" style="fill:#455a64"></path><path d="M149.16,277.27l7.62-26.83a4.69,4.69,0,0,1,2.7-2.83L173,243.05c1.15-.39,1.82.25,1.49,1.42-1.5,5.28-6.12,21.57-7.62,26.84a4.67,4.67,0,0,1-2.7,2.83l-13.51,4.56C149.5,279.08,148.83,278.45,149.16,277.27Z" style="fill:#263238"></path><path d="M157.11,256l1.43-5a.9.9,0,0,1,.5-.53l2.34-.78c.22-.07.34,0,.28.27l-1.43,5a.85.85,0,0,1-.5.53l-2.34.78C157.18,256.29,157.05,256.17,157.11,256Z" style="fill:#455a64"></path><path d="M158.72,252.1a2.21,2.21,0,0,1,1.29-1.3c.56-.19.89.09.74.63a2.21,2.21,0,0,1-1.29,1.3C158.9,252.92,158.57,252.64,158.72,252.1Z" style="fill:#263238"></path><path d="M158,254.64a2.18,2.18,0,0,1,1.28-1.31c.56-.19.89.09.74.63a2.18,2.18,0,0,1-1.29,1.3C158.21,255.45,157.88,255.17,158,254.64Z" style="fill:#263238"></path><path d="M172.64,259.62c1.29-1.77,1.18-2,.5-2.92a5.6,5.6,0,0,0-4.53-2.39,11.8,11.8,0,0,0-4,.38c-.82.41-.15,2.12,1.88,2.6,3.2.76,3.17,1.63,3.17,1.63a40.13,40.13,0,0,0-4.13-.78,29.85,29.85,0,0,0-4.72.66c-1.36.19-1.64,1.94.64,2.57l-2.48.36c-1.74.26-2.34,1.18-1,2.27a2.53,2.53,0,0,0,1.56.61s-1.85,0-1.89.59c-.13,1.76,1,2.24,4.73,3.37,3.55,1.07,4.26,3,3.54,4.32,0,0,1.44-.82,2.73-1.69,1-.64,1.75-1.35,1.34-2.82,0,0,2,.06,2.18-1.19a6.5,6.5,0,0,0-.46-2.71,2.22,2.22,0,0,0,1.15-2.08,3.63,3.63,0,0,0-.72-2.22Z" style="fill:#ffbda7"></path><path d="M161.5,261.37a11.18,11.18,0,0,1,2.26-.22,7.11,7.11,0,0,1,2.17.72,25.26,25.26,0,0,1,3.91,2.15,25.68,25.68,0,0,1-4.17-1.55,11.49,11.49,0,0,0-2-.81C163,261.54,162.23,261.51,161.5,261.37Z" style="fill:#f0997a"></path><path d="M159.59,264.61a5,5,0,0,1,2.44-.05,13.59,13.59,0,0,1,2.31.76,23.4,23.4,0,0,1,4.22,2.32,46.89,46.89,0,0,1-4.47-1.71A12.7,12.7,0,0,0,159.59,264.61Z" style="fill:#f0997a"></path></g><g id="freepik--head--inject-254"><path d="M105.81,214.31c.08-1.79-.17-12.59-.17-12.59,0,.67-3.2,2.68-6.31-.63s-3.51-7-1.88-9.42c1.79-2.7,6.1-2.79,8,1.35,1.29,1.46,3.44-.43,2.22-4.51.1-2.91,4.1-6.29,1.6-11.07,8-5.93,17.4-6.06,22.67-2a48.94,48.94,0,0,1,2.86,15.78c.18,9.57-2.12,14.32-5.09,16.09-2,1.19-3.07,1.66-6.67,1.55,0,3.3-.27,5.49,1.14,5.91a28.74,28.74,0,0,0,3.34.59s3.73,5.68-5.61,6.74c-14.89,1.68-21.26-2.93-21.26-2.93l2.12-.79C105.21,217.48,105.69,216.79,105.81,214.31Z" style="fill:#ffbda7"></path><path d="M123.09,208.85c-6.45-.3-13.47-2.18-15.07-5a5.79,5.79,0,0,0,2.84,4.58c3.77,1.94,12.23,2.71,12.23,2.71Z" style="fill:#f0997a"></path><path d="M118.48,196.33l5.75,1.49a2.92,2.92,0,0,1-3.56,2.23A3.11,3.11,0,0,1,118.48,196.33Z" style="fill:#b16668"></path><path d="M118.91,197.61a3.27,3.27,0,0,1,3.4,2.37,2.76,2.76,0,0,1-1.64.07,3.05,3.05,0,0,1-2.19-2.36Z" style="fill:#f28f8f"></path><path d="M132.11,182.3l-4-.76a2,2,0,0,1,2.3-1.64A2.13,2.13,0,0,1,132.11,182.3Z" style="fill:#263238"></path><path d="M114.19,183.57l3.54-2.08a2,2,0,0,0-2.76-.78A2.16,2.16,0,0,0,114.19,183.57Z" style="fill:#263238"></path><path d="M128.13,186.57a1.77,1.77,0,0,0,1.69,1.79,1.66,1.66,0,0,0,1.76-1.62,1.77,1.77,0,0,0-1.69-1.79A1.66,1.66,0,0,0,128.13,186.57Z" style="fill:#263238"></path><path d="M115.25,187a1.77,1.77,0,0,0,1.68,1.79,1.67,1.67,0,0,0,1.77-1.62A1.77,1.77,0,0,0,117,185.4,1.65,1.65,0,0,0,115.25,187Z" style="fill:#263238"></path><polygon points="129.33 192.4 123.64 194.93 122.44 184.03 129.33 192.4" style="fill:#f0997a"></polygon></g><path d="M110.35,268.24l-6.4-27s-4.19-14.25-10.84-19c-6.9,2.64-6.87,4.92-8.27,9.51-1.8,5.95-1.08,11.35,2.41,25.72,3,12.19,5.9,19.81,8.13,24.15,2.77,5.37,7.74,5.37,16.24,4.1s13.78-2.58,25.49-5.32c5.62-1.32,8.49-2.87,13.07-4.79a18.46,18.46,0,0,0,4.87-2.8,10.57,10.57,0,0,0,3.17-4,2.85,2.85,0,0,1,.41-.84,6.86,6.86,0,0,1,.65-.67,5.93,5.93,0,0,0,1.21-1.29,9.73,9.73,0,0,0,.67-1.75,5.66,5.66,0,0,1,.28-.82,5.37,5.37,0,0,1,.49-.75,6.76,6.76,0,0,0,1.25-2,1.21,1.21,0,0,0-.24-1.16s.73-.7,1-1a7,7,0,0,0,.87-1.15.68.68,0,0,0,.13-.54.65.65,0,0,0-.22-.25c-1.4-1.11-3.09-.43-4.5.27-3.66,1.84-5.58,3.75-9.44,5.19-2.11.77-2.64.94-3.42.77-1.1-.55,2.47-4.59,2.48-7.69,0-1.54-1.56-3.27-2.6-1.41-2.19,3.9-4.31,5.07-6,7.34s-3.36,3.71-7.26,5.46C129.79,268.49,110.35,268.24,110.35,268.24Z" style="fill:#ffbda7"></path><path d="M110.35,268.24a46.87,46.87,0,0,0-9.62.16s2.22-2,9.22-1.69Z" style="fill:#f0997a"></path><path d="M162.87,259.81a29.43,29.43,0,0,1-2.28,2.06c-.77.67-1.57,1.3-2.36,1.95-.39.32-.77.67-1.18,1s-.84.6-1.27.87c-.87.55-1.75,1.07-2.66,1.54l1.25-.89,1.24-.89c.41-.31.82-.6,1.21-.92s.77-.65,1.17-1c.79-.65,1.6-1.28,2.42-1.88Z" style="fill:#f0997a"></path><path d="M161.5,263.38a12.23,12.23,0,0,1-1.49,1.87c-.55.57-1.12,1.1-1.71,1.63s-1.21,1-1.84,1.49a17.59,17.59,0,0,1-2,1.31c.6-.51,1.18-1,1.78-1.55l1.76-1.54,1.77-1.55C160.39,264.51,161,264,161.5,263.38Z" style="fill:#f0997a"></path><path d="M93.19,222.08c-4.86,1.95-7.49,4-9.3,8.46s-1.37,6.56-1.37,16.29c9.93,1,14.82.67,22.49-1.72L104,240.32C102.68,233.33,98.8,225.68,93.19,222.08Z" style="fill:#BA68C8"></path><path d="M107,171.31a5.43,5.43,0,0,0,.88-5.31c1.48,2.2,4.68-1.31,5.22-2.66a5.42,5.42,0,0,0,.39-2.86,4,4,0,0,0-5.68-2.89,4.81,4.81,0,0,0-7.56-2.56,4.8,4.8,0,0,1,.58-2.41,2.28,2.28,0,0,1,2.06-1.17c-3.24-1.23-5.59,1-7,3.37a5.67,5.67,0,0,0-5.21,2.45,5,5,0,0,0,.11,5.27,3.7,3.7,0,0,0-.94,7.31,5.08,5.08,0,0,0-1.41,6.45,5,5,0,0,1,3.32-4.07,2.78,2.78,0,0,0,.68,3.58,5.37,5.37,0,0,0,3.77,1c2.41-.13,5-1.38,5.73-3.67A5.47,5.47,0,0,0,107,171.31Z" style="fill:#263238"></path><path d="M143.29,332.81c-7.78-1.24-26.18-9-32.41-13.25C117.74,325.8,129.55,332.81,143.29,332.81Z" style="fill:#ebebeb"></path><path d="M130.57,295.08c18,2.47,33.15-.21,40.37-3.42C158.23,301,147.55,300.27,130.57,295.08Z" style="fill:#ebebeb"></path></g></g><path d="M117.75,377.65V342.17a12.62,12.62,0,0,0-5.69-9.85L53.75,298.65l-4.46-37.93a15.12,15.12,0,0,0-6.56-9.79l-4.63-2.67c-3.12-1.81-5.68-.33-5.68,3.28v76.84a12.64,12.64,0,0,0,5.68,9.85l74,42.7C115.19,382.73,117.75,381.26,117.75,377.65Z" style="fill:#263238"></path><path d="M130.76,334.64v35.49c0,.12,0,.25,0,.37a12.71,12.71,0,0,1-5.62,9.45.09.09,0,0,0-.06,0l-1.63.94a2.32,2.32,0,0,1-.44.23,1.67,1.67,0,0,1-.23.12l-.07,0a3.25,3.25,0,0,1-.46.17,13.13,13.13,0,0,1-8.36.24,8.38,8.38,0,0,1-1-.37c2.74,1.13,4.85-.41,4.86-3.68h0V342.17a12.62,12.62,0,0,0-5.68-9.85l-10.32-6-48-27.7,7.33-4.24a12.65,12.65,0,0,1,11.37,0l42.32,24.43,10.3,5.95A12.58,12.58,0,0,1,130.76,334.64Z" style="fill:#455a64"></path><path d="M117.75,342.17v35.47h0c0,3.27-2.12,4.81-4.86,3.68a8.38,8.38,0,0,0,1,.37,13.13,13.13,0,0,0,8.36-.24,3.25,3.25,0,0,0,.46-.17l.07,0a1.67,1.67,0,0,0,.23-.12,2.32,2.32,0,0,0,.44-.23l1.63-.94a.09.09,0,0,1,.06,0,12.71,12.71,0,0,0,5.62-9.45c0-.12,0-.25,0-.37V334.64a11.6,11.6,0,0,0-1.67-5.59l-13,7.52A11.61,11.61,0,0,1,117.75,342.17Z" style="fill:#37474f"></path></g></g><g id="freepik--plant-2--inject-254"><g id="freepik--Plant--inject-254"><g id="freepik--Pot--inject-254"><path d="M477.73,386.42H432.65l4.66,19.42h0c.36,2.34,2.08,4.63,5.18,6.42,7,4,18.38,4,25.39,0,3.34-1.93,5.06-4.43,5.22-7Z" style="fill:#37474f"></path><path d="M472.23,399.73a18.36,18.36,0,0,0,2.7-1.89l2.54-10.37a18.33,18.33,0,0,1-4.56,3.62c-9.51,5.49-24.75,5.63-34.58.45l1.15-4.63-.35-.48h-6.47l4.65,19.41h0c.36,2.34,2.08,4.63,5.18,6.42,5,2.88,12.19,3.7,18.46,2.47-11.23.84-18.94-4.07-20.09-8.6-.46-1.8-1.27-5.8-1.27-5.8C449,405.09,463.27,404.9,472.23,399.73Z" style="fill:#263238"></path><path d="M480.07,380.68a9.38,9.38,0,0,1-1.5,3.5,16.71,16.71,0,0,1-5.66,5c-9.78,5.64-25.65,5.64-35.43,0a16.52,16.52,0,0,1-5.66-5,9.72,9.72,0,0,1-1.5-3.5h0c-.88-4.24,1.52-8.67,7.16-11.93,9.78-5.65,25.65-5.65,35.43,0C478.55,372,480.94,376.44,480.07,380.68Z" style="fill:#455a64"></path><path d="M478.57,384.18a16.71,16.71,0,0,1-5.66,5c-9.78,5.64-25.65,5.64-35.43,0a16.52,16.52,0,0,1-5.66-5,9.72,9.72,0,0,1-1.5-3.5h0l1.11,7.64c.51,3.07,2.8,6.07,6.88,8.42,9.33,5.38,24.44,5.38,33.76,0,4-2.32,6.32-5.28,6.87-8.31L479,388l1.08-7.36A9.38,9.38,0,0,1,478.57,384.18Z" style="fill:#37474f"></path><path d="M470,370.45c-8.16-4.71-21.38-4.71-29.53,0-4.61,2.67-6.61,6.27-6,9.74.47,2.67,2.47,5.27,6,7.31,8.15,4.71,21.37,4.71,29.53,0,3.53-2,5.54-4.64,6-7.3C476.57,376.72,474.57,373.12,470,370.45Z" style="fill:#263238"></path><path d="M435.8,383.42a14,14,0,0,0,4.63,4.08c8.15,4.71,21.37,4.71,29.53,0a14,14,0,0,0,4.63-4.08c-.06-2.82-1.95-5.62-5.68-7.78-7.57-4.37-19.86-4.37-27.43,0C437.75,377.8,435.86,380.6,435.8,383.42Z" style="fill:#fafafa"></path></g><path d="M456.75,374.66c-3.74-1-4.38-9.13-2.28-17.7,2-8.33,8.58-20.83,10-20.56s3.13,13.86,2.15,22.83C465.4,370.1,460.5,375.67,456.75,374.66Z" style="fill:#BA68C8"></path><path d="M456.75,374.66c-3.74-1-4.38-9.13-2.28-17.7,2-8.33,8.58-20.83,10-20.56s3.13,13.86,2.15,22.83C465.4,370.1,460.5,375.67,456.75,374.66Z" style="opacity:0.30000000000000004"></path><path d="M458.58,348.42c.67,1.06,1.09,2.85,2.66,2.86,1.26,0,1.92-1.33,3.06-1.64a3.1,3.1,0,0,1,2.52.76c0-.33,0-.65,0-1a3.79,3.79,0,0,0-2.18-.76,3.11,3.11,0,0,0-1.81.82c-.59.45-1.3,1.13-2.11.8s-1.17-1.52-1.63-2.28a3,3,0,0,0-1-1c-.11.23-.21.46-.31.69A2,2,0,0,1,458.58,348.42Zm4.44-3.35a5.52,5.52,0,0,0,1.27-1.19,1.83,1.83,0,0,1,1.93-.38l.07,0c0-.29-.08-.58-.11-.86l-.36-.08a2.14,2.14,0,0,0-1.57.34c-.51.37-.8,1-1.35,1.33-1,.59-1.75-.48-2-1.28-.13-.36-.23-.73-.35-1.09l-.3.57c.07.26.13.52.21.76C460.74,344.29,461.74,345.67,463,345.07Zm-.12,10.84a9.52,9.52,0,0,1-2,1.34c-1.93.55-2.37-2.43-3.6-3.31a2.53,2.53,0,0,0-1.75-.46c-.08.23-.16.46-.23.68a2.49,2.49,0,0,1,1,0,2.65,2.65,0,0,1,1.69,1.5c.62,1.11,1.4,2.69,2.95,2.39a5,5,0,0,0,1.79-1,3.22,3.22,0,0,1,2.61-.71,3.44,3.44,0,0,1,1.47.79c0-.3,0-.59.05-.89a3.72,3.72,0,0,0-1.79-.79A3.29,3.29,0,0,0,462.9,355.91Zm1.18,6.55a3.78,3.78,0,0,0-2.56.33c-.89.44-1.54,1.31-2.48,1.66-2,.77-2.35-2.18-3.85-2.91a3.08,3.08,0,0,0-1.54-.3c0,.24-.07.47-.1.7a2.41,2.41,0,0,1,.6,0,2.75,2.75,0,0,1,2.1,1.63c.72,1.34,1.67,2.44,3.32,1.63.89-.43,1.52-1.23,2.43-1.62a2.88,2.88,0,0,1,3,.28,4,4,0,0,1,.57.7c.08-.29.15-.59.22-.89A3.25,3.25,0,0,0,464.08,362.46Z" style="fill:#BA68C8;opacity:0.5"></path><path d="M456.75,374.66c3.75,1,8.65-4.56,9.84-15.43a64.7,64.7,0,0,0,.21-9.32c-3.06,2.52-6.13,7.65-6.13,7.65a84.44,84.44,0,0,0-3.64-8.2,57.15,57.15,0,0,0-2.56,7.6C452.37,365.53,453,373.64,456.75,374.66Z" style="opacity:0.1"></path><path d="M453.7,379.16c-4.93,3.16-9.53-8.09-12-16.58s-.85-30.7,1.64-31.91c1.76-.86,11.06,19,12.89,28.72C457.58,366.39,457.62,376.64,453.7,379.16Z" style="fill:#BA68C8"></path><path d="M453.7,379.16c-4.93,3.16-9.53-8.09-12-16.58s-.85-30.7,1.64-31.91c1.76-.86,11.06,19,12.89,28.72C457.58,366.39,457.62,376.64,453.7,379.16Z" style="opacity:0.1"></path><path d="M443.06,346.35c1.55.76,2.78.76,4-.54s1.95-2.75,3.7-2.55l-.51-1.16a2.74,2.74,0,0,0-.85.09c-1.53.4-2.22,2-3.29,3-1.65,1.55-3.42-.49-5.29-.37l-.17,0c0,.34,0,.68-.05,1A4.81,4.81,0,0,1,443.06,346.35Zm13.55,15.27a5.39,5.39,0,0,0-.81-.23,3,3,0,0,0-2.33.53c-1.49,1.09-1.56,3.52-4,2.89-1.83-.49-3.21-1.69-5.14-.73a6.85,6.85,0,0,0-1.77,1.33c.1.29.19.57.29.85a5.45,5.45,0,0,1,2.39-1.49c2.08-.53,3.65,1.57,5.71,1.22,1.69-.28,1.87-2.13,3-3a2.63,2.63,0,0,1,2.73-.17C456.71,362.39,456.66,362,456.61,361.62Zm-13.46-23.33c.58.79,1.39,1.67,2.46,1.12s1.23-2,2-2.88l-.4-.77c-.71,1-1.07,3-2.44,3-1.07-.06-1.49-1.64-2.38-2.1a1.54,1.54,0,0,0-.89-.17c0,.21-.07.43-.1.65l.21,0C442.32,337.11,442.75,337.74,443.15,338.29Zm3.71,16.85c1.95.42,2.9-1.9,3.78-3.18a5.75,5.75,0,0,1,2.7-2.29c-.13-.35-.26-.7-.4-1a3.39,3.39,0,0,0-1,.37,6.57,6.57,0,0,0-2.11,2.15,8.64,8.64,0,0,1-2,2.64c-1,.67-2.26-.38-3.34-.58a5.76,5.76,0,0,0-3,.24,5.54,5.54,0,0,0-.92.44c0,.48.05,1,.08,1.43a4.54,4.54,0,0,1,3.16-1.06C445,354.28,445.8,354.91,446.86,355.14Z" style="fill:#BA68C8"></path><path d="M453.67,350.57a28,28,0,0,0-4,6.54s-5.35-7.26-9.1-10.55c-.21,6,.09,12.32,1.15,16,2.45,8.49,7,19.74,12,16.58,3.92-2.52,3.88-12.77,2.55-19.77A60.42,60.42,0,0,0,453.67,350.57Z" style="opacity:0.1"></path><path d="M453.36,384.94c-9,.49-17.43-5-22.9-11.85s-9.73-21.09-8.49-22,15.77,8.09,21.23,14.56C450.36,374.17,453.36,384.94,453.36,384.94Z" style="fill:#BA68C8"></path><path d="M453.36,384.94c-9,.49-17.43-5-22.9-11.85s-9.73-21.09-8.49-22,15.77,8.09,21.23,14.56C450.36,374.17,453.36,384.94,453.36,384.94Z" style="opacity:0.2"></path><path d="M433.69,362.37c.53-.85.23-1.87.11-2.79a2.62,2.62,0,0,1,.36-1.75l-1-.72a3.62,3.62,0,0,0-.37,2.44c.15,1,.4,2.34-1,2.53s-3.62-1.15-4.83.35c-.59.73-.37,1.66-.39,2.51a2.52,2.52,0,0,1-.32,1.1c.16.34.33.68.5,1a3.15,3.15,0,0,0,.67-1.53c.13-1-.28-2.4,1.13-2.63a12.93,12.93,0,0,1,2.89.37A2.31,2.31,0,0,0,433.69,362.37Zm-5-7.53a1.83,1.83,0,0,1,.4-.43l-.81-.49c-.67.87-.66,2.06-1.33,2.93a1.54,1.54,0,0,1-1.7.48,3,3,0,0,0-1.88.06,3.44,3.44,0,0,0-.38.22l.21.65a2.06,2.06,0,0,1,.94-.26c.68,0,1.32.34,2,.29a1.75,1.75,0,0,0,1.19-.61C428.05,356.87,428.09,355.74,428.66,354.84Zm10,12.08A4.4,4.4,0,0,0,440,364.6a15.1,15.1,0,0,0,.24-1.91c-.28-.25-.56-.51-.86-.76a9.09,9.09,0,0,1-.63,3.12,2.81,2.81,0,0,1-2.8,1.47,2.92,2.92,0,0,0-2.41.76,4.51,4.51,0,0,0-.9,2.42c-.18,1.26-.38,2.42-1.54,3.13a3.87,3.87,0,0,1-.62.29c.21.27.43.52.65.78a3.52,3.52,0,0,0,1.29-1c1.51-1.79.29-5.34,3.49-5.34A3.92,3.92,0,0,0,438.65,366.92Zm4.84.91a4.57,4.57,0,0,1,.68-.95c-.25-.32-.51-.65-.78-1a5.88,5.88,0,0,0-1.44,2.84,8.5,8.5,0,0,1-1.18,3.36c-.78,1-2,.9-3.07,1.48a4.31,4.31,0,0,0-1.92,2.24,10.92,10.92,0,0,0-.48,2.27c.31.27.63.53.95.79l0-.14a5.59,5.59,0,0,1,1.35-3.52c.95-.9,2.26-.77,3.28-1.49C442.85,372.38,442.51,369.74,443.49,367.83Zm3.91,3.75a5.88,5.88,0,0,0-.73.68c-1.54,1.69-1.35,3.88-1.91,5.95a3.63,3.63,0,0,1-1.92,2.57c-.86.36-1.83,0-2.58.69,0,0,0,0-.07.08.44.26.89.5,1.35.73a3.14,3.14,0,0,1,.75-.09,3.36,3.36,0,0,0,1.4-.34,4,4,0,0,0,1.72-1.87c.93-1.94.52-4.29,1.68-6.13a5.11,5.11,0,0,1,1-1.13Z" style="fill:#BA68C8"></path><path d="M433.06,357.05c.85,7.46,4.83,27.54,20.3,27.89,0,0-3-10.77-10.16-19.25A56.36,56.36,0,0,0,433.06,357.05Z" style="opacity:0.2"></path><path d="M453.36,384.94c-7.09-1-13.17-5.52-16.3-18.87s-3.6-19.39-1.45-20.71c2.47-1.53,12.15,11.93,15.26,17.85C458.69,378.09,453.36,384.94,453.36,384.94Z" style="fill:#BA68C8"></path><path d="M440.21,360.27c1.77.55,4.07,1.14,5.39-.6a17,17,0,0,0,1.28-2.91c-.31-.46-.63-.91-.95-1.37-.78,1.26-.76,3.12-2.13,3.84a4.34,4.34,0,0,1-3.28-.13,7.76,7.76,0,0,0-3.26-.49,4.66,4.66,0,0,0-1.7.6c.08.39.17.81.25,1.21a6.51,6.51,0,0,1,.71-.33A5.45,5.45,0,0,1,440.21,360.27Zm-2.09-6.91a2.83,2.83,0,0,0,1.64.31c1.08-.22,1.64-1.26,2.19-2.11a4.58,4.58,0,0,1,.55-.7l-.67-.8-.14.14c-.67.81-1.23,2.46-2.48,2.49a8.13,8.13,0,0,1-1.77-.52,4.14,4.14,0,0,0-1.53,0,3.66,3.66,0,0,0-1.41.54q0,.46.12,1a4.15,4.15,0,0,1,1.9-.59A3.84,3.84,0,0,1,438.12,353.36Zm7.73,14.83a10.21,10.21,0,0,1,2.17-2.83,4.79,4.79,0,0,1,3.61-.64c-.24-.49-.49-1-.76-1.51a6,6,0,0,0-2.45.16,5.2,5.2,0,0,0-2.7,2A14.86,14.86,0,0,1,443.9,368c-1.44,1.32-3.39.17-5-.15a5.67,5.67,0,0,0-1.42-.11c.13.46.26.92.39,1.36a6.3,6.3,0,0,1,1.86.29C442.14,370.1,444.24,370.54,445.85,368.19Zm8.17,2.6a2.42,2.42,0,0,0-.36.1,5.42,5.42,0,0,0-2.4,1.8c-.69.89-1.05,2-1.7,2.87a2.23,2.23,0,0,1-2.82.95,4.79,4.79,0,0,0-3.12-.23,5,5,0,0,0-2,1.23c.24.36.49.69.74,1a4.18,4.18,0,0,1,1.52-.89,3.4,3.4,0,0,1,2.44.31,3.83,3.83,0,0,0,5-1.53c.6-.89,1-1.94,1.64-2.78a3.87,3.87,0,0,1,1.46-1.12C454.34,372,454.19,371.39,454,370.79Z" style="fill:#fff;opacity:0.2"></path><path d="M450.87,363.21c-.56-1.07-1.34-2.39-2.25-3.82-3.07,9.48-4.06,23.31,4.74,25.55C453.36,384.94,458.69,378.09,450.87,363.21Z" style="opacity:0.15"></path><path d="M457,384.94c9,.49,17.43-5,22.9-11.85s9.72-21.09,8.49-22-15.78,8.09-21.24,14.56C460,374.17,457,384.94,457,384.94Z" style="fill:#BA68C8"></path><path d="M457,384.94c9,.49,17.43-5,22.9-11.85s9.72-21.09,8.49-22-15.78,8.09-21.24,14.56C460,374.17,457,384.94,457,384.94Z" style="opacity:0.2"></path><path d="M479,363.27a12.93,12.93,0,0,1,2.89-.37c1.41.23,1,1.58,1.13,2.63a3.15,3.15,0,0,0,.67,1.53c.17-.34.34-.68.5-1a2.28,2.28,0,0,1-.32-1.1c0-.85.2-1.78-.39-2.51-1.21-1.5-3.31-.14-4.83-.35s-1.14-1.49-1-2.53a3.68,3.68,0,0,0-.37-2.44l-1,.72a2.57,2.57,0,0,1,.37,1.75c-.12.92-.42,1.94.11,2.79A2.31,2.31,0,0,0,479,363.27Zm4.13-5.59a1.75,1.75,0,0,0,1.19.61c.69,0,1.32-.31,2-.29a2.06,2.06,0,0,1,.94.26l.21-.65c-.12-.08-.25-.15-.38-.22a3,3,0,0,0-1.88-.06,1.54,1.54,0,0,1-1.7-.48c-.67-.87-.67-2.06-1.33-2.93l-.81.49a1.83,1.83,0,0,1,.4.43C482.3,355.74,482.34,356.87,483.08,357.68Zm-8.61,9.92c3.2,0,2,3.55,3.49,5.34a3.52,3.52,0,0,0,1.29,1c.22-.26.44-.51.65-.78a3.87,3.87,0,0,1-.62-.29c-1.17-.71-1.36-1.87-1.54-3.13a4.59,4.59,0,0,0-.9-2.42,2.93,2.93,0,0,0-2.41-.76,2.83,2.83,0,0,1-2.81-1.47,9.58,9.58,0,0,1-.63-3.12l-.85.76a13.47,13.47,0,0,0,.24,1.91,4.4,4.4,0,0,0,1.36,2.32A3.92,3.92,0,0,0,474.47,367.6Zm-5,6.14c1,.72,2.33.59,3.28,1.49a5.65,5.65,0,0,1,1.35,3.52.59.59,0,0,1,0,.14c.33-.26.64-.52,1-.79a10.92,10.92,0,0,0-.48-2.27,4.33,4.33,0,0,0-1.93-2.24c-1-.58-2.28-.48-3.06-1.48a8.5,8.5,0,0,1-1.18-3.36,5.88,5.88,0,0,0-1.44-2.84c-.27.32-.53.65-.78,1a4.57,4.57,0,0,1,.68.95C467.87,369.74,467.54,372.38,469.48,373.74Zm-7.16-1a5.11,5.11,0,0,1,1,1.13c1.16,1.84.75,4.19,1.68,6.13a4,4,0,0,0,1.72,1.87,3.36,3.36,0,0,0,1.4.34,3.14,3.14,0,0,1,.75.09c.45-.23.9-.47,1.35-.73l-.07-.08c-.75-.68-1.72-.33-2.58-.69a3.63,3.63,0,0,1-1.92-2.57c-.56-2.07-.37-4.26-1.91-5.95a5.88,5.88,0,0,0-.73-.68Z" style="fill:#BA68C8"></path><path d="M477.32,357.05c-.84,7.46-4.83,27.54-20.29,27.89,0,0,3-10.77,10.15-19.25A57.07,57.07,0,0,1,477.32,357.05Z" style="opacity:0.2"></path><path d="M457,384.94c7.09-1,13.17-5.52,16.3-18.87s3.6-19.39,1.45-20.71c-2.48-1.53-12.15,11.93-15.26,17.85C451.7,378.09,457,384.94,457,384.94Z" style="fill:#BA68C8"></path><path d="M473.87,360.09a6.51,6.51,0,0,1,.71.33c.08-.4.17-.82.25-1.21a4.66,4.66,0,0,0-1.7-.6,7.71,7.71,0,0,0-3.26.49,4.34,4.34,0,0,1-3.28.13c-1.37-.72-1.35-2.58-2.13-3.84-.32.46-.64.91-.95,1.37a17,17,0,0,0,1.28,2.91c1.32,1.74,3.62,1.15,5.39.6A5.45,5.45,0,0,1,473.87,360.09Zm0-7a4.15,4.15,0,0,1,1.9.59q.08-.5.12-1a3.65,3.65,0,0,0-1.42-.54,4.09,4.09,0,0,0-1.52,0,8.3,8.3,0,0,1-1.77.52c-1.25,0-1.81-1.68-2.48-2.49l-.14-.14-.67.8a4.58,4.58,0,0,1,.55.7c.55.85,1.11,1.89,2.19,2.11a2.85,2.85,0,0,0,1.64-.31A3.84,3.84,0,0,1,473.87,353.05Zm-3.21,16.3a6.3,6.3,0,0,1,1.86-.29c.13-.44.26-.9.38-1.36a5.63,5.63,0,0,0-1.41.11c-1.61.32-3.56,1.47-5,.15a15.36,15.36,0,0,1-1.81-2.61,5.2,5.2,0,0,0-2.7-2,6,6,0,0,0-2.45-.16c-.27.52-.52,1-.76,1.51a4.79,4.79,0,0,1,3.61.64,10.21,10.21,0,0,1,2.17,2.83C466.15,370.54,468.25,370.1,470.66,369.35Zm-14.74,3.17a4,4,0,0,1,1.46,1.12c.68.84,1,1.89,1.64,2.78a3.83,3.83,0,0,0,5,1.53,3.4,3.4,0,0,1,2.44-.31,4.18,4.18,0,0,1,1.52.89c.25-.33.5-.66.74-1a5,5,0,0,0-2-1.23,4.79,4.79,0,0,0-3.12.23,2.23,2.23,0,0,1-2.82-.95c-.65-.9-1-2-1.7-2.87a5.42,5.42,0,0,0-2.4-1.8,2.42,2.42,0,0,0-.36-.1C456.19,371.39,456.05,372,455.92,372.52Z" style="fill:#fff;opacity:0.2"></path><path d="M459.52,363.21c.56-1.07,1.34-2.39,2.25-3.82,3.07,9.48,4.05,23.31-4.74,25.55C457,384.94,451.7,378.09,459.52,363.21Z" style="opacity:0.15"></path><path d="M455.19,386.41c6,0,8-8.13,7.37-14.68s-4.73-19-7.37-19-6.77,12.47-7.37,19S449.21,386.41,455.19,386.41Z" style="fill:#BA68C8"></path><path d="M455.19,386.41c6,0,8-8.13,7.37-14.68s-4.73-19-7.37-19-6.77,12.47-7.37,19S449.21,386.41,455.19,386.41Z" style="fill:#fff;opacity:0.30000000000000004"></path><path d="M455.16,361.24a4.92,4.92,0,0,0,2.23-1.6,3.79,3.79,0,0,1,1.84-.95c-.15-.39-.31-.77-.46-1.13a5.49,5.49,0,0,0-2.52,1.55,3.71,3.71,0,0,1-1.25.94c-.73.25-1.17-.14-1.64-.62a4,4,0,0,0-2-1.17h-.06c-.13.31-.25.62-.37.94a3.75,3.75,0,0,1,2.08,1.18A2.25,2.25,0,0,0,455.16,361.24Zm-4.46,7.17c2,1.57,3.64-.65,4.91-2,1.06-1.1,2.19-1.32,3.4-.31a7.69,7.69,0,0,0,2.28,1.65,2.94,2.94,0,0,0,.68.17c-.07-.37-.16-.75-.24-1.13a6.73,6.73,0,0,1-2.43-1.62c-1.78-1.46-3.38-.84-4.79.77-.81.94-2.13,2.54-3.47,1.54-.79-.59-1.16-1.59-2-2.16l0,0c-.09.33-.17.66-.25,1C449.56,366.83,450,367.83,450.7,368.41Zm2.23,7.17c1.13,1.5,2.54,1.87,4.07.58a28.46,28.46,0,0,1,2.05-2.06c1.14-.77,2.44-.37,3.61.09,0-.36,0-.71,0-1.07a8.62,8.62,0,0,0-1.66-.51,3.36,3.36,0,0,0-2.58.52c-.84.6-1.36,1.54-2.18,2.17a2,2,0,0,1-1.73.55c-.68-.25-1.09-1.11-1.59-1.61a4.88,4.88,0,0,0-2.31-1.32,4.22,4.22,0,0,0-2.86.28c0,.34,0,.68,0,1A4.22,4.22,0,0,1,452.93,375.58Zm5.67,6.09a4.68,4.68,0,0,1-3.37,1,2.63,2.63,0,0,1-1.7-.75c-.33-.34-.57-.75-.91-1.09a4,4,0,0,0-2.25-1.12,4.36,4.36,0,0,0-1.87.16c.1.37.21.73.34,1.08a3.12,3.12,0,0,1,3,.41c.72.53,1.06,1.4,1.82,1.9a4.26,4.26,0,0,0,2.33.61,5.36,5.36,0,0,0,2.48-.62c.86-.45,1.47-1.23,2.31-1.71a3.55,3.55,0,0,1,.69-.31c.16-.44.31-.89.44-1.36a4.26,4.26,0,0,0-.83.18A8.48,8.48,0,0,0,458.6,381.67Z" style="fill:#fff;opacity:0.2"></path></g></g><g id="freepik--plant-1--inject-254"><g id="freepik--plant--inject-254"><g id="freepik--pot--inject-254"><path d="M46.61,415.19c-7.13-7.36-11.33-25.87-4.37-31.72H77.66c7,5.84,2.77,24.35-4.36,31.71l-.19.21-.25.24c-.2.2-.42.39-.65.58l-.17.14-.53.41a9.58,9.58,0,0,1-.93.59c-5.87,3.43-15.39,3.43-21.26,0h0a9.72,9.72,0,0,1-.93-.6l-.5-.38-.21-.17c-.22-.18-.43-.37-.62-.56l-.28-.28Z" style="fill:#37474f"></path><path d="M74.59,381.12c8.08,4.72,8.08,12.37,0,17.09s-21.19,4.72-29.27,0-8.08-12.37,0-17.09S66.51,376.4,74.59,381.12Z" style="fill:#455a64"></path><path d="M70.7,383.39c5.93,3.47,5.93,9.08,0,12.55s-15.56,3.46-21.49,0-5.94-9.08,0-12.55S64.76,379.93,70.7,383.39Z" style="fill:#263238"></path><path d="M49.21,389.35c5.93-3.47,15.55-3.47,21.49,0a9.84,9.84,0,0,1,3.55,3.29,9.77,9.77,0,0,1-3.55,3.3c-5.94,3.46-15.56,3.46-21.49,0a9.89,9.89,0,0,1-3.56-3.3A10,10,0,0,1,49.21,389.35Z" style="fill:#fafafa"></path></g><path d="M57.57,342.11c-2.71,2.95-10.26,3.75-13.38-4.19-2.93-7.46-6.09-14.52-7-17.25A2.81,2.81,0,0,1,39,317s.22-4.1,7.16-1.32S58,322.69,61,329.5,62.22,341.2,57.57,342.11Z" style="fill:#BA68C8"></path><path d="M57.57,342.11c-2.71,2.95-10.26,3.75-13.38-4.19-2.93-7.46-6.09-14.52-7-17.25A2.81,2.81,0,0,1,39,317s.22-4.1,7.16-1.32S58,322.69,61,329.5,62.22,341.2,57.57,342.11Z" style="fill:#fff;opacity:0.45"></path><path d="M60.57,352.62a35.89,35.89,0,0,0-.6-4.14,57.08,57.08,0,0,0-2.3-8,58.77,58.77,0,0,0-8-14.84,50.14,50.14,0,0,0-6.32-7.17c-.07-.07-.13.09-.08.14a62.89,62.89,0,0,1,9.9,13.68,63.42,63.42,0,0,1,5.73,15.51c.34,1.51.66,3,.94,4.55s.44,3.11.7,4.66c0,.15.27.25.28,0A28.52,28.52,0,0,0,60.57,352.62Z" style="fill:#BA68C8"></path><path d="M60.57,352.62a35.89,35.89,0,0,0-.6-4.14,57.08,57.08,0,0,0-2.3-8,58.77,58.77,0,0,0-8-14.84,50.14,50.14,0,0,0-6.32-7.17c-.07-.07-.13.09-.08.14a62.89,62.89,0,0,1,9.9,13.68,63.42,63.42,0,0,1,5.73,15.51c.34,1.51.66,3,.94,4.55s.44,3.11.7,4.66c0,.15.27.25.28,0A28.52,28.52,0,0,0,60.57,352.62Z" style="opacity:0.30000000000000004"></path><path d="M62.89,340.05C56.66,342,52,337.12,53.63,329.49s9.62-16.1,12.65-13.82c1.89-1.89,6-1.22,8,5S74.47,342.76,62.89,340.05Z" style="fill:#BA68C8"></path><path d="M62.89,340.05C56.66,342,52,337.12,53.63,329.49s9.62-16.1,12.65-13.82c1.89-1.89,6-1.22,8,5S74.47,342.76,62.89,340.05Z" style="fill:#fff;opacity:0.25"></path><path d="M66.55,320.31A82.85,82.85,0,0,0,62.41,334,134,134,0,0,0,60,348.37a223.75,223.75,0,0,0-1.25,28.12c0,2.6.06,5.19.1,7.79s0,5.37.24,8c.09,1,1.54.75,1.56-.19.09-4.67-.17-9.36-.21-14s0-9.25.08-13.86a194.47,194.47,0,0,1,2.53-28.1c.44-2.58.93-5.16,1.54-7.72s1.41-5.33,2.11-8C66.73,320.3,66.61,320.16,66.55,320.31Z" style="fill:#BA68C8"></path><path d="M66.55,320.31A82.85,82.85,0,0,0,62.41,334,134,134,0,0,0,60,348.37a223.75,223.75,0,0,0-1.25,28.12c0,2.6.06,5.19.1,7.79s0,5.37.24,8c.09,1,1.54.75,1.56-.19.09-4.67-.17-9.36-.21-14s0-9.25.08-13.86a194.47,194.47,0,0,1,2.53-28.1c.44-2.58.93-5.16,1.54-7.72s1.41-5.33,2.11-8C66.73,320.3,66.61,320.16,66.55,320.31Z" style="opacity:0.30000000000000004"></path><path d="M52.75,362.43c-2.72,3.08-9,2.81-13.15-2.7s-6.69-26.18-.81-24.86c1.25-2.76,17.53,3.87,19.61,17.37C59.92,362.05,52.75,362.43,52.75,362.43Z" style="fill:#BA68C8"></path><path d="M52.75,362.43c-2.72,3.08-9,2.81-13.15-2.7s-6.69-26.18-.81-24.86c1.25-2.76,17.53,3.87,19.61,17.37C59.92,362.05,52.75,362.43,52.75,362.43Z" style="fill:#fff;opacity:0.25"></path><path d="M57.62,372.2a30.07,30.07,0,0,0-.8-3.77,76,76,0,0,0-2.43-7.49,78.56,78.56,0,0,0-7.27-14.27A71.1,71.1,0,0,0,42,339.38c-.05-.06-.1.08-.07.13,1.45,2.12,2.93,4.21,4.24,6.43s2.57,4.67,3.69,7.09a98,98,0,0,1,5.36,14.4c.4,1.4.73,2.82,1.14,4.22s1,2.87,1.34,4.33c.05.22.32.3.3,0C57.83,374.73,57.79,373.46,57.62,372.2Z" style="fill:#BA68C8"></path><path d="M57.62,372.2a30.07,30.07,0,0,0-.8-3.77,76,76,0,0,0-2.43-7.49,78.56,78.56,0,0,0-7.27-14.27A71.1,71.1,0,0,0,42,339.38c-.05-.06-.1.08-.07.13,1.45,2.12,2.93,4.21,4.24,6.43s2.57,4.67,3.69,7.09a98,98,0,0,1,5.36,14.4c.4,1.4.73,2.82,1.14,4.22s1,2.87,1.34,4.33c.05.22.32.3.3,0C57.83,374.73,57.79,373.46,57.62,372.2Z" style="opacity:0.30000000000000004"></path><path d="M62.72,359.37c-3.57-.81-3.74-5.09.71-10.34s15.67-7.54,16.2-5.33c2.5,0,2.5,7.81-3,15S63.05,364.19,62.72,359.37Z" style="fill:#BA68C8"></path><path d="M62.72,359.37c-3.57-.81-3.74-5.09.71-10.34s15.67-7.54,16.2-5.33c2.5,0,2.5,7.81-3,15S63.05,364.19,62.72,359.37Z" style="fill:#fff;opacity:0.25"></path><path d="M69.69,351.73A28.29,28.29,0,0,0,59.38,365c-.11.31.41.75.54.42a32.79,32.79,0,0,1,9.79-13.65S69.74,351.7,69.69,351.73Z" style="fill:#BA68C8"></path><path d="M69.69,351.73A28.29,28.29,0,0,0,59.38,365c-.11.31.41.75.54.42a32.79,32.79,0,0,1,9.79-13.65S69.74,351.7,69.69,351.73Z" style="opacity:0.30000000000000004"></path><path d="M66.78,385.43c-4.93,2-2.81,7.87,2,12.34a22,22,0,0,0,15,5.4c3.31-.23,4.16-.69,4.16-.69a37.41,37.41,0,0,0,0-8.17A15.78,15.78,0,0,0,76.3,381.79C68.63,379.71,66.78,382.49,66.78,385.43Z" style="fill:#BA68C8"></path><path d="M66.78,385.43c-4.93,2-2.81,7.87,2,12.34a22,22,0,0,0,15,5.4c3.31-.23,4.16-.69,4.16-.69a37.41,37.41,0,0,0,0-8.17A15.78,15.78,0,0,0,76.3,381.79C68.63,379.71,66.78,382.49,66.78,385.43Z" style="fill:#fff;opacity:0.45"></path><path d="M80.44,394.11a39.41,39.41,0,0,0-7.55-7c-2.81-1.85-6.56-3.43-9.93-2.28-1.3.45-3.33,1.75-3.09,3.37,0,.16.31.56.51.33a13.44,13.44,0,0,1,1.77-2.07,5.31,5.31,0,0,1,2.65-1A12.19,12.19,0,0,1,71.72,387c3.34,1.77,6,4.51,8.69,7.14C80.43,394.21,80.47,394.13,80.44,394.11Z" style="fill:#BA68C8"></path><path d="M80.44,394.11a39.41,39.41,0,0,0-7.55-7c-2.81-1.85-6.56-3.43-9.93-2.28-1.3.45-3.33,1.75-3.09,3.37,0,.16.31.56.51.33a13.44,13.44,0,0,1,1.77-2.07,5.31,5.31,0,0,1,2.65-1A12.19,12.19,0,0,1,71.72,387c3.34,1.77,6,4.51,8.69,7.14C80.43,394.21,80.47,394.13,80.44,394.11Z" style="opacity:0.30000000000000004"></path><path d="M48,360.16c.47-2.24-2.78-7.62-12.89-8.65s-17.7,3.26-19.22,5.22-2.3,4-.47,4.53,8.16,1.13,12.31,3,12.58,7.56,18.34,5.88S50.86,362.4,48,360.16Z" style="fill:#BA68C8"></path><path d="M48,360.16c.47-2.24-2.78-7.62-12.89-8.65s-17.7,3.26-19.22,5.22-2.3,4-.47,4.53,8.16,1.13,12.31,3,12.58,7.56,18.34,5.88S50.86,362.4,48,360.16Z" style="fill:#fff;opacity:0.45"></path><path d="M55.69,368c-4.27-8.82-15.26-11.51-24.25-11.46a35.58,35.58,0,0,0-8.77,1.14s0,.11,0,.1a46.39,46.39,0,0,1,14.64-.14A30.2,30.2,0,0,1,50.7,362.8a18.2,18.2,0,0,1,4.79,5.36C55.61,368.38,55.78,368.18,55.69,368Z" style="fill:#BA68C8"></path><path d="M55.69,368c-4.27-8.82-15.26-11.51-24.25-11.46a35.58,35.58,0,0,0-8.77,1.14s0,.11,0,.1a46.39,46.39,0,0,1,14.64-.14A30.2,30.2,0,0,1,50.7,362.8a18.2,18.2,0,0,1,4.79,5.36C55.61,368.38,55.78,368.18,55.69,368Z" style="opacity:0.30000000000000004"></path><path d="M71.57,348.36c-.13,3.54,4.85,5.59,9.66,2.53s9.87-6,14.34-7.19,6.58-4.79,5.17-6.56-3.65-6.21-15.39-4.75-15.9,6.74-17.51,10.47S69.8,349.38,71.57,348.36Z" style="fill:#BA68C8"></path><path d="M71.57,348.36c-.13,3.54,4.85,5.59,9.66,2.53s9.87-6,14.34-7.19,6.58-4.79,5.17-6.56-3.65-6.21-15.39-4.75-15.9,6.74-17.51,10.47S69.8,349.38,71.57,348.36Z" style="fill:#fff;opacity:0.45"></path><path d="M90.67,337.13a12.62,12.62,0,0,0-5,.53,24.83,24.83,0,0,0-4.31,1.54A23.71,23.71,0,0,0,74,344.52a19.67,19.67,0,0,0-1.66,2,8.67,8.67,0,0,0-1.25,2.05c-.08.24.26.62.46.38.58-.67,1-1.49,1.57-2.2A24,24,0,0,1,75,344.58,23.63,23.63,0,0,1,79.52,341a28,28,0,0,1,5-2.44,29.71,29.71,0,0,1,2.92-.88,10.16,10.16,0,0,1,3.19-.44C90.7,337.26,90.73,337.14,90.67,337.13Z" style="fill:#BA68C8"></path><path d="M90.67,337.13a12.62,12.62,0,0,0-5,.53,24.83,24.83,0,0,0-4.31,1.54A23.71,23.71,0,0,0,74,344.52a19.67,19.67,0,0,0-1.66,2,8.67,8.67,0,0,0-1.25,2.05c-.08.24.26.62.46.38.58-.67,1-1.49,1.57-2.2A24,24,0,0,1,75,344.58,23.63,23.63,0,0,1,79.52,341a28,28,0,0,1,5-2.44,29.71,29.71,0,0,1,2.92-.88,10.16,10.16,0,0,1,3.19-.44C90.7,337.26,90.73,337.14,90.67,337.13Z" style="opacity:0.30000000000000004"></path><path d="M63.14,367.45c-1.64-1.64-6.11-1.26-8.22,3.6s2.32,10.18,2.82,11.68c2-1.18,3.62-.48,7.22-1.18a9,9,0,0,0,6.88-8.94C71.6,368.16,69.72,365.22,63.14,367.45Z" style="fill:#BA68C8"></path><path d="M63.14,367.45c-1.64-1.64-6.11-1.26-8.22,3.6s2.32,10.18,2.82,11.68c2-1.18,3.62-.48,7.22-1.18a9,9,0,0,0,6.88-8.94C71.6,368.16,69.72,365.22,63.14,367.45Z" style="fill:#fff;opacity:0.45"></path><path d="M63.08,367a6.83,6.83,0,0,0-2.18,2.26A12.18,12.18,0,0,0,59.49,372a11.57,11.57,0,0,0-.62,6.19c0,.07.08,0,.08-.05A12.73,12.73,0,0,1,60,372a12.53,12.53,0,0,1,1.49-2.45,13.62,13.62,0,0,1,1-1.15,6.43,6.43,0,0,0,.94-.94C63.52,367.24,63.33,366.84,63.08,367Z" style="fill:#BA68C8"></path><path d="M63.08,367a6.83,6.83,0,0,0-2.18,2.26A12.18,12.18,0,0,0,59.49,372a11.57,11.57,0,0,0-.62,6.19c0,.07.08,0,.08-.05A12.73,12.73,0,0,1,60,372a12.53,12.53,0,0,1,1.49-2.45,13.62,13.62,0,0,1,1-1.15,6.43,6.43,0,0,0,.94-.94C63.52,367.24,63.33,366.84,63.08,367Z" style="opacity:0.30000000000000004"></path><path d="M55.4,377.3c-.15-3.61-4.07-6.48-9.65-8.14a15.16,15.16,0,0,0-15.68,4.17c-4.07,4.43-6.18,8.2-4.52,9.25s9,3.77,13.87,5.28,11.16,2,16-.91S59.93,379.11,55.4,377.3Z" style="fill:#BA68C8"></path><path d="M55.4,377.3c-.15-3.61-4.07-6.48-9.65-8.14a15.16,15.16,0,0,0-15.68,4.17c-4.07,4.43-6.18,8.2-4.52,9.25s9,3.77,13.87,5.28,11.16,2,16-.91S59.93,379.11,55.4,377.3Z" style="fill:#fff;opacity:0.25"></path><path d="M55.71,376.9a15.35,15.35,0,0,0-6.06-1.62,27.38,27.38,0,0,0-6.07.07,37.64,37.64,0,0,0-6.29,1.33c-1.07.32-2.14.67-3.19,1.06a21.84,21.84,0,0,0-2.92,1.2s-.05.14,0,.12c1-.21,2-.61,3-.92s2.16-.64,3.25-.93A42,42,0,0,1,43.65,376a27.65,27.65,0,0,1,6.3,0,37.46,37.46,0,0,1,5.71,1.4C56.05,377.57,55.93,377,55.71,376.9Z" style="fill:#BA68C8"></path><path d="M55.71,376.9a15.35,15.35,0,0,0-6.06-1.62,27.38,27.38,0,0,0-6.07.07,37.64,37.64,0,0,0-6.29,1.33c-1.07.32-2.14.67-3.19,1.06a21.84,21.84,0,0,0-2.92,1.2s-.05.14,0,.12c1-.21,2-.61,3-.92s2.16-.64,3.25-.93A42,42,0,0,1,43.65,376a27.65,27.65,0,0,1,6.3,0,37.46,37.46,0,0,1,5.71,1.4C56.05,377.57,55.93,377,55.71,376.9Z" style="opacity:0.30000000000000004"></path><path d="M66.91,371.92c-4-3.17-2.65-10.77,11.3-11.18s23.93,3.23,23.48,7.73c2.25,2.24,1.11,8.54-10.19,10.5S64,380,66.91,371.92Z" style="fill:#BA68C8"></path><path d="M66.91,371.92c-4-3.17-2.65-10.77,11.3-11.18s23.93,3.23,23.48,7.73c2.25,2.24,1.11,8.54-10.19,10.5S64,380,66.91,371.92Z" style="fill:#fff;opacity:0.25"></path><path d="M95.13,368.52a59.13,59.13,0,0,0-12.47-.73,48.4,48.4,0,0,0-11.51,1.32,17.91,17.91,0,0,0-2.81,1c-.41.2-.83.42-1.22.66s-.67.36-.79.73a.38.38,0,0,0,.42.45,15,15,0,0,0,2.44-1.22,19.88,19.88,0,0,1,2.42-.87,29.61,29.61,0,0,1,4.84-1,86,86,0,0,1,11.79-.65c2.29,0,4.57.21,6.86.39C95.17,368.68,95.2,368.53,95.13,368.52Z" style="fill:#BA68C8"></path><path d="M95.13,368.52a59.13,59.13,0,0,0-12.47-.73,48.4,48.4,0,0,0-11.51,1.32,17.91,17.91,0,0,0-2.81,1c-.41.2-.83.42-1.22.66s-.67.36-.79.73a.38.38,0,0,0,.42.45,15,15,0,0,0,2.44-1.22,19.88,19.88,0,0,1,2.42-.87,29.61,29.61,0,0,1,4.84-1,86,86,0,0,1,11.79-.65c2.29,0,4.57.21,6.86.39C95.17,368.68,95.2,368.53,95.13,368.52Z" style="opacity:0.30000000000000004"></path></g></g><g id="freepik--Dog--inject-254"><g id="freepik--dog--inject-254"><path d="M321.41,402.46a22,22,0,0,0,1.35-2.1,21.43,21.43,0,0,0,2.6-12.62c-.12-1.17-.33-2.34-.54-3.5-.08-.44-.39-2.43.7-1.72a1,1,0,0,1,.37.52,30.49,30.49,0,0,1,2.8,10,19.16,19.16,0,0,1-.4,5.9c-1.38,5.91-6.17,10.68-11.42,13.36-.47.23-.95.46-1.43.67a3.32,3.32,0,0,1-1.76.4c-.88-.1-1.16-1-1.66-1.53a1.23,1.23,0,0,1,.07-1.94,5,5,0,0,1,1.26-.74A21.35,21.35,0,0,0,321.41,402.46Z" style="fill:#263238"></path><path d="M254,378.17c-1.88,3.37-6,11-5.82,16.39s5.3,8.36,5.3,8.36l9.65-3.71Z" style="fill:#263238"></path><path d="M281.38,396.79c-7.65.21-10,.64-11.79,3.51s4,8,4,8-4.29-1-6.31,0-1.12,3.92,6.31,6.05a103.21,103.21,0,0,0,14.52,3s10.75-8.25,4.26-16S281.38,396.79,281.38,396.79Z" style="fill:#263238"></path><path d="M297.36,395.66a23.84,23.84,0,0,0-9.08-13.19c-10.83-7.64-23.78-13.37-34.54-5.3-.33.71-.57,1.42-.92,2.12a7.08,7.08,0,0,0-.79,2.36,2.11,2.11,0,0,0,.27,1.44,1,1,0,0,0,1.32.31,8.42,8.42,0,0,0-.52,2,3.93,3.93,0,0,0,.36,2.33,1.5,1.5,0,0,0,1.89.46,22.89,22.89,0,0,0,.48,2.61,12.44,12.44,0,0,0,1.11,2.5,10.63,10.63,0,0,0,3.53,3.59c1.92,1.28,9.45,3.12,12,3.37a61.78,61.78,0,0,0,7.81.26,7.07,7.07,0,0,1,3.4.41,14.61,14.61,0,0,1,2.63,2.29c1.7,1.42,4,1.78,6.24,1.94a6.74,6.74,0,0,0,3.91-.56,3.7,3.7,0,0,0,1.72-3.55A35.55,35.55,0,0,0,297.36,395.66Z" style="fill:#e0e0e0"></path><path d="M296.52,398.94l1.66,1.73c0,.14,0,.27,0,.41a3.7,3.7,0,0,1-1.72,3.55,6.74,6.74,0,0,1-3.91.56c-2.21-.16-4.54-.52-6.24-1.94a14.61,14.61,0,0,0-2.63-2.29,5.93,5.93,0,0,0-2.75-.43C286.34,396.64,296.52,398.94,296.52,398.94Z" style="fill:#263238"></path><path d="M237.6,408.73c2.38-2.39,9.4-6.1,15.62-8.57s7.65-3.79,10.09-8.37c2.16-4.05,1.88-9.61,1.82-13.62,0-.55,0-1-.06-1.49a13,13,0,0,1-10.47-.9L272,366.83c2.67,2.95,18,3.48,26.08,6.66,7.64,3,18,10.91,19.89,20.07,1.42,7,1.63,18.27-8.16,25.38-10.85,7.87-31.7.76-34.35-.3-4.11-1.63-5.83-3.73-5.15-5.13s3.29-1.84,6-1.34a49.7,49.7,0,0,1,6.65,2c-8.06-6.05-7.5-11-4.52-13.05,5.55-3.85,16.59.63,16.59.63a15.69,15.69,0,0,0-2.34-6.21c-1.35-2-6.09-5.62-10-4.1s-5.34,5.41-10.29,10.25-16.72,7.3-19.57,7.71a13.68,13.68,0,0,0-7,3.12c-1.69,1.48-2.92,3.44-4.83,4.06a2.27,2.27,0,0,1-2.51-1.11c-2.59.65-2.68-1.55-2.68-1.55C234.76,412.78,235.38,411,237.6,408.73Z" style="fill:#455a64"></path><path d="M264.26,379.24c-5,1.74-9.54.79-11.29-.28.24-.53.64-1.5.77-1.79,14.85,2.69,19.14-9.31,19.14-9.31A13.15,13.15,0,0,1,264.26,379.24Z" style="opacity:0.1"></path><path d="M250.86,345.61a5.23,5.23,0,0,0-1.58.13,4.51,4.51,0,0,0-1.56.86,17.59,17.59,0,0,0-3.44,4.13c-1.09,1.64-2.21,3.44-2.17,5.42a8.39,8.39,0,0,0,.56,2.55,4.79,4.79,0,0,0,3.11-1.42l9.52-7.61c1-.81,4.3-2.38,1.55-3.18A23.77,23.77,0,0,0,250.86,345.61Z" style="fill:#263238"></path><path d="M235.7,363.92c.65-1.38,1.4-1.8,4.18-3.87s2.85-4.64,5.24-7.9,7.1-5.95,13.44-4.39c3,.73,6.46,1.09,9.46,5.7,1.49,2.27.48,2.91,2,8.83a19.73,19.73,0,0,0,1.32,3.5c-3.21,8-8.78,12.41-17,10l-.64-.79a13.26,13.26,0,0,0-1.63-2.18,6.92,6.92,0,0,0-6-1.72c-5.49.82-6.79.08-8.73-1.41A5.12,5.12,0,0,1,235.7,363.92Z" style="fill:#455a64"></path><path d="M246.36,371.85c-5.68.86-7.07-.68-9-2.17a5.12,5.12,0,0,1-1.65-5.76c.65-1.38,1.4-1.8,4.18-3.87,1.23-.92,2.29-1.82,3.46-2.82,1.37-1.16,2.53-2.39,4.06-3.8.48-.44,1.29-1.27,1.63-1.06s-.35,1-.69,1.39a21.23,21.23,0,0,0-2,2.76,3.61,3.61,0,0,0-.48,2.4,6.36,6.36,0,0,0,2.63,4.15A6.18,6.18,0,0,1,251.3,367c.6,2.09-.12,4.06-.94,4.66C249.05,371.1,248,371.61,246.36,371.85Z" style="fill:#f5f5f5"></path><path d="M236.47,368.76a.86.86,0,0,1,.32-.05c.35,0,.57.28.84.47a5.66,5.66,0,0,0,2.48.95,9.33,9.33,0,0,0,5.23-.92s0,.05,0,.07a7,7,0,0,1-5.13,1.44,6.57,6.57,0,0,1-2.48-.8c-.15-.08-.29-.18-.44-.28A4.65,4.65,0,0,1,236.47,368.76Z" style="opacity:0.2"></path><path d="M236,362.9a6.24,6.24,0,0,1,4.36,2.06c.41.81-1.1,2.14-2.06,2.37a4.48,4.48,0,0,1-2.54-.8C234.94,365.88,234.89,363.07,236,362.9Z" style="fill:#263238"></path><path d="M251.6,359.32c0,1,.8,1,1.78,1s1.78,0,1.78-1a1.78,1.78,0,0,0-3.56,0Z" style="fill:#263238"></path><path d="M253.74,375c2.95,1.78,9.05,1.42,12.31-1.4a14,14,0,0,0,5.09-8.3,5.71,5.71,0,0,1,1.49,2.39c-.32,1.93-.74,3.44-3.45,6.32-3.5,3.74-11.08,5.92-15.44,3.17A5,5,0,0,1,253.74,375Z" style="fill:#BA68C8"></path><path d="M274.42,367.32c-.54,1.52-2.34,1.31-3.46.62-4.61-3.28-5.44-9.61-9-13.77a1.58,1.58,0,0,0-1.15-.75c-.63,0-.93.79-1.46.94-.43,0,.17-2.2.38-2.48.83-1.12,2.46-1.42,3.75-1.62a23.81,23.81,0,0,1,5.06-.22C275.06,350.85,275.64,362.35,274.42,367.32Z" style="fill:#263238"></path></g></g></svg>
