<svg xmlns="http://www.w3.org/2000/svg" viewBox="0 0 750 500"><g id="freepik--background-simple--inject-69"><path d="M687.83,133.59C647.34,74.63,580.21,31.86,510,21.94l-1.57-.22c-103.69-13.93-203,96.6-233.73,113.13S87.49,161,51.47,214.92-4.77,357.64,55,423.78s219.68,7.84,288.22,18.28c51.89,7.91,105.5,14.26,158.52,16.59,47,2.07,101.59,5.84,142.06-22.72,35.57-25.1,41.78-62.27,57-99.87,9.77-24.17,24.53-46.36,25.84-72.87C728.88,217,713.93,171.61,687.83,133.59Z" style="fill:#92E3A9"></path><path d="M687.83,133.59C647.34,74.63,580.21,31.86,510,21.94l-1.57-.22c-103.69-13.93-203,96.6-233.73,113.13S87.49,161,51.47,214.92-4.77,357.64,55,423.78s219.68,7.84,288.22,18.28c51.89,7.91,105.5,14.26,158.52,16.59,47,2.07,101.59,5.84,142.06-22.72,35.57-25.1,41.78-62.27,57-99.87,9.77-24.17,24.53-46.36,25.84-72.87C728.88,217,713.93,171.61,687.83,133.59Z" style="fill:#fff;opacity:0.8"></path></g><g id="freepik--Floor--inject-69"><path d="M731.5,459.16H15.15a.5.5,0,0,1-.5-.5.5.5,0,0,1,.5-.5H731.5a.5.5,0,0,1,.5.5A.51.51,0,0,1,731.5,459.16Z" style="fill:#263238"></path></g><g id="freepik--Clouds--inject-69"><path d="M247.4,89.33H88.61a.5.5,0,0,1-.39-.81l3.24-4c2.1-2.62,5.34-1.61,8.2-.72,1.93.61,3.76,1.17,4.93.58,1.47-.73,2.64-2.65,4-4.87a27.5,27.5,0,0,1,5.64-7.21c2.81-2.34,7.6.22,12.67,2.93,4.16,2.23,8.47,4.53,11,3.47,2.31-1,3-2.54,3.84-4.34,1.09-2.4,2.33-5.12,7.52-7,4.13-1.5,8.27.32,11.92,1.92,4.69,2.07,8.39,3.7,11.33-.91A46.13,46.13,0,0,0,176,60.87c2.84-6.92,5.51-13.45,17-14.66,15.07-1.61,33.42,25.71,35.2,28.4a13.33,13.33,0,0,0,6.77-.34c2.45-.62,4.75-1.21,8.58,1.18,6.72,4.2,4.29,13.42,4.26,13.51A.48.48,0,0,1,247.4,89.33Zm-157.74-1H247c.36-1.68,1.44-8.69-3.91-12-3.46-2.16-5.38-1.67-7.8-1.05a14.47,14.47,0,0,1-7.44.31.5.5,0,0,1-.31-.22c-.19-.29-19.45-29.68-34.36-28.13-10.94,1.15-13.39,7.13-16.22,14a47.28,47.28,0,0,1-3.67,7.6c-3.39,5.33-8.06,3.28-12.58,1.29-3.64-1.61-7.41-3.26-11.16-1.9-4.8,1.74-5.9,4.15-7,6.48-.87,1.91-1.69,3.71-4.36,4.85-2.92,1.25-7.24-1.06-11.81-3.51s-9.27-5-11.56-3a27.16,27.16,0,0,0-5.43,7c-1.43,2.36-2.66,4.39-4.39,5.25-1.54.77-3.55.14-5.67-.52-2.68-.84-5.45-1.7-7.12.38Z" style="fill:#263238"></path><path d="M691.63,89.33H532.84a.5.5,0,0,1-.39-.81l3.24-4c2.1-2.62,5.35-1.61,8.2-.72,1.93.6,3.76,1.17,4.93.58,1.47-.73,2.64-2.65,4-4.87a27.67,27.67,0,0,1,5.64-7.21c2.81-2.35,7.6.22,12.67,2.93,4.16,2.23,8.47,4.53,11,3.47,2.31-1,3-2.54,3.84-4.34,1.09-2.4,2.33-5.12,7.52-7,4.13-1.5,8.27.32,11.92,1.92,4.69,2.07,8.4,3.7,11.33-.91a46.13,46.13,0,0,0,3.58-7.44c2.84-6.92,5.51-13.45,17-14.66,15.1-1.61,33.42,25.71,35.2,28.4a13.44,13.44,0,0,0,6.77-.34c2.45-.62,4.76-1.21,8.58,1.18,6.71,4.2,4.29,13.42,4.27,13.51A.5.5,0,0,1,691.63,89.33Zm-157.75-1H691.24c.35-1.68,1.43-8.69-3.92-12-3.46-2.16-5.38-1.67-7.8-1.05a14.47,14.47,0,0,1-7.44.31.5.5,0,0,1-.31-.22c-.19-.29-19.46-29.67-34.36-28.13-10.94,1.15-13.39,7.13-16.22,14a47.28,47.28,0,0,1-3.67,7.6c-3.39,5.33-8.06,3.28-12.58,1.29-3.64-1.61-7.41-3.27-11.16-1.9-4.8,1.74-5.9,4.15-7,6.48-.87,1.91-1.69,3.71-4.36,4.85-2.91,1.25-7.24-1.06-11.81-3.51s-9.27-5-11.56-3a27.16,27.16,0,0,0-5.43,7c-1.43,2.36-2.66,4.39-4.39,5.25-1.54.77-3.55.14-5.67-.52-2.68-.84-5.45-1.7-7.12.38Z" style="fill:#263238"></path><path d="M128.43,122.55H40a.5.5,0,0,1-.39-.81l1.8-2.26c1.26-1.58,3.23-1,4.81-.47a4.22,4.22,0,0,0,2.58.34,7,7,0,0,0,2.12-2.63,15.69,15.69,0,0,1,3.19-4.08c1.68-1.4,4.41.06,7.3,1.61,2.28,1.22,4.63,2.47,5.91,1.93a3.7,3.7,0,0,0,2-2.31,6.58,6.58,0,0,1,4.32-4c2.38-.87,4.73.17,6.8,1.08,2.87,1.26,4.57,1.87,6-.43a25,25,0,0,0,2-4.11c1.53-3.74,3.12-7.61,9.67-8.3,8.4-.91,18.5,14,19.76,15.84a7.16,7.16,0,0,0,3.58-.21,5.35,5.35,0,0,1,5,.69c3.88,2.42,2.53,7.55,2.47,7.77A.5.5,0,0,1,128.43,122.55Zm-87.38-1h87c.21-1.14.59-4.61-2.11-6.3a4.43,4.43,0,0,0-4.17-.56,8.22,8.22,0,0,1-4.25.18.5.5,0,0,1-.31-.22c-.11-.16-10.77-16.41-18.93-15.56-6,.62-7.29,3.9-8.84,7.68A27.84,27.84,0,0,1,87.35,111c-2,3.13-4.69,1.95-7.28.8-2-.87-4-1.78-6.06-1a5.64,5.64,0,0,0-3.75,3.49,4.66,4.66,0,0,1-2.54,2.81c-1.72.74-4.17-.57-6.77-2s-5-2.69-6.19-1.72a14.55,14.55,0,0,0-3,3.83c-.82,1.33-1.52,2.49-2.54,3s-2.09.11-3.32-.28c-1.75-.54-3-.83-3.73.15Z" style="fill:#263238"></path><path d="M484.48,122.55H396.06a.5.5,0,0,1-.39-.81l1.8-2.26c1.26-1.58,3.23-1,4.8-.47a4.23,4.23,0,0,0,2.58.34,7.05,7.05,0,0,0,2.13-2.63,15.48,15.48,0,0,1,3.19-4.08c1.68-1.4,4.41.06,7.3,1.61,2.28,1.22,4.62,2.47,5.91,1.93a3.7,3.7,0,0,0,2-2.31,6.58,6.58,0,0,1,4.32-4c2.38-.87,4.73.17,6.8,1.08,2.87,1.26,4.57,1.87,6-.43a25.84,25.84,0,0,0,2-4.11c1.53-3.74,3.12-7.61,9.67-8.3,8.42-.9,18.5,14,19.75,15.84a7.19,7.19,0,0,0,3.59-.21,5.35,5.35,0,0,1,4.95.69c3.88,2.42,2.53,7.55,2.47,7.77A.5.5,0,0,1,484.48,122.55Zm-87.38-1h87c.21-1.14.59-4.61-2.11-6.3a4.43,4.43,0,0,0-4.17-.56,8.22,8.22,0,0,1-4.25.18.5.5,0,0,1-.31-.22c-.11-.16-10.76-16.41-18.93-15.56-5.95.62-7.29,3.89-8.84,7.68a27,27,0,0,1-2.07,4.27c-2,3.13-4.68,1.95-7.28.8-2-.87-4-1.78-6.05-1a5.61,5.61,0,0,0-3.75,3.49,4.66,4.66,0,0,1-2.54,2.81c-1.72.74-4.17-.57-6.77-2s-5-2.69-6.19-1.72a14.55,14.55,0,0,0-3,3.83,7.54,7.54,0,0,1-2.54,3c-.93.47-2.09.11-3.32-.28-1.75-.54-3-.83-3.73.15Z" style="fill:#263238"></path></g><g id="freepik--Plants--inject-69"><path d="M665.6,458.66c-1.79-15-13.43-44.78-30.14-53.13-17.71-8.86-31,11.38-62.62,25.93s-23.4-10.75-56.29-30.36S479.24,408.69,466,415c-13.73,6.55-21.84-17.5-25.08-26.43-6.32-17.45-13.7-32.41-30.1-42.76-25.33-16-68.65-14.74-82,16.25-4,9.31-2.57,26.39-12.68,31.44-15.18,7.59-54.39-1.26-56.92,24-.87,8.76,1.76,16.56,5.57,23,1.11,3.36,2,6.9,1.39,8.62-1.27,3.79-9.49-5.06-16.45-.63a31.33,31.33,0,0,0-9.36,10.12Z" style="fill:#92E3A9"></path><path d="M367.69,371.27s-1.09,5.06,1.18,9.25a28.85,28.85,0,0,0,5.37,7S376.5,379.52,367.69,371.27Z" style="fill:#fff"></path><path d="M325.28,416s3.9,3.4,8.67,3.44a28.82,28.82,0,0,0,8.72-1.33S336.77,412.24,325.28,416Z" style="fill:#fff"></path><path d="M283.86,410.24s3.9,3.41,8.68,3.45a28.79,28.79,0,0,0,8.71-1.33S295.35,406.52,283.86,410.24Z" style="fill:#fff"></path><path d="M319.34,436.92s4.73,2.09,9.3.72a28.86,28.86,0,0,0,7.93-3.86S329.2,430,319.34,436.92Z" style="fill:#fff"></path><path d="M277.28,431.58s4.74,2.09,9.31.72a28.7,28.7,0,0,0,7.92-3.86S287.15,424.62,277.28,431.58Z" style="fill:#fff"></path><path d="M347.62,439.11s5.17-.07,8.76-3.22a28.88,28.88,0,0,0,5.6-6.81S353.69,428.67,347.62,439.11Z" style="fill:#fff"></path><path d="M288.78,454.09s5.18-.07,8.76-3.23a28.73,28.73,0,0,0,5.6-6.8S294.85,443.65,288.78,454.09Z" style="fill:#fff"></path><path d="M335.69,376.5s1.17,5,5,7.87a28.68,28.68,0,0,0,7.84,4S347.18,380.2,335.69,376.5Z" style="fill:#fff"></path><path d="M420.07,372.76s-5.12.73-8.28,4.31a28.92,28.92,0,0,0-4.69,7.46S415.37,383.88,420.07,372.76Z" style="fill:#fff"></path><path d="M437.83,399.39s-5.06-1.08-9.26,1.19a28.8,28.8,0,0,0-7,5.38S429.58,408.21,437.83,399.39Z" style="fill:#fff"></path><path d="M436.09,429.65s-3.65-3.68-8.4-4.06a28.75,28.75,0,0,0-8.79.71S424.37,432.54,436.09,429.65Z" style="fill:#fff"></path><path d="M416.27,445.88s-2.1-4.73-6.41-6.78a28.64,28.64,0,0,0-8.46-2.48S404.29,444.4,416.27,445.88Z" style="fill:#fff"></path><path d="M405.84,396.79s-5.12.73-8.27,4.31a28.62,28.62,0,0,0-4.7,7.46S401.14,407.91,405.84,396.79Z" style="fill:#fff"></path><path d="M321.87,390.12s2.29,4.65,6.67,6.53a29,29,0,0,0,8.55,2.15S333.9,391.13,321.87,390.12Z" style="fill:#fff"></path><path d="M395,365.63s-4.15,3.1-5.19,7.75a28.71,28.71,0,0,0-.54,8.8S396.16,377.64,395,365.63Z" style="fill:#fff"></path><path d="M379.3,351s-2.35,4.61-1.23,9.25a28.56,28.56,0,0,0,3.4,8.13S385.7,361.23,379.3,351Z" style="fill:#fff"></path><path d="M345.43,355.91s0,5.18,3.11,8.8a28.69,28.69,0,0,0,6.73,5.69S355.78,362.12,345.43,355.91Z" style="fill:#fff"></path><path d="M493.47,410.69a8.73,8.73,0,0,0,.68,5.37,16.77,16.77,0,0,0,3.12,4.06S498.58,415.48,493.47,410.69Z" style="fill:#fff"></path><path d="M468.84,436.64a8.84,8.84,0,0,0,5,2,16.72,16.72,0,0,0,5.06-.78S475.51,434.48,468.84,436.64Z" style="fill:#fff"></path><path d="M465.39,448.81a8.75,8.75,0,0,0,5.4.42A16.7,16.7,0,0,0,475.4,447S471.12,444.77,465.39,448.81Z" style="fill:#fff"></path><path d="M481.81,450.08a8.79,8.79,0,0,0,5.09-1.87,16.62,16.62,0,0,0,3.25-3.95S485.34,444,481.81,450.08Z" style="fill:#fff"></path><path d="M474.89,413.73a8.76,8.76,0,0,0,2.91,4.56,16.8,16.8,0,0,0,4.56,2.34S481.56,415.88,474.89,413.73Z" style="fill:#fff"></path><path d="M523.88,411.56a8.76,8.76,0,0,0-4.8,2.5,16.82,16.82,0,0,0-2.73,4.33S521.16,418,523.88,411.56Z" style="fill:#fff"></path><path d="M534.2,427a8.8,8.8,0,0,0-5.38.69,16.59,16.59,0,0,0-4.05,3.12S529.41,432.14,534.2,427Z" style="fill:#fff"></path><path d="M533.19,444.59a8.76,8.76,0,0,0-4.88-2.36,16.78,16.78,0,0,0-5.11.41S526.38,446.27,533.19,444.59Z" style="fill:#fff"></path><path d="M521.68,454a8.77,8.77,0,0,0-3.72-3.94,16.72,16.72,0,0,0-4.92-1.43S514.72,453.15,521.68,454Z" style="fill:#fff"></path><path d="M515.62,425.51a8.76,8.76,0,0,0-4.8,2.5,16.82,16.82,0,0,0-2.73,4.33S512.89,432,515.62,425.51Z" style="fill:#fff"></path><path d="M466.86,421.63a8.83,8.83,0,0,0,3.88,3.8,16.69,16.69,0,0,0,5,1.24S473.85,422.22,466.86,421.63Z" style="fill:#fff"></path><path d="M509.3,407.42a8.74,8.74,0,0,0-3,4.5A16.52,16.52,0,0,0,506,417S510,414.39,509.3,407.42Z" style="fill:#fff"></path><path d="M500.21,398.91a8.76,8.76,0,0,0-.72,5.37,16.72,16.72,0,0,0,2,4.73S503.92,404.86,500.21,398.91Z" style="fill:#fff"></path><path d="M480.54,401.77a8.74,8.74,0,0,0,1.81,5.11,16.9,16.9,0,0,0,3.9,3.31S486.55,405.38,480.54,401.77Z" style="fill:#fff"></path><path d="M615.82,422.11a8.76,8.76,0,0,0,.68,5.38,16.77,16.77,0,0,0,3.12,4.06S620.93,426.91,615.82,422.11Z" style="fill:#fff"></path><path d="M591.19,448.06a8.77,8.77,0,0,0,5,2,16.54,16.54,0,0,0,5.06-.77S597.86,445.9,591.19,448.06Z" style="fill:#fff"></path><path d="M597.23,425.15a8.83,8.83,0,0,0,2.92,4.57,16.59,16.59,0,0,0,4.56,2.33S603.91,427.3,597.23,425.15Z" style="fill:#fff"></path><path d="M646.23,423a8.76,8.76,0,0,0-4.8,2.5,17,17,0,0,0-2.73,4.34S643.51,429.44,646.23,423Z" style="fill:#fff"></path><path d="M656.55,438.45a8.76,8.76,0,0,0-5.38.68,16.76,16.76,0,0,0-4,3.13S651.76,443.56,656.55,438.45Z" style="fill:#fff"></path><path d="M655.54,456a8.78,8.78,0,0,0-4.88-2.35,16.78,16.78,0,0,0-5.11.41S648.73,457.69,655.54,456Z" style="fill:#fff"></path><path d="M638,436.94a8.76,8.76,0,0,0-4.8,2.5,16.82,16.82,0,0,0-2.73,4.33S635.24,443.39,638,436.94Z" style="fill:#fff"></path><path d="M589.21,433.06a8.78,8.78,0,0,0,3.88,3.79,16.54,16.54,0,0,0,5,1.25S596.2,433.65,589.21,433.06Z" style="fill:#fff"></path><path d="M631.65,418.84a8.8,8.8,0,0,0-3,4.5,16.59,16.59,0,0,0-.31,5.11S632.35,425.82,631.65,418.84Z" style="fill:#fff"></path><path d="M622.56,410.34a8.74,8.74,0,0,0-.72,5.37,16.74,16.74,0,0,0,2,4.72S626.27,416.29,622.56,410.34Z" style="fill:#fff"></path><path d="M602.89,413.2a8.76,8.76,0,0,0,1.81,5.11,16.69,16.69,0,0,0,3.9,3.3S608.9,416.8,602.89,413.2Z" style="fill:#fff"></path><polygon points="357.17 458.66 368.43 458.66 363.49 433.36 386.89 415.01 360.33 427.66 352.74 391.61 359.06 457.39 342.62 451.07 311.63 439.05 345.78 458.02 357.17 458.66" style="fill:#a1a1a1"></polygon><polygon points="496.95 424.5 481.77 457.39 488.09 458.02 491.89 448.54 508.8 445.5 493.15 442.21 496.95 424.5" style="fill:#a1a1a1"></polygon><polygon points="608.9 440.31 617.75 458.02 619.3 448.45 608.9 440.31" style="fill:#a1a1a1"></polygon><polygon points="625.4 458.66 626.67 445.78 637.99 437.15 627.33 439.03 629.14 420.71 617.75 458.02 621.55 458.66 625.4 458.66" style="fill:#a1a1a1"></polygon></g><g id="freepik--Trees--inject-69"><path d="M515.2,203.9c17.12,86.82-36.68,50.66-81.92,50.66S330.72,284,351.37,203.9c11.8-45.77,36.68-74.39,81.91-74.39S508,167.28,515.2,203.9Z" style="fill:#92E3A9"></path><path d="M515.2,203.9c17.12,86.82-36.68,50.66-81.92,50.66S330.72,284,351.37,203.9c11.8-45.77,36.68-74.39,81.91-74.39S508,167.28,515.2,203.9Z" style="fill:#fff;opacity:0.43"></path><polygon points="407.47 246.68 429.53 263.52 427.27 458.99 440.6 458.99 438.04 235.91 469.59 201.2 437.66 228.49 436.5 176.82 433.01 212.23 424.8 206.28 406.89 180.88 418.4 203.97 381.34 189.01 419.11 210.35 431.54 218.97 430.11 256.55 407.47 246.68" style="fill:#a1a1a1"></polygon><path d="M419.91,162.33s-1.21,5.59,1.3,10.23a31.63,31.63,0,0,0,6,7.73S429.65,171.46,419.91,162.33Z" style="fill:#fff"></path><path d="M373,211.74s4.31,3.76,9.59,3.81a32,32,0,0,0,9.63-1.47S385.72,207.63,373,211.74Z" style="fill:#fff"></path><path d="M366.45,234.93s5.23,2.31,10.28.79a31.91,31.91,0,0,0,8.77-4.27S377.35,227.23,366.45,234.93Z" style="fill:#fff"></path><path d="M397.72,237.34s5.72-.07,9.68-3.56a32,32,0,0,0,6.2-7.53S404.43,225.8,397.72,237.34Z" style="fill:#fff"></path><path d="M384.52,168.11s1.3,5.58,5.55,8.7a32.17,32.17,0,0,0,8.68,4.45S397.23,172.21,384.52,168.11Z" style="fill:#fff"></path><path d="M477.83,164s-5.67.8-9.15,4.77a31.65,31.65,0,0,0-5.19,8.25S472.63,176.28,477.83,164Z" style="fill:#fff"></path><path d="M497.46,193.43s-5.59-1.2-10.23,1.31a31.7,31.7,0,0,0-7.72,5.95S488.34,203.18,497.46,193.43Z" style="fill:#fff"></path><path d="M495.54,226.88s-4-4.06-9.29-4.48a31.91,31.91,0,0,0-9.72.78S482.58,230.08,495.54,226.88Z" style="fill:#fff"></path><path d="M473.63,244.83s-2.32-5.23-7.09-7.5a31.85,31.85,0,0,0-9.35-2.74S460.38,243.2,473.63,244.83Z" style="fill:#fff"></path><path d="M462.1,190.55s-5.67.8-9.16,4.77a32,32,0,0,0-5.19,8.25S456.9,202.85,462.1,190.55Z" style="fill:#fff"></path><path d="M369.25,183.17s2.52,5.14,7.37,7.22a31.75,31.75,0,0,0,9.45,2.38S382.55,184.29,369.25,183.17Z" style="fill:#fff"></path><path d="M450.06,156.1s-4.59,3.42-5.75,8.57a31.84,31.84,0,0,0-.6,9.73S451.39,169.38,450.06,156.1Z" style="fill:#fff"></path><path d="M432.75,139.9s-2.6,5.1-1.37,10.23a32,32,0,0,0,3.76,9S439.82,151.23,432.75,139.9Z" style="fill:#fff"></path><path d="M395.3,145.35s0,5.72,3.43,9.73a32.06,32.06,0,0,0,7.44,6.29S406.74,152.22,395.3,145.35Z" style="fill:#fff"></path><path d="M195.8,289.16c18.19,92.2-38.94,53.79-87,53.79s-108.91,31.27-87-53.79c12.53-48.61,38.94-79,87-79S188.14,250.28,195.8,289.16Z" style="fill:#92E3A9"></path><path d="M195.8,289.16c18.19,92.2-38.94,53.79-87,53.79s-108.91,31.27-87-53.79c12.53-48.61,38.94-79,87-79S188.14,250.28,195.8,289.16Z" style="fill:#fff;opacity:0.30000000000000004"></path><polygon points="93.77 296.01 106.97 305.16 105.45 345.07 81.41 334.58 104.83 352.46 103.27 458.35 115.79 458.35 113.87 323.14 147.37 286.29 113.46 315.27 112.23 260.4 108.53 298.01 99.81 291.68 80.79 264.71 93.02 289.23 53.66 273.35 93.77 296.01" style="fill:#c2c2c2"></polygon><path d="M94.62,245s-1.28,6,1.38,10.87a34,34,0,0,0,6.31,8.21S105,254.71,94.62,245Z" style="fill:#fff"></path><path d="M44.82,297.49s4.58,4,10.19,4A34.13,34.13,0,0,0,65.24,300S58.31,293.12,44.82,297.49Z" style="fill:#fff"></path><path d="M37.85,322.11s5.56,2.45,10.92.83a33.82,33.82,0,0,0,9.31-4.52S49.43,313.93,37.85,322.11Z" style="fill:#fff"></path><path d="M71.05,324.67s6.08-.08,10.28-3.78a33.84,33.84,0,0,0,6.58-8S78.18,312.42,71.05,324.67Z" style="fill:#fff"></path><path d="M57,251.16s1.38,5.92,5.9,9.23a33.62,33.62,0,0,0,9.21,4.72S70.53,255.5,57,251.16Z" style="fill:#fff"></path><path d="M156.12,246.77s-6,.85-9.72,5.06a33.87,33.87,0,0,0-5.51,8.76S150.61,259.83,156.12,246.77Z" style="fill:#fff"></path><path d="M177,278s-5.94-1.28-10.86,1.39a33.74,33.74,0,0,0-8.2,6.32S167.29,288.39,177,278Z" style="fill:#fff"></path><path d="M174.93,313.56s-4.28-4.31-9.87-4.76a33.63,33.63,0,0,0-10.31.83S161.17,317,174.93,313.56Z" style="fill:#fff"></path><path d="M151.66,332.62s-2.46-5.56-7.52-8a33.91,33.91,0,0,0-9.94-2.91S137.59,330.89,151.66,332.62Z" style="fill:#fff"></path><path d="M139.42,275s-6,.86-9.72,5.06a33.83,33.83,0,0,0-5.51,8.77S133.9,288,139.42,275Z" style="fill:#fff"></path><path d="M40.82,267.15s2.68,5.45,7.83,7.67a33.92,33.92,0,0,0,10,2.52S55,268.34,40.82,267.15Z" style="fill:#fff"></path><path d="M126.63,238.4s-4.87,3.63-6.1,9.1a33.92,33.92,0,0,0-.64,10.33S128.05,252.5,126.63,238.4Z" style="fill:#fff"></path><path d="M108.26,221.2s-2.77,5.41-1.46,10.86a33.81,33.81,0,0,0,4,9.55S115.76,233.23,108.26,221.2Z" style="fill:#fff"></path><path d="M68.48,227s0,6.08,3.65,10.34A33.92,33.92,0,0,0,80,244S80.64,234.28,68.48,227Z" style="fill:#fff"></path><path d="M675.82,289.16c18.18,92.2-38.94,53.79-87,53.79s-108.91,31.27-87-53.79c12.53-48.61,38.94-79,87-79S668.15,250.28,675.82,289.16Z" style="fill:#92E3A9"></path><path d="M675.82,289.16c18.18,92.2-38.94,53.79-87,53.79s-108.91,31.27-87-53.79c12.53-48.61,38.94-79,87-79S668.15,250.28,675.82,289.16Z" style="fill:#fff;opacity:0.30000000000000004"></path><polygon points="573.79 296.01 586.99 305.16 585.47 345.07 561.42 334.58 584.85 352.46 583.28 458.35 595.8 458.35 593.88 323.14 627.39 286.29 593.48 315.27 592.25 260.4 588.55 298.01 579.83 291.68 560.8 264.71 573.03 289.23 533.68 273.35 573.79 296.01" style="fill:#c2c2c2"></polygon><path d="M574.64,245s-1.29,6,1.38,10.87a34,34,0,0,0,6.31,8.21S585,254.71,574.64,245Z" style="fill:#fff"></path><path d="M524.84,297.49s4.58,4,10.18,4A34.05,34.05,0,0,0,545.25,300S538.32,293.12,524.84,297.49Z" style="fill:#fff"></path><path d="M517.86,322.11s5.56,2.45,10.93.83a33.66,33.66,0,0,0,9.3-4.52S529.44,313.93,517.86,322.11Z" style="fill:#fff"></path><path d="M551.07,324.67s6.08-.08,10.28-3.78a33.84,33.84,0,0,0,6.58-8S558.2,312.42,551.07,324.67Z" style="fill:#fff"></path><path d="M537.06,251.16s1.38,5.92,5.89,9.23a33.77,33.77,0,0,0,9.21,4.72S550.55,255.5,537.06,251.16Z" style="fill:#fff"></path><path d="M636.14,246.77s-6,.85-9.72,5.06a33.87,33.87,0,0,0-5.51,8.76S630.62,259.83,636.14,246.77Z" style="fill:#fff"></path><path d="M657,278s-5.94-1.28-10.87,1.39a34,34,0,0,0-8.2,6.32S647.3,288.39,657,278Z" style="fill:#fff"></path><path d="M655,313.56s-4.28-4.31-9.87-4.76a33.67,33.67,0,0,0-10.32.83S641.19,317,655,313.56Z" style="fill:#fff"></path><path d="M631.68,332.62s-2.47-5.56-7.53-8a33.89,33.89,0,0,0-9.93-2.91S617.61,330.89,631.68,332.62Z" style="fill:#fff"></path><path d="M619.43,275s-6,.86-9.72,5.06a33.83,33.83,0,0,0-5.51,8.77S613.92,288,619.43,275Z" style="fill:#fff"></path><path d="M520.84,267.15s2.68,5.45,7.83,7.67a33.85,33.85,0,0,0,10,2.52S535,268.34,520.84,267.15Z" style="fill:#fff"></path><path d="M606.65,238.4s-4.88,3.63-6.11,9.1a33.71,33.71,0,0,0-.63,10.33S608.07,252.5,606.65,238.4Z" style="fill:#fff"></path><path d="M588.27,221.2s-2.76,5.41-1.45,10.86a33.81,33.81,0,0,0,4,9.55S595.78,233.23,588.27,221.2Z" style="fill:#fff"></path><path d="M548.5,227s0,6.08,3.65,10.34a33.7,33.7,0,0,0,7.9,6.68S560.65,234.28,548.5,227Z" style="fill:#fff"></path><path d="M226.32,203.9c17.13,86.82-36.67,50.66-81.91,50.66S41.85,284,62.5,203.9c11.8-45.77,36.67-74.39,81.91-74.39S219.1,167.28,226.32,203.9Z" style="fill:#92E3A9"></path><path d="M226.32,203.9c17.13,86.82-36.67,50.66-81.91,50.66S41.85,284,62.5,203.9c11.8-45.77,36.67-74.39,81.91-74.39S219.1,167.28,226.32,203.9Z" style="fill:#fff;opacity:0.5"></path><polygon points="118.59 246.68 140.65 263.52 138.39 458.99 151.72 458.99 149.16 235.91 180.72 201.2 148.78 228.49 147.62 176.82 144.14 212.23 135.93 206.28 118.01 180.88 129.53 203.97 92.47 189.01 130.24 210.35 142.67 218.97 141.24 256.55 118.59 246.68" style="fill:#a1a1a1"></polygon><path d="M131,162.33s-1.21,5.59,1.3,10.23a31.74,31.74,0,0,0,5.94,7.73S140.78,171.46,131,162.33Z" style="fill:#fff"></path><path d="M84.14,211.74s4.32,3.76,9.59,3.81a32.05,32.05,0,0,0,9.64-1.47S96.84,207.63,84.14,211.74Z" style="fill:#fff"></path><path d="M77.57,234.93s5.24,2.31,10.29.79a31.94,31.94,0,0,0,8.76-4.27S88.48,227.23,77.57,234.93Z" style="fill:#fff"></path><path d="M108.84,237.34s5.73-.07,9.69-3.56a31.76,31.76,0,0,0,6.19-7.53S115.56,225.8,108.84,237.34Z" style="fill:#fff"></path><path d="M95.65,168.11s1.3,5.58,5.55,8.7a32,32,0,0,0,8.67,4.45S108.35,172.21,95.65,168.11Z" style="fill:#fff"></path><path d="M189,164s-5.66.8-9.15,4.77a32,32,0,0,0-5.19,8.25S183.76,176.28,189,164Z" style="fill:#fff"></path><path d="M208.59,193.43s-5.6-1.2-10.23,1.31a31.7,31.7,0,0,0-7.72,5.95S199.47,203.18,208.59,193.43Z" style="fill:#fff"></path><path d="M206.67,226.88s-4-4.06-9.29-4.48a31.91,31.91,0,0,0-9.72.78S193.71,230.08,206.67,226.88Z" style="fill:#fff"></path><path d="M184.75,244.83s-2.32-5.23-7.08-7.5a32,32,0,0,0-9.36-2.74S171.51,243.2,184.75,244.83Z" style="fill:#fff"></path><path d="M173.22,190.55s-5.67.8-9.15,4.77a31.65,31.65,0,0,0-5.19,8.25S168,202.85,173.22,190.55Z" style="fill:#fff"></path><path d="M80.38,183.17s2.52,5.14,7.37,7.22a31.68,31.68,0,0,0,9.45,2.38S93.68,184.29,80.38,183.17Z" style="fill:#fff"></path><path d="M161.18,156.1s-4.59,3.42-5.75,8.57a32,32,0,0,0-.59,9.73S162.52,169.38,161.18,156.1Z" style="fill:#fff"></path><path d="M143.88,139.9s-2.61,5.1-1.37,10.23a31.67,31.67,0,0,0,3.76,9S150.94,151.23,143.88,139.9Z" style="fill:#fff"></path><path d="M106.42,145.35s0,5.72,3.44,9.73a31.84,31.84,0,0,0,7.44,6.29S117.87,152.22,106.42,145.35Z" style="fill:#fff"></path></g><g id="freepik--beans-bag--inject-69"><path d="M259.22,200.67s-4.47,6.72-5.49,8.55-7.12,10.17-11,13-6.72,5.29-6.72,6.51,5.91,3.67,10.59,6.72,12,8.75,13.83,9.56,3.06-.4,3.06-2,6.1-10.18,8.74-14.25,6.52-13,7.94-15.05,3.26-4.89,1.63-5.3-3.87.41-7.33-1.22a120.51,120.51,0,0,1-10.78-5.69C261.87,200.27,262.68,196.6,259.22,200.67Z" style="fill:#92E3A9"></path><path d="M261.56,245.79a3.27,3.27,0,0,1-1.32-.3,67.53,67.53,0,0,1-6.82-4.63c-2.47-1.78-5-3.62-7.09-5-1.8-1.18-3.8-2.27-5.57-3.24-3.63-2-5.24-2.9-5.24-3.9,0-1.27,2.07-3.34,6.92-6.91,3.84-2.83,9.93-11.21,10.85-12.86,1-1.83,5.33-8.31,5.52-8.58l0-.05c1.32-1.56,2.12-2.12,2.83-2s1,.73,1.3,1.35a3.32,3.32,0,0,0,1,1.41c1.77,1.18,7.21,4,10.72,5.66a11.48,11.48,0,0,0,5.26,1,8.17,8.17,0,0,1,2,.15,1.27,1.27,0,0,1,.93.78c.43,1.17-.83,3.23-2.27,5.28a64,64,0,0,0-3,5.77,103.61,103.61,0,0,1-4.92,9.28c-.62.95-1.43,2.15-2.3,3.45C268,236,264,241.9,264,243a2.84,2.84,0,0,1-1.18,2.43A2.29,2.29,0,0,1,261.56,245.79ZM259.62,201c-.29.45-4.49,6.75-5.46,8.49s-7.1,10.22-11.12,13.18c-5.39,4-6.52,5.52-6.52,6.11s2.68,1.91,4.72,3c1.78,1,3.8,2.07,5.64,3.27,2.09,1.36,4.65,3.21,7.12,5a74.36,74.36,0,0,0,6.65,4.53,1.7,1.7,0,0,0,1.63,0A1.86,1.86,0,0,0,263,243c0-1.3,2.7-5.42,6.53-11.08.87-1.3,1.68-2.49,2.3-3.44,1.44-2.22,3.25-5.92,4.85-9.17a61.35,61.35,0,0,1,3.09-5.9c1.63-2.33,2.36-3.8,2.15-4.36,0,0,0-.11-.23-.16a7,7,0,0,0-1.73-.12,11.92,11.92,0,0,1-5.69-1.13c-3.61-1.7-9-4.52-10.85-5.74a4.28,4.28,0,0,1-1.35-1.8c-.16-.33-.38-.78-.52-.8S261,199.37,259.62,201Z" style="fill:#263238"></path><path d="M282.73,203.24a.51.51,0,0,1-.41-.2.51.51,0,0,1,.11-.7l2-1.46a.52.52,0,0,1,.7.12.51.51,0,0,1-.12.7c-.68.48-1.36,1-2,1.45A.52.52,0,0,1,282.73,203.24Z" style="fill:#263238"></path><path d="M288.79,199a.49.49,0,0,1-.41-.22.5.5,0,0,1,.14-.7q2-1.35,4.1-2.66a.5.5,0,0,1,.54.84q-2.07,1.31-4.09,2.66A.54.54,0,0,1,288.79,199Zm8.26-5.22a.5.5,0,0,1-.26-.93q2.1-1.24,4.23-2.46a.49.49,0,0,1,.68.19.49.49,0,0,1-.19.68q-2.11,1.2-4.2,2.45A.48.48,0,0,1,297.05,193.81Zm8.5-4.81a.51.51,0,0,1-.45-.27.5.5,0,0,1,.21-.67q2.15-1.16,4.34-2.26a.5.5,0,0,1,.45.89q-2.18,1.09-4.32,2.25A.46.46,0,0,1,305.55,189Zm8.71-4.41a.48.48,0,0,1-.45-.28.51.51,0,0,1,.23-.67q2.2-1,4.45-2.06a.5.5,0,0,1,.41.92c-1.49.66-3,1.35-4.42,2A.44.44,0,0,1,314.26,184.59Zm8.91-4a.49.49,0,0,1-.46-.3.5.5,0,0,1,.26-.66q2.25-.94,4.53-1.85a.5.5,0,1,1,.37.93c-1.51.6-3,1.21-4.51,1.84A.43.43,0,0,1,323.17,180.59Zm9.08-3.59a.48.48,0,0,1-.47-.33.49.49,0,0,1,.29-.64q2.3-.84,4.61-1.65a.5.5,0,0,1,.33,1q-2.31.79-4.59,1.64Zm158.12-1.09a.45.45,0,0,1-.16,0q-2.29-.81-4.62-1.57a.5.5,0,0,1,.31-.95c1.56.51,3.1,1,4.64,1.58a.49.49,0,0,1,.3.64A.48.48,0,0,1,490.37,175.91Zm-148.89-2.09a.51.51,0,0,1-.48-.35.5.5,0,0,1,.33-.63c1.55-.5,3.1-1,4.67-1.44a.49.49,0,0,1,.62.34.5.5,0,0,1-.33.62q-2.35.69-4.66,1.43A.4.4,0,0,1,341.48,173.82Zm139.6-1-.15,0c-1.55-.48-3.11-.93-4.68-1.37a.5.5,0,1,1,.27-1q2.37.67,4.71,1.38a.5.5,0,0,1-.15,1ZM350.84,171a.5.5,0,0,1-.48-.37.49.49,0,0,1,.35-.61c1.57-.43,3.14-.84,4.73-1.24a.51.51,0,0,1,.61.36.51.51,0,0,1-.37.61q-2.37.6-4.71,1.23Zm120.82-.83h-.12q-2.35-.62-4.74-1.17a.5.5,0,1,1,.23-1c1.59.37,3.18.76,4.76,1.17a.5.5,0,0,1,.36.61A.5.5,0,0,1,471.66,170.21Zm-111.35-1.54a.5.5,0,0,1-.11-1c1.58-.36,3.18-.7,4.78-1a.5.5,0,0,1,.2,1c-1.59.33-3.18.67-4.76,1Zm101.83-.7H462c-1.59-.34-3.18-.66-4.79-1a.5.5,0,0,1,.19-1c1.61.3,3.21.63,4.81,1a.5.5,0,0,1-.11,1Zm-92.27-1.26a.5.5,0,0,1-.09-1c1.6-.3,3.21-.57,4.82-.84a.5.5,0,1,1,.16,1c-1.6.26-3.2.54-4.8.83Zm82.66-.57h-.08c-1.6-.27-3.21-.52-4.82-.76a.5.5,0,0,1,.15-1c1.62.24,3.23.5,4.84.77a.5.5,0,0,1,.41.57A.5.5,0,0,1,452.53,166.14Zm-73-1a.5.5,0,0,1-.07-1c1.61-.22,3.23-.43,4.85-.63a.49.49,0,0,1,.55.44.5.5,0,0,1-.43.56c-1.62.19-3.23.4-4.83.62Zm63.35-.44h-.06c-1.62-.2-3.23-.39-4.85-.56a.5.5,0,0,1-.45-.55.49.49,0,0,1,.55-.45c1.63.18,3.25.36,4.87.57a.5.5,0,0,1-.06,1ZM389.2,164a.5.5,0,0,1-.5-.45.51.51,0,0,1,.45-.55c1.62-.16,3.24-.3,4.87-.43a.51.51,0,0,1,.54.46.5.5,0,0,1-.46.54c-1.62.13-3.24.27-4.85.43Zm43.93-.3h0c-1.62-.14-3.24-.26-4.87-.36a.5.5,0,1,1,.06-1q2.46.15,4.89.36a.5.5,0,0,1,.46.54A.51.51,0,0,1,433.13,163.69Zm-34.2-.46a.5.5,0,0,1-.5-.47.52.52,0,0,1,.47-.53c1.63-.09,3.25-.17,4.89-.23a.48.48,0,0,1,.51.48.49.49,0,0,1-.48.52c-1.62.06-3.24.14-4.86.23Zm24.44-.17h0c-1.62-.07-3.24-.12-4.87-.16a.5.5,0,0,1-.49-.51.49.49,0,0,1,.51-.49c1.64,0,3.27.09,4.9.16a.52.52,0,0,1,.48.53A.51.51,0,0,1,423.37,163.06Zm-14.68-.19a.5.5,0,1,1,0-1c1.37,0,2.74,0,4.12,0h.78a.5.5,0,0,1,.5.5.51.51,0,0,1-.5.5h-.78c-1.37,0-2.74,0-4.11,0Z" style="fill:#263238"></path><path d="M497.51,178.58a.65.65,0,0,1-.19,0l-2.32-.9a.49.49,0,0,1-.29-.64.5.5,0,0,1,.65-.29c.78.29,1.55.6,2.33.9a.5.5,0,0,1-.18,1Z" style="fill:#263238"></path></g><g id="freepik--character-1--inject-69"><path d="M466.78,292.48s-11.27,4-11.27,4.62,4.23,16.1,5.23,18.11,27.17-7.64,27.17-7.64-4-18.51-5-19.72S466.78,292.48,466.78,292.48Z" style="fill:#92E3A9"></path><path d="M461.6,316c-1,0-1.18-.32-1.3-.56-1-1.91-5.29-17.44-5.29-18.34,0-.4,0-1,11.6-5.09,7-2.72,15.63-5.71,16.65-4.48s4.46,16.82,5.14,19.93a.5.5,0,0,1-.32.58c-.06,0-6.62,2.44-13.22,4.58C466.62,315.3,463.13,316,461.6,316ZM456,297.28c.39,1.94,4.25,15.92,5.15,17.71,1.21.7,14.17-3.34,26.14-7.74-1.55-7.1-4.16-18.22-4.84-19.08-.9-.4-8.63,2.1-15.53,4.77h0A109.25,109.25,0,0,0,456,297.28Zm10.74-4.8h0Z" style="fill:#263238"></path><path d="M506.22,253.84s-11.07,14.09-14.29,17.91-10.26,12.48-10.26,12.48-10.26,5-11.47,6a27,27,0,0,1-3.42,2.22l7.24.2s-1,4.63-1.61,6.24-2.21,4.22-1.4,5.23,2.61,0,3.21-1,2.42-3.22,2.62-3.82.81-2,3.82-4.43a25.67,25.67,0,0,0,5.24-6.24L506,276.38Z" style="fill:#fff"></path><path d="M471.92,305.06a1.65,1.65,0,0,1-1.31-.6c-.79-1,0-2.74.77-4.42.22-.47.42-.92.57-1.3.45-1.22,1.16-4.29,1.45-5.58l-6.63-.18a.52.52,0,0,1-.48-.39.49.49,0,0,1,.25-.55,27.78,27.78,0,0,0,3.34-2.16c1.19-1,10-5.35,11.47-6.05.74-.91,7.19-8.82,10.2-12.4,3.18-3.77,14.17-17.76,14.28-17.9a.5.5,0,0,1,.89.32l-.2,22.53a.49.49,0,0,1-.24.42l-20,12.21a25.38,25.38,0,0,1-5.28,6.27c-2.05,1.64-3.28,3.05-3.66,4.2a12.93,12.93,0,0,1-1.47,2.22c-.47.63-1,1.29-1.2,1.7a3.67,3.67,0,0,1-2.59,1.66Zm-3.38-13,5.5.16a.47.47,0,0,1,.38.19.51.51,0,0,1,.09.41c0,.19-1,4.69-1.63,6.31-.15.41-.36.87-.59,1.36-.52,1.14-1.31,2.87-.89,3.38a.6.6,0,0,0,.59.23,2.72,2.72,0,0,0,1.81-1.18c.27-.45.74-1.09,1.24-1.77a16.69,16.69,0,0,0,1.33-1.95c.45-1.35,1.75-2.87,4-4.66a25.23,25.23,0,0,0,5.11-6.1.55.55,0,0,1,.17-.17l19.89-12.13.19-20.8c-2.72,3.45-10.75,13.63-13.39,16.77-3.19,3.78-10.19,12.39-10.26,12.47a.43.43,0,0,1-.17.13c-2.84,1.4-10.42,5.18-11.37,6A18.65,18.65,0,0,1,468.54,292Z" style="fill:#263238"></path><path d="M508.22,352.44a224.27,224.27,0,0,0,1.95,23.2c1.56,9.95,5.65,47.38,5.85,54.4s-.2,8.77-.2,8.77a84.16,84.16,0,0,1-7,6c-4.48,3.51-12.67,7.22-13.06,8s-1,2.53,7.6,3.31S520.89,455,523,454.8s7.6.58,8.57-3.32-1.56-11.89-1.56-15.4-1.16-21.06-.58-25.15,5.07-22,2.73-32.36-4.09-24.37-4.09-24.37Z" style="fill:#fff"></path><path d="M507.62,456.85c-1.43,0-2.88-.06-4.32-.19-6.32-.58-7.63-1.67-8.06-2.44a1.67,1.67,0,0,1,.05-1.6c.22-.42,1-.88,4-2.53a73.69,73.69,0,0,0,9.19-5.63c3.88-3,6.32-5.37,6.86-5.89a57.89,57.89,0,0,0,.16-8.52c-.2-7.14-4.32-44.58-5.85-54.33a226.71,226.71,0,0,1-1.95-23.26.46.46,0,0,1,.16-.38.49.49,0,0,1,.38-.14l19.89,1.76a.5.5,0,0,1,.45.43c0,.14,1.78,14.14,4.09,24.33,1.93,8.55-.68,21.9-2.09,29.08-.29,1.52-.53,2.73-.64,3.46-.39,2.76,0,11.82.34,18.44.14,3.09.25,5.53.25,6.64a36.42,36.42,0,0,0,.77,5.42c.66,3.56,1.41,7.59.78,10.1-.9,3.59-5.14,3.63-7.67,3.65-.52,0-1,0-1.35.05s-1.16.15-2.08.29A85.78,85.78,0,0,1,507.62,456.85ZM508.74,353a220.06,220.06,0,0,0,1.92,22.57c1.54,9.77,5.66,47.3,5.86,54.46.19,7-.19,8.82-.21,8.9a.51.51,0,0,1-.13.24,85.78,85.78,0,0,1-7.07,6.09,74.47,74.47,0,0,1-9.32,5.72,29,29,0,0,0-3.62,2.13.63.63,0,0,0-.05.64c.28.49,1.59,1.41,7.27,1.92,6.76.62,13.71-.47,17.45-1.05,1-.16,1.7-.27,2.15-.31s.88,0,1.43-.05c2.54,0,6-.05,6.71-2.89.58-2.3-.15-6.22-.79-9.67a35.62,35.62,0,0,1-.79-5.61c0-1.09-.11-3.64-.25-6.59-.31-6.66-.73-15.78-.33-18.63.11-.76.35-2,.65-3.51,1.29-6.6,4-20.33,2.09-28.67-2.1-9.27-3.74-21.65-4.05-24Zm7.08,85.82h0Z" style="fill:#263238"></path><path d="M531.61,451.48c.57-2.27-.05-5.92-.67-9.28a22.21,22.21,0,0,1-11.22,2.26,44,44,0,0,0-2.53-4.67,2.41,2.41,0,0,0-1.36-1v0a84.16,84.16,0,0,1-7,6c-4.48,3.51-12.67,7.22-13.06,8s-1,2.53,7.6,3.31S520.89,455,523,454.8,530.64,455.38,531.61,451.48Z" style="fill:#fff"></path><path d="M507.62,456.85c-1.43,0-2.88-.06-4.32-.19-6.32-.58-7.63-1.67-8.06-2.44a1.67,1.67,0,0,1,.05-1.6c.22-.42,1-.88,4-2.53a73.69,73.69,0,0,0,9.19-5.63,85.77,85.77,0,0,0,6.93-6,.64.64,0,0,1,.15-.13.53.53,0,0,1,.39-.05,2.88,2.88,0,0,1,1.63,1.2,41.05,41.05,0,0,1,2.45,4.48,22.26,22.26,0,0,0,10.67-2.23.49.49,0,0,1,.44,0,.5.5,0,0,1,.27.35c.68,3.69,1.24,7.19.67,9.49h0c-.9,3.59-5.14,3.63-7.67,3.65-.52,0-1,0-1.35.05s-1.16.15-2.08.29A85.78,85.78,0,0,1,507.62,456.85ZM516,439.37a89.58,89.58,0,0,1-6.85,5.88,73.22,73.22,0,0,1-9.32,5.71,29.93,29.93,0,0,0-3.62,2.14.63.63,0,0,0-.05.64c.28.49,1.59,1.41,7.27,1.92,6.76.62,13.71-.47,17.45-1.05,1-.16,1.7-.27,2.15-.31s.88,0,1.43-.05c2.53,0,6-.05,6.71-2.89h0c.5-2,0-5.09-.56-8.42a22.64,22.64,0,0,1-10.9,2,.5.5,0,0,1-.4-.28,42.46,42.46,0,0,0-2.5-4.62A1.94,1.94,0,0,0,516,439.37Zm15.65,12.11h0Z" style="fill:#263238"></path><path d="M533.28,352.44a231.42,231.42,0,0,0,2,23.95c1.61,10.26,5.83,48.89,6,56.14s-.2,9.05-.2,9.05a85.56,85.56,0,0,1-7.24,6.24c-4.63,3.62-13.08,7.45-13.48,8.25s-1,2.62,7.84,3.42,18.11-1.2,20.33-1.41,7.85.61,8.85-3.42-1.61-12.27-1.61-15.89-1.2-21.74-.6-26,5.23-22.74,2.82-33.4-4.23-25.16-4.23-25.16Z" style="fill:#fff"></path><path d="M532.65,460.18c-1.47,0-3-.05-4.45-.19-6.52-.59-7.86-1.71-8.3-2.51a1.67,1.67,0,0,1,.05-1.63c.22-.43,1-.91,4.13-2.61a76.54,76.54,0,0,0,9.49-5.81c4-3.15,6.54-5.56,7.09-6.09a58,58,0,0,0,.16-8.8c-.2-7.37-4.45-46-6-56.08a233.35,233.35,0,0,1-2-24,.48.48,0,0,1,.15-.38.52.52,0,0,1,.39-.14l20.52,1.81a.51.51,0,0,1,.46.44c0,.14,1.83,14.59,4.21,25.1,2,8.83-.7,22.61-2.15,30-.3,1.58-.55,2.82-.66,3.58-.4,2.85,0,12.2.35,19,.15,3.18.26,5.7.26,6.85a38.13,38.13,0,0,0,.79,5.6c.68,3.66,1.46,7.82.81,10.42-.93,3.69-5.29,3.73-7.9,3.75-.54,0-1,0-1.4,0s-1.19.16-2.15.31A89.21,89.21,0,0,1,532.65,460.18ZM533.79,353a229.55,229.55,0,0,0,2,23.32c1.58,10.08,5.84,48.81,6,56.2.2,7.23-.19,9.11-.21,9.18a.55.55,0,0,1-.13.25,90.9,90.9,0,0,1-7.29,6.28,78.17,78.17,0,0,1-9.63,5.9,28.82,28.82,0,0,0-3.74,2.21.66.66,0,0,0-.05.67c.29.51,1.65,1.46,7.52,2,7,.63,14.16-.49,18-1.1,1-.16,1.74-.27,2.21-.31s.91,0,1.48,0c2.62,0,6.2-.05,6.94-3,.59-2.38-.16-6.42-.82-10a37,37,0,0,1-.81-5.78c0-1.13-.12-3.76-.26-6.81-.32-6.87-.76-16.28-.34-19.22.12-.78.36-2,.67-3.63,1.34-6.81,4.11-21,2.16-29.59-2.17-9.59-3.87-22.39-4.19-24.81Zm7.33,88.59h0Z" style="fill:#263238"></path><path d="M557.42,454.66c.59-2.34,0-6.11-.69-9.57a22.94,22.94,0,0,1-11.58,2.33,45.83,45.83,0,0,0-2.62-4.83,2.52,2.52,0,0,0-1.4-1v0a85.56,85.56,0,0,1-7.24,6.24c-4.63,3.62-13.08,7.45-13.48,8.25s-1,2.62,7.84,3.42,18.11-1.2,20.33-1.41S556.42,458.69,557.42,454.66Z" style="fill:#fff"></path><path d="M532.65,460.18c-1.47,0-3-.05-4.45-.19-6.52-.59-7.86-1.71-8.3-2.51a1.67,1.67,0,0,1,.05-1.63c.22-.43,1-.91,4.13-2.61a76.54,76.54,0,0,0,9.49-5.81,89.49,89.49,0,0,0,7.16-6.16.37.37,0,0,1,.15-.13.51.51,0,0,1,.4-.06,3.07,3.07,0,0,1,1.67,1.23,44.68,44.68,0,0,1,2.52,4.63,22.8,22.8,0,0,0,11-2.3.51.51,0,0,1,.45,0,.5.5,0,0,1,.27.36c.7,3.8,1.28,7.41.69,9.79-.93,3.69-5.29,3.73-7.9,3.75-.54,0-1,0-1.4,0s-1.19.16-2.15.31A89.21,89.21,0,0,1,532.65,460.18Zm8.61-18a91,91,0,0,1-7.07,6.08,78.17,78.17,0,0,1-9.63,5.9,28.82,28.82,0,0,0-3.74,2.21.66.66,0,0,0-.05.67c.29.51,1.65,1.46,7.52,2,7,.63,14.16-.49,18-1.1,1-.16,1.74-.27,2.21-.31s.91,0,1.48,0c2.62,0,6.2-.05,6.94-3h0c.51-2.05,0-5.27-.59-8.72a23.25,23.25,0,0,1-11.26,2.1.52.52,0,0,1-.4-.29,45.05,45.05,0,0,0-2.57-4.76A2,2,0,0,0,541.26,442.14Z" style="fill:#263238"></path><path d="M504.81,288.92s-1.61,9-3.42,16.43a57.11,57.11,0,0,0-1.81,16.1c.2,2.62-.6,31.59-.6,31.59s6,4.43,17.3,4.83,12.68,0,12.68,0a65.36,65.36,0,0,0,16.3,2c9.25,0,19.11-3.42,19.11-3.42s-.2-6.24-.2-7.85-.8-23.34-.8-27,2.41-14.89,1.41-20.52S563,289.26,563,289.26s-22.54,2.41-33.21,1.81S506,285.84,506,285.84Z" style="fill:#fff"></path><path d="M545.26,360.39a67.35,67.35,0,0,1-16.32-2c-.6.09-3.11.32-12.68,0-11.29-.4-17.33-4.74-17.58-4.92a.49.49,0,0,1-.2-.42c0-.29.8-29,.6-31.54a57.18,57.18,0,0,1,1.83-16.25c1.78-7.35,3.39-16.32,3.41-16.41a.29.29,0,0,1,0-.09l1.21-3.09a.51.51,0,0,1,.64-.29c.13.05,13.13,4.62,23.6,5.21s32.9-1.79,33.12-1.81a.49.49,0,0,1,.55.43c0,.06.82,6.29,1.81,11.85.67,3.78-.14,9.87-.79,14.77a57.26,57.26,0,0,0-.61,5.84c0,2.17.29,10.84.52,17.81.16,4.75.28,8.51.28,9.16,0,1.58.2,7.77.2,7.83a.49.49,0,0,1-.33.49C564.44,357,554.49,360.39,545.26,360.39Zm-16.3-3h.14a65.55,65.55,0,0,0,16.16,2c8.1,0,16.78-2.69,18.6-3.28,0-1.38-.19-6.1-.19-7.49,0-.64-.13-4.57-.28-9.13-.23-7-.52-15.66-.52-17.84a58.81,58.81,0,0,1,.62-6c.64-4.83,1.44-10.84.79-14.46-.83-4.69-1.54-9.84-1.75-11.42-3.34.35-23.08,2.32-32.8,1.77-9.49-.54-21-4.29-23.42-5.11l-1,2.6c-.13.72-1.69,9.32-3.41,16.41a56.41,56.41,0,0,0-1.8,15.94c.19,2.51-.51,28.24-.6,31.38,1.16.75,7,4.23,16.82,4.58,10.8.39,12.47,0,12.53,0Z" style="fill:#263238"></path><path d="M529,358.37a.49.49,0,0,1-.21,0l-3.43-1.61a.51.51,0,0,1-.28-.46l.6-40.89-3-4.15a.5.5,0,0,1,.12-.7.49.49,0,0,1,.69.11l3.1,4.29a.55.55,0,0,1,.09.3L526,356l3.13,1.47a.5.5,0,0,1,.24.67A.48.48,0,0,1,529,358.37Z" style="fill:#263238"></path><path d="M521.57,309.37a.49.49,0,0,1-.41-.21l-1.66-2.31a.5.5,0,0,1,.11-.69.49.49,0,0,1,.7.11l1.66,2.31a.5.5,0,0,1-.11.69A.46.46,0,0,1,521.57,309.37Z" style="fill:#263238"></path><path d="M559.34,305.45h-.11A12.42,12.42,0,0,1,550,296a.5.5,0,0,1,.41-.58.51.51,0,0,1,.57.41,11.22,11.22,0,0,0,8.48,8.66.5.5,0,0,1,.37.6A.5.5,0,0,1,559.34,305.45Z" style="fill:#263238"></path><path d="M560.55,355a.51.51,0,0,1-.5-.45s-.19-1.85-.46-4.71a.49.49,0,0,1,.45-.54.51.51,0,0,1,.54.45c.28,2.85.47,4.7.47,4.7a.5.5,0,0,1-.45.55Z" style="fill:#263238"></path><path d="M559.75,346.74a.5.5,0,0,1-.5-.45c-1-10.15-2-22.85-1.61-25.71.6-4.38,2-12.81,2-12.89a.48.48,0,0,1,.57-.41.49.49,0,0,1,.41.57c0,.09-1.41,8.5-2,12.86-.29,2.16.28,11.21,1.62,25.48a.51.51,0,0,1-.45.55Z" style="fill:#263238"></path><path d="M521.07,196.2s-13.59,4.86-18,11.17-1,26.7-1,26.7l2.19,23.05.72,25.25-.24,6.55a63.05,63.05,0,0,0,32.28,6.8c18.2-1.22,26.7-4.86,26.7-4.86a114.18,114.18,0,0,0,.73-16.26c-.25-9,0-31.07,0-31.07s3.64-37.37,1.94-41.74-17-8-19.66-8S526.9,193.53,521.07,196.2Z" style="fill:#263238"></path><path d="M533.36,296.34a64.31,64.31,0,0,1-28.8-7,.48.48,0,0,1-.25-.45l.24-6.55-.72-25.21-2.19-23c-.13-.8-3.37-20.62,1.06-27s17.38-11.05,18.18-11.34c3.71-1.69,12.2-2.51,25.29-2.46h.63c2.62,0,18.31,3.66,20.12,8.33,1.73,4.42-1.76,40.44-1.9,42,0,.18-.24,22.14,0,31a116.07,116.07,0,0,1-.73,16.34.52.52,0,0,1-.3.39c-.35.15-8.78,3.69-26.87,4.89C535.85,296.3,534.59,296.34,533.36,296.34Zm-28-7.71a63.29,63.29,0,0,0,31.74,6.59c16.15-1.08,24.7-4.11,26.27-4.71a117,117,0,0,0,.69-15.9c-.24-8.88,0-30.86,0-31.08,1.26-12.93,3.28-38.19,2-41.56-1.53-3.95-16.29-7.69-19.19-7.69h-.63c-16.15-.05-22.44,1.26-24.89,2.38h0c-.13.05-13.49,4.88-17.72,11s-.92,26.13-.89,26.33l2.19,23.1.73,25.27Zm15.75-92.43h0Z" style="fill:#263238"></path><path d="M510.33,149.22a7.76,7.76,0,0,1,.6-6.86c2.12-3.64,5.85-2.73,5.55-.91s.5,1.51,3-.51,7.16-3.73,8.27-1.71,0,3.13.2,3.63,7.9-2.37,10.7-.5,5.75,3.83,6.65,9.48S541.4,168.28,541.1,169s-1.92,1.61-3.74,2.12-2.62,1.92-3-.91.2-5.25-1.52-5.95-4.74-1.82-3.73-3.73,3.13-4.44.3-4.44-8.27,1.81-11.3,1.31a8.22,8.22,0,0,1-4.44-2l-2.32,4.84a16.63,16.63,0,0,1-2.22-5.85c-.4-3,2-3.53,2-3.53Z" style="fill:#263238"></path><path d="M535.21,172.41a1,1,0,0,1-.48-.12c-.46-.25-.72-.83-.89-2a23.88,23.88,0,0,1-.18-2.4c-.07-1.83-.15-2.8-1-3.16l-.27-.11c-1.42-.58-3.37-1.38-3.86-2.71a1.92,1.92,0,0,1,.15-1.61c.18-.35.4-.72.62-1.09.49-.81,1.21-2,1-2.4-.06-.1-.32-.21-.88-.21a26.4,26.4,0,0,0-4.4.63c-2.52.48-5.12,1-7,.67a9.44,9.44,0,0,1-4.19-1.71l-2,4.26a.5.5,0,0,1-.42.28.48.48,0,0,1-.46-.23,17,17,0,0,1-2.29-6,3.46,3.46,0,0,1,1.81-3.88l-.55-1.11h0a8.25,8.25,0,0,1,.63-7.33c1.47-2.51,3.7-3.09,5.16-2.57a1.81,1.81,0,0,1,1.31,2,3.38,3.38,0,0,0-.05.59,10.44,10.44,0,0,0,2.27-1.57c2-1.63,5.37-3.06,7.43-2.65a2.22,2.22,0,0,1,1.6,1.09,3.93,3.93,0,0,1,.33,3.36v0c.36-.06.92-.18,1.42-.3,2.75-.61,6.92-1.53,9-.14,2.8,1.87,5.94,4,6.88,9.82.81,5-2.68,13.78-4.22,17.31l-.05.12c-.43,1-2.41,1.94-4.06,2.4a6.53,6.53,0,0,0-1.12.45A2.94,2.94,0,0,1,535.21,172.41Zm-5.82-16.83c.91,0,1.48.23,1.75.72.5.87-.23,2.1-1,3.4-.21.36-.42.71-.6,1.05a1,1,0,0,0-.09.8c.34.91,2.12,1.64,3.3,2.12l.27.12c1.51.62,1.58,2.2,1.65,4,0,.74.06,1.5.17,2.3.17,1.15.37,1.27.38,1.28a2.42,2.42,0,0,0,.74-.28,8.57,8.57,0,0,1,1.28-.5c1.94-.54,3.23-1.41,3.41-1.84l.05-.12c1.17-2.69,4.94-11.84,4.15-16.75-.87-5.42-3.69-7.31-6.42-9.13-1.75-1.17-5.81-.27-8.24.27-1.87.42-2.44.54-2.66,0a1.48,1.48,0,0,1,.07-1,3,3,0,0,0-.25-2.59,1.24,1.24,0,0,0-.91-.59c-1.7-.34-4.79,1-6.61,2.45s-2.8,2.09-3.46,1.71-.48-1-.37-1.67-.49-.83-.67-.9c-.9-.32-2.7,0-4,2.14a7.19,7.19,0,0,0-.58,6.39l.8,1.61a.5.5,0,0,1-.35.71c-.19,0-2,.51-1.62,3a15.27,15.27,0,0,0,1.68,4.85l1.91-4A.51.51,0,0,1,514,155a7.79,7.79,0,0,0,4.16,1.86c1.68.29,4.3-.22,6.62-.66A27,27,0,0,1,529.39,155.58Z" style="fill:#263238"></path><path d="M525.33,209s7.15-2.35,9.09-.65a44.77,44.77,0,0,1,3.64,3.64s8.74-14.56,8.74-18.2-4.61-6.07-5.58-6.07-15.71,2.64-18.66,5.2-6.1,9.85-6.83,12.27-1.21,4.86-1.21,4.86S522.31,206.72,525.33,209Z" style="fill:#92E3A9"></path><path d="M538.06,212.48a.48.48,0,0,1-.37-.17,43.09,43.09,0,0,0-3.6-3.59c-1.25-1.1-5.94-.13-8.6.74a.53.53,0,0,1-.46-.07c-2.29-1.72-8.22.22-10.31,1.11a.54.54,0,0,1-.52-.07.51.51,0,0,1-.17-.49s.5-2.48,1.22-4.9,3.92-9.83,7-12.5,18-5.33,19-5.33c1.17,0,6.08,2.62,6.08,6.57,0,3.73-8.45,17.86-8.81,18.46a.52.52,0,0,1-.38.24ZM532,207.23a4.32,4.32,0,0,1,2.8.73c1.36,1.2,2.59,2.49,3.23,3.18,2.61-4.41,8.32-14.62,8.32-17.36,0-3.39-4.43-5.57-5.08-5.57-1,0-15.53,2.64-18.33,5.08s-6,9.72-6.68,12c-.44,1.48-.8,3-1,3.9,2.13-.79,7.51-2.51,10.21-.79A24.9,24.9,0,0,1,532,207.23Z" style="fill:#263238"></path><path d="M513,152.64s-2.59,9.42-2.59,13.67.18,10,1.48,13.86,2.77,10.53,4.8,11.64,5.91,1.1,5.91,1.1,1.29,17.55,2.77,16.08,15.15-19,15.15-19l.19-14.78s2.58-4.06,2.21-8.13-4.06-.55-4.8.37-1.66,2.22-1.66,2.22a7.58,7.58,0,0,0-.56-4.62c-1.11-1.85-4.8-3.14-4.62-4.25s4.44-4.8,3-6.65-11.45,1.48-14.41,1.85S513,152.64,513,152.64Z" style="fill:#fff"></path><path d="M525.15,209.57a.67.67,0,0,1-.24,0c-1.35-.5-2.27-8.94-2.81-16.12a14.91,14.91,0,0,1-5.69-1.16c-1.76-1-3-5.05-4.14-9-.31-1.06-.61-2.07-.9-2.93-1.34-4.05-1.5-9.94-1.5-14,0-4.26,2.5-13.41,2.6-13.8a.51.51,0,0,1,.35-.35.5.5,0,0,1,.48.12s3.74,3.52,6.43,3.19c.81-.1,2.21-.44,3.83-.84,5.54-1.35,9.87-2.27,11-.82s-.53,3.85-1.82,5.52a7.69,7.69,0,0,0-1,1.52c0,.28,1,1,1.69,1.41a9.45,9.45,0,0,1,2.86,2.5,6.42,6.42,0,0,1,.77,3.17c.2-.28.42-.56.63-.82.5-.63,2.73-2.89,4.33-2.41.79.24,1.24,1,1.36,2.31.35,3.83-1.77,7.58-2.22,8.32L541,190a.57.57,0,0,1-.1.3c-.56.71-13.71,17.59-15.19,19.07A.79.79,0,0,1,525.15,209.57Zm.17-.94h0Zm-12.09-55.08c-.61,2.34-2.36,9.33-2.36,12.76,0,4,.15,9.8,1.45,13.7.29.88.6,1.9.91,3,1,3.4,2.27,7.64,3.66,8.4,1.9,1,5.63,1,5.67,1a.51.51,0,0,1,.5.47c.5,6.74,1.4,14.07,2.12,15.54,2.09-2.34,13.58-17.07,14.8-18.64l.19-14.61a.48.48,0,0,1,.07-.26s2.49-4,2.14-7.81c0-.58-.21-1.31-.65-1.44-.85-.25-2.59,1.24-3.26,2.07s-1.64,2.19-1.65,2.2a.5.5,0,0,1-.89-.39s.5-2.61-.5-4.26a8.67,8.67,0,0,0-2.56-2.19c-1.27-.85-2.27-1.51-2.12-2.4a5.85,5.85,0,0,1,1.23-2c1-1.33,2.58-3.35,1.83-4.29s-6.81.39-10,1.17a38.29,38.29,0,0,1-3.95.86C517.39,156.77,514.49,154.61,513.23,153.55Z" style="fill:#263238"></path><path d="M516.23,167.14s-7-1.42-8.21-1.42-1.75,4.89-.35,6.29,7.51,1.59,8.21,1.07,1.57-5.77,1.57-5.77Z" style="fill:#263238"></path><path d="M513.73,173.83c-2.27,0-5.4-.45-6.41-1.47-1.25-1.24-1.18-4.47-.53-6.05.38-.9.88-1.09,1.23-1.09,1.23,0,7.51,1.26,8.3,1.42l1.21.18a.5.5,0,0,1,.33.2.49.49,0,0,1,.09.37c-.34,2-1,5.53-1.77,6.09A5.47,5.47,0,0,1,513.73,173.83ZM508,166.22s-.31.27-.51,1.12c-.33,1.46-.21,3.6.51,4.32,1.23,1.22,6.91,1.38,7.57,1a20.54,20.54,0,0,0,1.29-4.94l-.72-.1h0C514.2,167.23,509,166.22,508,166.22Z" style="fill:#263238"></path><path d="M520.82,167.49s7.11-.59,8.32-.45,1.17,5.07-.39,6.29-7.64.71-8.28.11-.89-5.91-.89-5.91Z" style="fill:#263238"></path><path d="M524.82,174.57c-2.11,0-4.25-.35-4.69-.77-.68-.64-1-4.19-1-6.25a.52.52,0,0,1,.14-.36.48.48,0,0,1,.35-.16l1.22,0c.8-.07,7.19-.6,8.41-.45.35,0,.83.28,1.09,1.23.47,1.64.15,4.85-1.23,5.94C528.29,174.34,526.56,174.57,524.82,174.57ZM520.11,168a19.45,19.45,0,0,0,.72,5.08c.59.42,6.25.92,7.61-.15.8-.63,1.18-2.73,1-4.22-.09-.88-.32-1.16-.38-1.18-.94-.11-6.25.29-8.21.45h-.75Zm.71-.51h0Z" style="fill:#263238"></path><path d="M519.58,168l-.14,0a12.81,12.81,0,0,0-2-.2.5.5,0,0,1-.48-.52.46.46,0,0,1,.51-.48,14.37,14.37,0,0,1,2.25.24.48.48,0,0,1,.34.61A.5.5,0,0,1,519.58,168Z" style="fill:#263238"></path><path d="M529.14,167.54a.51.51,0,0,1-.5-.43.5.5,0,0,1,.44-.56l9.63-1.28a.51.51,0,0,1,.56.43.5.5,0,0,1-.43.56l-9.63,1.28Z" style="fill:#263238"></path><path d="M520.82,166.26a.51.51,0,0,1-.45-.27.5.5,0,0,1,.22-.67c.17-.09,4.22-2.13,7.45-.19a.5.5,0,1,1-.52.86c-2.75-1.65-6.44.2-6.47.22A.68.68,0,0,1,520.82,166.26Z" style="fill:#263238"></path><path d="M517.09,166.77a.51.51,0,0,1-.34-.13c-.88-.8-3.48-2.68-4.95-1.76a.51.51,0,0,1-.69-.17.51.51,0,0,1,.16-.69c2.42-1.49,6,1.74,6.15,1.88a.48.48,0,0,1,0,.7A.48.48,0,0,1,517.09,166.77Z" style="fill:#263238"></path><path d="M518,180a5.11,5.11,0,0,1-3.18-1.25c-.72-.73-.16-2-.1-2.18a.51.51,0,0,1,.66-.25.49.49,0,0,1,.25.66c-.14.33-.26.89-.1,1.06a4.08,4.08,0,0,0,2.47,1,.5.5,0,0,1,.5.5A.5.5,0,0,1,518,180Z" style="fill:#263238"></path><path d="M519.09,183.53a5.19,5.19,0,0,1-3.35-1.05.5.5,0,1,1,.67-.75c.12.11,2.86,2.39,8.26-1.25a.51.51,0,0,1,.7.14.5.5,0,0,1-.14.69A11.14,11.14,0,0,1,519.09,183.53Z" style="fill:#263238"></path><path d="M522.56,192.91s6.43-3.44,8.65-5l2.22-1.62s-6.26,6.46-8,9.18-2.42,2.42-2.42,2.42Z" style="fill:#263238"></path><path d="M523.11,198.36a.57.57,0,0,1-.27-.06.5.5,0,0,1-.3-.41l-.48-4.93a.53.53,0,0,1,.27-.49c.06,0,6.42-3.44,8.59-5l2.21-1.61a.52.52,0,0,1,.68.07.51.51,0,0,1,0,.68c-.06.06-6.24,6.45-7.91,9.1C524.5,197.89,523.61,198.36,523.11,198.36Zm0-5.16.38,3.93a8.68,8.68,0,0,0,1.57-2,52.29,52.29,0,0,1,4.76-5.78C527.44,190.83,524.1,192.65,523.09,193.2Z" style="fill:#263238"></path><path d="M503.47,258.23s-4,2.47-2.61,4.16,12.48,5.59,14.63,5.41,6.61-.64,10.77-1.25,4.92-3.08.46-4.47S503.47,258.23,503.47,258.23Z" style="fill:#92E3A9"></path><path d="M515.35,268.31c-2.67,0-13.41-3.81-14.88-5.6a1.78,1.78,0,0,1-.38-1.42c.29-1.69,2.83-3.3,3.12-3.48a.48.48,0,0,1,.33-.07c.77.1,18.87,2.48,23.33,3.86,3,.95,3.42,2.25,3.36,2.94-.09,1.22-1.55,2.15-3.9,2.5-4.38.65-9,1.11-10.8,1.26Zm-11.76-9.56c-.76.5-2.34,1.72-2.51,2.7a.72.72,0,0,0,.16.62c1.27,1.55,12.29,5.39,14.21,5.24s6.38-.61,10.73-1.26c2-.3,3-1,3.06-1.59s-.64-1.27-2.67-1.9C522.43,261.27,505.53,259,503.59,258.75Z" style="fill:#263238"></path><path d="M504.09,254.54s-4.16,1.54-4.31,2.92,10.47,5.08,18.17,6.32,11.23.3,12.46-1.08a2.28,2.28,0,0,0-.92-3.85l-22.78-6.31Z" style="fill:#92E3A9"></path><path d="M524.26,264.85a41.43,41.43,0,0,1-6.39-.58c-6.34-1-18.83-4.69-18.59-6.86.17-1.54,3.45-2.89,4.57-3.31l2.55-2a.5.5,0,0,1,.44-.08l22.78,6.31a2.64,2.64,0,0,1,1.88,1.79,3,3,0,0,1-.71,2.87C530,264,528.17,264.85,524.26,264.85Zm-17.45-11.76-2.42,1.85a.4.4,0,0,1-.13.07c-1.86.69-3.91,1.87-4,2.51.47,1,10,4.53,17.74,5.76,8.86,1.42,11.36-.17,12-.91a2,2,0,0,0,.5-1.92,1.65,1.65,0,0,0-1.18-1.12Zm-2.72,1.45h0Z" style="fill:#263238"></path><path d="M525.64,248.69a25.36,25.36,0,0,0-9.7-1.69c-4.77.3-13.7,2.46-14.47,4.61s10,5.39,16.32,7.24,11.39,2.31,12.78,1.54,3.08-2.46,1.23-6.31A12,12,0,0,0,525.64,248.69Z" style="fill:#92E3A9"></path><path d="M528.3,261.24a41.77,41.77,0,0,1-10.65-1.91c-9.21-2.7-15.55-4.9-16.56-6.88a1.22,1.22,0,0,1-.09-1c1-2.7,10.89-4.69,14.91-4.95a25.54,25.54,0,0,1,9.91,1.72,12.38,12.38,0,0,1,6.43,5.64c1.93,4,.28,6-1.44,7A5.59,5.59,0,0,1,528.3,261.24ZM517,247.46c-.33,0-.66,0-1,0-5.29.34-13.44,2.61-14,4.28a.36.36,0,0,0,0,.22c1,2,11.87,5.17,15.95,6.37,6.25,1.83,11.21,2.24,12.4,1.58,2-1.09,2.3-3,1-5.66a11.46,11.46,0,0,0-5.88-5.13h0A25.86,25.86,0,0,0,517,247.46Z" style="fill:#263238"></path><path d="M557.48,227l5.34,27.91s-7.28,3.88-11.65,4.13a55.45,55.45,0,0,1-11.65-1c-.73-.25-3.64-5.34-5.83-6.8s-5.34-2.43-6.31-4.61-2.42,1.45-1.21,3.15,4.13,4.37,4.13,6.07-4.13,5.1-7.53,8.25-7,2.67-7.28,3.64,1.46.73,4.13,1.7,6.06,0,8,0,8.73-.48,13.1,0,9.71.73,20.88-.48,18.2-4.37,19.9-5.59S581,253,581,253s-3.88-23.79-6.79-33.74-5.83-17.72-8-19.9-11.9-1.7-13.35-.73" style="fill:#263238"></path><path d="M522.45,270.43a8.68,8.68,0,0,1-3-.46,19.67,19.67,0,0,0-2.5-.69c-.94-.21-1.56-.35-1.85-.81a1,1,0,0,1-.09-.79c.16-.66.91-.86,2-1.13a11.82,11.82,0,0,0,5.47-2.75l1.78-1.63c2.62-2.38,5.59-5.07,5.59-6.26,0-1-1.46-2.69-2.62-4-.54-.63-1-1.22-1.42-1.74a4,4,0,0,1-.12-3.83,1.23,1.23,0,0,1,1.1-.79c.45,0,.82.34,1.1,1,.61,1.38,2.32,2.29,4,3.17.73.39,1.49.79,2.16,1.23,1.36.91,2.91,3,4.15,4.75a13.45,13.45,0,0,0,1.59,2,54.52,54.52,0,0,0,11.43.94c3.69-.21,9.66-3.16,11.12-3.9L557,227.12a.49.49,0,0,1,.39-.58.5.5,0,0,1,.59.39l5.34,27.92a.49.49,0,0,1-.26.53c-.3.16-7.43,3.94-11.85,4.19a54.3,54.3,0,0,1-11.84-1c-.42-.14-.84-.69-2.05-2.36s-2.68-3.69-3.89-4.49c-.63-.42-1.37-.81-2.08-1.19-1.8-1-3.66-1.94-4.41-3.64a1.1,1.1,0,0,0-.26-.39,2.76,2.76,0,0,0-.33.75,2.88,2.88,0,0,0,.24,2.3c.34.48.83,1,1.36,1.66,1.4,1.63,2.86,3.31,2.86,4.7s-2.24,3.66-5.92,7l-1.77,1.62a12.67,12.67,0,0,1-5.89,3A4.39,4.39,0,0,0,516,268a4.53,4.53,0,0,0,1.21.35,22,22,0,0,1,2.62.73,12.76,12.76,0,0,0,5.7.16,18,18,0,0,1,2.14-.19c.48,0,1.28,0,2.27-.07a82.77,82.77,0,0,1,10.89.08c4.83.53,10.21.66,20.76-.49s17.86-4.2,19.67-5.49c.88-.63.33-5.64-.68-9.92,0-.27-3.92-23.9-6.79-33.71-3.15-10.76-6-17.75-7.89-19.69s-11.45-1.5-12.72-.66a.5.5,0,1,1-.55-.83c1.57-1.05,11.54-1.65,14,.79,2.63,2.62,5.87,12.39,8.14,20.11,2.88,9.87,6.77,33.56,6.8,33.8.53,2.2,2.12,9.62.29,10.92-1.49,1.07-8.39,4.4-20.14,5.67-10.64,1.16-16.08,1-21,.49a82.15,82.15,0,0,0-10.74-.07c-1,0-1.82.07-2.31.07a18.75,18.75,0,0,0-2,.18A25.79,25.79,0,0,1,522.45,270.43Z" style="fill:#263238"></path><path d="M562.82,254.94s-7.28,3.88-11.65,4.13a55.45,55.45,0,0,1-11.65-1c-.73-.25-3.64-5.34-5.83-6.8s-5.34-2.43-6.31-4.61-2.42,1.45-1.21,3.15,4.13,4.37,4.13,6.07-4.13,5.1-7.53,8.25-7,2.67-7.28,3.64,1.46.73,4.13,1.7,6.06,0,8,0,8.73-.48,13.1,0,9.71.73,20.88-.48,18.2-4.37,19.9-5.59S581,253,581,253s-.77-4.73-1.88-10.84a75.24,75.24,0,0,1-18,4.06Z" style="fill:#fff"></path><path d="M522.45,270.43a8.68,8.68,0,0,1-3-.46,19.67,19.67,0,0,0-2.5-.69c-.94-.21-1.56-.35-1.85-.81a1,1,0,0,1-.09-.79c.16-.66.91-.86,2-1.13a11.82,11.82,0,0,0,5.47-2.75l1.78-1.63c2.62-2.38,5.59-5.07,5.59-6.26,0-1-1.46-2.69-2.62-4-.54-.63-1-1.22-1.42-1.74a4,4,0,0,1-.12-3.83,1.23,1.23,0,0,1,1.1-.79c.45,0,.82.34,1.1,1,.61,1.38,2.32,2.29,4,3.17.73.39,1.49.79,2.16,1.23,1.36.91,2.91,3,4.15,4.75a13.45,13.45,0,0,0,1.59,2,54.52,54.52,0,0,0,11.43.94c3.7-.21,9.66-3.16,11.12-3.9l-1.6-8.36a.45.45,0,0,1,.09-.39.49.49,0,0,1,.35-.2,74.64,74.64,0,0,0,17.86-4,.48.48,0,0,1,.42,0,.49.49,0,0,1,.25.34c1.1,6.05,1.88,10.8,1.88,10.85.53,2.2,2.12,9.62.29,10.92-1.49,1.07-8.39,4.4-20.14,5.67-10.64,1.16-16.08,1-21,.49a82.15,82.15,0,0,0-10.74-.07c-1,0-1.82.07-2.31.07a18.75,18.75,0,0,0-2,.18A25.79,25.79,0,0,1,522.45,270.43Zm4.22-23.93a2.76,2.76,0,0,0-.33.75,2.88,2.88,0,0,0,.24,2.3c.34.48.83,1,1.36,1.66,1.4,1.63,2.86,3.31,2.86,4.7s-2.24,3.66-5.92,7l-1.77,1.62a12.67,12.67,0,0,1-5.89,3A4.39,4.39,0,0,0,516,268a4.53,4.53,0,0,0,1.21.35,22,22,0,0,1,2.62.73,12.76,12.76,0,0,0,5.7.16,18,18,0,0,1,2.14-.19c.48,0,1.28,0,2.27-.07a82.77,82.77,0,0,1,10.89.08c4.83.53,10.21.66,20.76-.49s17.86-4.2,19.67-5.49c.88-.63.33-5.64-.68-9.92,0-.08-.75-4.52-1.79-10.27a76.26,76.26,0,0,1-17,3.82l1.57,8.19a.49.49,0,0,1-.26.53c-.3.16-7.43,3.94-11.85,4.19a54.3,54.3,0,0,1-11.84-1c-.42-.14-.84-.69-2.05-2.36s-2.68-3.69-3.89-4.49c-.63-.42-1.37-.81-2.08-1.19-1.8-1-3.66-1.94-4.41-3.64A1.1,1.1,0,0,0,526.67,246.5Z" style="fill:#263238"></path><path d="M562.82,255.44a.52.52,0,0,1-.38-.17.51.51,0,0,1,0-.71c.16-.13,3.86-3.27,10.52-3.27h0a.5.5,0,0,1,.5.5.5.5,0,0,1-.5.5,16,16,0,0,0-9.86,3A.54.54,0,0,1,562.82,255.44Z" style="fill:#263238"></path></g><g id="freepik--board-2--inject-69"><rect x="650.04" y="440.68" width="8.42" height="23.54" style="fill:#263238"></rect><path d="M658.46,464.72H650a.5.5,0,0,1-.5-.5V440.68a.5.5,0,0,1,.5-.5h8.42a.51.51,0,0,1,.5.5v23.54A.5.5,0,0,1,658.46,464.72Zm-7.92-1H658V441.18h-7.42Z" style="fill:#263238"></path><rect x="654.14" y="440.68" width="8.42" height="23.54" style="fill:#fff"></rect><path d="M662.56,464.72h-8.42a.5.5,0,0,1-.5-.5V440.68a.5.5,0,0,1,.5-.5h8.42a.5.5,0,0,1,.5.5v23.54A.5.5,0,0,1,662.56,464.72Zm-7.92-1h7.42V441.18h-7.42Z" style="fill:#263238"></path><polygon points="593.47 440.68 589.15 440.68 585.04 440.68 585.04 464.22 589.15 464.22 593.47 464.22 597.57 464.22 597.57 440.68 593.47 440.68" style="fill:#263238"></polygon><path d="M597.57,464.72H585a.5.5,0,0,1-.5-.5V440.68a.51.51,0,0,1,.5-.5h12.53a.51.51,0,0,1,.5.5v23.54A.5.5,0,0,1,597.57,464.72Zm-12-1h11.53V441.18H585.54Z" style="fill:#263238"></path><rect x="474.47" y="455.07" width="96.49" height="9.15" style="fill:#fff"></rect><path d="M571,464.72H474.47a.5.5,0,0,1-.5-.5v-9.15a.5.5,0,0,1,.5-.5H571a.5.5,0,0,1,.5.5v9.15A.5.5,0,0,1,571,464.72Zm-96-1h95.49v-8.15H475Z" style="fill:#263238"></path><polygon points="571.05 455.07 667.54 431.4 667.54 440.56 571.05 464.22 571.05 455.07" style="fill:#fff"></polygon><path d="M571.05,464.72a.51.51,0,0,1-.31-.11.49.49,0,0,1-.19-.39v-9.15a.5.5,0,0,1,.38-.49l96.49-23.66a.5.5,0,0,1,.62.48v9.16a.48.48,0,0,1-.38.48l-96.49,23.67Zm.5-9.26v8.12L667,440.17V432Z" style="fill:#263238"></path><polygon points="667.54 431.4 592.06 431.4 474.47 455.07 571.05 455.07 667.54 431.4" style="fill:#fff"></polygon><path d="M571.05,455.57H474.47a.5.5,0,0,1-.1-1L592,430.91h75.58a.5.5,0,0,1,.12,1l-96.49,23.66Zm-91.56-1H571L663.4,431.9H592.06Z" style="fill:#263238"></path><path d="M614.6,437c.11,1.66-4.83,3.32-11,3.71s-11.29-.66-11.39-2.32,4.83-3.33,11-3.72S614.5,435.36,614.6,437Z" style="fill:#263238"></path><path d="M601.05,441.32a29.15,29.15,0,0,1-5.54-.48c-2.47-.51-3.75-1.31-3.82-2.39s1.11-2,3.49-2.84a31.79,31.79,0,0,1,8-1.4c5.82-.36,11.78.48,11.92,2.79h0c.07,1.08-1.1,2-3.49,2.84a32.72,32.72,0,0,1-8,1.4C602.74,441.29,601.88,441.32,601.05,441.32Zm4.69-6.2c-.79,0-1.62,0-2.5.08a32.13,32.13,0,0,0-7.74,1.35c-2,.67-2.84,1.4-2.81,1.83s1,1.06,3,1.48a31.53,31.53,0,0,0,7.84.38,31.17,31.17,0,0,0,7.74-1.35c2-.67,2.84-1.4,2.81-1.83h0C614.05,436.17,610.84,435.12,605.74,435.12Z" style="fill:#263238"></path></g><g id="freepik--character-2--inject-69"><path d="M668,370.44s7.64,2.55,10.88,5.56,8.34,7.88,12.74,22.24,10,22.94,13,28.5,7.41,4.63,9.26,7.87-.46,6.49-2.31,10.43S710,453.15,709,455.93s-4.4,3.93-8.11,5.09-10.19.23-11.58-.93,5.33-4.86,6.72-9.26,1.85-7.41,1.39-8.8a104.8,104.8,0,0,0-14.6-25.25c-7.15-9.24-11.41-14-13.08-15.82-.55-.59-.82-.86-.82-.86Z" style="fill:#fff"></path><path d="M696.71,462.05c-3.29,0-6.68-.72-7.69-1.57a1,1,0,0,1-.37-.73c0-.84.94-1.78,2.4-3.19,1.71-1.64,3.84-3.69,4.53-5.88,1.79-5.66,1.64-7.75,1.39-8.5a103.11,103.11,0,0,0-14.51-25.1c-7.23-9.34-11.54-14.15-13.05-15.78-.54-.58-.81-.84-.81-.85a.53.53,0,0,1-.15-.34l-.92-29.65a.5.5,0,0,1,.2-.42.52.52,0,0,1,.45-.07c.32.11,7.79,2.62,11.07,5.67s8.38,7.78,12.88,22.46a117.93,117.93,0,0,0,11.31,25.48c.6,1.06,1.14,2,1.63,2.92a10.88,10.88,0,0,0,5.55,4.94,7.67,7.67,0,0,1,3.71,2.93c1.68,2.94.19,5.89-1.38,9-.31.61-.62,1.23-.92,1.87a23.76,23.76,0,0,0-1.76,6.95,22.19,22.19,0,0,1-.77,3.88c-1,3.11-5,4.34-8.43,5.42A15.17,15.17,0,0,1,696.71,462.05Zm-27.26-62.16c.13.13.36.37.69.73,1.89,2,6.12,6.81,13.11,15.85a104.12,104.12,0,0,1,14.67,25.4c.51,1.52,0,4.59-1.39,9.11-.77,2.43-3,4.58-4.78,6.3-.91.88-2.15,2.07-2.1,2.43,1.19,1,7.46,2,11.12.83,4.05-1.26,7-2.34,7.78-4.77a21.76,21.76,0,0,0,.73-3.71,24.45,24.45,0,0,1,1.85-7.24c.3-.64.62-1.27.93-1.89,1.57-3.12,2.82-5.59,1.4-8.07a6.82,6.82,0,0,0-3.28-2.52,11.89,11.89,0,0,1-6-5.37c-.48-.88-1-1.84-1.62-2.89a120.66,120.66,0,0,1-11.39-25.69c-4.42-14.42-9.55-19.18-12.61-22-2.57-2.39-8.09-4.52-10-5.21Z" style="fill:#263238"></path><path d="M708.43,430.84c0,.46-.06.94-.1,1.46-.46,6.25-3.24,8.34-3.24,8.34s-2.78-1.86-4.86-1.63-2.78,3-2.78,3c.46,1.39,0,4.4-1.39,8.8s-8.11,8.11-6.72,9.26,7.87,2.09,11.58.93,7.18-2.32,8.11-5.09.69-6.95,2.55-10.89,4.17-7.18,2.31-10.43C712.74,432.6,710.61,432.19,708.43,430.84Z" style="fill:#fff"></path><path d="M696.71,462.05c-3.29,0-6.68-.72-7.69-1.57a1,1,0,0,1-.37-.73c0-.84.94-1.78,2.4-3.19,1.71-1.64,3.84-3.69,4.53-5.88,1.79-5.66,1.64-7.75,1.39-8.5a.53.53,0,0,1,0-.28c0-.12.81-3.12,3.21-3.38,1.8-.2,4,1,4.86,1.49.66-.67,2.45-2.92,2.81-7.75,0-.52.07-1,.09-1.45a.51.51,0,0,1,.28-.41.46.46,0,0,1,.49,0,21.07,21.07,0,0,0,1.92,1,7.67,7.67,0,0,1,3.71,2.93c1.68,2.94.19,5.89-1.38,9-.31.61-.62,1.23-.92,1.87a23.76,23.76,0,0,0-1.76,6.95,22.19,22.19,0,0,1-.77,3.88c-1,3.11-5,4.34-8.43,5.42A15.17,15.17,0,0,1,696.71,462.05ZM698,442c.43,1.57-.06,4.59-1.44,9-.77,2.43-3,4.58-4.78,6.3-.91.88-2.15,2.07-2.1,2.43,1.19,1,7.46,2,11.12.83,4.05-1.26,7-2.34,7.78-4.77a21.76,21.76,0,0,0,.73-3.71,24.45,24.45,0,0,1,1.85-7.24c.3-.64.62-1.27.93-1.89,1.57-3.12,2.82-5.59,1.4-8.07a6.76,6.76,0,0,0-3.28-2.52c-.43-.21-.86-.42-1.3-.66,0,.21,0,.43,0,.65-.47,6.41-3.32,8.62-3.44,8.71a.51.51,0,0,1-.58,0s-2.66-1.74-4.53-1.54C698.79,439.68,698.12,441.52,698,442Z" style="fill:#263238"></path><path d="M653,362.18s-3.84,9.92-3.84,11.84,3.84,36.14,5.12,44.46.32,24.31.32,24.31-4.16,6.08-9,9.59-16.63,7-15.35,9.28,18.55,2.56,24,2.56,13.11,0,14.39-2.24,1.6-7,1.28-9.28-1-10.55-1-10.55,3.2-30.71,3.84-41.26-2.88-24-2.88-24l2.24-5.12Z" style="fill:#fff"></path><path d="M654.24,464.72c-5.35,0-22.93-.2-24.42-2.81a1.19,1.19,0,0,1-.1-1c.44-1.39,3.22-2.73,7.72-4.8a50.59,50.59,0,0,0,7.87-4.14,45.67,45.67,0,0,0,8.76-9.36c.09-1.6.87-16.31-.32-24.07-1.23-8-5.13-42.41-5.13-44.53,0-2,3.48-11,3.87-12a.53.53,0,0,1,.29-.28.47.47,0,0,1,.4,0l19.2,9.59a.5.5,0,0,1,.23.65l-2.17,5c.4,1.6,3.45,14.1,2.85,24-.63,10.44-3.81,41-3.84,41.28h0s.64,8.24,1,10.43c.34,2.37,0,7.28-1.34,9.6S661.57,464.72,654.24,464.72Zm-1-101.84c-1.17,3.05-3.61,9.73-3.61,11.14,0,1.8,3.77,35.66,5.11,44.38,1.28,8.28.34,24.26.33,24.42a.54.54,0,0,1-.09.25c-.17.25-4.26,6.19-9.07,9.72a51.71,51.71,0,0,1-8,4.24c-3.21,1.48-6.85,3.15-7.18,4.19a.2.2,0,0,0,0,.19c.86,1.5,12.78,2.31,23.56,2.31,4.8,0,12.82,0,14-2s1.53-6.78,1.22-9-.94-10.24-1-10.58,3.2-30.91,3.83-41.33-2.83-23.7-2.86-23.84a.44.44,0,0,1,0-.32l2-4.69Zm1.33,79.91h0Z" style="fill:#263238"></path><path d="M668.63,462c1.28-2.24,1.6-7,1.28-9.28-.1-.71-.24-2.06-.37-3.55A78.92,78.92,0,0,1,659,451.29a11.77,11.77,0,0,0-1.39-5.09,8.47,8.47,0,0,0-3-3.41s-4.16,6.08-9,9.59-16.63,7-15.35,9.28,18.55,2.56,24,2.56S667.35,464.22,668.63,462Z" style="fill:#fff"></path><path d="M654.24,464.72c-5.35,0-22.93-.2-24.42-2.81a1.19,1.19,0,0,1-.1-1c.44-1.39,3.22-2.73,7.72-4.8a50.59,50.59,0,0,0,7.87-4.14c4.67-3.43,8.8-9.41,8.84-9.47a.51.51,0,0,1,.64-.17A9,9,0,0,1,658,446a12.51,12.51,0,0,1,1.42,4.76,73.85,73.85,0,0,0,9.93-2.05.51.51,0,0,1,.43.07.53.53,0,0,1,.22.37c.15,1.7.28,2.89.37,3.52.34,2.37,0,7.28-1.34,9.6h0C667.75,464.53,661.57,464.72,654.24,464.72Zm.45-21.25a45.4,45.4,0,0,1-8.79,9.32,51.71,51.71,0,0,1-8,4.24c-3.21,1.48-6.85,3.15-7.18,4.19a.2.2,0,0,0,0,.19c.86,1.5,12.78,2.31,23.56,2.31,4.8,0,12.82,0,14-2h0c1.2-2.1,1.53-6.78,1.22-9-.08-.56-.19-1.56-.32-3a84,84,0,0,1-10,2,.53.53,0,0,1-.4-.12.5.5,0,0,1-.17-.38,11.42,11.42,0,0,0-1.33-4.86A9.07,9.07,0,0,0,654.69,443.47Z" style="fill:#263238"></path><path d="M647.39,296.82s1.23,25.9,3.68,33.26a152.8,152.8,0,0,1,4.2,16.46s-4.55,16.46-4.2,17.86,26.61,14.7,29.07,15.05,5.25,1.06,5.25,1.06,9.1-27,12.26-33.62,11.9-32.22,12.25-39.23.23-15.07.23-15.07l-6.88-3.14L649,292.25Z" style="fill:#fff"></path><path d="M685.39,381l-.12,0s-2.81-.7-5.21-1c-2.07-.3-29-13.59-29.48-15.43-.36-1.44,3.34-15,4.18-18a151.53,151.53,0,0,0-4.17-16.29c-2.44-7.33-3.65-32.32-3.7-33.39a.57.57,0,0,1,0-.18l1.57-4.57a.51.51,0,0,1,.45-.33L703.22,289a.42.42,0,0,1,.24.05l6.88,3.13a.51.51,0,0,1,.29.45c0,.08.12,8.17-.23,15.11S701.45,340,698.1,347.1c-3.11,6.55-12.15,33.3-12.24,33.57A.51.51,0,0,1,685.39,381Zm-37.5-84.12c.09,1.74,1.33,26.05,3.65,33a153.85,153.85,0,0,1,4.22,16.52.44.44,0,0,1,0,.23c-2.17,7.84-4.37,16.68-4.2,17.61,1,1.35,26.15,14.32,28.66,14.68,1.87.27,3.95.74,4.85,1,1.19-3.5,9.23-27.1,12.13-33.24,3.24-6.84,11.88-32.28,12.21-39,.31-6.13.25-13.17.23-14.73l-6.48-3-53.82,2.78Z" style="fill:#263238"></path><path d="M656.78,343.93h-.1a.51.51,0,0,1-.39-.6c.77-3.66,7.54-35.87,9-38.06,1.63-2.45,9.88-3.64,16.56-.42a.5.5,0,0,1-.43.91c-6.32-3.05-14-1.84-15.3.06-1,1.54-5.85,23.4-8.85,37.72A.51.51,0,0,1,656.78,343.93Z" style="fill:#263238"></path><path d="M685.5,304.83a.48.48,0,0,1-.34-.13c-3.18-2.95-8.74-2.53-8.79-2.53a.5.5,0,1,1-.08-1c.25,0,6.05-.47,9.55,2.78a.5.5,0,0,1,0,.71A.46.46,0,0,1,685.5,304.83Z" style="fill:#263238"></path><path d="M703.59,306.55c-1.93,0-7.07-.82-9.48-2.8-2.75-2.25-4.44-8.91-4.51-9.19a.5.5,0,0,1,1-.25c0,.07,1.68,6.62,4.17,8.67s8.5,2.75,9.19,2.56a.52.52,0,0,1,.62.34.49.49,0,0,1-.31.61A2.43,2.43,0,0,1,703.59,306.55Z" style="fill:#263238"></path><path d="M694.4,335.18l-.91-.4s8.44-19.31,10.86-24.86c2.34-5.39,2.37-14.67,2.37-14.76a.5.5,0,0,1,.5-.5h0a.5.5,0,0,1,.5.5c0,.39,0,9.58-2.46,15.16S694.4,335.18,694.4,335.18Z" style="fill:#263238"></path><path d="M692.74,349.24a.45.45,0,0,1-.16,0C676.72,344,677,342.81,677,342.36c.14-.7,2.33-9,4.08-10.21,1.52-1,13.52,4.87,18.6,7.45a.49.49,0,0,1,.22.67.49.49,0,0,1-.67.22c-7.8-3.95-16.5-7.84-17.63-7.49-1.09.73-3.16,7.48-3.59,9.42.87.89,8.13,3.64,14.84,5.84a.49.49,0,0,1,.32.63A.5.5,0,0,1,692.74,349.24Z" style="fill:#263238"></path><path d="M687.67,370.71a15.62,15.62,0,0,1-6-1.25c-.49-.25-1.28-.6-2.24-1-5.52-2.41-10.07-4.56-9.85-6.5.24-2.21,5.82-16,6.06-16.54a.49.49,0,0,1,.65-.27.5.5,0,0,1,.28.65c-1.6,3.94-5.81,14.55-6,16.27-.15,1.36,6.69,4.35,9.26,5.47,1,.42,1.79.78,2.29,1a14.77,14.77,0,0,0,5.57,1.15.5.5,0,0,1,.5.5A.5.5,0,0,1,687.67,370.71Z" style="fill:#263238"></path><path d="M634.3,198.09A46.74,46.74,0,0,0,617,203.87c-7.89,4.81-21.94,11.93-22.52,12.31s-16.88-17-21.88-22.23a89,89,0,0,1-9.79-13s-.39-10.2-.39-11.16S552,158.39,550.47,155.89s-3.85-7.31-5.2-6.54-.77,3.08.2,4.81a72.93,72.93,0,0,0,5,6.93c1,1.15-.58,1.34-3.08-.58s-7.7-6.74-8.66-7.7-1.73,1.54-.19,3.85a29.87,29.87,0,0,0,6.54,6.54c1.54,1,3.47,2.12,3.47,2.12a47.25,47.25,0,0,1-6.55-1.73c-3.27-1.16-4.42-3.66-5.39-2.31s1,3.08,2.5,4.23A55.71,55.71,0,0,0,546,169a16.74,16.74,0,0,1-5.19.19c-2.5-.39-2.89,1-1.74,2.12s6.55,1,6.55,1,3.66,5,5.77,6.54a29.1,29.1,0,0,0,3.66,2.31s8.59,20,12.82,27.48,15,25.89,17.12,26.08,36.76-5.39,38.69-6.35a5.59,5.59,0,0,1,3.08-.77s3.08,9.62,6.93,18.47,7.31,21.17,9.43,30,4.23,20.78,4.23,20.78,9.43.77,26.94-.77,35.8-3.46,35.8-3.46-1.54-7.89-3.46-21.94-4.82-35.8-10.78-50.81-5.39-15.2-14.63-20.79S659.51,196,659.51,196Z" style="fill:#fff"></path><path d="M654.3,297.51c-4.52,0-6.9-.19-6.95-.19a.5.5,0,0,1-.45-.41c0-.12-2.14-12-4.23-20.76-1.33-5.55-4.9-19.58-9.4-29.94-3.42-7.85-6.26-16.41-6.84-18.19a6.45,6.45,0,0,0-2.49.73c-1.89.95-36.45,6.64-39,6.41-2.67-.25-15.06-22-17.51-26.33-4-7.08-11.94-25.43-12.78-27.37a30.47,30.47,0,0,1-3.56-2.26c-1.93-1.41-5-5.46-5.73-6.44-1.34,0-5.49,0-6.65-1.12a1.91,1.91,0,0,1-.63-2.16c.22-.43.87-1.1,2.79-.8a14.91,14.91,0,0,0,3.32,0,39.43,39.43,0,0,1-5.42-2.82c-1-.74-4-3-2.61-4.92a1.34,1.34,0,0,1,.85-.59c.63-.09,1.2.33,2,.92a11.48,11.48,0,0,0,3.13,1.8c1.23.43,2.47.79,3.53,1.06l-.88-.55a30.69,30.69,0,0,1-6.7-6.69c-1.22-1.83-1.2-3.95-.38-4.63a1,1,0,0,1,1.34.15c.9.89,6.09,5.71,8.62,7.65a6.49,6.49,0,0,0,2.4,1.32v0a71.59,71.59,0,0,1-5.06-7c-1.07-1.92-1.71-4.51,0-5.49,1.51-.86,3.15,2,4.88,5,.35.61.68,1.2,1,1.69a85.22,85.22,0,0,0,6.17,7.09c4.59,5,5.83,6.42,5.83,7,0,.88.34,9.81.38,11a89.17,89.17,0,0,0,9.66,12.85c1,1.08,2.56,2.68,4.33,4.54,5.47,5.76,15.5,16.31,17.16,17.48l2.61-1.38c4.5-2.36,13.84-7.25,19.68-10.81,7.9-4.82,17.44-5.84,17.53-5.85h0l25.21-2.11c.47-.1,12.75-2.47,22,3.15,8.6,5.19,8.87,5.89,13.44,17.51.43,1.07.89,2.24,1.39,3.52,5.86,14.73,8.76,35.93,10.68,50l.13,1c1.9,13.87,3.45,21.83,3.46,21.91a.5.5,0,0,1-.44.59c-.18,0-18.49,1.95-35.8,3.47C665.64,297.32,658.87,297.51,654.3,297.51Zm-6.49-1.16a188.19,188.19,0,0,0,26.48-.8c15.64-1.37,32.09-3.07,35.25-3.4-.38-2-1.74-9.57-3.37-21.44l-.13-.95c-1.91-14-4.81-35.12-10.62-49.74-.5-1.27-1-2.44-1.39-3.51-4.54-11.56-4.72-12-13-17-9-5.41-21.26-3-21.39-3l-25.26,2.12c-.24,0-9.47,1-17.11,5.7-5.86,3.58-15.23,8.49-19.73,10.84-1.47.77-2.63,1.38-2.77,1.47-.58.39-.8.54-18.19-17.76-1.77-1.86-3.29-3.46-4.33-4.54a91,91,0,0,1-9.86-13.13.51.51,0,0,1-.07-.24c0-.42-.39-10.22-.39-11.18a78,78,0,0,0-5.57-6.35,84,84,0,0,1-6.29-7.25c-.3-.5-.64-1.09-1-1.71-.78-1.38-2.87-5-3.52-4.66-.95.55-.53,2.49.38,4.14a73.31,73.31,0,0,0,5,6.85c.66.79.36,1.26.2,1.42-.71.75-2.58-.22-4-1.28-2.56-2-7.81-6.84-8.71-7.75a.34.34,0,0,0-.09-.06,3.71,3.71,0,0,0,.66,3.28,29.66,29.66,0,0,0,6.4,6.4c1.53,1,3.45,2.11,3.45,2.11a.5.5,0,0,1,.21.61.48.48,0,0,1-.55.31,45,45,0,0,1-6.62-1.75,12.51,12.51,0,0,1-3.4-1.94c-.48-.36-1-.76-1.22-.73a.39.39,0,0,0-.2.18c-.67.94.93,2.45,2.4,3.54a56.89,56.89,0,0,0,6.82,3.41.5.5,0,0,1,.3.51.51.51,0,0,1-.39.44,17,17,0,0,1-5.38.19c-1-.16-1.62,0-1.74.27s0,.57.44,1c.69.69,4,.89,6.17.82a.5.5,0,0,1,.42.2c0,.05,3.64,5,5.67,6.44a28,28,0,0,0,3.58,2.26.58.58,0,0,1,.24.25c.08.2,8.62,20,12.8,27.44,7,12.44,15.2,25.5,16.74,25.82,2.29.19,36.7-5.45,38.4-6.3a6.2,6.2,0,0,1,3.39-.82.51.51,0,0,1,.39.35c0,.09,3.12,9.7,6.91,18.42,4.54,10.43,8.13,24.53,9.46,30.11C645.53,283.8,647.43,294.23,647.81,296.35ZM550.26,161.68Z" style="fill:#263238"></path><path d="M562.79,180.91s2.36-9.52,1.44-11.58-4.34-4.8-5.71-7.77-2.74-3.88-2.74-.68,3.2,6.85,3.2,6.85-2.06,4.12-2.06,6.4a4.84,4.84,0,0,0,2.06,3.66" style="fill:#fff"></path><path d="M562.79,181.41l-.12,0a.5.5,0,0,1-.37-.6c.9-3.62,2.09-9.87,1.48-11.25a15,15,0,0,0-2.33-3.1,21.28,21.28,0,0,1-3.38-4.67c-.84-1.82-1.45-2.34-1.62-2.4a4.78,4.78,0,0,0-.17,1.51c0,3,3,6.49,3.07,6.53a.47.47,0,0,1,.07.55s-2,4-2,6.17a4.39,4.39,0,0,0,1.84,3.25.5.5,0,0,1-.56.83,5.32,5.32,0,0,1-2.28-4.08c0-2,1.49-5.32,2-6.32-.75-.91-3.11-4.05-3.11-6.93,0-1,.1-2.3,1-2.49s1.72.82,2.71,3a20.55,20.55,0,0,0,3.23,4.43,15.71,15.71,0,0,1,2.49,3.35c1,2.15-1.17,10.91-1.42,11.9A.49.49,0,0,1,562.79,181.41Z" style="fill:#263238"></path><path d="M546,169.48a.51.51,0,0,1-.31-.11.5.5,0,0,1-.08-.7l5.16-6.5a.5.5,0,0,1,.79.62l-5.17,6.5A.49.49,0,0,1,546,169.48Z" style="fill:#263238"></path><path d="M695.89,219.84c-6-15-5.39-15.2-14.63-20.79S659.51,196,659.51,196l-25.21,2.11A46.74,46.74,0,0,0,617,203.87c-3.15,1.92-7.29,4.21-11.16,6.3l10,19.8a67.35,67.35,0,0,0,7.87-1.66,5.59,5.59,0,0,1,3.08-.77s3.08,9.62,6.93,18.47,7.31,21.17,9.43,30,4.23,20.78,4.23,20.78,9.43.77,26.94-.77,35.8-3.46,35.8-3.46-1.54-7.89-3.46-21.94S701.85,234.85,695.89,219.84Z" style="fill:#b2b2b2"></path><path d="M654.3,297.51c-4.52,0-6.9-.19-6.95-.19a.5.5,0,0,1-.45-.41c0-.12-2.14-12-4.23-20.76-1.33-5.55-4.9-19.58-9.4-29.94-3.42-7.85-6.26-16.41-6.84-18.19a6.45,6.45,0,0,0-2.49.73c-.2.11-.82.42-8,1.71a.52.52,0,0,1-.54-.26l-10-19.81a.5.5,0,0,1,.21-.66c4.72-2.54,8.47-4.66,11.14-6.29,7.9-4.82,17.44-5.84,17.53-5.85l25.22-2.11c.47-.1,12.75-2.47,22,3.15,8.6,5.19,8.87,5.89,13.44,17.51.43,1.07.89,2.24,1.39,3.52h0c5.86,14.73,8.76,35.93,10.68,50l.13,1c1.9,13.87,3.45,21.83,3.46,21.91a.5.5,0,0,1-.44.59c-.18,0-18.49,1.95-35.8,3.47C665.64,297.32,658.87,297.51,654.3,297.51Zm-6.49-1.16a188.19,188.19,0,0,0,26.48-.8c15.64-1.37,32.09-3.07,35.25-3.4-.38-2-1.74-9.57-3.37-21.44l-.13-.95c-1.91-14-4.81-35.12-10.62-49.74h0c-.5-1.27-1-2.44-1.39-3.51-4.54-11.56-4.72-12-13-17-9-5.41-21.26-3-21.39-3l-25.27,2.12c-.08,0-9.4,1-17.1,5.7-2.61,1.59-6.23,3.64-10.76,6.09l9.65,19c6-1.09,7.16-1.45,7.36-1.55a6.2,6.2,0,0,1,3.39-.82.51.51,0,0,1,.39.35c0,.09,3.12,9.7,6.91,18.42,4.54,10.43,8.13,24.53,9.46,30.11C645.53,283.8,647.43,294.23,647.81,296.35Z" style="fill:#263238"></path><path d="M681.74,235.14h-.08c-4.43-.68-10.07-4-10.31-4.12a.5.5,0,0,1,.5-.86c.06,0,5.72,3.34,10,4a.5.5,0,0,1-.08,1Z" style="fill:#263238"></path><path d="M681.74,238.18h0c-8.14-.68-20.65-8.2-21.17-8.52a.5.5,0,0,1,.51-.86c.13.08,12.84,7.72,20.74,8.38a.5.5,0,0,1,0,1Z" style="fill:#263238"></path><path d="M666.19,277.38a.47.47,0,0,1-.41-.22.49.49,0,0,1,.14-.69c.09-.06,9.19-6.2,19.49-18.83a.5.5,0,0,1,.7-.07.49.49,0,0,1,.07.7c-10.4,12.76-19.62,19-19.71,19A.48.48,0,0,1,666.19,277.38Z" style="fill:#263238"></path><path d="M680.39,268.93a.46.46,0,0,1-.32-.11.51.51,0,0,1-.06-.71,59.61,59.61,0,0,0,8.37-13.72.5.5,0,0,1,.65-.28.51.51,0,0,1,.27.66,60.16,60.16,0,0,1-8.53,14A.52.52,0,0,1,680.39,268.93Z" style="fill:#263238"></path><path d="M640.08,201.94s1.15,20.4,12.12,15.4,11.74-20.79,11.74-20.79-3.66-4.42-4.62-8.08-1.35-5.39-1.35-5.39-5.77,2.89-8.27,8.47S640.08,201.94,640.08,201.94Z" style="fill:#fff"></path><path d="M648.94,218.63a5.86,5.86,0,0,1-3.07-.86c-5.53-3.33-6.26-15.29-6.29-15.8a.48.48,0,0,1,.22-.44c.07-.05,7-4.8,9.44-10.19,2.55-5.67,8.27-8.59,8.51-8.71a.5.5,0,0,1,.71.34s.4,1.77,1.35,5.37,4.48,7.85,4.52,7.89a.49.49,0,0,1,.11.35c0,.65-.91,16.14-12,21.21A8.34,8.34,0,0,1,648.94,218.63Zm-8.34-16.44c.14,1.81,1.15,11.93,5.79,14.73,1.58,1,3.46.94,5.6,0,9.93-4.53,11.3-18.39,11.44-20.16-.67-.84-3.7-4.75-4.59-8.12-.63-2.37-1-3.95-1.2-4.76-1.49.88-5.54,3.57-7.48,7.91C647.86,196.88,641.89,201.28,640.6,202.19Z" style="fill:#263238"></path><path d="M651.43,197.9,642,211.39s-1.41-5.74-1.87-9.45S651.43,197.9,651.43,197.9Z" style="fill:#263238"></path><path d="M642,211.89h-.09a.52.52,0,0,1-.4-.37c0-.06-1.42-5.81-1.88-9.51a2.15,2.15,0,0,1,.55-1.72c2.23-2.6,10.92-2.87,11.29-2.88a.51.51,0,0,1,.45.26.51.51,0,0,1,0,.53l-9.48,13.48A.5.5,0,0,1,642,211.89Zm8.49-13.44c-2.87.17-8.13.82-9.55,2.48a1.18,1.18,0,0,0-.32.95c.34,2.68,1.18,6.48,1.61,8.31Z" style="fill:#263238"></path><path d="M662,172.3a11.25,11.25,0,0,0,.57,5.78c1.16,3.46,3.85,6.73,3.28,9.62s-3.85,5.39-5.39,5.39-.77-2.5-.77-2.5a2.67,2.67,0,0,1-2.51,1.73c-1.92,0-3.07.38-3.07-.19a10.42,10.42,0,0,0-1.16-8.86c-2.89-4.42-10.2-11.35-9.43-13.08l.77-1.74,1.54-2.11Z" style="fill:#263238"></path><path d="M660.48,193.59a1.34,1.34,0,0,1-1.13-.53,1.71,1.71,0,0,1-.31-.82,3,3,0,0,1-1.83.58c-.64,0-1.19,0-1.64.08-.86.06-1.37.1-1.7-.21a.74.74,0,0,1-.24-.56,2.6,2.6,0,0,1,.12-.64,9.36,9.36,0,0,0-1.2-7.94A62.35,62.35,0,0,0,648,177.8c-3.52-4.13-5.48-6.53-4.91-7.82l.83-1.82,1.76-2.42L662.61,172l-.11.43a11,11,0,0,0,.57,5.5,27.82,27.82,0,0,0,1.53,3.46c1.11,2.24,2.17,4.36,1.76,6.42C665.74,190.88,662.26,193.59,660.48,193.59Zm-1.25-3.16,1,.3a2.58,2.58,0,0,0,0,1.73s.09.13.33.13c1.28,0,4.36-2.31,4.9-5,.34-1.72-.64-3.69-1.68-5.77a29.4,29.4,0,0,1-1.58-3.59,12.53,12.53,0,0,1-.67-5.61L646,166.94l-1.28,1.77-.75,1.68c-.35.78,2.72,4.38,4.75,6.76a65.32,65.32,0,0,1,4.64,5.85,10.45,10.45,0,0,1,1.33,8.73q0,.12-.06.21c.22,0,.54,0,.83,0,.47,0,1-.08,1.72-.08A2.15,2.15,0,0,0,659.23,190.43Z" style="fill:#263238"></path><path d="M611.79,163.07s-3.85-1.93-2.12,2.69S624.49,174,624.49,174l.19-6.36Z" style="fill:#263238"></path><path d="M624.49,174.54l-.14,0c-.54-.16-13.35-3.78-15.15-8.58-.64-1.71-.64-2.82,0-3.4.88-.8,2.48-.08,2.77.06l12.87,4.61a.51.51,0,0,1,.33.49l-.19,6.35a.52.52,0,0,1-.5.49Zm-14.21-11.37a.58.58,0,0,0-.4.11c-.22.2-.27.91.26,2.3,1.41,3.78,11.29,7,13.87,7.79l.16-5.34-12.55-4.49-.06,0A3.25,3.25,0,0,0,610.28,163.17Z" style="fill:#263238"></path><path d="M622.18,167.68s-.58,4.43.38,6.93.39,4.81,1,8.86,6.73,15.39,7.5,17.32,1.73,4.62,4.62,4.81,11.74-5.39,15.78-7.7a11.32,11.32,0,0,0,5.39-8.28c.19-1.73.19-3.27.19-3.27s6.35-5,5.58-8.27-2.88-5-5-3.47-3.46,5.2-3.46,5.2-1.16-.19-1.93-1.93-.58-2.3-1.15-3.07-1.74-1.54-2.89-3.08a3.82,3.82,0,0,1-.58-3.28Z" style="fill:#fff"></path><path d="M635.8,206.1h-.18c-3.1-.21-4.18-2.93-5-4.91l-.08-.22c-.2-.49-.79-1.67-1.53-3.16-2.08-4.2-5.57-11.22-6-14.27a38.68,38.68,0,0,1-.32-4.37,12.69,12.69,0,0,0-.61-4.38c-1-2.59-.44-7-.42-7.17a.53.53,0,0,1,.51-.44l25.41.77a.51.51,0,0,1,.39.22.49.49,0,0,1,.07.44,3.27,3.27,0,0,0,.5,2.82,15.58,15.58,0,0,0,1.85,2,8.57,8.57,0,0,1,1,1.08,3.6,3.6,0,0,1,.6,1.41,11.33,11.33,0,0,0,.61,1.76,3.09,3.09,0,0,0,1.19,1.48,12.55,12.55,0,0,1,3.45-4.95,2.89,2.89,0,0,1,2.82-.49c1.37.5,2.45,2.05,3,4.24.76,3.25-4.48,7.74-5.57,8.63,0,.51,0,1.73-.19,3.09a12,12,0,0,1-5.64,8.65l-2.3,1.35C643.63,203.06,638.26,206.1,635.8,206.1Zm-13.17-37.9c-.12,1.17-.33,4.33.4,6.23a13.67,13.67,0,0,1,.68,4.72,34.19,34.19,0,0,0,.31,4.25c.41,2.89,3.86,9.82,5.92,14,.78,1.58,1.34,2.71,1.56,3.24l.08.22c.73,1.83,1.64,4.12,4.1,4.28h.13c2.39,0,9.05-3.92,13.06-6.29l2.31-1.34a10.88,10.88,0,0,0,5.14-7.9,32.09,32.09,0,0,0,.19-3.22.49.49,0,0,1,.19-.39c1.7-1.34,6-5.34,5.41-7.77-.43-1.83-1.31-3.15-2.34-3.53a1.93,1.93,0,0,0-1.89.36c-2,1.43-3.27,4.93-3.29,5a.49.49,0,0,1-.55.32,3.47,3.47,0,0,1-2.3-2.21,12.56,12.56,0,0,1-.66-1.92,2.69,2.69,0,0,0-.43-1.06,7.92,7.92,0,0,0-.92-1,16.44,16.44,0,0,1-2-2.13,4.23,4.23,0,0,1-.79-3.09Z" style="fill:#263238"></path><path d="M630.42,189.21a7,7,0,0,1-2.47-.47.49.49,0,0,1-.3-.51c.55-5.35,1-11.47.61-12.27s-2.43-1.28-3.83-1.43A.5.5,0,0,1,624,174a.49.49,0,0,1,.55-.44c.66.07,4,.49,4.64,2,.57,1.32-.24,9.82-.5,12.36a4.9,4.9,0,0,0,3.47-.1.52.52,0,0,1,.68.22.5.5,0,0,1-.23.67A4.73,4.73,0,0,1,630.42,189.21Z" style="fill:#263238"></path><path d="M634,192.85a8.59,8.59,0,0,1-2.1-.24.51.51,0,0,1-.35-.62.52.52,0,0,1,.62-.35,8.54,8.54,0,0,0,8.16-2.55.5.5,0,0,1,.73.69A9.59,9.59,0,0,1,634,192.85Z" style="fill:#263238"></path><path d="M643.16,175.11a.52.52,0,0,1-.27-.07c-3.74-2.32-8.11,0-8.16,0a.49.49,0,0,1-.67-.2.49.49,0,0,1,.2-.68c.2-.11,4.92-2.61,9.16,0a.5.5,0,0,1,.16.69A.49.49,0,0,1,643.16,175.11Z" style="fill:#263238"></path><path d="M639.11,179c0,1.06-.51,1.92-1.15,1.92s-1.16-.86-1.16-1.92.52-1.93,1.16-1.93S639.11,178,639.11,179Z" style="fill:#263238"></path><path d="M627.18,178.46c0,1.06-.51,1.93-1.15,1.93s-1.16-.87-1.16-1.93.52-1.92,1.16-1.92S627.18,177.4,627.18,178.46Z" style="fill:#263238"></path><path d="M647.58,168.45,662,172.3a83,83,0,0,0-1-11.93c-1-5.77-9-10.2-15-12.12s-9.43-2.51-14-.58-9.23,4.23-9.81,6-.77,12.5-.77,12.5Z" style="fill:#92E3A9"></path><path d="M662,172.8h-.13L647.5,169l-26.14-2.31a.49.49,0,0,1-.45-.5c0-1.12.21-10.91.79-12.66.2-.6.8-2.4,10.1-6.27,4.72-2,8.26-1.42,14.4.56,6.46,2.09,14.36,6.62,15.35,12.52a84.72,84.72,0,0,1,1,12,.52.52,0,0,1-.2.4A.47.47,0,0,1,662,172.8Zm-40.1-7.11L647.63,168h.08l13.8,3.68a81.86,81.86,0,0,0-1-11.2c-.85-5.11-8-9.57-14.67-11.73-5.9-1.9-9.27-2.44-13.7-.59-7.73,3.22-9.29,4.93-9.54,5.66C622.22,155.09,622,162.42,621.92,165.69Z" style="fill:#263238"></path><path d="M611.79,163.07s8.08,5.77,13.28,7.12,15.58,1.34,18.47,0,4-1.74,4-1.74-15-3.27-21.36-3.84S611.79,163.07,611.79,163.07Z" style="fill:#92E3A9"></path><path d="M635.12,171.69a44.76,44.76,0,0,1-10.18-1c-5.23-1.36-13.11-7-13.45-7.2a.51.51,0,0,1-.17-.59.48.48,0,0,1,.52-.31c.08,0,8.15,1,14.42,1.54s21.28,3.82,21.43,3.86a.48.48,0,0,1,.39.46.51.51,0,0,1-.34.5s-1.17.4-4,1.71C642.25,171.34,638.83,171.69,635.12,171.69Zm-21.37-7.89c2.63,1.74,7.8,5,11.44,5.9,5,1.31,15.37,1.32,18.14,0,1.07-.5,1.91-.87,2.53-1.13-4-.86-14.66-3-19.69-3.5C621.8,164.71,616.56,164.12,613.75,163.8Z" style="fill:#263238"></path><path d="M626.8,228a.52.52,0,0,1-.35-.14l-8.51-8.22a.49.49,0,0,1,0-.7.5.5,0,0,1,.71,0l6.22,6-4.73-8.84a.51.51,0,0,1,.21-.68.5.5,0,0,1,.68.21l6.22,11.64a.51.51,0,0,1-.14.64A.57.57,0,0,1,626.8,228Z" style="fill:#263238"></path><path d="M663.32,282.63s-4.58-2.05-6.63-.22-10.74,11-11.43,13.71,7.31,1.83,8.91,1.83a53.85,53.85,0,0,0,9.83-1.37c2.06-.69,7.09-3.89,8.46-8.23s-2.52-3-2.74-5S663.32,282.63,663.32,282.63Z" style="fill:#92E3A9"></path><path d="M650.13,298.59c-2.27,0-4.28-.24-5.06-1.19a1.52,1.52,0,0,1-.3-1.4c.73-2.89,9.5-12.12,11.59-14s6.15-.28,7,.08c.93-.19,4.77-.91,6.22.13a1.4,1.4,0,0,1,.62,1c.06.49.41.67,1.09,1,1.11.49,2.61,1.17,1.63,4.26-1.4,4.44-6.4,7.76-8.77,8.55a53.5,53.5,0,0,1-10,1.4l-1.08,0C652.1,298.55,651.09,298.59,650.13,298.59Zm9-16.44a3.08,3.08,0,0,0-2.07.63c-2.13,1.89-10.64,10.92-11.27,13.46a.5.5,0,0,0,.09.52c.88,1.08,5.3.84,7.19.74.5,0,.89-.05,1.14-.05a52.82,52.82,0,0,0,9.67-1.35c2.13-.71,6.86-3.85,8.14-7.9.71-2.24,0-2.58-1.08-3.05-.7-.31-1.56-.7-1.68-1.77a.43.43,0,0,0-.21-.33c-.91-.65-3.91-.3-5.59.07a.48.48,0,0,1-.31,0A11.1,11.1,0,0,0,659.09,282.15Z" style="fill:#263238"></path><path d="M675.43,224.12s9.14,15.32,14.86,20.8,9.14,9.6,9.14,9.6a54.27,54.27,0,0,1-6.17,15.09c-4.35,6.85-8.69,10.28-11.2,11.2s-5.72,1.82-5.72,1.82-5-2.74-6.4-3-3.42,1.15-5,1.37-3.89.69-1.6,1.6,6.4.69,6.4.69l.45,4.11s-1.37,3.89-3.2,5.49-7.08,3.89-5.48,5.26,8-.46,8-.46,5.71-1.6,6.4-1.83,6.62-4.8,8-5.71,10.51-4.57,17.37-11,17.37-21.72,17.6-22.86,1.14-1.6-.23-4.11-9.6-19.89-13.72-26.52S696.46,209,689.83,204s-10.29-8-16.91-4.8" style="fill:#b2b2b2"></path><path d="M663.69,299.18a4,4,0,0,1-2.53-.62,1.24,1.24,0,0,1-.47-1c.09-1.15,1.84-2.26,3.7-3.43a19.34,19.34,0,0,0,2.25-1.55c1.55-1.35,2.79-4.55,3-5.17l-.39-3.53a18,18,0,0,1-6.14-.74c-.41-.16-1.36-.55-1.27-1.26s.88-1,3-1.3a10.29,10.29,0,0,0,2-.66,6.64,6.64,0,0,1,3.13-.71c1.31.22,5.36,2.38,6.37,2.93.73-.22,3.37-1,5.49-1.76,2.38-.87,6.68-4.27,10.94-11a53.45,53.45,0,0,0,6-14.69c-.74-.87-4-4.62-8.94-9.37-5.7-5.47-14.56-20.27-14.94-20.9a.51.51,0,0,1,.17-.69.51.51,0,0,1,.69.18c.09.15,9.17,15.32,14.77,20.69a132.34,132.34,0,0,1,9.18,9.64.52.52,0,0,1,.11.43,55.28,55.28,0,0,1-6.24,15.24c-4.39,6.94-8.79,10.44-11.45,11.41-2.5.91-5.72,1.83-5.75,1.84a.51.51,0,0,1-.38-.05c-1.37-.75-5.18-2.74-6.24-2.91a5.91,5.91,0,0,0-2.59.65,11.09,11.09,0,0,1-2.28.72,9.73,9.73,0,0,0-2,.42l.47.22c2.16.86,6.15.65,6.19.65a.49.49,0,0,1,.52.44l.46,4.12a.42.42,0,0,1,0,.22c0,.16-1.43,4-3.34,5.7a21.55,21.55,0,0,1-2.37,1.64c-1.27.8-3.19,2-3.24,2.65,0,0,0,.1.12.21,1,.87,5.16.12,7.54-.56.06,0,5.71-1.6,6.38-1.82.41-.17,3.11-2.16,4.89-3.49,1.32-1,2.46-1.82,3-2.17.33-.22,1-.54,2-1,3.26-1.6,10-4.94,15.34-9.89,6.86-6.41,17.1-21.38,17.45-22.6a4.28,4.28,0,0,1,.26-.81c.26-.66.49-1.24-.44-3-.39-.72-1.31-2.58-2.57-5.14-3.07-6.22-8.19-16.62-11.13-21.35-1-1.66-2.06-3.51-3.15-5.47-3.24-5.81-6.92-12.4-11.81-16.11l-.46-.35c-6.28-4.77-9.74-7.39-15.94-4.4a.5.5,0,1,1-.43-.9c6.75-3.26,10.6-.34,17,4.51l.45.34c5.07,3.84,8.79,10.53,12.08,16.43,1.09,1.94,2.11,3.78,3.13,5.42,3,4.77,8.1,15.2,11.17,21.43,1.22,2.46,2.17,4.4,2.56,5.11,1.16,2.12.8,3,.49,3.8a3.08,3.08,0,0,0-.21.65c-.28,1.37-10.94,16.76-17.75,23.12-5.41,5.05-12.28,8.43-15.58,10.06-.88.44-1.58.78-1.86,1-.5.34-1.69,1.22-2.94,2.15a48,48,0,0,1-5.17,3.63c-.69.22-6.19,1.77-6.43,1.83A25.12,25.12,0,0,1,663.69,299.18Z" style="fill:#263238"></path><path d="M718.86,256.35c.22-1.14,1.14-1.6-.23-4.11-1.24-2.28-8.1-16.72-12.44-24.35a35.79,35.79,0,0,1-20.29,11.93,45.5,45.5,0,0,0,4.39,5.1c5.71,5.49,9.14,9.6,9.14,9.6a54.27,54.27,0,0,1-6.17,15.09c-4.35,6.85-8.69,10.28-11.2,11.2s-5.72,1.82-5.72,1.82-5-2.74-6.4-3-3.42,1.15-5,1.37-3.89.69-1.6,1.6,6.4.69,6.4.69l.45,4.11s-1.37,3.89-3.2,5.49-7.08,3.89-5.48,5.26,8-.46,8-.46,5.71-1.6,6.4-1.83,6.62-4.8,8-5.71,10.51-4.57,17.37-11S718.63,257.49,718.86,256.35Z" style="fill:#fff"></path><path d="M663.69,299.18a4,4,0,0,1-2.53-.62,1.24,1.24,0,0,1-.47-1c.09-1.15,1.84-2.26,3.7-3.43a19.34,19.34,0,0,0,2.25-1.55c1.55-1.35,2.79-4.55,3-5.17l-.39-3.53a18,18,0,0,1-6.14-.74c-.41-.16-1.36-.55-1.27-1.26s.86-1,3-1.3a10.29,10.29,0,0,0,2-.66,6.64,6.64,0,0,1,3.13-.71c1.31.22,5.36,2.38,6.37,2.93.73-.22,3.37-1,5.49-1.76,2.38-.87,6.68-4.27,10.94-11a53.79,53.79,0,0,0,6-14.69c-.74-.87-4-4.62-8.94-9.37a45.55,45.55,0,0,1-4.43-5.16.49.49,0,0,1-.07-.48.47.47,0,0,1,.36-.31,35.37,35.37,0,0,0,20-11.76.47.47,0,0,1,.43-.18.51.51,0,0,1,.39.25c3,5.26,7.13,13.67,9.88,19.24,1.21,2.47,2.17,4.41,2.56,5.12,1.16,2.12.8,3,.49,3.8a3.08,3.08,0,0,0-.21.65h0c-.28,1.37-10.94,16.76-17.75,23.12-5.41,5.05-12.28,8.43-15.58,10.06-.88.44-1.58.78-1.86,1-.5.34-1.69,1.22-2.94,2.15a48,48,0,0,1-5.17,3.63c-.69.22-6.19,1.77-6.43,1.83A25.12,25.12,0,0,1,663.69,299.18Zm6-16.36a.5.5,0,0,1,.49.44l.46,4.12a.42.42,0,0,1,0,.22c0,.16-1.43,4-3.34,5.7a21.55,21.55,0,0,1-2.37,1.64c-1.27.8-3.19,2-3.24,2.65,0,0,0,.1.12.21,1,.87,5.16.12,7.54-.56.06,0,5.71-1.6,6.38-1.82.41-.17,3.11-2.16,4.89-3.49,1.32-1,2.46-1.82,3-2.17.33-.22,1-.54,2-1,3.26-1.6,10-4.94,15.34-9.89,6.85-6.4,17.09-21.36,17.45-22.59a4.67,4.67,0,0,1,.26-.82c.26-.66.49-1.24-.44-3-.39-.73-1.31-2.58-2.58-5.15-2.63-5.35-6.56-13.32-9.5-18.57a36.4,36.4,0,0,1-19.33,11.38,43,43,0,0,0,3.85,4.42,132.34,132.34,0,0,1,9.18,9.64.52.52,0,0,1,.11.43,55.28,55.28,0,0,1-6.24,15.24c-4.39,6.94-8.79,10.44-11.45,11.41-2.5.91-5.72,1.83-5.75,1.84a.51.51,0,0,1-.38-.05c-1.37-.75-5.18-2.74-6.24-2.91a5.91,5.91,0,0,0-2.59.65,11.09,11.09,0,0,1-2.28.72,9.73,9.73,0,0,0-2,.42l.47.22c2.16.86,6.15.66,6.19.65Zm49.14-26.47h0Z" style="fill:#263238"></path><path d="M700.8,253.42a.49.49,0,0,1-.35-.14.5.5,0,0,1,0-.7c.22-.24,5.54-5.71,10.13-4a.5.5,0,0,1,.3.64.51.51,0,0,1-.64.3c-4-1.47-9,3.7-9.07,3.76A.51.51,0,0,1,700.8,253.42Z" style="fill:#263238"></path></g><g id="freepik--board-1--inject-69"><polygon points="54.61 440.68 50.3 440.68 46.19 440.68 46.19 464.22 50.3 464.22 54.61 464.22 58.72 464.22 58.72 440.68 54.61 440.68" style="fill:#263238"></polygon><path d="M58.72,464.72H46.19a.5.5,0,0,1-.5-.5V440.68a.51.51,0,0,1,.5-.5H58.72a.51.51,0,0,1,.5.5v23.54A.5.5,0,0,1,58.72,464.72Zm-12-1H58.22V441.18H46.69Z" style="fill:#263238"></path><polygon points="235.65 460.43 160.17 458.98 42.58 445.72 139.15 436.94 235.65 460.43" style="fill:#263238"></polygon><path d="M235.65,460.93h0l-75.48-1.45L42.52,446.21a.48.48,0,0,1-.44-.5.49.49,0,0,1,.45-.49l96.58-8.77a.43.43,0,0,1,.16,0L235.77,460a.5.5,0,0,1-.12,1ZM47.51,445.77l112.71,12.71,70.9,1.36-92-22.39Z" style="fill:#263238"></path><rect x="122.95" y="440.68" width="8.42" height="23.54" style="fill:#263238"></rect><path d="M131.37,464.72H123a.5.5,0,0,1-.5-.5V440.68a.5.5,0,0,1,.5-.5h8.42a.5.5,0,0,1,.5.5v23.54A.5.5,0,0,1,131.37,464.72Zm-7.92-1h7.42V441.18h-7.42Z" style="fill:#263238"></path><rect x="127.05" y="440.68" width="8.42" height="23.54" style="fill:#fff"></rect><path d="M135.47,464.72h-8.42a.5.5,0,0,1-.5-.5V440.68a.51.51,0,0,1,.5-.5h8.42a.5.5,0,0,1,.5.5v23.54A.5.5,0,0,1,135.47,464.72Zm-7.92-1H135V441.18h-7.42Z" style="fill:#263238"></path><rect x="42.58" y="436.95" width="96.49" height="9.15" style="fill:#fff"></rect><path d="M139.07,446.6H42.58a.5.5,0,0,1-.5-.5V437a.5.5,0,0,1,.5-.5h96.49a.5.5,0,0,1,.5.5v9.15A.5.5,0,0,1,139.07,446.6Zm-96-1h95.49v-8.15H43.08Z" style="fill:#263238"></path><polygon points="139.15 436.94 235.65 451.28 235.65 460.43 139.15 446.1 139.15 436.94" style="fill:#fff"></polygon><path d="M235.65,460.93h-.08l-96.49-14.34a.5.5,0,0,1-.43-.49V437a.52.52,0,0,1,.58-.5l96.49,14.33a.51.51,0,0,1,.43.5v9.15a.51.51,0,0,1-.18.38A.47.47,0,0,1,235.65,460.93Zm-96-15.26,95.5,14.18v-8.14l-95.5-14.18Z" style="fill:#263238"></path></g></svg>
