<svg xmlns="http://www.w3.org/2000/svg" viewBox="0 0 500 500"><g id="freepik--background-complete--inject-12"><path d="M41.35,243.35c.27.51.54,1,.83,1.52.15.24.29.49.45.73A9.77,9.77,0,0,0,41.35,243.35Z" style="fill:#dbdbdb"></path><path d="M43.13,246.3a5.59,5.59,0,0,1-.5-.7c1.38,3.44.93,7.36,3,10.93,1.44,1.84,2.92,3.6,4.37,5.39s2.93,3.57,4.31,5.38c.35.45.69.91,1,1.35l.2.32,0,.07,0,0s0,0,0,.06c.05.19-.55,20.75-2.15,33.46l5.29,0c-.08-4.63-.19-17.94-.38-22.57,0-.35,0-.71,0-1.06.88-1.06,1.74-2.13,2.59-3.22.48-.61,1-1.22,1.42-1.84.24-.31.47-.63.7-1l.34-.5a5.13,5.13,0,0,0,.34-.6,2,2,0,0,0,.09-.2c0-.08,0-.17.06-.23s0-.24,0-.34,0-.42.06-.62c0-.4,0-.79.06-1.17V269l.25-.15c.21-.14.39-.28.57-.42.34-.29.65-.58,1-.86.61-.58,1.18-1.17,1.75-1.76s1.13-1.17,1.69-1.73l.43-.41c.14-.12.29-.25.39-.32a5.19,5.19,0,0,1,1-.42c1.51-.48,3.13-.74,4.72-1.21a2.66,2.66,0,0,0,.62-.26.47.47,0,0,0,.17-.15l.09-.12.18-.24.76-1,1.53-1.9-1.72,1.74-.85.88-.21.23-.11.11s0,0-.06,0a2.38,2.38,0,0,1-.53.15c-1.57.29-3.2.37-4.85.71a5.57,5.57,0,0,0-1.29.4,4.46,4.46,0,0,0-.6.39l-.5.39c-.65.52-1.28,1-1.9,1.56s-1.25,1-1.87,1.52l-.57.42c0-1.41,0-2.81.12-4.2,0-.38,0-.76.09-1.13a5.13,5.13,0,0,1,.17-1,3.61,3.61,0,0,1,.54-.84l.71-.9c1-1.19,2-2.37,2.91-3.58.48-.61,1-1.23,1.38-1.88l.31-.5.27-.53a3.49,3.49,0,0,0,.24-1.17,16.32,16.32,0,0,0,0-2.32c0-.77-.13-1.53-.24-2.3.07.77.1,1.54.11,2.31a15.76,15.76,0,0,1-.1,2.28,3.31,3.31,0,0,1-.28,1.07c-.09.16-.18.32-.28.48l-.33.46c-.45.61-1,1.19-1.45,1.77-.82.94-1.67,1.85-2.51,2.77-.38-.55-.75-1.12-1.1-1.68a23.66,23.66,0,0,1-1.24-2.17,4.28,4.28,0,0,1-.23-.55,2,2,0,0,1-.1-.53,10.17,10.17,0,0,1,0-1.24c0-.84.06-1.69.1-2.54s.08-1.69.11-2.54a20,20,0,0,0-.05-2.57,4.76,4.76,0,0,0-.11-.64l0-.17-.07-.15a2.3,2.3,0,0,0-.22-.27,9.39,9.39,0,0,1-.76-1c-.47-.7-.91-1.43-1.32-2.17.37.76.77,1.51,1.21,2.24a10.42,10.42,0,0,0,.72,1.06l.11.12.07.11,0,.14,0,.14a4.25,4.25,0,0,1,.08.61,19.52,19.52,0,0,1-.09,2.53c-.06.84-.15,1.68-.23,2.53s-.17,1.69-.22,2.54a11.33,11.33,0,0,0,0,1.31,2.59,2.59,0,0,0,.1.71c.07.23.15.44.23.64a23.77,23.77,0,0,0,1.17,2.31c.38.68.77,1.34,1.17,2l-.66.75a5.81,5.81,0,0,0-.38.46,2.48,2.48,0,0,0-.19.26,1.09,1.09,0,0,0-.17.34,6.73,6.73,0,0,0-.28,1.21c-.06.39-.11.78-.16,1.17-.16,1.55-.27,3.09-.38,4.62l-.17,2.29c0,.38-.07.76-.12,1.12,0,.19-.05.37-.08.53s0,.16,0,.23,0,0,0,.05l-4.28,3.54c0-.53-.07-1.06-.11-1.58-.09-1.17-.18-2.32-.38-3.53a7.39,7.39,0,0,0-.22-1,2.05,2.05,0,0,0-.14-.34.5.5,0,0,0-.08-.15l-.07-.12-.28-.39c-.37-.5-.75-.94-1.13-1.39s-.74-.86-1.12-1.29l.37-.51.74-1c.5-.7,1-1.4,1.45-2.15.23-.38.45-.77.65-1.17,0-.11.1-.22.14-.33a2.68,2.68,0,0,0,.13-.34,2,2,0,0,0,.11-.39,2.18,2.18,0,0,0,0-.42,8.1,8.1,0,0,0-.12-1.36c-.07-.43-.14-.85-.22-1.27-.32-1.67-.71-3.32-1.12-5l-.15-.62c0-.1-.06-.22-.07-.3a1,1,0,0,1,0-.25,9.1,9.1,0,0,1,.27-1.21c.23-.8.51-1.6.8-2.4-.37.76-.72,1.53-1,2.32a8,8,0,0,0-.4,1.23,1.13,1.13,0,0,0,0,.38c0,.13,0,.21,0,.32l.1.62c.23,1.67.45,3.35.6,5l.09,1.24a8.84,8.84,0,0,1,0,1.16,2.55,2.55,0,0,1-.4.9,11.55,11.55,0,0,1-.68,1c-.49.64-1,1.27-1.58,1.9l-.83,1-.2.22L51,261l-2.11-2.32c.51-1.87,1-3.75,1.61-5.6.3-.94.59-1.92.95-2.79l.07-.17a2,2,0,0,0,.09-.26,2.14,2.14,0,0,0,.07-.48,4.49,4.49,0,0,0-.06-.84,10.36,10.36,0,0,0-.37-1.53A55.37,55.37,0,0,0,49,241.43c-.2-.46-.41-.92-.6-1.38a4.2,4.2,0,0,1-.23-.68,1.69,1.69,0,0,1,.05-.7,8.85,8.85,0,0,1,1.4-2.62,8.7,8.7,0,0,0-1.6,2.56,1.9,1.9,0,0,0-.11.79,4.45,4.45,0,0,0,.19.76c.16.48.33,1,.5,1.43a54.41,54.41,0,0,1,1.84,5.68,10.53,10.53,0,0,1,.24,1.42,2.91,2.91,0,0,1,0,.66,1.72,1.72,0,0,1-.05.26l0,.09-.09.17c-.47,1-.82,1.89-1.19,2.83-.59,1.53-1.15,3.06-1.7,4.61l-1.22-1.39a4.7,4.7,0,0,1-.49-.62,5.22,5.22,0,0,1-.35-.71c-.2-.51-.37-1.06-.54-1.6-.32-1.1-.6-2.22-.89-3.33L43.71,248q-.1-.42-.24-.84A3.9,3.9,0,0,0,43.13,246.3Z" style="fill:#dbdbdb"></path><path d="M98.7,302.63s-1-26.8-1.08-27.23-.41-7.29-.59-7.83-5.75-1.22-6.65-1.54-3.78-1.06-4.58-.85-6.5,3.3-7.4,3.62-8.94-.91-8.94-.91,5.53.22,5.91.16-.54-1.35-.72-1.51a17,17,0,0,1-.4-2.88,25.51,25.51,0,0,0,.8,2.69c.13.11,1,1.52,1.27,1.57a8.66,8.66,0,0,0,2.11-.37c.26-.14,6.49-3.83,7.42-4s5,.82,5.22.8a39.88,39.88,0,0,0,4.76-.32c.11-.21-2.07-3.38-2.61-3.52s-10.62-2.91-11-3.4-2.52-5-2.52-5a46.27,46.27,0,0,0,3.16,4.37,47.9,47.9,0,0,0,5.65,1.17c.24,0-1-2.59-1.18-2.8s-3.08-1.92-3.08-1.92a33.43,33.43,0,0,1,3.94,1.74c.35.35,1.49,2.77,1.63,2.87s4.08,1.32,4.54,1.49,4.53,5.82,4.68,5.86a31.66,31.66,0,0,0,.4-4c0-.25-4.16-3.45-4.44-3.84s-1.46-5.5-1.6-5.85A17,17,0,0,1,94,248,25.51,25.51,0,0,0,94,251c.11.32,1.74,5.22,2.09,5.46s3.34,2.2,3.48,2.2.46-5.64.75-6.14,3.37-5.28,3.62-5.67-.43-4.19-.43-4.19,1.42,3.69,1.1,4.65-1,2.34-1,2.34l2.2-.5c.32-.07,1.53-1.91,1.53-1.91a18.46,18.46,0,0,1-1,2.48c-.22.18-3.34,1.28-3.48,1.42a12.39,12.39,0,0,0-1.07,2.06c-.07.32-.25,3.41-.25,3.41a35.67,35.67,0,0,0,3.66-2.67c.46-.56,2.48-2.41,2.48-2.41s-2,2.7-2.23,2.91-3.94,3.44-3.94,3.44.42,11.55.62,12.51c.53,2.54,5,32.29,5,32.29Z" style="fill:#ebebeb"></path><path d="M440.74,259.7c-.19.37-.39.74-.6,1.1-.11.18-.21.36-.32.53A7,7,0,0,1,440.74,259.7Z" style="fill:#dbdbdb"></path><path d="M439.45,261.84a4.74,4.74,0,0,0,.37-.51c-1,2.49-.68,5.33-2.19,7.91-1,1.34-2.11,2.61-3.16,3.91s-2.12,2.58-3.12,3.89c-.25.33-.5.66-.71,1a2.22,2.22,0,0,0-.15.23l0,.06v0s0,0,0,.05.39,15,1.55,24.23l-3.83,0c.06-3.36.14-13,.28-16.34l0-.77c-.64-.77-1.26-1.55-1.88-2.33-.35-.44-.69-.89-1-1.34l-.5-.69-.25-.36c-.08-.14-.16-.25-.25-.44a1.16,1.16,0,0,1-.06-.15.53.53,0,0,1,0-.16c0-.09,0-.17,0-.25s0-.3,0-.44c0-.29,0-.57,0-.85v-.25l-.18-.11-.41-.3c-.25-.21-.47-.42-.7-.63-.44-.42-.85-.84-1.26-1.27s-.82-.85-1.23-1.25l-.31-.3-.28-.23a3.56,3.56,0,0,0-.73-.31c-1.09-.34-2.26-.53-3.41-.87a1.89,1.89,0,0,1-.45-.19.42.42,0,0,1-.13-.11l-.06-.08-.13-.18-.55-.69-1.11-1.38,1.24,1.26.62.64.15.16.08.09,0,0a2,2,0,0,0,.39.11c1.13.21,2.32.27,3.51.52a3.86,3.86,0,0,1,.94.29,2.46,2.46,0,0,1,.43.28,3.44,3.44,0,0,1,.36.28c.48.37.93.76,1.38,1.13s.9.75,1.36,1.1l.4.31c0-1,0-2-.08-3.05l-.06-.82a5.07,5.07,0,0,0-.13-.75,2.87,2.87,0,0,0-.39-.61l-.51-.65c-.71-.86-1.42-1.71-2.11-2.59-.35-.45-.69-.89-1-1.36l-.22-.36c-.07-.13-.14-.26-.2-.39a2.53,2.53,0,0,1-.18-.84,11.9,11.9,0,0,1,0-1.69c0-.55.1-1.11.17-1.66,0,.56-.07,1.11-.08,1.67a11.54,11.54,0,0,0,.08,1.66,2.43,2.43,0,0,0,.2.77l.2.34.24.34c.33.44.69.86,1.05,1.28.6.68,1.21,1.34,1.82,2,.27-.4.54-.81.8-1.22s.63-1,.9-1.57a3.33,3.33,0,0,0,.16-.4,1.13,1.13,0,0,0,.07-.39,6.54,6.54,0,0,0,0-.89c0-.61,0-1.22-.07-1.84s-.06-1.23-.08-1.84a16.5,16.5,0,0,1,0-1.86,2.72,2.72,0,0,1,.08-.47l0-.11.05-.12c.05-.08.11-.13.15-.19a7.74,7.74,0,0,0,.55-.73c.35-.51.66-1,1-1.57-.27.55-.56,1.09-.88,1.62a6.5,6.5,0,0,1-.52.77l-.08.09-.05.08,0,.1,0,.1c0,.15,0,.3-.05.44a14,14,0,0,0,.06,1.83c.05.61.11,1.22.17,1.84s.12,1.22.16,1.84c0,.31,0,.62,0,.94a2.49,2.49,0,0,1-.07.52,4.05,4.05,0,0,1-.17.46,17.6,17.6,0,0,1-.85,1.68c-.27.49-.55,1-.85,1.44l.49.54.27.34.14.19a1.08,1.08,0,0,1,.12.24,4.57,4.57,0,0,1,.2.88c.05.29.08.57.11.85.13,1.12.2,2.23.28,3.35l.13,1.65c0,.28,0,.55.08.82l.06.38c0,.06,0,.12,0,.16s0,0,0,0l3.09,2.56c0-.38.05-.76.08-1.14.07-.85.14-1.68.28-2.56a6.28,6.28,0,0,1,.16-.71.88.88,0,0,1,.1-.24.27.27,0,0,1,.06-.11l.05-.09.2-.28c.27-.36.54-.68.82-1l.81-.93-.27-.37-.54-.75c-.35-.5-.71-1-1-1.56a8.6,8.6,0,0,1-.47-.84l-.11-.24-.09-.25a1.58,1.58,0,0,1-.08-.28c0-.1,0-.22,0-.3a7.27,7.27,0,0,1,.09-1c.05-.31.1-.61.16-.92.24-1.21.52-2.4.81-3.59l.11-.45a1,1,0,0,0,0-.21,1.09,1.09,0,0,0,0-.19,7.23,7.23,0,0,0-.2-.87q-.25-.87-.57-1.74c.26.55.52,1.11.75,1.68a6.18,6.18,0,0,1,.29.89,1.14,1.14,0,0,1,0,.27c0,.1,0,.16,0,.24l-.07.45c-.17,1.21-.33,2.42-.44,3.63l-.06.89a6,6,0,0,0,0,.85,2.17,2.17,0,0,0,.29.64,8.17,8.17,0,0,0,.49.71c.36.47.75.93,1.15,1.38l.6.68.14.16,1.59-1.74,1.53-1.68c-.37-1.35-.75-2.71-1.17-4.05-.21-.69-.43-1.39-.69-2l0-.11a1.59,1.59,0,0,1-.07-.2,1.4,1.4,0,0,1-.05-.34,3,3,0,0,1,0-.61,7.82,7.82,0,0,1,.27-1.11,39.29,39.29,0,0,1,1.64-4.07c.15-.33.29-.66.43-1a3.58,3.58,0,0,0,.17-.49,1.21,1.21,0,0,0,0-.5,6.11,6.11,0,0,0-1-1.9,6.56,6.56,0,0,1,1.16,1.85,1.36,1.36,0,0,1,.08.57,4,4,0,0,1-.14.55c-.12.35-.24.69-.37,1a42.87,42.87,0,0,0-1.33,4.12,9.61,9.61,0,0,0-.17,1,1.84,1.84,0,0,0,0,.47,1,1,0,0,0,0,.2l0,.06.06.13c.34.69.6,1.36.87,2,.42,1.11.83,2.22,1.22,3.34.3-.34.6-.67.89-1a4.16,4.16,0,0,0,.36-.45,3,3,0,0,0,.24-.51c.15-.37.28-.76.4-1.16.23-.79.43-1.6.64-2.41l.31-1.22c.06-.2.11-.4.18-.6A2.57,2.57,0,0,1,439.45,261.84Z" style="fill:#dbdbdb"></path><path d="M447.34,302.63s-1.23-33.72-1.37-34.26-.51-9.17-.73-9.85-7.24-1.54-8.38-1.94-4.75-1.34-5.76-1.07-8.17,4.15-9.31,4.56-11.25-1.14-11.25-1.14,7,.26,7.44.2-.67-1.71-.91-1.91a22.19,22.19,0,0,1-.5-3.62,33,33,0,0,0,1,3.38c.16.14,1.27,1.91,1.6,2a10.26,10.26,0,0,0,2.65-.47c.33-.17,8.17-4.82,9.34-5.06s6.23,1,6.56,1,5.86-.13,6-.4-2.61-4.26-3.28-4.42-13.36-3.66-13.86-4.29-3.17-6.29-3.17-6.29,3.4,5.13,4,5.49a60.41,60.41,0,0,0,7.1,1.47c.31,0-1.21-3.26-1.48-3.53s-3.88-2.41-3.88-2.41a42.38,42.38,0,0,1,5,2.19c.44.45,1.87,3.48,2,3.62s5.13,1.65,5.71,1.87,5.71,7.32,5.89,7.37a39.29,39.29,0,0,0,.5-5c0-.31-5.22-4.33-5.58-4.82s-1.83-6.92-2-7.37.71-4,.71-4a34.14,34.14,0,0,0,0,3.66c.14.4,2.19,6.56,2.64,6.87s4.19,2.76,4.37,2.76.58-7.09.94-7.71,4.24-6.66,4.55-7.15-.53-5.27-.53-5.27,1.78,4.65,1.38,5.85-1.2,2.95-1.2,2.95,2.36-.54,2.77-.62,1.92-2.42,1.92-2.42A23.61,23.61,0,0,1,457,236c-.27.22-4.2,1.61-4.38,1.79a14.91,14.91,0,0,0-1.34,2.59c-.09.4-.31,4.28-.31,4.28a44.29,44.29,0,0,0,4.6-3.35c.58-.71,3.12-3,3.12-3s-2.54,3.39-2.81,3.66-5,4.33-5,4.33.54,14.53.78,15.74c.67,3.2,6.26,40.62,6.26,40.62Z" style="fill:#ebebeb"></path><path d="M276.65,302.63s1-27,1.1-27.46.41-7.35.59-7.89,5.8-1.23,6.71-1.56,3.81-1.07,4.61-.85,6.55,3.32,7.47,3.65,9-.92,9-.92-5.58.22-5.95.16.53-1.37.72-1.53a17.06,17.06,0,0,0,.4-2.89s-.67,2.6-.8,2.71-1,1.53-1.29,1.58a8.3,8.3,0,0,1-2.12-.38c-.27-.13-6.55-3.86-7.49-4.05s-5,.83-5.26.81-4.7-.11-4.8-.33,2.09-3.4,2.63-3.54,10.71-2.93,11.1-3.43,2.54-5,2.54-5a45.37,45.37,0,0,1-3.19,4.4,46.5,46.5,0,0,1-5.68,1.18c-.26,0,1-2.61,1.18-2.82s3.11-1.94,3.11-1.94a34.12,34.12,0,0,0-4,1.76c-.36.36-1.51,2.79-1.65,2.9s-4.11,1.32-4.58,1.5-4.57,5.87-4.71,5.9a30.1,30.1,0,0,1-.41-4c0-.26,4.19-3.48,4.48-3.87s1.46-5.55,1.61-5.9a17.27,17.27,0,0,0-.58-3.19,26,26,0,0,1,0,2.94c-.1.32-1.75,5.26-2.11,5.51s-3.36,2.21-3.5,2.21-.47-5.68-.76-6.19-3.39-5.33-3.65-5.72.43-4.22.43-4.22-1.43,3.72-1.1,4.68,1,2.37,1,2.37l-2.22-.51c-.32-.07-1.54-1.93-1.54-1.93a17.76,17.76,0,0,0,1,2.51c.21.18,3.36,1.29,3.5,1.43a12.51,12.51,0,0,1,1.08,2.07c.07.33.25,3.44.25,3.44a37,37,0,0,1-3.69-2.68c-.46-.58-2.5-2.44-2.5-2.44s2,2.72,2.25,2.94,4,3.47,4,3.47-.42,11.64-.62,12.61c-.53,2.57-5,32.56-5,32.56Z" style="fill:#ebebeb"></path><path d="M393.19,185.53c-7.19,0-128.17.79-135.78.55-.54,0-.84-.82-.29-1.09,4.79-2.37,10.23-1.9,15.21-3.57,2.93-1,4.73-2.91,6.76-5.1a13.91,13.91,0,0,1,6.3-4.11,13.27,13.27,0,0,1,6.85-.22c2.46.59,4.59,2,6.93,2.88,5.81,2.19,11.46.11,15.61-4.19,3.42-3.55,6.78-6.89,11.44-8.8a15.21,15.21,0,0,1,12.12-.17c4.43,2,7.48,6,11.65,8.48,4.94,2.89,10.85,2.21,16.3,3.08s9.65,5.47,14.44,8.12A10.23,10.23,0,0,0,386,183a30.61,30.61,0,0,0,3.17-.45c1.65-.2,3.22-.15,4.32,1.22C393.71,184.11,393.66,185.53,393.19,185.53Z" style="fill:#ebebeb"></path><path d="M170.8,163.87c-7.19,0-128.17.8-135.77.56-.55,0-.84-.82-.3-1.09,4.79-2.38,10.23-1.9,15.21-3.58,2.93-1,4.73-2.9,6.76-5.1a14,14,0,0,1,6.3-4.11,13.27,13.27,0,0,1,6.85-.21c2.46.58,4.59,2,6.93,2.87,5.81,2.2,11.46.11,15.61-4.19,3.42-3.54,6.79-6.89,11.44-8.8a15.17,15.17,0,0,1,12.12-.16c4.44,2,7.48,6.05,11.65,8.48,4.94,2.89,10.85,2.21,16.31,3.08s9.65,5.46,14.43,8.11a10.27,10.27,0,0,0,5.22,1.62c1.07,0,2.12-.32,3.18-.45,1.64-.21,3.21-.16,4.32,1.22C171.33,162.45,171.27,163.87,170.8,163.87Z" style="fill:#ebebeb"></path><path d="M234.22,244.35c-5.25,0-93.58.58-99.13.4-.4,0-.61-.6-.22-.79,3.5-1.73,7.47-1.39,11.11-2.61,2.14-.72,3.45-2.12,4.94-3.73a10.31,10.31,0,0,1,4.59-3,9.79,9.79,0,0,1,5-.15c1.79.42,3.35,1.45,5.06,2.1,4.24,1.6,8.36.08,11.39-3.06,2.5-2.59,5-5,8.35-6.43a11.08,11.08,0,0,1,8.85-.12c3.24,1.47,5.47,4.42,8.51,6.19,3.61,2.11,7.92,1.62,11.9,2.25s7,4,10.54,5.92a7.36,7.36,0,0,0,3.81,1.18c.78,0,1.55-.23,2.32-.32,1.2-.15,2.35-.12,3.16.89C234.6,243.31,234.56,244.35,234.22,244.35Z" style="fill:#ebebeb"></path><path d="M426.48,87.23c-5.25,0-93.58.58-99.13.41-.4,0-.61-.6-.22-.8,3.5-1.73,7.47-1.38,11.11-2.61,2.14-.72,3.45-2.12,4.94-3.72a10.22,10.22,0,0,1,4.59-3,9.68,9.68,0,0,1,5-.16,42.82,42.82,0,0,1,5.06,2.1c4.24,1.6,8.36.08,11.39-3.06,2.5-2.59,5-5,8.36-6.42a11.05,11.05,0,0,1,8.84-.13c3.24,1.47,5.47,4.42,8.51,6.2,3.61,2.11,7.92,1.61,11.91,2.24s7,4,10.53,5.93a7.55,7.55,0,0,0,3.81,1.18,22.72,22.72,0,0,0,2.32-.33,3.18,3.18,0,0,1,3.16.89C426.86,86.19,426.82,87.23,426.48,87.23Z" style="fill:#ebebeb"></path><path d="M454.35,216.13c-5.24,0-93.57.58-99.12.41-.4,0-.62-.6-.22-.8,3.5-1.73,7.47-1.38,11.11-2.61,2.14-.72,3.45-2.12,4.93-3.72a10.28,10.28,0,0,1,4.6-3,9.75,9.75,0,0,1,5-.15c1.8.43,3.35,1.45,5.06,2.1,4.25,1.6,8.37.08,11.4-3.06,2.5-2.59,4.95-5,8.35-6.43a11.12,11.12,0,0,1,8.85-.12c3.24,1.47,5.46,4.42,8.5,6.2,3.61,2.11,7.93,1.61,11.91,2.24s7,4,10.54,5.93a7.52,7.52,0,0,0,3.81,1.18,22.72,22.72,0,0,0,2.32-.33,3.17,3.17,0,0,1,3.15.89C454.74,215.09,454.7,216.13,454.35,216.13Z" style="fill:#ebebeb"></path></g><g id="freepik--Floor--inject-12"><polygon points="31.28 302.67 33.54 314.48 52.17 341.57 79.93 362.04 101.53 405.82 220.05 467.63 304.97 440.57 319.34 442.95 376.48 412.96 391.83 410.03 425.2 363.47 457.8 335.39 470.9 302.67 31.28 302.67" style="fill:#FFC727"></polygon><polygon points="31.28 302.67 33.54 314.48 52.17 341.57 79.93 362.04 101.53 405.82 220.05 467.63 304.97 440.57 319.34 442.95 376.48 412.96 391.83 410.03 425.2 363.47 457.8 335.39 470.9 302.67 31.28 302.67" style="opacity:0.2"></polygon><g style="opacity:0.1"><polygon points="101.53 405.82 93.95 360.85 93.95 390.45 101.53 405.82"></polygon><polygon points="75.92 330.3 78.03 331.11 77.14 337.87 75.92 330.3"></polygon><polygon points="304.97 440.57 319.34 442.95 309.62 411.66 309.17 385.15 303.15 414.05 304.97 440.57"></polygon><polygon points="425.2 363.47 421.35 348.75 425.94 332.55 425.28 346.41 431.61 357.95 425.2 363.47"></polygon><polygon points="338.62 384.56 332.56 411.66 340.58 394.54 348.16 382.52 338.62 384.56"></polygon><polygon points="79.93 362.04 72.9 356.86 79.36 346.51 79.93 335.51 82.39 348.24 79.93 362.04"></polygon><polygon points="220.05 467.63 208.13 461.42 206.14 445.08 208.13 427.42 214.09 450.79 220.05 467.63"></polygon><polygon points="376.48 412.96 382.02 397.09 382.58 381.77 387.82 370.22 386.59 383.81 391.83 394.81 391.83 410.03 376.48 412.96"></polygon><polygon points="395.06 372.67 394.28 381.09 397.29 388.83 395.78 379.32 395.06 372.67"></polygon><polygon points="139.89 372.36 149.87 376.3 148.98 391.28 152.99 408.94 142.74 390.65 139.89 372.36"></polygon><polygon points="155.22 400.52 158.56 414.05 158.56 424.16 161.68 414.05 155.22 400.52"></polygon></g><polygon points="31.28 302.67 33.54 316.11 82.87 337.09 95.71 362.14 229.68 422.45 303.15 388.75 338.62 395.93 376.8 386.61 420.88 331.26 458.94 317.86 470.9 302.67 31.28 302.67" style="fill:#FFC727"></polygon><polygon points="31.28 302.67 33.54 316.11 82.87 337.09 95.71 362.14 229.68 422.45 303.15 388.75 338.62 395.93 376.8 386.61 420.88 331.26 458.94 317.86 470.9 302.67 31.28 302.67" style="fill:#fff;opacity:0.2"></polygon><path d="M173.86,302.84c-7.42,6.11-17.61,14.08-25.2,20l-.28-2.53c7.4,2.09,18.6,5.53,26.13,7.78l-.5,0,13.57-2.77c13-2.64,27.66-5.19,40.8-7.49l.26-.05.2.12c6.72,3.75,17.51,9.45,23.39,12.76,4.84-.18,11.31-.3,16-.54l16-.69-.22.08c3.7-2.4,9.11-6,12.86-8.47l12.86-8.5.14-.1c5.91-.8,11.81-1.59,17.72-2.32l17.53-2.2.4,0,.38.26,16.09,11.25-1.05-.18L380,313.19l19-5.79.25-.07.24,0c7.06.78,22.59,2.54,29.15,3.35l16.09.17,5.36.1-1,1.13,1.12-7.07.13-.83c6.87-.66,13.75-1.22,20.63-1.72l0,.39q-9.94,1.8-19.92,3.39l.73-.89-.69,7.17-.1,1.09-.9,0-5.37.22c-3.24.08-12.78.4-16.21.47-6.32-.68-24.5-2.11-28.8-2.86-9.78,3-28.73,8.72-38.52,11.59l-.49-.35-16-11.51.78.21c-10.4,1-24.89,2.51-35.13,3.41l.34-.12-13,8c-3.84,2.38-9.35,5.7-13.14,8.09h-.12l-16,.47c-4.73.14-11.27.42-16,.62-7.1-3.38-16.89-8.48-24.07-11.92l.46.07c-17.71,3.89-37,8.33-54.74,11.31-8.48-2.74-20.21-6.42-28.63-9.31.85-.63,14-9.78,15.33-10.72,4.37-2.94,8.7-6,13.1-8.82l.15.34Z" style="fill:#FFC727"></path><path d="M252,353.31s15.78,11.67,19.47,13.1l-.94.19,19.13-25.45.34-.44h.51l23.56.38-.83.35,16.14-15.62.66-.63.77.41,28,14.9,1.37.73c-.12.58-3.46,13.8-3.71,14.86l-1.77-2.74c9.76-1.78,19.5-3.62,29.26-5.32l-1.18,1.43c1.2-6.71,2.47-13.4,3.72-20.1,11.47.43,22.94.72,34.4,1.24l-.43.33,8-17.2.26.19-7.4,17.65-.13.32c-11.28.25-22.55.27-33.83.42l1.1-1.14c-1,6.78-2,13.56-3.1,20.33-10.06,2.08-20.13,4-30.19,6l-2.59.52.82-3.26,3.27-13,.91,2.59-27.85-15.24,1.43-.22-16.27,15.39-.38.37-.46,0-23.55-.92.84-.44L271.7,368.1l-.49.61c-.28-.24-21-14.26-21-14.26Z" style="fill:#FFC727"></path><path d="M82.84,336.89c4.13-1.11,12.31-3.32,16.44-4.38q8.22-2.19,16.46-4.27l.27-.07.27.17c8.12,5.11,24.34,15.47,32.42,20.66l-.71-.16c7-1.16,24.78-4.09,31.57-5.16l10.53-1.63-.59.3c4.62-4.12,9.24-8.24,13.9-12.3l.64.78,10.61,12.72c2.92,4.46,5.83,8.94,8.81,13.33l-.4-.21c2.36-.11,25.68-3.49,28.05-3l0,.4c-4.47,2-23,4.25-27.68,5l-.54-1.07c-1.54-2.26-3.13-4.46-4.7-6.69-1.39-2-3.36-4.63-4.52-6.29l-11.16-11.9,1.41.1c-4.29,4-8.62,8-12.94,12l-.26.24-.33.06c-11.76,2-30.21,4.79-42.12,6.6l-.38.06-.33-.22c-8-5.33-24.11-16.15-32.07-21.56l.53.1c-8,1.72-16.79,3.53-24.85,5.18l-8.3,1.65,0-.39Z" style="fill:#FFC727"></path><path d="M31.32,302.48a244.26,244.26,0,0,1,24.78,7.58c6.72-1.29,18.59-.77,27.05-1.46,2,5.49,5.3,10,7.62,15.3l-1.7-.91c10.17-4.15,24.53-9.94,34.6-13.84l.18-.07H124l6.33-.53c6.11-.44,12.92-.85,19-1l-.34.15c2.47-1.77,4.95-3.51,7.45-5.18l.16.33c-2.28,2.26-4.59,4.46-6.92,6.63-6.12,1.13-13,2.12-19.13,3l-6.32.78.34-.08c-10.48,4.25-25.23,9.88-35.88,14-2.38-5.68-3.72-12-6.28-17.57l.46.32c-9.11,1.05-18.17,3.1-27.32,3.59-6.17-2.36-12.31-4.9-18.37-7.7-2-.93-4-1.88-6-2.91l.08-.38Z" style="fill:#FFC727"></path><path d="M376.74,386.79c-6.58-3-16.5-7.86-23.19-11.05l.33.07-20.2,1.73-.38,0-.33-.31L321.7,366.81,310.47,356.3l1.35.16c-5.63,3.59-11.29,7.12-16.94,10.65s-11.35,6.95-17.06,10.35l.37-.38-6.75,10.22-.19.28c-6.28,2.13-13.24,4.63-19.5,7.1-2.2.88-4.41,1.73-6.6,2.65l-.2-.17c-4.35-3.65-8.76-7.15-13.14-10.73l-.88-.72.76-1,7.4-9.57.78,2.4L220.19,379l-19.68,1.35-.32,0-.31-.17-23.12-12.49,1.15.05-12.19,5.58-12.22,5.51-.66.3c-6.72-4.86-19.65-14.26-26.34-19.2l.51.21c-7.07-1.07-17.69-2.72-24.72-3.91q-9.81-9.42-19.51-19l.17-.32q10.17,8.51,20.19,17.29l-.41-.2c7,.68,17.46,1.87,24.55,2.71l.25,0,.25.18,13,9.07,13,9.15-1.27-.13,12.18-5.63,12.21-5.56.58-.27.57.32,23,12.84-.63-.15c9.82-.51,29.57-1.41,39.4-1.8l2.92-.13c-1.4,1.64-8.33,9.85-9.87,11.66l-.11-1.7c4.26,3.81,8.49,7.69,12.79,11.44l-.43-.09c3.75-1.32,9-3.5,12.79-5,4.25-1.72,8.47-3.57,12.68-5.42l-.4.35,6.35-10.66.14-.22.24-.16q16.78-11.07,33.8-21.54l.72-.44.63.6c5.52,5.31,16.75,16,22.25,21.4l-.71-.27,20.23-.89H354l.14.08,11.38,6.26c3.79,2.1,7.57,4.2,11.34,6.36l-.11.36Z" style="fill:#FFC727"></path><path d="M56.69,311.31l1.7,7.51-.59-.7c-.13,0,14.73,4.65,14,4.57l9-3.1L72,323.47l-.07,0-14.45-3.32-.42-.1-.17-.6-2.09-7.34,1.91-.83Z" style="fill:#FFC727"></path><path d="M114.89,313.71l13.73,7.35.11.05c.05.06,10.75,11.22,10.82,11.28l-.33-.11c.06,0,13.76-2.42,13.81-2.4l7.2,3L153,330.26c.35,0-13.69,3.13-13.6,3.13l-.17,0-.16-.15c.18.13-11.75-11.2-10.91-10.5l-14-6.61.73-2.46Z" style="fill:#FFC727"></path><path d="M164.07,325.88l8.48-11.74.3-.41.42,0,23,2.29-.37.1,16.91-11.65.17-.11c.17,0,40.57,10.35,40.75,10.36-.22,0,15-4.42,15-4.42s-15,4.81-15,4.78L213,305.76l.34-.07-16.75,12.06-.17.12-.2,0-23.07-1.74.71-.37-8.32,11.92-1.47-1.78Z" style="fill:#FFC727"></path><polygon points="64.11 320.47 69.51 316.14 69.6 316.07 69.68 316.09 75.5 317.4 69.62 316.72 69.78 316.67 64.67 321.56 64.11 320.47 64.11 320.47" style="fill:#FFC727"></polygon><polygon points="250.22 354.45 245.37 340.37 246.02 340.89 225.74 341.02 225.58 341.02 225.49 340.88 219.27 331.37 219.15 331.18 219.31 331.07 226.4 325.85 219.46 331.41 219.5 331.11 225.98 340.31 225.72 340.16 245.99 339.06 246.43 339.03 246.64 339.58 252.03 353.31 250.22 354.45 250.22 354.45" style="fill:#FFC727"></polygon><path d="M83.15,308.6c6.21-.91,12.14-.55,18.38-.63.91-.47,4.46-1.43,6.27-2,2.27-.68,4.55-1.33,6.85-1.91,3.21,2.23,6.39,4.55,9.49,7.11-3.39-1.52-6.69-3.28-10-5.12l.53.08q-3.21,1.22-6.45,2.31c-2.24.71-4.47,1.55-6.73,2.12a140.52,140.52,0,0,1-18.66-1.28Z" style="fill:#FFC727"></path><polygon points="148.58 351.64 147.71 349.27 167.1 337.06 173.5 328.76 174.92 330.63 168.28 339.24 148.58 351.64" style="fill:#FFC727"></polygon><polygon points="227.95 319.98 212.53 306.18 213.02 304.4 229.08 317.81 227.95 319.98" style="fill:#FFC727"></polygon><polygon points="329.95 329.3 312.72 324.3 308.89 314.49 311.57 312.69 314.76 320.85 330.61 325.46 329.95 329.3" style="fill:#FFC727"></polygon><polygon points="201.24 380.16 190.36 387.43 190.22 387.52 190.15 387.53 179.72 388.61 190.02 386.19 189.81 386.28 199.65 376.81 201.24 380.16 201.24 380.16" style="fill:#FFC727"></polygon><polygon points="128.93 360.48 121.47 364.98 121.68 364.15 123.36 371.28 120.72 364.67 120.55 364.23 120.93 363.83 127.35 357.12 128.93 360.48 128.93 360.48" style="fill:#FFC727"></polygon><polygon points="314.87 344.56 303.5 352.29 303.37 352.38 303.29 352.38 292.87 353.46 303.16 351.04 302.95 351.14 313.27 341.21 314.87 344.56 314.87 344.56" style="fill:#FFC727"></polygon><polygon points="277.76 374.97 286.5 380.51 286.12 380.44 301.01 378.24 301.08 378.23 301.12 378.26 306.34 381.91 300.95 378.71 301.07 378.74 286.32 382.21 286.15 382.25 285.94 382.14 276.94 377.37 277.76 374.97 277.76 374.97" style="fill:#FFC727"></polygon><polygon points="350.52 313.44 347.86 320.13 347.74 319.11 351.18 324.72 351.26 324.85 351.28 324.96 352.02 329.24 351.78 328.95 358.19 330.86 351.67 329.74 351.49 329.71 351.43 329.45 350.38 325.28 350.48 325.52 346.65 320.36 346.35 319.95 346.54 319.34 348.69 312.34 350.52 313.44 350.52 313.44" style="fill:#FFC727"></polygon><polygon points="324.1 356.87 311.25 356.87 311.25 352.93 323.65 352.93 339.37 346.79 357.81 340.54 358.56 344.36 340.18 350.58 324.1 356.87" style="fill:#FFC727"></polygon><polygon points="355.6 357.22 339.24 366.05 354.73 354.85 355.6 357.22 355.6 357.22" style="fill:#FFC727"></polygon><path d="M385.15,349.66l1.1,11.24.06.65-.41.26c.08-.1-9.71,6.21-9.2,5.73l-4,7.23,3.6-7.62,0-.06c.08,0,8.91-6.76,9-6.82l-.35.92-1.77-11.1,2-.43Z" style="fill:#FFC727"></path><polygon points="386.94 332.75 360.94 322.91 361.78 319.12 387.78 329.42 386.94 332.75" style="fill:#FFC727"></polygon><path d="M260.31,302.48c3.86.22,18.07,7.22,21.83,8.14,6.41-.58,25.49.82,27.81,1.74l.27,1.43c-9.48,2-19,.47-28.36-1.82-1.78-.88-13-3.76-16.49-5.75a32.17,32.17,0,0,1-5.15-3.36l.09-.38Z" style="fill:#FFC727"></path><path d="M176.83,364l21.37-9.88.18-.08c.36.05,16.8,3.51,17.1,3.56l-17.12-1.85.32-.05-20.74,12L176.83,364Z" style="fill:#FFC727"></path><polygon points="232.52 386.79 222.19 390.05 222.67 389.53 219.15 398.75 218.89 397.82 230.61 405.51 231.01 405.78 230.61 406 223.1 410.19 230.44 405.51 230.43 406 218.43 399.09 217.95 398.81 218.17 398.16 221.33 388.71 221.46 388.33 221.81 388.19 232 384.25 232.52 386.79 232.52 386.79" style="fill:#FFC727"></polygon><path d="M287.28,347.52l-16.5-4.06-.18,0-.09-.16L267.3,338l.21.12-8.14-.35,8.14-.36c.14,0,.11,0,.2.13l3.48,4.95-.27-.2,16.67,2.61-.31,2.6Z" style="fill:#FFC727"></path><polygon points="239.54 374.91 255.59 369.52 255.78 369.46 255.92 369.56 266.84 376.96 255.52 370.67 255.85 370.7 240.1 377.43 239.54 374.91 239.54 374.91" style="fill:#FFC727"></polygon><g style="opacity:0.1"><path d="M248.35,330c-6.33-3.12-13.82-7-19.7-9.79a1.38,1.38,0,0,0-.22-.1c-.56.11-1.13.23-1.69.36-17,3.75-35.32,7.94-52.32,10.8l-.1.15-1,1.31L172,332.3l-1-.32,1-1.24-6.13-2-1-.31c-5.05-1.62-10.41-3.33-15.18-4.92-.4-.13-.81-.26-1.2-.41l-1.75-.58,1.73-1.21,1.07-.74c4.24-3,10.19-7.1,11-7.72l5.09-3.44c-4.93,3.92-10.16,8-14.74,11.55l-1.12.87c4.12,1.2,10.13,3.37,14.81,4.78h0L166,327l.89.28,6.29,1.9.88.25.22.07,13.33-2.72c12.2-2.48,25.84-4.87,38.34-7.07h0l1.45-.26.9-.16h.1l.25,0,.2.12.18.1C234.45,322.5,242.42,326.76,248.35,330Z"></path><path d="M458.59,305q-3.46.59-6.93,1.13l-.1,1-.07.61-.45,4.79-.1,1.09-.9,0-5.37.21c-3.23.09-12.63.41-16.13.49h0l-.62,1.51c-.13,0-.27,0-.42-.06l.69-1.48c-6.56-.7-24.28-2.1-28.52-2.84-8,2.46-22.19,6.74-32.43,9.79l2.25.89-2.25.67-3.62,1.08-2.32-.88h0l-.12,0-.49-.36-10.26-7.38-.48-.35-.49,1.22-1.18-.84-.39-.29.39-1.29L345,311.47c-9.69,1-22.76,2.31-32.68,3.2l.59,1.51-.59.05h0l-1.85.16-.69.42-.42-1.09-.07-.17-11.7,7.16c-3.85,2.38-9.35,5.7-13.13,8.09h-.08c3.67-2.39,8.91-5.87,12.56-8.27l10-6.61,2-1.33.87-.56.15-.11,2-.26q7.86-1.05,15.73-2.05l17.53-2.21.4,0,.38.26,15.51,10.85.08.06,2.07-.66h0L380,314.75l19-5.78.26-.08.24,0c7.05.79,22.59,2.53,29.15,3.35l16.09.17,4.53.09.12-.77.12-.81.7-4.36.13-.82,1.23-.12.22,0C454,305.41,456.3,305.21,458.59,305Z"></path><path d="M385.35,351.5h0l.1,1h0c0,.19-.05.36-.08.54h0l-1.63.34-.24-1.53-.25.05c-9.34,1.93-18.7,3.74-28,5.59h0l-.19,0h0l-2.14,1.16L353,358l.09-.36h0l.32-1.25.16-.66,2.22-8.82.42-1.67-.05,0-.29-.15-1.16-2.08-1.38-.88h0l-22.85-12.51-.36.35h0l-.81.76-14.42,13.65-.08.08.07.16-.57.38-1.81,1.23-2.64-.09-1.56-.07,1.56-1.51L291,343.75l-3.6,4.55-.53.68L271.69,368.1l-.48.61c-.24-.21-15.37-10.45-19.79-13.45l.61-.38s14.32,10.59,18.87,12.82l14.37-19.11,1-1.33.65-.88.57-.75,2.19-2.91.34-.45h.51l21.27.34,1.83,0,.22-.21L326.78,330l1.24-1.21,1.39-1.34.57-.56h0l.08-.08.28.15.11.06h0l.13.07.23.13,25.8,13.75,1.39.74.76.4,1,.55-2.57,10.26.41-.08c-.15.58-.28,1.13-.41,1.65,8.57-1.57,17.14-3.17,25.73-4.68,0-.25.09-.5.14-.75l.15-.87c.86-4.74,1.75-9.48,2.64-14.21l.27-1.46c.1-.51.19-1,.29-1.55.3,0,.61,0,.91,0h.36c9.5.36,19,.62,28.49,1-9.33.18-18.64.2-28,.32Q386.86,341.92,385.35,351.5Z"></path><path d="M420.74,331.92l4.52-9.76-3.94,9.43-.14.32Z"></path><path d="M84.79,338.46l-.66.13c-.13-.12-.25-.25-.38-.38l.55-.14C84.46,338.18,84.62,338.33,84.79,338.46Z"></path><path d="M246.24,355.47c-7.28,1.56-19.18,3-22.8,3.57l-.53-1.06c-1.54-2.26-3.13-4.47-4.7-6.69-1.39-2-3.36-4.63-4.52-6.29l-10.46-11.14q-6.09,5.7-12.23,11.31l-.26.24-.33,0c-10.87,1.83-27.49,4.38-39.34,6.19l-2.78.42-.12,0-.26,0-.32-.22c-7.91-5.28-23.8-15.93-31.84-21.4-4.68,1-9.63,2-14.53,3.05q7.26-1.9,14.52-3.76l.27-.06.26.17c7.9,5,23.48,14.91,31.76,20.23l.33.21a.45.45,0,0,0,.16,0l2.92-.48h0l3.38-.57h0c8.29-1.35,19.61-3.22,24.72-4l10.22-1.57c4.52-4,9.05-8.08,13.61-12.06l.65.77,10.61,12.73c2.86,4.37,5.73,8.78,8.66,13.1C225.89,358,238.9,356.17,246.24,355.47Z"></path><path d="M78.68,310.43c-7.17,1-14.32,2.42-21.52,2.95l.35,1.54a2.07,2.07,0,0,0-.35,0l-1.55.09-.43-1.5-.06-.25c-6-2.31-12-4.78-17.91-7.52l-1-.48c6.68,1.79,13.28,4,19.84,6.31l.07,0,.64-.11h0C62.38,310.56,71.17,310.73,78.68,310.43Z"></path><path d="M152.65,306.68c-1,.95-2,1.87-2.94,2.79-6.11,1.13-13,2.13-19.14,3l-6.11.75-6,2.41,1.68.91-1.68.66-1.16.47-1.81-.85h0l-1.14.44c-8.62,3.38-18.11,7-25.59,9.89-2.2-5.24-3.51-11.06-5.72-16.28l-.13,0,.07-.14v0c-.07-.17-.14-.31-.21-.47l.43,0c.09.25.19.48.29.73,1.67,4.24,4,7.94,6.06,11.92l.28.56c.13.25.24.49.36.74l.6-.24h0c7.16-2.92,16-6.49,24-9.65.22-.07.44-.17.65-.24l6.21-2.46a7.12,7.12,0,0,0,.72-.28l1.13-.43.19-.08h.05l.18-.08H124l6.33-.54c6.06-.43,12.83-.85,18.89-1C150.36,308.29,151.51,307.49,152.65,306.68Z"></path><path d="M245.18,397.32l0,0-.2-.18c-3.91-3.28-7.87-6.44-11.81-9.64l-.35-.29-.47-.38-.1,0-1.29.41.74-1,.6-.78.47-.6.15-.2,4.18-5.41-1.28.09,1.28-1.65L220.2,379l-19.26,1.32-.27.17-1.41,1-1.81-1-1-.57,1-1-18.77-10.14-1-.56h0l-.31-.17-11.61,5.32-12.21,5.51-.67.3c-6-4.36-17.05-12.37-24.09-17.54h0l-.78-.58-1.08.64,0,0,0,0-.06,0-2-.3-1.3-.19,1.3-1.37c-6.93-1.05-16.14-2.5-22.44-3.57q-5.9-5.66-11.75-11.38,6.21,5.29,12.39,10.69c6.64.66,16.43,1.76,23.4,2.59l1,.11.25,0,.25.19.33.23,12.66,8.84,12.35,8.71L164.65,371l12.2-5.56.36-.16.24-.1.12.07.44.24,1.89,1.07h0l1.37.76,17.88,10h0l1,.52h0l.57.33c9.39-.49,27.31-1.3,37.43-1.72l1.35-.05.29,0H240l1.33-.05,1.39-.07a1.14,1.14,0,0,1-.15.17s0,0,0,0l-2.07.88-.59.69-.28.33c-.25.3-.5.61-.76.91l-5.24,6.2.76.67-.77.89C237.45,390.43,241.29,393.93,245.18,397.32Z"></path><path d="M363.36,380.46c-3.45-1.66-6.83-3.3-9.64-4.64l-20,1.72-.38,0-.33-.31L321.7,366.81l-8.93-8.37L311.25,357l-.13-.12c-5.4,3.44-10.82,6.82-16.24,10.21-5,3.07-10,6.15-15.08,9.16l1.27.8c-.42.26-.84.52-1.27.77l-.93.55-1.15-.6L277,379l-5.53,8.35-.18.28c-2.88,1-5.92,2-8.95,3.14q4-1.7,8-3.47l6.22-10.42.13-.22.24-.16.47-.32h0l1.11-.72q16-10.52,32.21-20.5l.57-.36.09-.05.06,0,0,0,.58.56c.58.56,1.2,1.16,1.88,1.8l1.65,1.58c5.78,5.54,13.87,13.29,18.42,17.75l19.83-.88.19,0,.14.08Z"></path><path d="M63.83,321.63l-5.44-1.24c-.57-.14-.91-.21-.93-.21l-.42-.1-.17-.6L55.61,315l-.43-1.5.26-.12,1.25-.55.12.53.35,1.55.73,3.22,0,.1.36,1.59Z"></path><path d="M137.32,331.63c-3-2.86-8.92-8.5-9.24-8.87l-10.81-5.12-1.81-.85h0l-1.14.44.25-.86.32-1.09,1.86,1,1.69.9,10.19,5.45.11.06S134.16,328.35,137.32,331.63Z"></path><path d="M211.36,307.1l-14.77,10.65-.16.11h-.21l-22.64-1.71-6.71,9.6c.3.1.61.19.91.27l-.91,1.3-1,1.46-1-.31-.83-1,.58-.8,0,0,.91-1.26,7-9.64.3-.41.41,0,22.86,2.27Z"></path><path d="M217.85,308.43l-2.58-.59h0l-1.18-.28h0l-1.2-1.06-.27-.25.25-.17L213,306l2.68.67Z"></path><path d="M66.87,321l-1.12,1.06-.11.11-1.25-.4,0,0,1.37-1.09Z"></path><polygon points="220.32 332.27 220.03 332.51 219.84 332.23 220.14 332.01 220.32 332.27"></polygon><path d="M252,354.88l-.61.38-1.2-.81v0c-.15.06-.32.11-.49.16l-.32-.93h.52l-4.38-12.76-4.8,0,4.72-.28H246l.44,0,.21.54,4.89,12.48Z"></path><path d="M83.76,310.09q.18.45.39.9c-.23,0-.47-.05-.7-.09l-.45-.06-.13,0,.07-.14v0l.22-.49Z"></path><path d="M114.64,305.59q2,1.43,4,2.89c-1.41-.74-2.82-1.51-4.22-2.29-2.07.78-4.13,1.52-6.21,2.22-2.23.72-4.46,1.55-6.72,2.12-4.86-.06-9.71-.26-14.55-.78,4.85-.36,9.6-.15,14.55-.21.9-.46,4.46-1.44,6.27-2C110.07,306.83,112.35,306.17,114.64,305.59Z"></path><path d="M124.13,312.71c-.85-.38-1.7-.78-2.54-1.19l-1.75-.88,1.14-.44c.45.33.89.69,1.33,1C122.92,311.72,123.53,312.21,124.13,312.71Z"></path><path d="M174.32,331.41l-1,1.31-5,6.52-13.47,8.48,3.41-.58-3.38,2.13h0l-3.76,2.38-2.78.42-.12,0-.46-1.27.47-.28.34-.23,3.38-2.13,15.2-9.56L172,332.3l1-1.25.56-.72.73,1Z"></path><path d="M229.08,319.37l-.06.12-.37.71a1.38,1.38,0,0,0-.22-.1c-.56.11-1.13.23-1.69.36l-.8-.72h0l-1.46-1.31,1.46-.25-11.85-10.62h0l-1.2-1.06L213,306l2.24,1.88h0l12.08,10.09,1.16,1Z"></path><path d="M330.35,326.94l-.4,2.36-17.23-5-3.35-8.58.41-.27h0l0,0,.37-.25.58-.38h0l.8-.54.17.45.59,1.52h0l2.42,6.19,14,4.06,1.23.36h0Z"></path><polygon points="189.88 387.79 190.02 387.76 189.82 387.85 189.88 387.79"></polygon><polygon points="200.67 380.54 199.26 381.48 190.36 387.43 190.23 387.52 190.16 387.52 197.46 380.5 198.49 379.5 199.66 378.38 200.6 380.39 200.67 380.54"></polygon><path d="M128.74,361.65l-.78-.58-1.08.64,0,0,0,0-5,3,.32,1.37-.32.19.63,2.66-1-2.44v0l-.48-1.19,3.74-3.92,1.31-1.36,1.31-1.37,1,2.13Z"></path><polygon points="314.3 344.94 312.49 346.17 303.5 352.29 303.37 352.37 303.29 352.38 309.85 346.08 311.42 344.57 313.28 342.78 313.35 342.94 313.37 342.98 314.18 344.67 314.3 344.94"></polygon><polygon points="289.06 381.57 286.32 382.22 286.14 382.25 285.94 382.15 278.87 378.39 277.72 377.79 276.96 378.94 276.94 378.93 277.39 377.61 277.75 376.54 278.53 377.03 279.8 377.84 286.35 381.98 289.06 381.57"></polygon><polygon points="351.84 329.76 351.67 329.74 351.49 329.71 351.43 329.45 350.42 325.44 346.69 320.4 348.24 315.37 348.64 314.08 348.69 313.91 350.02 314.7 350.52 315 350.39 315.34 349.91 314.99 349.42 316.21 348.06 319.64 348.43 320.24 348.43 320.25 348.06 321.2 351.19 326.28 351.27 326.42 351.29 326.52 351.84 329.76"></polygon><path d="M358.56,345.92l-2.78.95-.42.14.42-1.71-15.6,5.28-16.09,6.28h-8.55c.52.52,1.07,1,1.63,1.58h-4.4L311.25,357V354.5h12.4l15.72-6.15,14-4.73h0l1.76-.59,2.71-.92.46,2.34Z"></path><polygon points="355.14 357.53 354.95 357.57 354.94 357.57 352.8 358.73 347.77 361.44 352.59 357.95 353.08 357.61 353.08 357.6 354.73 356.42 355.12 357.48 355.14 357.53"></polygon><path d="M386.17,361.65l-.27.17-.79.48-.23.15L382.5,364l2.34-1.79-.22-1.39a1,1,0,0,1,.22-.17l-1.14-7.19-.24-1.53-.25.05,0-.28.24-.05,1.74-.38,0,.31.15,1.54Z"></path><path d="M387.78,331l-.3,1.19h0l0,.12-.51,2-1-.38-.27-.1.27-1.46-22.32-8.46-2.32-.88h0l.51-2.34L365,322l2.26.89,19.07,7.56,1.13.44.32.13h0Z"></path><path d="M262.5,304.52c3.9,1.14,10.6,4.16,15.28,6.08-4.11-1.28-10-3-12.41-4.39C264.41,305.69,263.44,305.13,262.5,304.52Z"></path><path d="M310.21,315.35l-.4.08,0,0c-.16,0-.31.06-.47.09h0c-.79.16-1.58.27-2.36.38s-1.84.21-2.76.27l2.76-1.83c-8.15,1.07-16.32-.28-24.34-2.2,5.87-.42,20.28.53,25.58,1.37a12.23,12.23,0,0,1,1.62.34h0a.43.43,0,0,0,.13.05l.2,1.11,0,.15Z"></path><path d="M198.53,355.76l-17.25,10,1.38.77-1.38.79-2.61,1.51-1-.56h0l-.81-2.68.41-.2.33-.14,1.52-.71h0l19.1-8.83.18-.08,1.68.34Z"></path><polygon points="229.72 406.5 229.14 406.82 228.75 406.6 229.31 406.23 229.72 406.5"></polygon><polygon points="222.51 389.94 219.37 398.14 219.86 398.45 219.4 399.65 218.43 399.08 218.39 399.06 221.33 390.28 221.46 389.89 221.81 389.76 231.36 386.06 232.01 385.81 232.02 385.88 232.2 386.75 232.22 386.88 230.93 387.29 222.51 389.94"></polygon><polygon points="269.71 341.98 270.75 343.45 270.61 343.41 270.51 343.27 269.71 341.98"></polygon><polygon points="287.58 346.49 287.37 348.3 286.84 348.98 285.27 348.59 284.29 348.35 285.28 347.02 275.25 344.56 285.88 346.22 286.93 346.38 287.4 346.46 287.58 346.49"></polygon><path d="M252.65,372.08l-10.1,4.3s0,0,0,0l-2.07.88-.59.69-.34-1.49.32-.11.1,0h0l1.8-.6Z"></path></g></g><g id="freepik--Shadow--inject-12"><ellipse cx="170.92" cy="362.47" rx="65.92" ry="7.94" style="opacity:0.1"></ellipse></g><g id="freepik--Mountains--inject-12"><path d="M429.62,302.63S389.23,284.08,381,282.42c-6.28-1.27-23.92-11.85-36.71-19.24-1.55-.9-7.44-.16-8.86-1-4.78-2.81-8.65-5.13-10.66-6.33-4.08-2.45-27.6-1.32-31.44,0-2,.67-15.94,10.65-24.82,15.38-2.86,1.52-21.61,2.49-29.31,3.27-7.43.75-27.4,15.11-33.18,16.15-31.93,5.76-39.83,10.91-46.17,12H429.62Z" style="fill:#FFC727"></path><path d="M429.62,302.63S389.23,284.08,381,282.42c-6.28-1.27-23.92-11.85-36.71-19.24-1.55-.9-7.44-.16-8.86-1-4.78-2.81-8.65-5.13-10.66-6.33-4.08-2.45-27.6-1.32-31.44,0-2,.67-15.94,10.65-24.82,15.38-2.86,1.52-21.61,2.49-29.31,3.27-7.43.75-27.4,15.11-33.18,16.15-31.93,5.76-39.83,10.91-46.17,12H429.62Z" style="opacity:0.4"></path><path d="M429.63,302.62h0Z" style="opacity:0.4"></path><path d="M429.62,302.62h0Z" style="opacity:0.2"></path><path d="M429.61,302.62H268.89c9.71-2.46,30.4-7.78,32.21-8.93,2.38-1.5,5.46-12.33,6.34-13.76s17.34-10,18-11.57-2-12.8-2.09-13h0l0,0,.17,0,.2.07.19.06.17.06.18.07.07,0,.14.07.09,0,.13.07.3.18.32.19.34.2.36.22c2.17,1.3,5.46,3.26,9.34,5.54a.75.75,0,0,0,.18.08l.18.07.26.07.22,0s.52,5.43.41,5.91-4.86,3.93-5.14,4.68.42,3.63,0,4.24c-.26.36-5,4.13-6.25,5.05-.35.26,3.41.09,3.51.09.48,0,4.92-3.35,5.77-3.59s1.56-4.75,2.15-5.09,6.38-4.07,7.14-4.49.47-6.07.47-6.07l7.6,4.41,2,1.15.67.38,1.83,1.06,2.5,1.43,1.25.71,1.23.7,1.23.69c1.63.91,3.23,1.79,4.78,2.62l1.15.61c2.92,1.55,5.6,2.88,7.87,3.87l1.07.44.7.28.4.15,1.14.39s-14.17,4-16.26,5.16-7.18,8.36-8.82,9.19-12.53,4.16-12.08,4.43,20.56-1.35,22.83-2.91,7.14-7.47,9.38-8.28c1.72-.61,9.9-3.29,14.34-4.56C408,292.53,428.8,302.35,429.61,302.62Z" style="opacity:0.1"></path><path d="M276.36,284.44c-.62.18-12.13-1-12.82-1.09s-4.44-3.69-5.17-3.63a100.7,100.7,0,0,1-11.53-1.46c-1.28-.47-4.6-4-4.6-4h0l3.14-.32c7.11-.56,16.37-1.22,20.82-2.09.25.75,1.4,4.43,1.18,5s-2.13,2.13-1.56,2.6S277,284.26,276.36,284.44Z" style="opacity:0.1"></path><path d="M277.85,302.62s-56.88-7.87-64.09-8.9c-4.59-.65-25.81-11.41-40.29-17.6-1.12-.48-6.7-.05-7.38-.24-5.84-1.58-10.31-4.41-13.9-4.41-3.9,0-33.85,17.72-37,19.21s-20,6.87-25.21,7.42-19.64,4.52-19.64,4.52Z" style="fill:#FFC727"></path><path d="M277.85,302.62s-56.88-7.87-64.09-8.9c-4.59-.65-25.81-11.41-40.29-17.6-1.12-.48-6.7-.05-7.38-.24-5.84-1.58-10.31-4.41-13.9-4.41-3.9,0-33.85,17.72-37,19.21s-20,6.87-25.21,7.42-19.64,4.52-19.64,4.52Z" style="opacity:0.2"></path><path d="M156.73,291.22c-.72-.24-.95-3.14-1.17-3.67s-10.43-5.12-10.52-5.77,7.15-10.31,7.15-10.31c-3.9,0-33.85,17.72-37,19.21-.19.1-.44.2-.74.33l-.48.19-2.17.8-.74.26-1.2.41L109,293l-1.33.44-.93.3c-.93.3-1.9.6-2.89.9-3.6,1.11-7.37,2.17-10.29,2.84l-.77.18-.72.15-1,.18-.58.09-.53.07c-.32,0-.68.08-1.08.14l-.61.1-.65.11-.69.13-.72.14-1.51.31-1.6.36-1.23.28-.41.1-.83.19-.41.1-.82.2c-4.76,1.17-9.07,2.36-9.07,2.36H195C182.48,299,157.26,291.41,156.73,291.22Zm-28.5-.87c-.41-.05-3.12-1.61-3.51-1.67s-1.19-1.27-1-1.33,1.46-.32,1.66-.33,1.3.75,1.5.75,4,0,4.34.12a15,15,0,0,1,3.13,2.46C134.2,290.61,128.63,290.41,128.23,290.35Z" style="opacity:0.1"></path></g><g id="freepik--Sun--inject-12"><circle cx="250" cy="99.42" r="31.31" style="fill:#FFC727"></circle><path d="M282.24,99.42c.09,23.34-22.93,39.82-44.75,30.2-26.37-11.87-27.22-49.19-.19-60.86,21.92-9.16,45.08,7.25,44.94,30.66Zm-.2,0c-.25-27.63-34.57-41.31-54.1-22.06-20,20-6.51,53.79,22.06,53.36,16.76,0,32.29-14.17,32-31.3Z" style="fill:#FFC727"></path><path d="M250,134.25c-31.92-.22-47.52-36.84-24.79-59.62,17.84-17.68,48-12.26,57.84,11.1,9.86,23.61-7.81,48.66-33.05,48.52Zm0-.2c29.93-.26,44.76-37.36,23.89-58.52-21.6-21.63-58.2-7-57.79,23.89,0,18.2,15.32,34.86,33.9,34.63Z" style="fill:#FFC727"></path><path d="M290.43,99.42c.1,28.9-29.19,49-56,37.55-33.17-14.39-33.54-61-.09-75.34,26.86-11.18,56.2,8.84,56.08,37.79Zm-.1,0C290,64,247,46.35,221.78,71.2c-15.6,15.14-15.84,41.42-.21,56.65,25.2,24.79,68.54,7,68.76-28.43Z" style="fill:#FFC727"></path></g><g id="freepik--floor--inject-12"><path d="M29.08,302.63c141.54-.62,300.31-.62,441.84,0-141.54.61-300.31.61-441.84,0Z" style="fill:#263238"></path></g><g id="freepik--Trees--inject-12"><path d="M54.46,171.3c.59,1.14,1.21,2.25,1.85,3.36.33.55.65,1.1,1,1.63A21,21,0,0,0,54.46,171.3Z" style="fill:#FFC727"></path><path d="M58.41,177.84a15.12,15.12,0,0,1-1.11-1.55c3.07,7.62,2.06,16.3,6.68,24.21,3.18,4.08,6.45,8,9.68,11.94s6.48,7.91,9.55,11.91c.76,1,1.52,2,2.18,3l.44.71.09.16a.54.54,0,0,1,0,.08s0,.08,0,.15c.11.41-1.21,46-4.76,74.11l11.73.07c-.18-10.26-.43-39.74-.84-50,0-.79-.07-1.57-.1-2.35,1.94-2.36,3.85-4.73,5.74-7.14q1.59-2,3.15-4.08c.52-.7,1-1.4,1.54-2.12l.75-1.11a12.43,12.43,0,0,0,.77-1.34,3.85,3.85,0,0,0,.19-.44c0-.17.11-.38.13-.5a6.21,6.21,0,0,0,.12-.76c.06-.48.1-.92.13-1.37.06-.88.09-1.74.12-2.6l0-.75.54-.34a15.29,15.29,0,0,0,1.26-.93c.77-.63,1.46-1.27,2.13-1.9,1.35-1.29,2.62-2.59,3.88-3.89s2.5-2.61,3.76-3.84c.31-.31.63-.61.94-.9a9.56,9.56,0,0,1,.86-.71,10.15,10.15,0,0,1,2.22-.94c3.34-1.06,6.92-1.64,10.46-2.67a6.67,6.67,0,0,0,1.37-.57,1.48,1.48,0,0,0,.38-.34l.19-.27.41-.53,1.67-2.12,3.39-4.23-3.8,3.86-1.88,2-.47.5-.24.26s-.05.05-.13.09a5.62,5.62,0,0,1-1.17.33c-3.48.64-7.1.82-10.75,1.58a12.55,12.55,0,0,0-2.86.88,11,11,0,0,0-1.33.86c-.39.28-.76.57-1.12.86-1.44,1.15-2.82,2.32-4.2,3.47s-2.76,2.3-4.15,3.37c-.41.32-.83.63-1.25.93,0-3.12.1-6.24.26-9.32,0-.84.11-1.68.19-2.5a13.58,13.58,0,0,1,.38-2.31,8.24,8.24,0,0,1,1.2-1.86c.51-.66,1-1.32,1.57-2,2.15-2.63,4.35-5.25,6.46-8,1-1.35,2.09-2.71,3-4.15l.69-1.11q.32-.57.6-1.17a7.74,7.74,0,0,0,.54-2.59,38.45,38.45,0,0,0,0-5.15c-.12-1.7-.29-3.39-.52-5.08.13,1.69.22,3.4.24,5.09a35.59,35.59,0,0,1-.23,5.07,7.39,7.39,0,0,1-.62,2.36c-.19.36-.4.72-.62,1.06l-.72,1c-1,1.34-2.12,2.63-3.22,3.92-1.82,2.07-3.7,4.1-5.58,6.13-.82-1.23-1.64-2.47-2.43-3.73-1-1.57-1.94-3.18-2.75-4.8-.18-.41-.37-.81-.51-1.21a4.6,4.6,0,0,1-.21-1.19c-.08-.88-.08-1.82-.07-2.74,0-1.87.13-3.74.22-5.62s.19-3.76.24-5.64a44.91,44.91,0,0,0-.1-5.68,10.34,10.34,0,0,0-.25-1.44l-.11-.35-.16-.36a5.29,5.29,0,0,0-.48-.58,20.64,20.64,0,0,1-1.68-2.23c-1-1.55-2-3.16-2.93-4.81.83,1.69,1.71,3.35,2.69,5a22.94,22.94,0,0,0,1.59,2.34l.24.28a2.71,2.71,0,0,0,.17.25l.11.3.08.32a8.59,8.59,0,0,1,.17,1.35,45.53,45.53,0,0,1-.18,5.59c-.15,1.87-.34,3.74-.52,5.61s-.38,3.74-.5,5.64c-.07.95-.11,1.9-.09,2.89a6.17,6.17,0,0,0,.23,1.59c.15.5.33.95.51,1.41a55.73,55.73,0,0,0,2.59,5.12c.84,1.49,1.7,3,2.6,4.41-.5.55-1,1.1-1.47,1.67-.29.32-.56.67-.85,1l-.42.59a3.08,3.08,0,0,0-.37.75,15.51,15.51,0,0,0-.62,2.7c-.14.86-.25,1.72-.34,2.58-.37,3.43-.6,6.84-.85,10.24l-.39,5.07c-.08.84-.15,1.68-.26,2.49,0,.4-.1.8-.17,1.17,0,.18-.07.36-.1.49s0,.09,0,.13-6.3,5.21-9.47,7.83q-.11-1.75-.24-3.51c-.21-2.58-.41-5.13-.84-7.81a17.15,17.15,0,0,0-.49-2.17,5.79,5.79,0,0,0-.3-.75,1.86,1.86,0,0,0-.19-.34l-.16-.25c-.21-.32-.41-.6-.62-.88C87.84,224,87,223,86.18,222s-1.65-1.9-2.48-2.85l.81-1.13,1.65-2.29c1.09-1.54,2.18-3.1,3.2-4.77.51-.82,1-1.68,1.44-2.59.11-.23.21-.48.32-.71s.2-.49.29-.77a5.47,5.47,0,0,0,.23-.85,4.65,4.65,0,0,0,.12-.93,21.05,21.05,0,0,0-.27-3c-.15-1-.32-1.89-.5-2.81-.71-3.71-1.56-7.36-2.46-11l-.35-1.36c0-.22-.13-.49-.16-.66a2.69,2.69,0,0,1,0-.57,17.56,17.56,0,0,1,.59-2.67c.51-1.78,1.12-3.56,1.76-5.31-.81,1.68-1.59,3.38-2.29,5.13a19.7,19.7,0,0,0-.9,2.72,3.6,3.6,0,0,0-.06.84c0,.29.07.47.1.71l.21,1.39c.51,3.69,1,7.4,1.33,11.09.08.92.15,1.84.2,2.75a18.13,18.13,0,0,1,0,2.57,6,6,0,0,1-.88,2c-.46.72-1,1.45-1.51,2.16-1.09,1.44-2.28,2.83-3.5,4.22l-1.85,2.09c-.14.17-.29.33-.43.49q-2.42-2.67-4.85-5.33c-1.55-1.71-3.13-3.42-4.68-5.13,1.13-4.15,2.31-8.31,3.57-12.41.65-2.1,1.31-4.25,2.11-6.19l.14-.36c.08-.2.15-.39.21-.59a4.58,4.58,0,0,0,.15-1.06,9.37,9.37,0,0,0-.13-1.87,25.66,25.66,0,0,0-.82-3.38,122.68,122.68,0,0,0-5-12.46c-.45-1-.9-2-1.32-3a9.35,9.35,0,0,1-.52-1.51,3.7,3.7,0,0,1,.12-1.54,19.5,19.5,0,0,1,3.09-5.81,19.55,19.55,0,0,0-3.54,5.67,4.28,4.28,0,0,0-.25,1.76,8.7,8.7,0,0,0,.44,1.67c.34,1.07.73,2.11,1.1,3.16A120.66,120.66,0,0,1,74.65,180a23.87,23.87,0,0,1,.54,3.15,7.8,7.8,0,0,1,0,1.45,4.22,4.22,0,0,1-.12.58l-.09.19-.19.39c-1.05,2.11-1.82,4.18-2.65,6.27-1.31,3.38-2.55,6.78-3.76,10.2-.92-1-1.82-2-2.71-3.08a13.8,13.8,0,0,1-1.09-1.37,10.92,10.92,0,0,1-.76-1.57c-.46-1.14-.83-2.34-1.2-3.55-.72-2.43-1.34-4.9-2-7.38l-.95-3.72c-.17-.62-.34-1.24-.54-1.85A8.06,8.06,0,0,0,58.41,177.84Z" style="fill:#FFC727"></path><g style="opacity:0.5"><path d="M54.46,171.3c.59,1.14,1.21,2.25,1.85,3.36.33.55.65,1.1,1,1.63A21,21,0,0,0,54.46,171.3Z"></path><path d="M58.41,177.84a15.12,15.12,0,0,1-1.11-1.55c3.07,7.62,2.06,16.3,6.68,24.21,3.18,4.08,6.45,8,9.68,11.94s6.48,7.91,9.55,11.91c.76,1,1.52,2,2.18,3l.44.71.09.16a.54.54,0,0,1,0,.08s0,.08,0,.15c.11.41-1.21,46-4.76,74.11l11.73.07c-.18-10.26-.43-39.74-.84-50,0-.79-.07-1.57-.1-2.35,1.94-2.36,3.85-4.73,5.74-7.14q1.59-2,3.15-4.08c.52-.7,1-1.4,1.54-2.12l.75-1.11a12.43,12.43,0,0,0,.77-1.34,3.85,3.85,0,0,0,.19-.44c0-.17.11-.38.13-.5a6.21,6.21,0,0,0,.12-.76c.06-.48.1-.92.13-1.37.06-.88.09-1.74.12-2.6l0-.75.54-.34a15.29,15.29,0,0,0,1.26-.93c.77-.63,1.46-1.27,2.13-1.9,1.35-1.29,2.62-2.59,3.88-3.89s2.5-2.61,3.76-3.84c.31-.31.63-.61.94-.9a9.56,9.56,0,0,1,.86-.71,10.15,10.15,0,0,1,2.22-.94c3.34-1.06,6.92-1.64,10.46-2.67a6.67,6.67,0,0,0,1.37-.57,1.48,1.48,0,0,0,.38-.34l.19-.27.41-.53,1.67-2.12,3.39-4.23-3.8,3.86-1.88,2-.47.5-.24.26s-.05.05-.13.09a5.62,5.62,0,0,1-1.17.33c-3.48.64-7.1.82-10.75,1.58a12.55,12.55,0,0,0-2.86.88,11,11,0,0,0-1.33.86c-.39.28-.76.57-1.12.86-1.44,1.15-2.82,2.32-4.2,3.47s-2.76,2.3-4.15,3.37c-.41.32-.83.63-1.25.93,0-3.12.1-6.24.26-9.32,0-.84.11-1.68.19-2.5a13.58,13.58,0,0,1,.38-2.31,8.24,8.24,0,0,1,1.2-1.86c.51-.66,1-1.32,1.57-2,2.15-2.63,4.35-5.25,6.46-8,1-1.35,2.09-2.71,3-4.15l.69-1.11q.32-.57.6-1.17a7.74,7.74,0,0,0,.54-2.59,38.45,38.45,0,0,0,0-5.15c-.12-1.7-.29-3.39-.52-5.08.13,1.69.22,3.4.24,5.09a35.59,35.59,0,0,1-.23,5.07,7.39,7.39,0,0,1-.62,2.36c-.19.36-.4.72-.62,1.06l-.72,1c-1,1.34-2.12,2.63-3.22,3.92-1.82,2.07-3.7,4.1-5.58,6.13-.82-1.23-1.64-2.47-2.43-3.73-1-1.57-1.94-3.18-2.75-4.8-.18-.41-.37-.81-.51-1.21a4.6,4.6,0,0,1-.21-1.19c-.08-.88-.08-1.82-.07-2.74,0-1.87.13-3.74.22-5.62s.19-3.76.24-5.64a44.91,44.91,0,0,0-.1-5.68,10.34,10.34,0,0,0-.25-1.44l-.11-.35-.16-.36a5.29,5.29,0,0,0-.48-.58,20.64,20.64,0,0,1-1.68-2.23c-1-1.55-2-3.16-2.93-4.81.83,1.69,1.71,3.35,2.69,5a22.94,22.94,0,0,0,1.59,2.34l.24.28a2.71,2.71,0,0,0,.17.25l.11.3.08.32a8.59,8.59,0,0,1,.17,1.35,45.53,45.53,0,0,1-.18,5.59c-.15,1.87-.34,3.74-.52,5.61s-.38,3.74-.5,5.64c-.07.95-.11,1.9-.09,2.89a6.17,6.17,0,0,0,.23,1.59c.15.5.33.95.51,1.41a55.73,55.73,0,0,0,2.59,5.12c.84,1.49,1.7,3,2.6,4.41-.5.55-1,1.1-1.47,1.67-.29.32-.56.67-.85,1l-.42.59a3.08,3.08,0,0,0-.37.75,15.51,15.51,0,0,0-.62,2.7c-.14.86-.25,1.72-.34,2.58-.37,3.43-.6,6.84-.85,10.24l-.39,5.07c-.08.84-.15,1.68-.26,2.49,0,.4-.1.8-.17,1.17,0,.18-.07.36-.1.49s0,.09,0,.13-6.3,5.21-9.47,7.83q-.11-1.75-.24-3.51c-.21-2.58-.41-5.13-.84-7.81a17.15,17.15,0,0,0-.49-2.17,5.79,5.79,0,0,0-.3-.75,1.86,1.86,0,0,0-.19-.34l-.16-.25c-.21-.32-.41-.6-.62-.88C87.84,224,87,223,86.18,222s-1.65-1.9-2.48-2.85l.81-1.13,1.65-2.29c1.09-1.54,2.18-3.1,3.2-4.77.51-.82,1-1.68,1.44-2.59.11-.23.21-.48.32-.71s.2-.49.29-.77a5.47,5.47,0,0,0,.23-.85,4.65,4.65,0,0,0,.12-.93,21.05,21.05,0,0,0-.27-3c-.15-1-.32-1.89-.5-2.81-.71-3.71-1.56-7.36-2.46-11l-.35-1.36c0-.22-.13-.49-.16-.66a2.69,2.69,0,0,1,0-.57,17.56,17.56,0,0,1,.59-2.67c.51-1.78,1.12-3.56,1.76-5.31-.81,1.68-1.59,3.38-2.29,5.13a19.7,19.7,0,0,0-.9,2.72,3.6,3.6,0,0,0-.06.84c0,.29.07.47.1.71l.21,1.39c.51,3.69,1,7.4,1.33,11.09.08.92.15,1.84.2,2.75a18.13,18.13,0,0,1,0,2.57,6,6,0,0,1-.88,2c-.46.72-1,1.45-1.51,2.16-1.09,1.44-2.28,2.83-3.5,4.22l-1.85,2.09c-.14.17-.29.33-.43.49q-2.42-2.67-4.85-5.33c-1.55-1.71-3.13-3.42-4.68-5.13,1.13-4.15,2.31-8.31,3.57-12.41.65-2.1,1.31-4.25,2.11-6.19l.14-.36c.08-.2.15-.39.21-.59a4.58,4.58,0,0,0,.15-1.06,9.37,9.37,0,0,0-.13-1.87,25.66,25.66,0,0,0-.82-3.38,122.68,122.68,0,0,0-5-12.46c-.45-1-.9-2-1.32-3a9.35,9.35,0,0,1-.52-1.51,3.7,3.7,0,0,1,.12-1.54,19.5,19.5,0,0,1,3.09-5.81,19.55,19.55,0,0,0-3.54,5.67,4.28,4.28,0,0,0-.25,1.76,8.7,8.7,0,0,0,.44,1.67c.34,1.07.73,2.11,1.1,3.16A120.66,120.66,0,0,1,74.65,180a23.87,23.87,0,0,1,.54,3.15,7.8,7.8,0,0,1,0,1.45,4.22,4.22,0,0,1-.12.58l-.09.19-.19.39c-1.05,2.11-1.82,4.18-2.65,6.27-1.31,3.38-2.55,6.78-3.76,10.2-.92-1-1.82-2-2.71-3.08a13.8,13.8,0,0,1-1.09-1.37,10.92,10.92,0,0,1-.76-1.57c-.46-1.14-.83-2.34-1.2-3.55-.72-2.43-1.34-4.9-2-7.38l-.95-3.72c-.17-.62-.34-1.24-.54-1.85A8.06,8.06,0,0,0,58.41,177.84Z"></path></g><path d="M445.54,195.69c-.48.92-1,1.83-1.51,2.73-.27.45-.52.9-.8,1.33A17.06,17.06,0,0,1,445.54,195.69Z" style="fill:#FFC727"></path><path d="M442.32,201a11.19,11.19,0,0,0,.91-1.26c-2.5,6.2-1.68,13.28-5.44,19.71-2.59,3.32-5.26,6.5-7.89,9.73s-5.27,6.44-7.77,9.7c-.62.81-1.24,1.64-1.77,2.44-.14.2-.26.4-.37.58l-.07.13a.17.17,0,0,0,0,.07.38.38,0,0,1,0,.11c-.08.34,1,37.43,3.88,60.36l-9.55.05c.14-8.36.35-32.37.69-40.71,0-.64.05-1.28.08-1.91-1.59-1.93-3.14-3.85-4.68-5.81-.86-1.1-1.72-2.2-2.56-3.33-.43-.56-.84-1.14-1.26-1.72l-.61-.91a8,8,0,0,1-.62-1.09,2,2,0,0,1-.16-.36,3.31,3.31,0,0,1-.1-.4,5.64,5.64,0,0,1-.1-.62c-.05-.39-.08-.75-.11-1.12-.05-.71-.08-1.42-.1-2.12l0-.61-.44-.27c-.38-.25-.71-.51-1-.76-.63-.51-1.19-1-1.74-1.55-1.09-1-2.12-2.11-3.16-3.17s-2-2.12-3-3.12c-.26-.26-.51-.5-.77-.73a7.06,7.06,0,0,0-.71-.59A8.94,8.94,0,0,0,392,231c-2.72-.86-5.64-1.33-8.52-2.18a4.85,4.85,0,0,1-1.11-.46,1,1,0,0,1-.31-.28l-.16-.21-.33-.43-1.36-1.73-2.76-3.44,3.09,3.14L382,227l.38.41.19.21a.42.42,0,0,0,.11.07,5.15,5.15,0,0,0,1,.27c2.84.52,5.79.67,8.76,1.28a10.81,10.81,0,0,1,2.33.72,8.83,8.83,0,0,1,1.08.7l.91.7c1.17.94,2.29,1.89,3.42,2.83s2.25,1.87,3.38,2.74l1,.76c0-2.55-.07-5.08-.21-7.6,0-.68-.08-1.36-.15-2a11,11,0,0,0-.31-1.88,6.41,6.41,0,0,0-1-1.51c-.41-.54-.84-1.08-1.28-1.62-1.75-2.14-3.54-4.27-5.26-6.47-.85-1.1-1.7-2.21-2.47-3.38l-.56-.9c-.17-.31-.34-.63-.5-1a6.35,6.35,0,0,1-.43-2.11,30.82,30.82,0,0,1,0-4.19c.09-1.38.24-2.76.42-4.14-.11,1.38-.18,2.77-.19,4.15a29.84,29.84,0,0,0,.18,4.13,6.25,6.25,0,0,0,.51,1.92,9.83,9.83,0,0,0,.51.87l.58.84c.82,1.09,1.72,2.14,2.62,3.19,1.49,1.69,3,3.34,4.54,5,.68-1,1.35-2,2-3a42.67,42.67,0,0,0,2.24-3.91c.15-.33.3-.67.42-1a3.83,3.83,0,0,0,.17-1c.06-.72.06-1.48.05-2.23,0-1.52-.1-3.05-.17-4.58s-.16-3.06-.2-4.59a37.7,37.7,0,0,1,.08-4.63,7.86,7.86,0,0,1,.21-1.16l.09-.29.13-.29a3.46,3.46,0,0,1,.39-.47,20.6,20.6,0,0,0,1.37-1.82c.85-1.27,1.64-2.58,2.38-3.91-.67,1.37-1.39,2.72-2.18,4a20.2,20.2,0,0,1-1.31,1.91l-.19.22c-.06.08-.08.14-.13.21l-.09.24-.07.26a7.87,7.87,0,0,0-.14,1.1,38.5,38.5,0,0,0,.15,4.55c.12,1.52.27,3,.42,4.57s.31,3.05.41,4.59c.05.77.09,1.55.07,2.36a4.74,4.74,0,0,1-.19,1.29,11.92,11.92,0,0,1-.41,1.15,46.48,46.48,0,0,1-2.11,4.17c-.68,1.21-1.39,2.41-2.12,3.59q.61.66,1.2,1.35c.24.27.46.56.69.83l.34.48a2.4,2.4,0,0,1,.31.62,12.67,12.67,0,0,1,.5,2.19c.11.7.2,1.41.28,2.1.3,2.79.49,5.57.69,8.34l.31,4.13c.07.68.13,1.36.21,2q.06.51.15,1a3.13,3.13,0,0,0,.08.4.37.37,0,0,0,0,.1l7.71,6.38c.06-1,.12-1.9.19-2.85.18-2.11.34-4.19.69-6.37a13.08,13.08,0,0,1,.4-1.76,4.21,4.21,0,0,1,.25-.62,1.23,1.23,0,0,1,.15-.27l.13-.2a7,7,0,0,1,.51-.72c.66-.89,1.34-1.7,2-2.51s1.34-1.55,2-2.32l-.66-.92-1.34-1.87c-.89-1.25-1.78-2.52-2.61-3.88-.41-.67-.81-1.37-1.17-2.11-.09-.18-.17-.39-.26-.58a4.45,4.45,0,0,1-.24-.62,5.71,5.71,0,0,1-.19-.69,3.63,3.63,0,0,1-.09-.76,16.8,16.8,0,0,1,.22-2.47c.12-.77.25-1.53.4-2.28.58-3,1.28-6,2-9l.28-1.11c0-.17.11-.4.13-.54a2.23,2.23,0,0,0,0-.45,14.46,14.46,0,0,0-.48-2.18c-.42-1.45-.91-2.9-1.43-4.33.66,1.37,1.3,2.76,1.86,4.18a14.43,14.43,0,0,1,.73,2.22,2.77,2.77,0,0,1,.06.68c0,.24-.06.38-.09.58l-.16,1.13c-.43,3-.82,6-1.09,9-.07.75-.12,1.5-.16,2.24a14.6,14.6,0,0,0,0,2.1,5,5,0,0,0,.72,1.61,19.34,19.34,0,0,0,1.23,1.76c.89,1.17,1.86,2.31,2.85,3.44l1.5,1.7.36.4,3.94-4.34c1.27-1.4,2.55-2.79,3.82-4.18-.92-3.37-1.88-6.76-2.91-10.11-.53-1.7-1.07-3.46-1.72-5l-.12-.3c-.06-.16-.12-.32-.17-.48a4.5,4.5,0,0,1-.11-.86,7.57,7.57,0,0,1,.1-1.53,20.08,20.08,0,0,1,.67-2.75,98,98,0,0,1,4.08-10.14c.36-.83.73-1.66,1.07-2.49a7.23,7.23,0,0,0,.43-1.23,3.17,3.17,0,0,0-.1-1.25,15.66,15.66,0,0,0-2.52-4.73,16,16,0,0,1,2.89,4.62,3.55,3.55,0,0,1,.2,1.43,7.13,7.13,0,0,1-.36,1.36c-.28.87-.59,1.72-.9,2.57a97.31,97.31,0,0,0-3.31,10.27,19.74,19.74,0,0,0-.44,2.55,6.75,6.75,0,0,0,0,1.19,2.76,2.76,0,0,0,.1.47c0,.05.05.1.07.16l.16.32c.85,1.72,1.48,3.39,2.15,5.1,1.07,2.75,2.08,5.52,3.07,8.3.74-.83,1.47-1.66,2.2-2.5a10.55,10.55,0,0,0,.89-1.12,9.55,9.55,0,0,0,.62-1.28c.37-.92.68-1.9,1-2.89.59-2,1.09-4,1.61-6l.77-3c.14-.5.28-1,.44-1.51A6.74,6.74,0,0,1,442.32,201Z" style="fill:#FFC727"></path><g style="opacity:0.5"><path d="M445.54,195.69c-.48.92-1,1.83-1.51,2.73-.27.45-.52.9-.8,1.33A17.06,17.06,0,0,1,445.54,195.69Z"></path><path d="M442.32,201a11.19,11.19,0,0,0,.91-1.26c-2.5,6.2-1.68,13.28-5.44,19.71-2.59,3.32-5.26,6.5-7.89,9.73s-5.27,6.44-7.77,9.7c-.62.81-1.24,1.64-1.77,2.44-.14.2-.26.4-.37.58l-.07.13a.17.17,0,0,0,0,.07.38.38,0,0,1,0,.11c-.08.34,1,37.43,3.88,60.36l-9.55.05c.14-8.36.35-32.37.69-40.71,0-.64.05-1.28.08-1.91-1.59-1.93-3.14-3.85-4.68-5.81-.86-1.1-1.72-2.2-2.56-3.33-.43-.56-.84-1.14-1.26-1.72l-.61-.91a8,8,0,0,1-.62-1.09,2,2,0,0,1-.16-.36,3.31,3.31,0,0,1-.1-.4,5.64,5.64,0,0,1-.1-.62c-.05-.39-.08-.75-.11-1.12-.05-.71-.08-1.42-.1-2.12l0-.61-.44-.27c-.38-.25-.71-.51-1-.76-.63-.51-1.19-1-1.74-1.55-1.09-1-2.12-2.11-3.16-3.17s-2-2.12-3-3.12c-.26-.26-.51-.5-.77-.73a7.06,7.06,0,0,0-.71-.59A8.94,8.94,0,0,0,392,231c-2.72-.86-5.64-1.33-8.52-2.18a4.85,4.85,0,0,1-1.11-.46,1,1,0,0,1-.31-.28l-.16-.21-.33-.43-1.36-1.73-2.76-3.44,3.09,3.14L382,227l.38.41.19.21a.42.42,0,0,0,.11.07,5.15,5.15,0,0,0,1,.27c2.84.52,5.79.67,8.76,1.28a10.81,10.81,0,0,1,2.33.72,8.83,8.83,0,0,1,1.08.7l.91.7c1.17.94,2.29,1.89,3.42,2.83s2.25,1.87,3.38,2.74l1,.76c0-2.55-.07-5.08-.21-7.6,0-.68-.08-1.36-.15-2a11,11,0,0,0-.31-1.88,6.41,6.41,0,0,0-1-1.51c-.41-.54-.84-1.08-1.28-1.62-1.75-2.14-3.54-4.27-5.26-6.47-.85-1.1-1.7-2.21-2.47-3.38l-.56-.9c-.17-.31-.34-.63-.5-1a6.35,6.35,0,0,1-.43-2.11,30.82,30.82,0,0,1,0-4.19c.09-1.38.24-2.76.42-4.14-.11,1.38-.18,2.77-.19,4.15a29.84,29.84,0,0,0,.18,4.13,6.25,6.25,0,0,0,.51,1.92,9.83,9.83,0,0,0,.51.87l.58.84c.82,1.09,1.72,2.14,2.62,3.19,1.49,1.69,3,3.34,4.54,5,.68-1,1.35-2,2-3a42.67,42.67,0,0,0,2.24-3.91c.15-.33.3-.67.42-1a3.83,3.83,0,0,0,.17-1c.06-.72.06-1.48.05-2.23,0-1.52-.1-3.05-.17-4.58s-.16-3.06-.2-4.59a37.7,37.7,0,0,1,.08-4.63,7.86,7.86,0,0,1,.21-1.16l.09-.29.13-.29a3.46,3.46,0,0,1,.39-.47,20.6,20.6,0,0,0,1.37-1.82c.85-1.27,1.64-2.58,2.38-3.91-.67,1.37-1.39,2.72-2.18,4a20.2,20.2,0,0,1-1.31,1.91l-.19.22c-.06.08-.08.14-.13.21l-.09.24-.07.26a7.87,7.87,0,0,0-.14,1.1,38.5,38.5,0,0,0,.15,4.55c.12,1.52.27,3,.42,4.57s.31,3.05.41,4.59c.05.77.09,1.55.07,2.36a4.74,4.74,0,0,1-.19,1.29,11.92,11.92,0,0,1-.41,1.15,46.48,46.48,0,0,1-2.11,4.17c-.68,1.21-1.39,2.41-2.12,3.59q.61.66,1.2,1.35c.24.27.46.56.69.83l.34.48a2.4,2.4,0,0,1,.31.62,12.67,12.67,0,0,1,.5,2.19c.11.7.2,1.41.28,2.1.3,2.79.49,5.57.69,8.34l.31,4.13c.07.68.13,1.36.21,2q.06.51.15,1a3.13,3.13,0,0,0,.08.4.37.37,0,0,0,0,.1l7.71,6.38c.06-1,.12-1.9.19-2.85.18-2.11.34-4.19.69-6.37a13.08,13.08,0,0,1,.4-1.76,4.21,4.21,0,0,1,.25-.62,1.23,1.23,0,0,1,.15-.27l.13-.2a7,7,0,0,1,.51-.72c.66-.89,1.34-1.7,2-2.51s1.34-1.55,2-2.32l-.66-.92-1.34-1.87c-.89-1.25-1.78-2.52-2.61-3.88-.41-.67-.81-1.37-1.17-2.11-.09-.18-.17-.39-.26-.58a4.45,4.45,0,0,1-.24-.62,5.71,5.71,0,0,1-.19-.69,3.63,3.63,0,0,1-.09-.76,16.8,16.8,0,0,1,.22-2.47c.12-.77.25-1.53.4-2.28.58-3,1.28-6,2-9l.28-1.11c0-.17.11-.4.13-.54a2.23,2.23,0,0,0,0-.45,14.46,14.46,0,0,0-.48-2.18c-.42-1.45-.91-2.9-1.43-4.33.66,1.37,1.3,2.76,1.86,4.18a14.43,14.43,0,0,1,.73,2.22,2.77,2.77,0,0,1,.06.68c0,.24-.06.38-.09.58l-.16,1.13c-.43,3-.82,6-1.09,9-.07.75-.12,1.5-.16,2.24a14.6,14.6,0,0,0,0,2.1,5,5,0,0,0,.72,1.61,19.34,19.34,0,0,0,1.23,1.76c.89,1.17,1.86,2.31,2.85,3.44l1.5,1.7.36.4,3.94-4.34c1.27-1.4,2.55-2.79,3.82-4.18-.92-3.37-1.88-6.76-2.91-10.11-.53-1.7-1.07-3.46-1.72-5l-.12-.3c-.06-.16-.12-.32-.17-.48a4.5,4.5,0,0,1-.11-.86,7.57,7.57,0,0,1,.1-1.53,20.08,20.08,0,0,1,.67-2.75,98,98,0,0,1,4.08-10.14c.36-.83.73-1.66,1.07-2.49a7.23,7.23,0,0,0,.43-1.23,3.17,3.17,0,0,0-.1-1.25,15.66,15.66,0,0,0-2.52-4.73,16,16,0,0,1,2.89,4.62,3.55,3.55,0,0,1,.2,1.43,7.13,7.13,0,0,1-.36,1.36c-.28.87-.59,1.72-.9,2.57a97.31,97.31,0,0,0-3.31,10.27,19.74,19.74,0,0,0-.44,2.55,6.75,6.75,0,0,0,0,1.19,2.76,2.76,0,0,0,.1.47c0,.05.05.1.07.16l.16.32c.85,1.72,1.48,3.39,2.15,5.1,1.07,2.75,2.08,5.52,3.07,8.3.74-.83,1.47-1.66,2.2-2.5a10.55,10.55,0,0,0,.89-1.12,9.55,9.55,0,0,0,.62-1.28c.37-.92.68-1.9,1-2.89.59-2,1.09-4,1.61-6l.77-3c.14-.5.28-1,.44-1.51A6.74,6.74,0,0,1,442.32,201Z"></path></g><path d="M378.84,310.3s-8.58-64.64-9-66.36,5.44-60.68,5.44-60.68l-26.8-4.1s-15.13-6.38-18.34-5.53S304,186.89,300.4,188.18s-35.94-3.64-35.94-3.64,22.25.86,23.74.64-2.14-5.45-2.88-6.09-1.61-11.56-1.61-11.56,2.68,10.38,3.21,10.81,4.06,6.09,5.13,6.31,7.38-1,8.45-1.5,26.1-15.4,29.85-16.15,19.89,3.32,21,3.21,18.83,1.72,18.83,1.72-8-16.59-10.17-17.12-42.67-11.7-44.24-13.69S305.6,121,305.6,121s10.84,16.4,12.7,17.54,21.67,4.7,22.67,4.7-3.85-10.41-4.71-11.26-12.4-7.7-12.4-7.7,14.4,5.56,15.83,7,6,11.13,6.56,11.56,16.4,5.27,18.25,6,14.45,18.78,15,18.92L384,155.29s-15.76-12.75-16.9-14.32-5.85-22.1-6.42-23.53,2.28-12.69,2.28-12.69-.42,10.41,0,11.69,7,21,8.42,22,13.4,8.8,14,8.8,1.86-22.64,3-24.63,13.55-21.25,14.55-22.82-1.72-16.83-1.72-16.83,5.71,14.83,4.43,18.68-3.86,9.41-3.86,9.41,7.56-1.71,8.85-2,6.13-7.7,6.13-7.7-3.14,9.27-4,10-13.41,5.13-14,5.7a50,50,0,0,0-4.28,8.28c-.28,1.28-1,13.69-1,13.69s12.84-8.42,14.69-10.7,10-9.7,10-9.7-8.13,10.84-9,11.7-15.83,13.83-15.83,13.83l-7.5,93.54,13.12,69.75-5.62,1.86Z" style="fill:#FFC727"></path><g style="opacity:0.6000000000000001"><path d="M378.84,310.3s-8.58-64.64-9-66.36,5.44-60.68,5.44-60.68l-26.8-4.1s-15.13-6.38-18.34-5.53S304,186.89,300.4,188.18s-35.94-3.64-35.94-3.64,22.25.86,23.74.64-2.14-5.45-2.88-6.09-1.61-11.56-1.61-11.56,2.68,10.38,3.21,10.81,4.06,6.09,5.13,6.31,7.38-1,8.45-1.5,26.1-15.4,29.85-16.15,19.89,3.32,21,3.21,18.83,1.72,18.83,1.72-8-16.59-10.17-17.12-42.67-11.7-44.24-13.69S305.6,121,305.6,121s10.84,16.4,12.7,17.54,21.67,4.7,22.67,4.7-3.85-10.41-4.71-11.26-12.4-7.7-12.4-7.7,14.4,5.56,15.83,7,6,11.13,6.56,11.56,16.4,5.27,18.25,6,14.45,18.78,15,18.92L384,155.29s-15.76-12.75-16.9-14.32-5.85-22.1-6.42-23.53,2.28-12.69,2.28-12.69-.42,10.41,0,11.69,7,21,8.42,22,13.4,8.8,14,8.8,1.86-22.64,3-24.63,13.55-21.25,14.55-22.82-1.72-16.83-1.72-16.83,5.71,14.83,4.43,18.68-3.86,9.41-3.86,9.41,7.56-1.71,8.85-2,6.13-7.7,6.13-7.7-3.14,9.27-4,10-13.41,5.13-14,5.7a50,50,0,0,0-4.28,8.28c-.28,1.28-1,13.69-1,13.69s12.84-8.42,14.69-10.7,10-9.7,10-9.7-8.13,10.84-9,11.7-15.83,13.83-15.83,13.83l-7.5,93.54,13.12,69.75-5.62,1.86Z"></path></g></g><g id="freepik--Birds--inject-12"><path d="M166.68,149.66a16.65,16.65,0,0,1,2.22-.95,9,9,0,0,1,2.43-.56,2.07,2.07,0,0,1,.75.08,1.58,1.58,0,0,1,.23.11l.15.11c.1.07.17.14.26.21.32.29.6.59.88.89.55.61,1,1.25,1.52,1.91l-.6-.21a17.2,17.2,0,0,1,2.47-.52,9.11,9.11,0,0,1,1.29-.09,4.15,4.15,0,0,1,.69.05,1.81,1.81,0,0,1,.37.09,3,3,0,0,1,.37.17,4.64,4.64,0,0,1,1,.94c.26.33.5.68.73,1a16.54,16.54,0,0,1,1.15,2.21c-.53-.64-1-1.28-1.59-1.88-.27-.3-.54-.6-.83-.87a4.52,4.52,0,0,0-.87-.67,2.21,2.21,0,0,0-1-.1,9.5,9.5,0,0,0-1.16.16c-.77.14-1.57.33-2.33.54l-.38.1-.22-.31c-.45-.64-.93-1.27-1.41-1.88a10.5,10.5,0,0,0-.75-.86l-.19-.18-.09-.07s0,0,0,0a1.37,1.37,0,0,0-.43-.08,11.42,11.42,0,0,0-2.28.22C168.25,149.35,167.47,149.51,166.68,149.66Z" style="fill:#263238"></path><path d="M175.42,173.27a26.7,26.7,0,0,1,3-2,13.66,13.66,0,0,1,3.4-1.53,3.05,3.05,0,0,1,1.13-.1,2.18,2.18,0,0,1,.37.09l.25.12c.16.07.29.15.44.23a17.76,17.76,0,0,1,1.56,1.06c1,.74,1.88,1.54,2.78,2.36l-.94-.13a26,26,0,0,1,3.48-1.49,14.29,14.29,0,0,1,1.87-.51,6.58,6.58,0,0,1,1-.13,3.71,3.71,0,0,1,.57,0c.19,0,.4.1.59.15a6.87,6.87,0,0,1,1.71,1.09c.49.42.94.86,1.38,1.31a24.15,24.15,0,0,1,2.33,2.91c-1-.78-1.91-1.57-2.88-2.3a17.87,17.87,0,0,0-1.48-1,5.79,5.79,0,0,0-1.47-.74,3.39,3.39,0,0,0-1.46.14,14.05,14.05,0,0,0-1.65.57c-1.1.43-2.21,1-3.27,1.47l-.53.27-.41-.4c-.84-.81-1.73-1.6-2.62-2.35a15.73,15.73,0,0,0-1.35-1,3,3,0,0,0-.33-.21l-.15-.08-.06,0a2,2,0,0,0-.65,0,17.44,17.44,0,0,0-3.3,1C177.64,172.36,176.54,172.83,175.42,173.27Z" style="fill:#263238"></path><path d="M336.26,242a19,19,0,0,1,2-1.3,9.43,9.43,0,0,1,2.3-.95,2.28,2.28,0,0,1,.76,0,1.27,1.27,0,0,1,.24.07l.17.08a2.75,2.75,0,0,1,.29.17,9.73,9.73,0,0,1,1,.74,23.35,23.35,0,0,1,1.81,1.63l-.62-.11a18.17,18.17,0,0,1,2.35-.92,10.07,10.07,0,0,1,1.26-.3,4.92,4.92,0,0,1,.69-.06,1.71,1.71,0,0,1,.38,0,2.85,2.85,0,0,1,.39.11,4.41,4.41,0,0,1,1.12.76,12.57,12.57,0,0,1,.89.9,17.78,17.78,0,0,1,1.49,2c-.62-.54-1.24-1.09-1.87-1.59-.32-.25-.64-.5-1-.72a4.48,4.48,0,0,0-1-.53,2.29,2.29,0,0,0-1,.07,10,10,0,0,0-1.11.34c-.74.27-1.49.59-2.21.92l-.36.16-.27-.27c-.54-.56-1.12-1.1-1.7-1.62a9.62,9.62,0,0,0-.87-.73l-.22-.15-.1-.06h0a1.14,1.14,0,0,0-.43,0,11.3,11.3,0,0,0-2.22.6C337.77,241.47,337,241.76,336.26,242Z" style="fill:#263238"></path><path d="M316.46,238.82a27.76,27.76,0,0,1,2.25-2.84,14.25,14.25,0,0,1,2.79-2.47,3,3,0,0,1,1.05-.42,1.5,1.5,0,0,1,.38,0l.27,0c.18,0,.34.06.5.09a16.41,16.41,0,0,1,1.8.55c1.15.41,2.25.91,3.36,1.43l-.94.15a27.08,27.08,0,0,1,2.88-2.46,14.27,14.27,0,0,1,1.64-1,5.81,5.81,0,0,1,.94-.43,2.76,2.76,0,0,1,.55-.14,4.08,4.08,0,0,1,.61,0,6.7,6.7,0,0,1,2,.54c.59.25,1.15.54,1.7.84a23.86,23.86,0,0,1,3.09,2.08c-1.15-.46-2.29-.93-3.44-1.34-.57-.2-1.14-.4-1.71-.54a5.55,5.55,0,0,0-1.63-.27,3.21,3.21,0,0,0-1.34.56,13.43,13.43,0,0,0-1.41,1c-.92.74-1.83,1.56-2.68,2.37l-.43.41-.52-.25c-1-.53-2.13-1-3.19-1.46a14.34,14.34,0,0,0-1.6-.6,3.06,3.06,0,0,0-.38-.1l-.17,0h-.07a1.82,1.82,0,0,0-.62.19,17.46,17.46,0,0,0-2.85,1.93C318.31,237.29,317.4,238.06,316.46,238.82Z" style="fill:#263238"></path><path d="M147.17,167.48a26.74,26.74,0,0,1,2.24-2.85,14.17,14.17,0,0,1,2.79-2.46,3.07,3.07,0,0,1,1.05-.43,1.18,1.18,0,0,1,.38,0,2.4,2.4,0,0,1,.28,0,3.54,3.54,0,0,1,.49.1,15.77,15.77,0,0,1,1.8.54c1.16.42,2.25.91,3.36,1.43l-.94.15a28.11,28.11,0,0,1,2.88-2.46,17.65,17.65,0,0,1,1.64-1,10.23,10.23,0,0,1,.94-.43,4.42,4.42,0,0,1,.55-.14,3.08,3.08,0,0,1,.61,0,6.41,6.41,0,0,1,2,.53c.59.25,1.15.54,1.7.84a23.19,23.19,0,0,1,3.09,2.08c-1.15-.46-2.28-.93-3.43-1.33a16.31,16.31,0,0,0-1.72-.55,5.9,5.9,0,0,0-1.63-.27,3.44,3.44,0,0,0-1.34.57,13.32,13.32,0,0,0-1.41,1c-.92.74-1.83,1.56-2.68,2.38l-.43.41-.52-.26c-1-.52-2.12-1-3.19-1.46a16.64,16.64,0,0,0-1.6-.6,3.06,3.06,0,0,0-.38-.1l-.17,0s0,0-.06,0a1.76,1.76,0,0,0-.62.19,17.25,17.25,0,0,0-2.85,1.93C149,165.94,148.1,166.72,147.17,167.48Z" style="fill:#263238"></path></g><g id="freepik--Character--inject-12"><path d="M215.44,362.93c-1.77.59-52.36.44-54.28-.78-.73-.46-1.14-7.84-1.38-16.75q-.08-2.89-.12-5.94c0-2.39-.07-4.81-.09-7.16-.06-10.57.32-19.87.32-19.87h32.7l0,19.87v7.16l-.17,5.94s19.35,8.72,21.31,10.29S217.21,362.35,215.44,362.93Z" style="fill:#f7a9a0"></path><path d="M215.44,362.93c-1.77.59-52.36.44-54.28-.78-.73-.46-1.14-7.84-1.38-16.75q-.08-2.89-.12-5.94c0-2.39-.07-4.81-.09-7.16h33v7.16l-.17,5.94s19.35,8.72,21.31,10.29S217.21,362.35,215.44,362.93Z" style="fill:#ebebeb"></path><path d="M215.6,363c-1.16.38-22.7.46-38.39.14-3.63-.08-7-.18-9.63-.3-3.69-.17-6.17-.37-6.57-.62-.89-.58-1.32-11.4-1.52-22.81h33.1l-.17,6s19.44,8.77,21.43,10.35S217.37,362.41,215.6,363Z" style="fill:#FFC727"></path><path d="M215.6,363c-1.16.38-22.7.46-38.39.14-3.63-.08-7-.18-9.63-.3-3.69-.17-6.17-.37-6.57-.62-.89-.58-1.32-11.4-1.52-22.81h33.1l-.17,6s19.44,8.77,21.43,10.35S217.37,362.41,215.6,363Z" style="opacity:0.30000000000000004"></path><path d="M214.87,361c-8.53-.24-42.94-.38-51.38,0-.07,0-.07.05,0,.05,8.44.42,42.85.28,51.38.05C215.05,361.1,215.05,361,214.87,361Z" style="fill:#263238"></path><path d="M193.63,343.48c-3.36-.63-7.46-.13-10,2.26-.1.09,0,.23.14.19a47.26,47.26,0,0,1,9.87-2A.22.22,0,0,0,193.63,343.48Z" style="fill:#263238"></path><path d="M196,345c-3.35-.63-7.46-.13-10,2.25-.1.09,0,.23.15.2a47.26,47.26,0,0,1,9.87-2A.22.22,0,0,0,196,345Z" style="fill:#263238"></path><path d="M198.46,346.42c-3.35-.64-7.46-.13-10,2.25-.1.09,0,.23.14.2a46.87,46.87,0,0,1,9.88-2A.21.21,0,0,0,198.46,346.42Z" style="fill:#263238"></path><path d="M200.88,347.88c-3.35-.63-7.46-.13-10,2.25-.1.1,0,.24.14.2a47.4,47.4,0,0,1,9.87-2A.22.22,0,0,0,200.88,347.88Z" style="fill:#263238"></path><path d="M199.85,335.74c-1.32-1.82-3.78-1-5.18.17a17.92,17.92,0,0,0-5.19,7.67.09.09,0,0,0,.08.12c0,.25.24.52.52.42,2.78-1,5.87-1.76,8.25-3.6C199.72,339.44,201.09,337.46,199.85,335.74Zm-5.88,6c-1.35.53-2.72,1-4.05,1.58a52.61,52.61,0,0,1,3.13-4.42,20.12,20.12,0,0,1,1.78-1.91c1-.91,5-2.83,4.36.85C198.86,339.85,195.58,341.08,194,341.72Z" style="fill:#263238"></path><path d="M181,342.68c2.77,1.18,6,1.13,8.89,1.43.3,0,.45-.29.4-.54a.1.1,0,0,0,0-.14,18,18,0,0,0-6.94-6.13c-1.66-.79-4.24-1-5.06,1.13S179.34,342,181,342.68Zm-1.5-2.4c-1.51-3.41,2.81-2.54,4-1.91a18.35,18.35,0,0,1,2.21,1.41c1.47,1.05,2.77,2.3,4.13,3.49-1.44-.23-2.88-.34-4.32-.52C183.75,342.54,180.27,342.16,179.45,340.28Z" style="fill:#263238"></path><path d="M159.56,342.77c.22,10.1.65,18.93,1.45,19.44.4.26,2.88.46,6.57.63,2.68.12,6,.22,9.63.3,2.86.06,5.91.1,9,.14Z" style="opacity:0.1"></path><path d="M141.87,161.39s17.26,86.69,18.48,93.09c.28,1.45-1.89,85-1.89,85l37.76-.3s-1.42-73.39-3-86.18-21.09-91.57-21.09-91.57Z" style="fill:#37474f"></path><path d="M141.87,161.39s8.4,42.19,13.9,69.88l16.39-69.88Z" style="fill:#263238"></path><path d="M161.49,331.42c4.08-.33,8.19-.38,12.28-.4s8.11,0,12.16,0c2.32,0,4.65,0,7,.14.16,0,.15.19,0,.2-4.08.28-8.19.31-12.28.4s-8.11.14-12.16.14c-2.33,0-4.64-.06-7-.2C161.26,331.7,161.27,331.44,161.49,331.42Z" style="fill:#263238"></path><path d="M164.87,328.13c-.31-23.23-.45-48.39-.49-71.69a10.78,10.78,0,0,0-.17-2.47c-3.19-17.16-10-50.87-13.17-67.85L147.25,166l4.33,20c4.61,22.11,9.62,45.66,13.61,67.8a12,12,0,0,1,.17,2.63c0,23.32-.18,48.44-.49,71.69Z" style="fill:#263238"></path><path d="M175,363.11c-1.76.61-52.35,1-54.29-.24-.73-.45-1.21-7.82-1.54-16.73-.08-1.93-.13-3.91-.18-5.94-.07-2.39-.12-4.81-.16-7.16-.17-10.57.28-20,.28-20l32.54-.19.18,19.87.06,7.17-.11,5.93s19.43,8.53,21.41,10.09S176.73,362.52,175,363.11Z" style="fill:#f7a9a0"></path><path d="M175,363.11c-1.76.61-52.35,1-54.29-.24-.73-.45-1.21-7.82-1.54-16.73-.08-1.93-.13-3.91-.18-5.94-.07-2.39-.12-4.81-.16-7.16l33-.33.06,7.17-.11,5.93s19.43,8.53,21.41,10.09S176.73,362.52,175,363.11Z" style="fill:#ebebeb"></path><path d="M175.13,363.19c-1.15.39-22.7.68-38.39.51-3.63,0-7-.11-9.63-.2-3.69-.13-6.17-.31-6.58-.56-.89-.56-1.43-11.38-1.74-22.79l33.09-.33-.11,6s19.54,8.57,21.53,10.13S176.89,362.57,175.13,363.19Z" style="fill:#FFC727"></path><path d="M175.13,363.19c-1.15.39-22.7.68-38.39.51-3.63,0-7-.11-9.63-.2-3.69-.13-6.17-.31-6.58-.56-.89-.56-1.43-11.38-1.74-22.79l33.09-.33-.11,6s19.54,8.57,21.53,10.13S176.89,362.57,175.13,363.19Z" style="opacity:0.30000000000000004"></path><path d="M174.38,361.16c-8.53-.15-42.94,0-51.38.55-.07,0-.07.05,0,.06,8.45.33,42.86-.15,51.38-.47C174.56,361.29,174.56,361.16,174.38,361.16Z" style="fill:#263238"></path><path d="M153,343.89c-3.36-.61-7.46-.06-10,2.35-.1.09,0,.23.14.19a47.91,47.91,0,0,1,9.85-2.12A.21.21,0,0,0,153,343.89Z" style="fill:#263238"></path><path d="M155.4,345.33c-3.36-.6-7.46-.06-10,2.35-.1.09,0,.23.14.2a47.42,47.42,0,0,1,9.85-2.13A.21.21,0,0,0,155.4,345.33Z" style="fill:#263238"></path><path d="M157.83,346.77c-3.36-.6-7.46-.06-10,2.35-.1.1,0,.23.14.2a46.72,46.72,0,0,1,9.86-2.12A.22.22,0,0,0,157.83,346.77Z" style="fill:#263238"></path><path d="M160.26,348.21c-3.36-.6-7.46,0-10,2.35-.1.1,0,.24.15.2a46.63,46.63,0,0,1,9.85-2.12A.22.22,0,0,0,160.26,348.21Z" style="fill:#263238"></path><path d="M159.11,336.08c-1.34-1.8-3.79-1-5.18.22a17.88,17.88,0,0,0-5.11,7.72.09.09,0,0,0,.08.12.42.42,0,0,0,.53.42c2.76-1.05,5.85-1.82,8.21-3.69C159,339.79,160.36,337.79,159.11,336.08Zm-5.82,6c-1.34.55-2.71,1-4,1.63a52.54,52.54,0,0,1,3.08-4.45,19,19,0,0,1,1.77-1.93c1-.92,4.93-2.88,4.36.81C158.16,340.2,154.9,341.46,153.29,342.11Z" style="fill:#263238"></path><path d="M140.28,343.2c2.78,1.16,6,1.08,8.9,1.35a.42.42,0,0,0,.4-.55.08.08,0,0,0,0-.13,17.87,17.87,0,0,0-7-6.07c-1.66-.77-4.24-.91-5,1.19S138.66,342.53,140.28,343.2Zm-1.53-2.38c-1.53-3.4,2.79-2.57,4-1.95a19.63,19.63,0,0,1,2.22,1.39,53,53,0,0,1,4.17,3.45c-1.44-.22-2.89-.31-4.33-.48C143.08,343,139.6,342.7,138.75,340.82Z" style="fill:#263238"></path><path d="M153.53,340.35l-37.16.32s8.17-124.07,11-147.48A75.68,75.68,0,0,1,126,181.36c0-5.28,3.7-13.67,6-20h40.16s-2.15,18.55-6.76,30.11c0,0-3,1.54-8.72,4Z" style="fill:#37474f"></path><path d="M166.41,190.67A67,67,0,0,0,156,195.54a.12.12,0,0,0,.1.22c3.52-1.51,7.11-3,10.54-4.67A.23.23,0,0,0,166.41,190.67Z" style="fill:#263238"></path><path d="M167.53,166.51c0-.12-.22-.15-.22,0a117.83,117.83,0,0,1-.59,11.77c-.16,1.81-1.62,11.84-4.77,11.11-.53-.13-.8-.64-.88-1.44a12.47,12.47,0,0,1,.42-3.07c.35-2.1.63-4.21.81-6.33a57.24,57.24,0,0,0-.13-11.85.1.1,0,0,0-.2,0,109.34,109.34,0,0,1-1,16.37c-.39,2.6-1.71,6.53,1,6.93s4.58-6.17,4.91-8A59.76,59.76,0,0,0,167.53,166.51Z" style="fill:#263238"></path><path d="M162,189.64a16.8,16.8,0,0,0-.7,2.07,4.82,4.82,0,0,0-.3,1.71c0,.11.16.12.22.05a5.87,5.87,0,0,0,.73-1.66c.24-.65.49-1.28.71-1.93A.35.35,0,0,0,162,189.64Z" style="fill:#263238"></path><path d="M133.5,179.23c3-.3,6-.26,8.78-1.59s4.58-4,6-6.67a22.19,22.19,0,0,0,2-5.23c0-.08.14-.06.14,0a14.57,14.57,0,0,1-1.21,4.93,21.67,21.67,0,0,1-2.36,4.37,10.69,10.69,0,0,1-3.4,3.19,11.75,11.75,0,0,1-4.45,1.35,24.67,24.67,0,0,1-5.5,0A.17.17,0,0,1,133.5,179.23Z" style="fill:#263238"></path><path d="M120.63,332.39c3.83-.28,7.68-.27,11.52-.24s7.6.09,11.4.17c2.18.05,4.36.09,6.53.24.14,0,.13.19,0,.2-3.83.22-7.68.2-11.52.23s-7.6,0-11.4,0c-2.18,0-4.35-.11-6.52-.29A.14.14,0,1,1,120.63,332.39Z" style="fill:#263238"></path><path d="M134.59,163c-1.67,6.4-4,12.86-4.5,19.47.22,4,1,8,1.58,12-3,44.07-6.44,90.38-10.32,134.25,2.63-43.93,6.11-90.3,9.61-134.3a109.06,109.06,0,0,1-1.4-11.92c.7-6.69,3.18-13.05,5-19.48Z" style="fill:#263238"></path><path d="M156.86,126.64c16.68,6.66,48.87,4.11,50.91-3.89,1.41-5.55-.61-16.43-9.52-27.33-1.31-1.6-18.06,10.28-16.43,12.69a21.51,21.51,0,0,1,2.63,5.15c.18,1.12-17.83,3.23-25.27,4.11C146.16,118.91,152.22,124.79,156.86,126.64Z" style="fill:#f7a9a0"></path><path d="M181.82,108.11c2.32,3.1,4.28,6.28,6.4,9.51a22.77,22.77,0,0,1-6.4-9.51Z" style="fill:#263238"></path><path d="M169.78,131.89,178,114.4s-21.24.91-27.41,2.94c-6.95,2.29-4.26,5.34,1.92,8.52S169.78,131.89,169.78,131.89Z" style="fill:#FFC727"></path><path d="M152.51,125.86c6.19,3.19,17.27,6,17.27,6l5.87-12.48-29.15,1C146.35,122.07,148.8,124,152.51,125.86Z" style="opacity:0.1"></path><path d="M132,161.36l40.13,0-2.07-15.15a10.6,10.6,0,0,0,1.13-8.16c-1.2-5.33-13.65-19.62-14.62-20.27-3.88-2.58-9.46-1.91-11.69.86C134.59,131.54,132,161.36,132,161.36Z" style="fill:#FFC727"></path><path d="M132,161.36s1.38-11.88,2.84-17.76c0,0,6.64-1.44,9.58-4.81s3-11.26,3-11.26l16.93-1.81S172,137,172.19,140.3a9.45,9.45,0,0,1-2.1,5.94l2.07,15.15Z" style="fill:#37474f"></path><path d="M154,146.51a38,38,0,0,1,6.4-.49c1.08,0,2.14.11,3.22.21.53.06,1.07.09,1.6.12a6.13,6.13,0,0,0,1.66-.08c.05,0,.07.07,0,.08a9.13,9.13,0,0,1-1.52.38,8.67,8.67,0,0,1-1.53.08c-1.09,0-2.18-.09-3.26-.11-2.2-.06-4.39-.11-6.57,0C154,146.72,153.93,146.53,154,146.51Z" style="fill:#263238"></path><path d="M149.54,150a42,42,0,0,1,5-1.67,24.7,24.7,0,0,1,2.59-.51l1.25-.17c.46-.06.93,0,1.39-.1.05,0,.07.07,0,.08-.43.08-.84.23-1.27.34l-1.28.3c-.85.21-1.7.43-2.56.62-1.71.4-3.41.81-5.11,1.27C149.49,150.19,149.46,150,149.54,150Z" style="fill:#263238"></path><path d="M164.41,125.72s-4.38-7.39-8.81-8.86h-1s4.53,2.4,8,9Z" style="fill:#37474f"></path><path d="M147.33,125.45c-2.84,4.12-17,20.62-17.41,22.22-.23.9,3.27,4,3.23,4.67-.17,2.61-7.66,23.11-10,21.4-3-2.25-14-20.71-12.35-28S141.38,119.91,146,118.3,150.14,121.39,147.33,125.45Z" style="fill:#f7a9a0"></path><path d="M132.75,181c2.2-1.57-.91-3.27-.91-3.27s5.07,1.36,6.71-1.14-2.25-4.32-2.52-4.47c.27.07,5,1.21,6.35-1.47s-2.73-4.06-3-4.14c.27,0,3.9-.25,4.5-2.53,1-3.91-9.41-4.1-11.72-6.43,0,0,.88-5.15,1-5.3a5.92,5.92,0,0,1-2.91,2.59c-2.24.7-4.26,1.11-5.15,2.22a3,3,0,0,0-.25,3.53s-2.85-.26-4,1.81c-.59,1.07.58,3,.58,3a3.54,3.54,0,0,0-3.21,1.8c-.74,1.52.55,3.19.55,3.19s-2.25.92-2.5,2.72C115.69,176.75,128,184.4,132.75,181Z" style="fill:#f7a9a0"></path><path d="M118.88,170.7s-.09,0,0,.05A25.14,25.14,0,0,0,132,177.88c.16,0,.27-.22.1-.29A51.55,51.55,0,0,1,118.88,170.7Z" style="fill:#263238"></path><path d="M121.3,165.4s-.1,0-.06.08a23.55,23.55,0,0,0,14.85,6.88c.2,0,.38-.18.16-.2C132.45,171.68,125.06,168.2,121.3,165.4Z" style="fill:#263238"></path><path d="M139.79,166.44c-5.49-.49-10.26-2.69-14.84-5.65-.06,0-.11.05-.07.09,1.85,2.06,5,3.65,7.49,4.67a14.48,14.48,0,0,0,7.4,1.08C139.87,166.62,139.9,166.45,139.79,166.44Z" style="fill:#263238"></path><path d="M118.57,170.39a3.48,3.48,0,0,1-.9-3.54,2.63,2.63,0,0,1,1.25-1.34,4.51,4.51,0,0,1,2.13-.25,3.43,3.43,0,0,1-.16-3.86,2.58,2.58,0,0,1,1.64-.93,8.36,8.36,0,0,1,2.23,0,3,3,0,0,1-.71-2.63,3.27,3.27,0,0,1,2-2.25,15.37,15.37,0,0,1,3.51-.91,8.41,8.41,0,0,0,1.79-.54,3.47,3.47,0,0,0,1.47-1.38c.07-.1.06,0,0,.09a4.1,4.1,0,0,1-.86,1.08,5.2,5.2,0,0,1-1.2.82,23.92,23.92,0,0,1-3.33,1.07,4.7,4.7,0,0,0-2.48,1.73,2.78,2.78,0,0,0,0,2.95s0,.11-.08.11a8.1,8.1,0,0,0-2,.27,2.8,2.8,0,0,0-1.37.9,3.59,3.59,0,0,0-.09,3.59,6.15,6.15,0,0,0-2.07.59,2.62,2.62,0,0,0-1,1.12,3.08,3.08,0,0,0,.41,3.23.09.09,0,0,1,0,.05h0v0l0,0h0s-.71.32-.75.32,0,0,0,0A6.43,6.43,0,0,1,118.57,170.39Z" style="fill:#263238"></path><path d="M137.71,140.7l-16.92-9.37s17.76-11.7,24-13.66c7-2.22,6.58,1.83,3.43,8S137.71,140.7,137.71,140.7Z" style="fill:#FFC727"></path><path d="M120.79,131.33l16.92,9.37s7.32-8.8,10.46-15,3.54-10.25-3.43-8c-.35.12-.74.26-1.17.43l-.52.22h0a88.35,88.35,0,0,0-8.71,4.6l-.17.1c-2.53,1.48-5.08,3-7.26,4.41-.32.19-.62.39-.92.58C122.93,129.92,120.79,131.33,120.79,131.33Z" style="fill:#FFC727"></path><path d="M120.79,131.33l16.92,9.37s7.32-8.8,10.46-15,3.54-10.25-3.43-8c-.35.12-.74.26-1.17.43l-.52.22h0a88.35,88.35,0,0,0-8.71,4.6l-.17.1c-2.53,1.48-5.08,3-7.26,4.41-.32.19-.62.39-.92.58C122.93,129.92,120.79,131.33,120.79,131.33Z" style="fill:#FFC727"></path><path d="M136,139.77c.58.26,1.16.54,1.73.81l-.17,0c2.28-3.16,5.7-7.58,8.11-10.71a67.64,67.64,0,0,1-8,11c-.56-.37-1.14-.72-1.69-1.11Z" style="fill:#263238"></path><path d="M145.55,131.47a2.47,2.47,0,0,1-1.93,1.54,3.72,3.72,0,0,1,1.93-1.54Z" style="fill:#263238"></path><polygon points="147.48 127.53 145.16 117.05 146.29 116.86 149.46 127.32 147.48 127.53" style="fill:#37474f"></polygon><path d="M149.15,118.62c.19.83,4.13,6.23,7.93,6.06,1.23-.05,1.23-6.81,1.23-6.81l.11-.5,1.59-7-8.19-5.29-1.19-.7s-.31,1.94-.67,4.36c0,.11,0,.22-.05.34s0,.26-.06.39c-.06.36-.12.73-.17,1.1s-.08.55-.11.85-.07.58-.1.88A44.76,44.76,0,0,0,149.15,118.62Z" style="fill:#f7a9a0"></path><path d="M150,108.75a14.39,14.39,0,0,0,8.46,8.62l1.59-7-8.19-5.29-1.19-.7S150.32,106.33,150,108.75Z" style="fill:#263238"></path><path d="M148.83,103c-2.63.06-8.59,3.4-9.92,7.24s.17,9.18,1.4,9.43,5.87-1.31,8.68-3.9S150.12,103,148.83,103Z" style="fill:#263238"></path><path d="M148.83,103c.08,0,.06-.18,0-.16a23.46,23.46,0,0,0-6.27,2.89,13,13,0,0,0-4.21,3.36,6,6,0,0,0-1,4.93,12.3,12.3,0,0,0,2.6,5.66s.13,0,.1,0c-1.89-3.39-3.86-7.6-.86-11C141.66,105.86,145.52,104.66,148.83,103Z" style="fill:#263238"></path><path d="M140.44,118.67c-2.11.81-6.75,6.34-6.69,10.71s4.93,9.66,6.1,9.85,5-5,5.87-8.26c.57-2.21-.82-4.27-1.84-6.42C142.36,121.39,140.76,118.54,140.44,118.67Z" style="fill:#263238"></path><path d="M146.89,130.13c-.38-4.38-3.79-8-6.16-11.43,0,0-.09,0-.07,0,1.69,3.46,4.69,6.2,5.69,10a7.2,7.2,0,0,1-1.18,6.53,21.46,21.46,0,0,1-4.94,3.78c-.11.07,0,.23.13.16C143.8,137.08,147.29,134.64,146.89,130.13Z" style="fill:#263238"></path><path d="M140.06,119.17c.1-.08,0-.23-.11-.15-2.74,2.22-5.94,5.27-6.83,8.81-1,3.84,1.71,7,4,9.62,0,0,.09,0,.06,0-2.34-2.72-4.95-6.18-3.72-10C134.57,124.15,137.49,121.32,140.06,119.17Z" style="fill:#263238"></path><path d="M140.07,139.05a9.56,9.56,0,0,1,5.1,5.62c1.64,5,3.4,3.65,9.15,4.14,4.87.41,6.68,5.5,4.59,8.48a3.7,3.7,0,0,0-2.46-4.55c-4.07-1.31-12.09,4-17.23-.66C132.58,146.05,140.07,139.05,140.07,139.05Z" style="fill:#263238"></path><path d="M142.43,141.09c-.07-.06,0-.18.1-.13a7.45,7.45,0,0,1,1.87,2c.65,1,.85,2.17,1.42,3.2,1.44,2.63,4.79,2,7.25,1.8,3.31-.28,6.25,1.31,7,4.72,0,0-.07.07-.08,0a5.91,5.91,0,0,0-4.24-4.4c-2-.51-4.12.26-6.18.09a4.65,4.65,0,0,1-3.68-1.71,12,12,0,0,1-1-2.23A8.23,8.23,0,0,0,142.43,141.09Z" style="fill:#263238"></path><path d="M139.31,139.8s.08,0,.05,0c-1.57,2.11-3.24,4.25-3.36,7a7.9,7.9,0,0,0,4.34,7c2.84,1.55,5.4.2,8.15-.79a11.82,11.82,0,0,1,6.15-.9c.06,0,0,.12,0,.12-3.35-.25-6.16,1.17-9.26,2.18a6.46,6.46,0,0,1-6.69-1.51C134.29,149.08,135.76,143.66,139.31,139.8Z" style="fill:#263238"></path><path d="M146.36,101.21a.89.89,0,0,0-1.08,1.42C146.18,103.34,147.27,101.92,146.36,101.21Z" style="fill:#FFC727"></path><path d="M147.39,102.52c-.9-.71-2,.71-1.08,1.42A.89.89,0,0,0,147.39,102.52Z" style="fill:#FFC727"></path><path d="M148.64,103.63c-.9-.71-2,.71-1.08,1.42A.89.89,0,0,0,148.64,103.63Z" style="fill:#FFC727"></path><path d="M150,104.55a.9.9,0,0,0-1.09,1.42A.9.9,0,0,0,150,104.55Z" style="fill:#FFC727"></path><path d="M151.52,105.23a.89.89,0,0,0-1.08,1.42C151.34,107.36,152.42,105.94,151.52,105.23Z" style="fill:#FFC727"></path><path d="M153.08,105.62A.89.89,0,0,0,152,107C152.9,107.75,154,106.33,153.08,105.62Z" style="fill:#FFC727"></path><path d="M165.37,83.64s-7.35-5.2-11.54-5.32c-2.26-.06-3.68,2.3-4.65,2.7s-3.72.33-5.53,1.93-1.77,10.63.25,14.63Z" style="fill:#FFC727"></path><path d="M165.37,83.64s-7.35-5.2-11.54-5.32c-2.26-.06-3.68,2.3-4.65,2.7s-3.72.33-5.53,1.93-1.77,10.63.25,14.63Z" style="fill:#fff;opacity:0.4"></path><path d="M158.79,100.2c6.69-3.47,15.85-12.6,13.6-16.28s-13.31-2.59-21.49,2.73C142.5,92.13,138.3,99.06,140,102,142.4,106.05,151.62,103.93,158.79,100.2Z" style="fill:#FFC727"></path><path d="M158.79,100.2c6.69-3.47,15.85-12.6,13.6-16.28s-13.31-2.59-21.49,2.73C142.5,92.13,138.3,99.06,140,102,142.4,106.05,151.62,103.93,158.79,100.2Z" style="fill:#fff;opacity:0.6000000000000001"></path><path d="M142,100.93a11.93,11.93,0,0,1-.11-1.56l.86-1.08c-.05.41-.08.83-.09,1.25,0,.07.13.09.14,0,.07-.52.13-1,.21-1.55a9.63,9.63,0,0,1,1.16-1.14s0,0,0,0c-.36.29-.73.59-1.08.91a7.93,7.93,0,0,1,.46-1.65,10.34,10.34,0,0,1,1.45-.73s0-.06,0,0a10.29,10.29,0,0,0-1.36.61,5.7,5.7,0,0,1,.37-.69s0,0,0,0a4.92,4.92,0,0,0-.5.81,10.36,10.36,0,0,0-1.13.73,9.24,9.24,0,0,1,.41-1.06s0-.06,0,0a7.64,7.64,0,0,0-.58,1.27,7.49,7.49,0,0,0-1.54,1.64.06.06,0,0,0,.09.07A14.37,14.37,0,0,1,142,97.27a6.67,6.67,0,0,0-.31,2,6.24,6.24,0,0,0-.66,1.08c0,.06,0,.13.1.07.19-.24.38-.48.56-.73a6.43,6.43,0,0,0,.21,1.29C141.88,101.06,142,101,142,100.93Zm-.1-2a9,9,0,0,1,.29-1.86,9.27,9.27,0,0,1,1.13-.85A6.55,6.55,0,0,0,142.8,98,10.22,10.22,0,0,0,141.9,98.93Z" style="fill:#FFC727"></path><path d="M168.58,84.45a6.42,6.42,0,0,1,1.13.43,3.1,3.1,0,0,0-.82.65.06.06,0,0,0,.07.09c.33-.19.63-.43.95-.63a4.23,4.23,0,0,1,.77.5s.07,0,0,0a5.85,5.85,0,0,0-.69-.54l.05,0a6,6,0,0,1,.81-.39,6.21,6.21,0,0,1,.66.69s.07,0,0,0a6.42,6.42,0,0,0-.58-.69l.42-.16c.05,0,0-.08,0-.07l-.5.14a6.3,6.3,0,0,0-.68-.58,5.57,5.57,0,0,1,1.11-.11s0,0,0,0a5,5,0,0,0-1.28,0,4.47,4.47,0,0,0-1.88-.74.07.07,0,0,0,0,.13,7.75,7.75,0,0,1,1.62.66,4.07,4.07,0,0,0-1.27.48,4.15,4.15,0,0,0-1.23-.15.07.07,0,0,0,0,.14,9.6,9.6,0,0,1,1,.17,3.6,3.6,0,0,0-.65.58s0,.14.07.1A10.74,10.74,0,0,1,168.58,84.45Zm1.29.34a5.22,5.22,0,0,0-1-.49,5.42,5.42,0,0,1,1.15-.46,6.26,6.26,0,0,1,.79.56A7,7,0,0,0,169.87,84.79Z" style="fill:#FFC727"></path><path d="M169.92,100.13c.42,12.57-7.06,14.24-9.77,14.32-2.46.08-10.84,0-12.56-12.42s4-16.62,9.61-17.1S169.5,87.57,169.92,100.13Z" style="fill:#f7a9a0"></path><path d="M167.38,98.82a8.5,8.5,0,0,0-.81-.38,1.48,1.48,0,0,0-.89-.22.46.46,0,0,0-.34.45,1.14,1.14,0,0,0,.74.88,1.65,1.65,0,0,0,1.19.15A.49.49,0,0,0,167.38,98.82Z" style="fill:#263238"></path><path d="M159.73,98.28a8.38,8.38,0,0,1-.87.18,1.38,1.38,0,0,1-.92,0,.45.45,0,0,1-.22-.51,1.1,1.1,0,0,1,.91-.69,1.64,1.64,0,0,1,1.19.11A.49.49,0,0,1,159.73,98.28Z" style="fill:#263238"></path><path d="M160.13,101s-.07,0-.07.07c0,.88-.16,1.88-1,2.14,0,0,0,0,0,0C160.07,103.14,160.27,101.81,160.13,101Z" style="fill:#263238"></path><path d="M159.39,100c-1.4-.17-1.63,2.65-.33,2.8S160.56,100.17,159.39,100Z" style="fill:#263238"></path><path d="M158.82,100.14c-.26.14-.52.4-.82.41s-.58-.31-.78-.61c0,0-.05,0-.05,0,0,.54.11,1.11.68,1.23s.94-.33,1.12-.86C159,100.24,158.93,100.09,158.82,100.14Z" style="fill:#263238"></path><path d="M165.26,100.79s.07,0,.06.08c-.1.87-.07,1.89.69,2.24,0,0,0,.06,0,0C165.05,102.94,165,101.6,165.26,100.79Z" style="fill:#263238"></path><path d="M166.12,100c1.41,0,1.28,2.83,0,2.82S164.94,99.94,166.12,100Z" style="fill:#263238"></path><path d="M166.7,100.16c.21.16.42.44.69.47s.55-.26.76-.54c0,0,0,0,0,0,0,.54-.21,1.1-.74,1.18s-.8-.41-.9-1C166.53,100.25,166.61,100.1,166.7,100.16Z" style="fill:#263238"></path><path d="M159.51,108c.18.22.35.53.66.6a2.25,2.25,0,0,0,1-.11s.06,0,0,.05a1.17,1.17,0,0,1-1.16.34.93.93,0,0,1-.59-.86S159.48,108,159.51,108Z" style="fill:#263238"></path><path d="M164,104.68s.09,1.31.05,1.93a12.93,12.93,0,0,0-3.59.28c-.27.07-.25-.16.06-.32a5.25,5.25,0,0,1,3-.53c.05-.17-.18-2-.09-2a5.77,5.77,0,0,1,1.38.41c-.12-2.74-.67-5.45-.74-8.18,0-.1.14-.12.16,0a45.2,45.2,0,0,1,1.18,8.78C165.45,105.34,164.22,104.8,164,104.68Z" style="fill:#263238"></path><path d="M162.53,106.59s-.69,1.44-1.62,1.51-1.33-1.23-.12-1.68A3.21,3.21,0,0,1,162.53,106.59Z" style="fill:#263238"></path><path d="M162,107.38a1.75,1.75,0,0,1-1.11.72.76.76,0,0,1-.92-.7h0a.08.08,0,0,1,0,0C161.12,106.85,161.72,107.06,162,107.38Z" style="fill:#ff99ba"></path><path d="M148.59,102.34c2.17.55,3.36-4.43,3.36-4.43s9.59-.44,11.34-8a16.42,16.42,0,0,0,6.4,7.48s-.21-9.28-6.66-11.73A11.34,11.34,0,0,0,150.23,88C144.28,94,147.13,102,148.59,102.34Z" style="fill:#263238"></path><path d="M163.39,89.35a8.48,8.48,0,0,1-.85,3.45,8.8,8.8,0,0,1-2.16,2.87c-.21.21-.48.37-.71.56l-.37.26-.39.23-.79.43-.84.32-.42.16-.43.11-.87.21c-.59.09-1.18.15-1.76.2.57-.17,1.14-.28,1.7-.45l.82-.29.41-.14c.14,0,.27-.12.4-.18l.78-.37c.25-.13.49-.29.74-.44l.37-.22.34-.26c.22-.18.47-.33.67-.53A10.65,10.65,0,0,0,162.9,91,10.91,10.91,0,0,0,163.39,89.35Z" style="fill:#263238"></path><path d="M150.42,102.14s-2.53-4.07-4.36-3.19-.07,6.68,2,7.56a2.13,2.13,0,0,0,2.91-1Z" style="fill:#f7a9a0"></path><path d="M146.6,100.6s0,0,0,.06a5.36,5.36,0,0,1,2.59,3.5,1.17,1.17,0,0,0-1.73-.41s0,.08,0,.08a1.31,1.31,0,0,1,1.42.53,6.82,6.82,0,0,1,.62,1.2c.06.13.3.08.26-.08v0C149.91,103.58,148.6,100.9,146.6,100.6Z" style="fill:#263238"></path><path d="M145.21,100.25c2.38-3.49,10.1-13,20.82-13.43a.18.18,0,0,0,.07,0,.13.13,0,0,0,.06-.23c-2-1.57-4.31-3.06-6.92-3s-5.5,1.55-7.56,2.82c-2.87,1.78-4.23,3-5.52,5.35C144.66,94.4,145,100.53,145.21,100.25Z" style="fill:#FFC727"></path><g style="opacity:0.6000000000000001"><path d="M145.21,100.25c2.38-3.49,10.1-13,20.82-13.43a.18.18,0,0,0,.07,0,.13.13,0,0,0,.06-.23c-2-1.57-4.31-3.06-6.92-3s-5.5,1.55-7.56,2.82c-2.87,1.78-4.23,3-5.52,5.35C144.66,94.4,145,100.53,145.21,100.25Z" style="fill:#fff"></path></g><path d="M144.57,101.26a33.54,33.54,0,0,1,10.79-11.21,27.36,27.36,0,0,1,13-3.78,0,0,0,0,1,0,.08c-4.41.84-8.74,1.66-12.66,4-4.5,2.68-7.92,6.89-10.92,11.08C144.72,101.57,144.47,101.43,144.57,101.26Z" style="fill:#FFC727"></path><path d="M198.27,95.45s-9.47-10.71-16.93-13.67c-3.12-1.24-17.19-3.47-17.84-.09-.6,3.06,11.69,3.6,11.69,3.6s-12.35-1.64-12.39,2.18,13.93,2.58,13.93,2.58-12.73-1.4-12.15,2.54c.45,3,13.16,2.58,13.16,2.58s-11-1.13-10.63,2c.36,3.41,12.12,3.77,12.12,3.77.59,5.74,2.64,8.52,5.84,10.16C185.84,111.44,198.27,95.45,198.27,95.45Z" style="fill:#f7a9a0"></path><path d="M179.5,85.59c-1.44-.25-2.9-.51-4.36-.62s-2.93-.18-4.4-.16a25,25,0,0,0-5.69.62,53.65,53.65,0,0,1,10.07-.06c1.46.12,2.92.16,4.38.27C179.54,85.65,179.54,85.59,179.5,85.59Z" style="fill:#263238"></path><path d="M179.18,90.87c-1.86-.23-3.69-.53-5.56-.68s-3.64-.13-5.5-.16c-.15,0-.1.08,0,.09,1.87.09,3.58.33,5.44.45s3.73.16,5.58.35A0,0,0,0,0,179.18,90.87Z" style="fill:#263238"></path><path d="M179.72,95.46a41.11,41.11,0,0,0-8.59-.4c-.14,0-.07.1.08.1,2.85.08,5.1.12,8.49.39C179.75,95.56,179.78,95.47,179.72,95.46Z" style="fill:#263238"></path><path d="M162.8,87.47c-.25,2.46,4.8,2.4,6.46,2.66l-1.42.23c-4.88.77-3.28,3.65.67,4.07,1,.17,2,.27,3,.35v.46c-1.73.06-6,.6-3.56,3.05a6.18,6.18,0,0,0,1.93,1.15c-1.3-.4-3.49-1.47-2.75-3.17C168.23,95,170,95,171.5,94.78v.46c-2.06-.18-4.18-.2-6.05-1.25a2.06,2.06,0,0,1-1.06-2.18c.47-1.39,2.21-1.67,3.42-1.83v.38c-1.57-.24-5.36-.66-5-2.89Z" style="fill:#263238"></path></g></svg>
