<svg xmlns="http://www.w3.org/2000/svg" viewBox="0 0 500 500"><g id="freepik--background-complete--inject-20"><rect y="382.4" width="500" height="0.25" style="fill:#ebebeb"></rect><rect x="416.78" y="398.49" width="33.12" height="0.25" style="fill:#ebebeb"></rect><rect x="322.53" y="401.21" width="8.69" height="0.25" style="fill:#ebebeb"></rect><rect x="396.59" y="389.21" width="19.19" height="0.25" style="fill:#ebebeb"></rect><rect x="52.46" y="390.89" width="43.19" height="0.25" style="fill:#ebebeb"></rect><rect x="104.56" y="390.89" width="6.33" height="0.25" style="fill:#ebebeb"></rect><rect x="131.47" y="395.11" width="93.68" height="0.25" style="fill:#ebebeb"></rect><path d="M237,337.8H43.91a5.71,5.71,0,0,1-5.7-5.71V60.66A5.71,5.71,0,0,1,43.91,55H237a5.71,5.71,0,0,1,5.71,5.71V332.09A5.71,5.71,0,0,1,237,337.8ZM43.91,55.2a5.46,5.46,0,0,0-5.45,5.46V332.09a5.46,5.46,0,0,0,5.45,5.46H237a5.47,5.47,0,0,0,5.46-5.46V60.66A5.47,5.47,0,0,0,237,55.2Z" style="fill:#ebebeb"></path><path d="M453.31,337.8H260.21a5.72,5.72,0,0,1-5.71-5.71V60.66A5.72,5.72,0,0,1,260.21,55h193.1A5.71,5.71,0,0,1,459,60.66V332.09A5.71,5.71,0,0,1,453.31,337.8ZM260.21,55.2a5.47,5.47,0,0,0-5.46,5.46V332.09a5.47,5.47,0,0,0,5.46,5.46h193.1a5.47,5.47,0,0,0,5.46-5.46V60.66a5.47,5.47,0,0,0-5.46-5.46Z" style="fill:#ebebeb"></path><path d="M391.26,349.48c-6.8-7-8.91-8.69-14.46-21.21s-13.19-3.1-17.26-19-8.88-9.22-13.76-19.72-3-6.39-7.26-13.73-15.07-10.88-18.25-16.35-.2-8.06-5.87-9.82-5.76-6.18-11.83-.91-9.66,4.47-11.49,11.27,1.57,3.93-4.58,9.65-8.13,8.52-10.2,12-2.08,5.7-5.7,10.73-.82,2-6.71,9.76-5.89,7.82-10.3,15.46,6-.67-6.14,10.45c-1.36,1.23-2.52,2.24-3.54,3.08-.81-1.15-1.74-3.15-3.19-7.29-4.45-12.72.12-7.35-5.21-15.72s-3.25-5.11-7.95-11-9.93-8.68-13.41-13-.23-6.44-6.43-7.85-6.31-4.93-12.95-.72-10.58,3.57-12.58,9,1.72,3.14-5,7.7-8.89,6.8-11.16,9.6-2.28,4.54-6.24,8.55-.9,1.6-7.35,7.8S146,324.4,141.14,330.5s6.63-.53-6.72,8.33-10.35,3.5-15.2,12.85-4.13,8-6,11.56-1.61,1.28-3,5.76a143.17,143.17,0,0,0-2.8,14.2H410.67S398.06,356.49,391.26,349.48Z" style="fill:#ebebeb"></path><path d="M312.62,119.05s-5-7.8-16.29-6.19c-9.32,1.33-12.13-11.68-21.95-11.73-10.22-.06-7.89,9.09-20.46,10.27-8.86.84-15.83-8.65-22,7.65Z" style="fill:#f0f0f0"></path><path d="M154.38,186.56s-5-7.8-16.29-6.19c-9.32,1.33-12.13-11.68-22-11.73-10.21,0-7.88,9.09-20.46,10.27-8.86.84-15.82-8.64-22,7.65Z" style="fill:#f0f0f0"></path><path d="M382.88,193.81c.72-2.38,3.38-9.45,10.67-10.95,6.69-1.39,13,3.44,16.83,5.82s7.19,1.83,14,.06c4.61-1.2,9.37,2.72,10.62,5.07Z" style="fill:#f0f0f0"></path><polygon points="83.64 383.2 93.73 330.61 85.5 289.49 67.83 273.69 85.5 284.96 89.95 255.39 74.98 233.39 64.47 229.77 74.98 231.07 74.64 211.76 77.61 233.39 92.29 254.07 102.25 242.13 101.57 228.69 105.05 242.13 114.42 240.59 124.76 223.46 118.35 216.73 124.76 220.88 130.91 210.93 127.22 223.34 116.82 242.13 103.87 246.18 94.49 257.2 92.29 284.96 97.69 294.83 123.88 277.06 116.82 266.23 109.56 264.36 116.82 263.68 116.82 251.05 119.53 263.68 127.22 273.69 136.17 252.25 127.22 242.13 138.25 249.55 150.63 242.13 140.19 251.69 130.91 275.45 150.18 273.69 130.3 279.27 106.38 299.46 114.42 332.78 115.45 358.45 123.88 383.2 83.64 383.2" style="fill:#e0e0e0"></polygon><polygon points="234.32 383.2 239.94 347.08 234.32 292.73 235.89 273.69 221.02 257.2 210.58 256.38 199.15 245.33 190.59 246.18 197.89 244.25 195.94 236.29 199.37 243.19 212.88 254.07 221.27 254.07 221.27 234.8 216.66 228.69 222.55 233.39 228.43 226.5 223.86 234.8 225.1 254.07 237.52 266.72 256.51 250 243.28 231.07 239.94 214.28 233.49 211.21 239.99 212.14 240.79 206.13 242.21 214.14 245.58 229.77 259.5 245.33 273.19 238.56 276.19 223.61 267.75 216.31 276.19 221.25 285.62 213.07 278.1 223.34 277.3 239.7 264.46 248.85 245.58 271.02 245.58 292.73 248.97 311.6 265.2 294.48 260.85 284.96 267.75 292.73 281.4 286.57 285.62 277.06 283.79 289.06 268.82 297.81 251.98 322.55 256.51 345.55 263.09 383.2 234.32 383.2" style="fill:#e0e0e0"></polygon></g><g id="freepik--Sun--inject-20"><polygon points="127.51 87.72 128.7 88.92 129.98 87.82 131.06 89.12 132.44 88.13 133.41 89.52 134.86 88.64 135.71 90.11 137.23 89.36 137.95 90.89 139.53 90.27 140.12 91.86 141.75 91.37 142.21 93 143.86 92.65 144.19 94.32 145.87 94.11 146.05 95.79 147.74 95.72 147.78 97.42 149.47 97.49 149.37 99.19 151.05 99.4 150.81 101.08 152.46 101.43 152.08 103.08 153.7 103.58 153.18 105.19 154.75 105.82 154.1 107.38 155.62 108.14 154.84 109.64 156.28 110.52 155.38 111.95 156.75 112.95 155.73 114.31 157 115.42 155.88 116.68 157.06 117.89 155.82 119.05 156.9 120.36 155.58 121.42 156.54 122.81 155.13 123.75 155.97 125.22 154.49 126.04 155.21 127.57 153.66 128.27 154.25 129.85 152.65 130.42 153.1 132.05 151.46 132.47 151.78 134.14 150.11 134.43 150.28 136.11 148.59 136.26 148.62 137.95 146.93 137.95 146.82 139.64 145.13 139.51 144.88 141.18 143.21 140.9 142.82 142.55 141.18 142.13 140.65 143.74 139.05 143.19 138.39 144.75 136.84 144.06 136.05 145.56 134.56 144.75 133.65 146.18 132.24 145.25 131.21 146.59 129.88 145.54 128.75 146.8 127.51 145.64 126.27 146.8 125.13 145.54 123.8 146.59 122.78 145.25 121.36 146.18 120.45 144.75 118.97 145.56 118.18 144.06 116.63 144.75 115.97 143.19 114.37 143.74 113.84 142.13 112.2 142.55 111.81 140.9 110.14 141.18 109.88 139.51 108.2 139.64 108.08 137.95 106.39 137.95 106.42 136.26 104.73 136.11 104.91 134.43 103.24 134.14 103.55 132.47 101.91 132.05 102.36 130.42 100.77 129.85 101.35 128.27 99.81 127.57 100.52 126.04 99.04 125.22 99.88 123.75 98.48 122.81 99.44 121.42 98.11 120.36 99.19 119.05 97.96 117.89 99.14 116.68 98.01 115.42 99.29 114.31 98.27 112.95 99.64 111.95 98.73 110.52 100.18 109.64 99.4 108.14 100.91 107.38 100.26 105.82 101.83 105.19 101.32 103.58 102.94 103.08 102.55 101.43 104.21 101.08 103.97 99.4 105.65 99.19 105.54 97.49 107.24 97.42 107.28 95.72 108.97 95.79 109.15 94.11 110.83 94.32 111.15 92.65 112.81 93 113.27 91.37 114.89 91.86 115.49 90.27 117.06 90.89 117.79 89.36 119.31 90.11 120.16 88.64 121.61 89.52 122.58 88.13 123.95 89.12 125.03 87.82 126.32 88.92 127.51 87.72" style="fill:#407BFF"></polygon><polygon points="127.51 87.72 128.7 88.92 129.98 87.82 131.06 89.12 132.44 88.13 133.41 89.52 134.86 88.64 135.71 90.11 137.23 89.36 137.95 90.89 139.53 90.27 140.12 91.86 141.75 91.37 142.21 93 143.86 92.65 144.19 94.32 145.87 94.11 146.05 95.79 147.74 95.72 147.78 97.42 149.47 97.49 149.37 99.19 151.05 99.4 150.81 101.08 152.46 101.43 152.08 103.08 153.7 103.58 153.18 105.19 154.75 105.82 154.1 107.38 155.62 108.14 154.84 109.64 156.28 110.52 155.38 111.95 156.75 112.95 155.73 114.31 157 115.42 155.88 116.68 157.06 117.89 155.82 119.05 156.9 120.36 155.58 121.42 156.54 122.81 155.13 123.75 155.97 125.22 154.49 126.04 155.21 127.57 153.66 128.27 154.25 129.85 152.65 130.42 153.1 132.05 151.46 132.47 151.78 134.14 150.11 134.43 150.28 136.11 148.59 136.26 148.62 137.95 146.93 137.95 146.82 139.64 145.13 139.51 144.88 141.18 143.21 140.9 142.82 142.55 141.18 142.13 140.65 143.74 139.05 143.19 138.39 144.75 136.84 144.06 136.05 145.56 134.56 144.75 133.65 146.18 132.24 145.25 131.21 146.59 129.88 145.54 128.75 146.8 127.51 145.64 126.27 146.8 125.13 145.54 123.8 146.59 122.78 145.25 121.36 146.18 120.45 144.75 118.97 145.56 118.18 144.06 116.63 144.75 115.97 143.19 114.37 143.74 113.84 142.13 112.2 142.55 111.81 140.9 110.14 141.18 109.88 139.51 108.2 139.64 108.08 137.95 106.39 137.95 106.42 136.26 104.73 136.11 104.91 134.43 103.24 134.14 103.55 132.47 101.91 132.05 102.36 130.42 100.77 129.85 101.35 128.27 99.81 127.57 100.52 126.04 99.04 125.22 99.88 123.75 98.48 122.81 99.44 121.42 98.11 120.36 99.19 119.05 97.96 117.89 99.14 116.68 98.01 115.42 99.29 114.31 98.27 112.95 99.64 111.95 98.73 110.52 100.18 109.64 99.4 108.14 100.91 107.38 100.26 105.82 101.83 105.19 101.32 103.58 102.94 103.08 102.55 101.43 104.21 101.08 103.97 99.4 105.65 99.19 105.54 97.49 107.24 97.42 107.28 95.72 108.97 95.79 109.15 94.11 110.83 94.32 111.15 92.65 112.81 93 113.27 91.37 114.89 91.86 115.49 90.27 117.06 90.89 117.79 89.36 119.31 90.11 120.16 88.64 121.61 89.52 122.58 88.13 123.95 89.12 125.03 87.82 126.32 88.92 127.51 87.72" style="fill:#fff;opacity:0.7000000000000001"></polygon><circle cx="127.51" cy="117.26" r="21.36" transform="translate(-29.65 190.13) rotate(-67.48)" style="fill:#407BFF"></circle><circle cx="127.51" cy="117.26" r="21.36" transform="translate(-29.65 190.13) rotate(-67.48)" style="fill:#fff;opacity:0.85"></circle><circle cx="127.51" cy="117.26" r="19.25" transform="translate(-18.32 210.76) rotate(-75.27)" style="fill:#fff"></circle></g><g id="freepik--Floor--inject-20"><path d="M61.47,382.36l.43,0c.32,0,.64,0,1,0H438.52c2.77,0,5.42-.39,8.18.12,0,1-1.36,1.81-1.09,2.8.09.32.33.67.14.94a1.43,1.43,0,0,1-.31.24,1.52,1.52,0,0,0-.39.87,4.7,4.7,0,0,1-1.32,2.24,3.32,3.32,0,0,0-2.74,0,4.42,4.42,0,0,0-1,1.08c-.72.9-2.82,1.75-.9,2.56.73.3,2.19,0,3,.09a16.51,16.51,0,0,1,3,.51,19.16,19.16,0,0,0,2.07.55c1.41.2,2.69.55,4,.76,1.7.28,3.6-.1,5.32-.05a23.28,23.28,0,0,1,7.2,1.34,11.32,11.32,0,0,1-2.71,1.95,10.71,10.71,0,0,0-2.1,1.16,10,10,0,0,0-1.46,1.71c-1.49,1.94-4,4.4-6.52,4.8a69.46,69.46,0,0,0-9,2c-.16.71.82,1.07,1.54,1.21,2.71.51,5.08,2.1,7.44,3.55a4.89,4.89,0,0,0,.91.47,5.3,5.3,0,0,0,2.95-.06c-1.43,1.28-3.59,1.38-5.13,2.52-.58.43-1.06,1-1.68,1.39-1.42.88-3.25.59-4.85,1.08s-2.75,1.64-4.3,2a8,8,0,0,0-2.41.53c-1.24.73-1.61,1.7-3,2.13s-2.7.68-3.47,1.94c-.54.88-.64,2.14-1.57,2.57-.33.15-.74.18-1,.45a1.76,1.76,0,0,0-.25,1c-.18,1.73-1.85,2.94-3.52,3.43s-3.45.48-5.11,1a1.94,1.94,0,0,0-1.08.67,5.19,5.19,0,0,0-.35,1.24c-.37,1.2-1.78,1.75-3,1.82a14.24,14.24,0,0,0-3.76.25c-.86.3-1.59.89-2.42,1.25-2.17.92-5,.22-6.72,1.79-.67.6-1.31,1.56-2.19,1.37-.56-.12-.9-.67-1.22-1.13a15.63,15.63,0,0,0-4.59-3.88,10.31,10.31,0,0,0-3.15-1.56,3.55,3.55,0,0,0-3.3.72,2.22,2.22,0,0,0,1.27,1.06c-.09,1.08-1.29,1.69-2.36,1.8a10.57,10.57,0,0,0-3.19.37c-1.71.73-2.36,3-4.05,3.75-1.19.55-2.66.27-3.78.95-1.28.78-1.66,2.58-3,3.33a4.71,4.71,0,0,1-2.06.5c-2.3.21-5,.27-6.47-1.51-.32-.39-.61-.88-1.1-1a1.62,1.62,0,0,0-1,.17c-1.72.73-3.51,2.22-5.22,1.46a10.74,10.74,0,0,1-1.34-.89c-1.45-.94-4.3-1.3-5.72-.29s-2,3.17-3,4.51c-1.69,2.08-3.95,4-6.63,4.12a8.05,8.05,0,0,0-2.69.25,6.3,6.3,0,0,0-2,1.72,9.89,9.89,0,0,1-8.44,2.86,6.1,6.1,0,0,0-1.7-.13c-1.7.27-2.48,2.27-3.94,3.18l-6.66-3.79a11.94,11.94,0,0,0-2.34-1.11,12.08,12.08,0,0,0-2.75-.39,28.24,28.24,0,0,0-8.06.29,9.42,9.42,0,0,1-2.34.41,8.18,8.18,0,0,1-3.53-1.32,25.79,25.79,0,0,0-15.38-2.73,11.8,11.8,0,0,1-4.5.17c-1-.24-1.84-.78-2.82-1a8.55,8.55,0,0,0-3.57.4c-7.7,1.88-15.72,1.43-23.57,1.47-1.21,0-2.51-.13-3.72,0-2.15.23-4.42,1.47-6.45,2.24a6.25,6.25,0,0,0-2.36,1.29c-.49.49-.87,1.18-1.55,1.33a3.79,3.79,0,0,1-1.33-.15c-1.7-.26-3.25.92-4.56,2a16.51,16.51,0,0,0-5.69-6.1,11,11,0,0,0-8-1.45c-2.94.65-5.66,1.83-8.72.93a9.59,9.59,0,0,0-3.47-.84,12.66,12.66,0,0,0-2.44.8c-4,1.27-8.18-2.1-12.33-1.49-3.25.48-6.09,3.37-9.33,2.78-1.71-.32-3.17-1.59-4.9-1.73-3.23-.25-5.49,3.38-8.67,4-3.67.72-7.22-2.79-10.88-2-1.62.34-3.17,1.49-4.78,1.08-.58-.15-1.09-.5-1.66-.67a7,7,0,0,0-2.42-.1,17.43,17.43,0,0,1-10.23-2.7,3.11,3.11,0,0,0-1.64-.67c-.76,0-1.38.64-2.13.78-1.45.25-2.52-1.3-3.88-1.86-1.14-.48-2.46-.22-3.68-.46a12.13,12.13,0,0,1-3.11-1.32c-4.78-2.4-10.32-2.67-15.66-2.89.34-.83.69-1.67,1-2.5L91.72,442l-5.24-1.34c-1-.27-2.58-1.3-3.62-1.14-.86.13-1.43.95-2.28,1.13a3.46,3.46,0,0,1-2.38-.7L75.07,438c-.42-.25-.88-.55-1-1a8.56,8.56,0,0,1,0-1c-.09-.85-1-1.32-1.9-1.44a5.07,5.07,0,0,1-2.46-.61,29.91,29.91,0,0,0,5-2.83c.61-.43,1.27-1.17.89-1.81a1.31,1.31,0,0,0-.71-.5c-2.47-.85-5.51.93-7.66-.55-.44-.31-.8-.73-1.26-1-1.74-1.08-4.1.2-6-.49-1.06-.38-1.86-1.32-3-1.63-2.07-.6-4.28,1.31-6.34.68-1.26-.39-2.06-1.6-3.2-2.26-1.64-.94-4.12-.91-4.79-2.67l2,0a.91.91,0,0,0,.56-.12c.29-.21.23-.65.36-1,.31-.75,1.37-.65,2.17-.73,2-.2,3.25-2.16,5.08-2.89.82-.33,1.74-.39,2.54-.78,1.33-.63,2.51-2.14,3.93-1.73-.27-.93,1.34-1.59,1.12-2.53a1.56,1.56,0,0,0-.34-.58c-.26-.31-1-.89-1-1.28s.3-.8.36-1.31a3.35,3.35,0,0,0-.61-2.53,3.2,3.2,0,0,0-2.8-1.18c-.71.08-1.54.36-2.06-.13a3.81,3.81,0,0,1-.47-.81c-.71-1.24-2.48-1.23-3.9-1.06s-3.18.17-3.9-1.07a11,11,0,0,0-.7-1.61c-.84-1-2.71-.5-3.61-1.47a6.79,6.79,0,0,1-.75-1.44c-1.11-2-3.9-1.67-5.76-2.32-1.09-.38-2.22-.83-1.53-2,.54-.89,2.25-1.43,3.15-1.88,2.23-1.11,4.85-2.83,7.28-2.32a16.72,16.72,0,0,0,4.63.29,6.52,6.52,0,0,0,1.31-.22,12.12,12.12,0,0,0,3.07-1.83,1.12,1.12,0,0,0,.39-.39c.62-1.28.37-1.69,1.75-2.34a15.58,15.58,0,0,1,4.25-1.39A10.11,10.11,0,0,1,61.47,382.36Z" style="fill:#263238"></path><path d="M61.47,382.36l.43,0c.32,0,.64,0,1,0H438.52c2.77,0,5.42-.39,8.18.12,0,1-1.36,1.81-1.09,2.8.09.32.33.67.14.94a1.43,1.43,0,0,1-.31.24,1.52,1.52,0,0,0-.39.87,4.7,4.7,0,0,1-1.32,2.24,3.32,3.32,0,0,0-2.74,0,4.42,4.42,0,0,0-1,1.08c-.72.9-2.82,1.75-.9,2.56.73.3,2.19,0,3,.09a16.51,16.51,0,0,1,3,.51,19.16,19.16,0,0,0,2.07.55c1.41.2,2.69.55,4,.76,1.7.28,3.6-.1,5.32-.05a23.28,23.28,0,0,1,7.2,1.34,11.32,11.32,0,0,1-2.71,1.95,10.71,10.71,0,0,0-2.1,1.16,10,10,0,0,0-1.46,1.71c-1.49,1.94-4,4.4-6.52,4.8a69.46,69.46,0,0,0-9,2c-.16.71.82,1.07,1.54,1.21,2.71.51,5.08,2.1,7.44,3.55a4.89,4.89,0,0,0,.91.47,5.3,5.3,0,0,0,2.95-.06c-1.43,1.28-3.59,1.38-5.13,2.52-.58.43-1.06,1-1.68,1.39-1.42.88-3.25.59-4.85,1.08s-2.75,1.64-4.3,2a8,8,0,0,0-2.41.53c-1.24.73-1.61,1.7-3,2.13s-2.7.68-3.47,1.94c-.54.88-.64,2.14-1.57,2.57-.33.15-.74.18-1,.45a1.76,1.76,0,0,0-.25,1c-.18,1.73-1.85,2.94-3.52,3.43s-3.45.48-5.11,1a1.94,1.94,0,0,0-1.08.67,5.19,5.19,0,0,0-.35,1.24c-.37,1.2-1.78,1.75-3,1.82a14.24,14.24,0,0,0-3.76.25c-.86.3-1.59.89-2.42,1.25-2.17.92-5,.22-6.72,1.79-.67.6-1.31,1.56-2.19,1.37-.56-.12-.9-.67-1.22-1.13a15.63,15.63,0,0,0-4.59-3.88,10.31,10.31,0,0,0-3.15-1.56,3.55,3.55,0,0,0-3.3.72,2.22,2.22,0,0,0,1.27,1.06c-.09,1.08-1.29,1.69-2.36,1.8a10.57,10.57,0,0,0-3.19.37c-1.71.73-2.36,3-4.05,3.75-1.19.55-2.66.27-3.78.95-1.28.78-1.66,2.58-3,3.33a4.71,4.71,0,0,1-2.06.5c-2.3.21-5,.27-6.47-1.51-.32-.39-.61-.88-1.1-1a1.62,1.62,0,0,0-1,.17c-1.72.73-3.51,2.22-5.22,1.46a10.74,10.74,0,0,1-1.34-.89c-1.45-.94-4.3-1.3-5.72-.29s-2,3.17-3,4.51c-1.69,2.08-3.95,4-6.63,4.12a8.05,8.05,0,0,0-2.69.25,6.3,6.3,0,0,0-2,1.72,9.89,9.89,0,0,1-8.44,2.86,6.1,6.1,0,0,0-1.7-.13c-1.7.27-2.48,2.27-3.94,3.18l-6.66-3.79a11.94,11.94,0,0,0-2.34-1.11,12.08,12.08,0,0,0-2.75-.39,28.24,28.24,0,0,0-8.06.29,9.42,9.42,0,0,1-2.34.41,8.18,8.18,0,0,1-3.53-1.32,25.79,25.79,0,0,0-15.38-2.73,11.8,11.8,0,0,1-4.5.17c-1-.24-1.84-.78-2.82-1a8.55,8.55,0,0,0-3.57.4c-7.7,1.88-15.72,1.43-23.57,1.47-1.21,0-2.51-.13-3.72,0-2.15.23-4.42,1.47-6.45,2.24a6.25,6.25,0,0,0-2.36,1.29c-.49.49-.87,1.18-1.55,1.33a3.79,3.79,0,0,1-1.33-.15c-1.7-.26-3.25.92-4.56,2a16.51,16.51,0,0,0-5.69-6.1,11,11,0,0,0-8-1.45c-2.94.65-5.66,1.83-8.72.93a9.59,9.59,0,0,0-3.47-.84,12.66,12.66,0,0,0-2.44.8c-4,1.27-8.18-2.1-12.33-1.49-3.25.48-6.09,3.37-9.33,2.78-1.71-.32-3.17-1.59-4.9-1.73-3.23-.25-5.49,3.38-8.67,4-3.67.72-7.22-2.79-10.88-2-1.62.34-3.17,1.49-4.78,1.08-.58-.15-1.09-.5-1.66-.67a7,7,0,0,0-2.42-.1,17.43,17.43,0,0,1-10.23-2.7,3.11,3.11,0,0,0-1.64-.67c-.76,0-1.38.64-2.13.78-1.45.25-2.52-1.3-3.88-1.86-1.14-.48-2.46-.22-3.68-.46a12.13,12.13,0,0,1-3.11-1.32c-4.78-2.4-10.32-2.67-15.66-2.89.34-.83.69-1.67,1-2.5L91.72,442l-5.24-1.34c-1-.27-2.58-1.3-3.62-1.14-.86.13-1.43.95-2.28,1.13a3.46,3.46,0,0,1-2.38-.7L75.07,438c-.42-.25-.88-.55-1-1a8.56,8.56,0,0,1,0-1c-.09-.85-1-1.32-1.9-1.44a5.07,5.07,0,0,1-2.46-.61,29.91,29.91,0,0,0,5-2.83c.61-.43,1.27-1.17.89-1.81a1.31,1.31,0,0,0-.71-.5c-2.47-.85-5.51.93-7.66-.55-.44-.31-.8-.73-1.26-1-1.74-1.08-4.1.2-6-.49-1.06-.38-1.86-1.32-3-1.63-2.07-.6-4.28,1.31-6.34.68-1.26-.39-2.06-1.6-3.2-2.26-1.64-.94-4.12-.91-4.79-2.67l2,0a.91.91,0,0,0,.56-.12c.29-.21.23-.65.36-1,.31-.75,1.37-.65,2.17-.73,2-.2,3.25-2.16,5.08-2.89.82-.33,1.74-.39,2.54-.78,1.33-.63,2.51-2.14,3.93-1.73-.27-.93,1.34-1.59,1.12-2.53a1.56,1.56,0,0,0-.34-.58c-.26-.31-1-.89-1-1.28s.3-.8.36-1.31a3.35,3.35,0,0,0-.61-2.53,3.2,3.2,0,0,0-2.8-1.18c-.71.08-1.54.36-2.06-.13a3.81,3.81,0,0,1-.47-.81c-.71-1.24-2.48-1.23-3.9-1.06s-3.18.17-3.9-1.07a11,11,0,0,0-.7-1.61c-.84-1-2.71-.5-3.61-1.47a6.79,6.79,0,0,1-.75-1.44c-1.11-2-3.9-1.67-5.76-2.32-1.09-.38-2.22-.83-1.53-2,.54-.89,2.25-1.43,3.15-1.88,2.23-1.11,4.85-2.83,7.28-2.32a16.72,16.72,0,0,0,4.63.29,6.52,6.52,0,0,0,1.31-.22,12.12,12.12,0,0,0,3.07-1.83,1.12,1.12,0,0,0,.39-.39c.62-1.28.37-1.69,1.75-2.34a15.58,15.58,0,0,1,4.25-1.39A10.11,10.11,0,0,1,61.47,382.36Z" style="fill:#fff;opacity:0.4"></path><g style="opacity:0.2"><path d="M147,387.63a10,10,0,0,0-4.06,1.22,8.76,8.76,0,0,1,2.17,1.07,5.7,5.7,0,0,1,2,2.52c.52,1.14,1.14,1.06,2.37,1.34a7.11,7.11,0,0,1,1.85.77,3.08,3.08,0,0,0-2.32.51,5.66,5.66,0,0,1-.6.6,4,4,0,0,1-1,.29c-2.48.82,1.28,1.65,2.13,1.91l.09.05a15.12,15.12,0,0,1,3.6,1c1.61.61,3.14,1.19,4.53.75a8.63,8.63,0,0,0,1-.42,8.48,8.48,0,0,1,1.1-.48,9.32,9.32,0,0,1,3.11-.41c1.8,0,3.62.08,5.41.26a4,4,0,0,0,1.61,0,2.61,2.61,0,0,0,.53-.26l.42-.22a8.76,8.76,0,0,1,3-.72l.39-.05a4.83,4.83,0,0,0,2.47-.8,1.38,1.38,0,0,0,.51-1.35,13.76,13.76,0,0,0-3.07-.59h-.68a9,9,0,0,1-1.36-.05,10.82,10.82,0,0,1-2.14-.57l-3-1a1.68,1.68,0,0,1-.79-.5,1.74,1.74,0,0,1-.36-1,3.14,3.14,0,0,1,1.47-3.37c.12-.1.25-.19.37-.3a3.34,3.34,0,0,0,.35-.4,11.45,11.45,0,0,1-1.1-.88l-.23-.21a16.94,16.94,0,0,0-6-3.4l-.05,0a50.75,50.75,0,0,0-4.92,1.94,35.57,35.57,0,0,1-7.91,2.73Z" style="fill:#fff"></path><path d="M374.8,419.73l-.21-.05a10.53,10.53,0,0,0-5.73.24c-.59.22-1.15.53-1.75.72a9.71,9.71,0,0,1-2,.34,143.34,143.34,0,0,0-14.87,2.23l15.09-4c-.66.17-3-.85-3.86-.92-1.06-.07-2.07-.3-3.12-.39-3-.25-6.29.66-9.22,1.22a54.34,54.34,0,0,1-10.19,1.3,23.3,23.3,0,0,1-3.81-.3,40.63,40.63,0,0,1-4.35-1.07,24.43,24.43,0,0,0-6.1-1.21,12,12,0,0,0-4.27.39c-1.51.6-3,2-4.38,3,1.23-.26,2.43.58,3.68.54.55,0,1.09-.2,1.64-.22a9,9,0,0,1,2.23.38c2.86.59,6-.5,8.66.63a31.36,31.36,0,0,0-6.53.81l-1.95.38a6.89,6.89,0,0,0-1.33.36c-.32.13-.62.31-.94.44-1.31.51-2.94.2-4,1.11-.28.24-.5.54-.78.79a5.52,5.52,0,0,1-2,.9,14.74,14.74,0,0,0-3.5,1.65c-.33.21-.69.53-.59.91l-.68,0-.18.42a5.47,5.47,0,0,0,1.51.11,1.16,1.16,0,0,1,.62.19,1.46,1.46,0,0,1,.3.31,31.63,31.63,0,0,1,11.42-.69l.64.08a12,12,0,0,0,2.71.17,11.59,11.59,0,0,0,2-.4,8.86,8.86,0,0,1,3.82-.39,9.14,9.14,0,0,1,2.69,1.08c.31.17.62.34.94.49,2.56,1.19,5.48,1.06,8.57.93.75,0,1.51-.06,2.28-.07.52-.64,1-1.29,1.47-2A3.66,3.66,0,0,1,351,428.3a3.72,3.72,0,0,1,1.19.08l.12,0a7.77,7.77,0,0,0,4.08-.35c.27-.1.52-.21.78-.32a10.94,10.94,0,0,1,1.61-.6,10.63,10.63,0,0,1,2.73-.24,9.43,9.43,0,0,0,2-.14,1,1,0,0,1,.66-.81c1.78-.6,3.63-1.06,5.42-1.51a36.26,36.26,0,0,0,9.19-3.17.76.76,0,0,1,0-.15.79.79,0,0,1,0-.09C378.91,420.81,375.74,420,374.8,419.73Z" style="fill:#fff"></path><path d="M431.88,386.4a11.86,11.86,0,0,1-3,.52h-.08a11.15,11.15,0,0,1-4.37-1.24,13.33,13.33,0,0,0-2.87-1,13.83,13.83,0,0,0-2.6-.09,9.66,9.66,0,0,1-4.49-.57l-.12-.07a9,9,0,0,0-4.32,1.18,5.05,5.05,0,0,1,.53.24,1,1,0,0,1,.7.37c.78,1,2.23,1.31,3.79,1.59a48.82,48.82,0,0,0,10.9,1.15l.42,0a13.19,13.19,0,0,1,1.78,0c1.07-1.17,2.82-1.69,5.1-1.48a2.24,2.24,0,0,0,.42,0l.21-.32.18-.28c.11-.15.23-.28.35-.42a7.26,7.26,0,0,0-1.51.17C432.55,386.21,432.21,386.3,431.88,386.4Z" style="fill:#fff"></path><path d="M224,388a4.94,4.94,0,0,0-1.82.38,2.57,2.57,0,0,1-1.07.29h-.13a2.29,2.29,0,0,1-1-.35l-3.19-1.8a16.06,16.06,0,0,1-3.54,1.13c-.62.11-1.24.18-1.84.24a16.46,16.46,0,0,0-2.19.33c-.23.05-.46.12-.69.19a19.65,19.65,0,0,1,3.25,2.11c1.76,1.33,4.47,3.4,6.82,2.2a4.09,4.09,0,0,1,1-.5,2.53,2.53,0,0,1,.82.07,11.31,11.31,0,0,0,2.78.17c-.52,0-2.64,1.07-2.47,1.62s2.07,1.1,2.52,1.33a32.69,32.69,0,0,0,7.16,2.68,32,32,0,0,1,9.23-.35c.65.1,1.29.24,1.94.38a12.88,12.88,0,0,0,4.07.43,12.37,12.37,0,0,0,2.48-.63l.65-.2a28.88,28.88,0,0,1,9.9-1.27l1.54.1a16,16,0,0,0,4.7-.11,16.27,16.27,0,0,0,1.59-.46,10.92,10.92,0,0,1,3.05-.7,12.89,12.89,0,0,0-.79-1.27,3.37,3.37,0,0,0-1.38-.88c-1.28-.42-2.53.22-3.79.38a10.58,10.58,0,0,1-3-.19c-.14,0-.33-.14-.25-.26a.24.24,0,0,1,.11-.06l3-1c-.34.12-1.45-.45-1.82-.54a6.49,6.49,0,0,0-2.93.16c-2.33.48-4.6,1.25-7,1.59a40,40,0,0,1-5.89.26l-2.6,0a25.56,25.56,0,0,1-5.93-.49,20.85,20.85,0,0,1-2.57-.84,9.46,9.46,0,0,0-4.11-1c.35-.66,1.37-.35,2.06-.62.53-.21.86-.78,1.38-1a3.55,3.55,0,0,1,1-.12,5.16,5.16,0,0,0,3.09-1.19c.4-2.56-3.64-1.89-5.11-1.93a46.23,46.23,0,0,0-7.53.28,2,2,0,0,0-.66.15A1,1,0,0,1,224,388Z" style="fill:#fff"></path><path d="M155,382.93l1.23-.53h-4.53l.14,0,2.39.69.14.07Z" style="fill:#fff"></path><path d="M354.4,383.37a10.67,10.67,0,0,1-4.21,1.84c-.51.12-3.61.26-3.41,1.09a.93.93,0,0,0,.55.55c3.91,2,8.77.17,13,1.44A10.77,10.77,0,0,0,363,389a3.45,3.45,0,0,1,1.54.18,4.8,4.8,0,0,1,.53.39c.95.69,2,.21,3.08.16s2.4.23,3.25-.4a.52.52,0,0,0,.15-.14.29.29,0,0,1,0-.1c0-.06,0-.12,0-.18a5.24,5.24,0,0,0-.31-.68,3.7,3.7,0,0,1-.54-1.66L367.37,385a2.07,2.07,0,0,1-.94-.76,1.65,1.65,0,0,1,.11-1.85H355.48A11.13,11.13,0,0,1,354.4,383.37Z" style="fill:#fff"></path><path d="M368.42,383.29l3.66,1.74a14.44,14.44,0,0,1,3.28-.26h.29s.07-.14.13-.23a4.09,4.09,0,0,1,.49-.61,3.26,3.26,0,0,1,1.57-.74l.42-.12a3.45,3.45,0,0,0,1.05-.67h-9.48l-1.26.79Z" style="fill:#fff"></path><path d="M303.58,395.18a13.21,13.21,0,0,1-2.36-.09c-.87-.24-1.68-1-2.62-.91-.3,0-2.12,1-2,1.29.44.9,1,1.72,1.71,1.83l.36,0a3.73,3.73,0,0,1,1.06.18,3.34,3.34,0,0,1,1.78,2.08,3.91,3.91,0,0,0,.5.92,3.49,3.49,0,0,0,2.16.73c.36.05.71.1,1.06.17a7.4,7.4,0,0,1,3.93,2.27,49.13,49.13,0,0,0,17-1.82c.88-.25,1.76-.53,2.64-.81,1.48-.47,3-.95,4.52-1.32l-5.23-2.05a44.53,44.53,0,0,0-9.17-2.09l-2.28-.39a10.76,10.76,0,0,0-4.41-.12,1.94,1.94,0,0,0-.95.47c-.22.21-.36.5-.6.7a2,2,0,0,1-1.27.31,8.62,8.62,0,0,1-2.49-.18c-1.1-.3-2.07-1-3.2-1.18Z" style="fill:#fff"></path><path d="M381.4,383.19a6.86,6.86,0,0,1-2.49,1.77,5.5,5.5,0,0,1-.58.16,2,2,0,0,0-.68.26,1.89,1.89,0,0,0-.2.27,2.12,2.12,0,0,1-2.15,1.12,12.92,12.92,0,0,0-2.49.15l.2.4c.11.21.23.44.33.67a89.42,89.42,0,0,1,12.25.1,3.63,3.63,0,0,0,1.81-.12,4.11,4.11,0,0,0,.59-.4c.15-.13.31-.25.48-.37,2-1.38,4.46-.95,6.62-.57.57.1,1.13.2,1.68.26a24.4,24.4,0,0,0,7-.51c.86-.14,1.72-.28,2.6-.4h0a1,1,0,0,1-.54-.55l-.18-.2c-.07-.08-.13-.17-.21-.25a5.62,5.62,0,0,0-2.93-1.35l-.44-.09a11.15,11.15,0,0,1-3.27-1.13H382.25l-.05,0C381.92,382.67,381.66,382.93,381.4,383.19Z" style="fill:#fff"></path><path d="M226.55,404.66a5.16,5.16,0,0,0,1.17.17,5.38,5.38,0,0,0,1.61-.43,4.18,4.18,0,0,1,4.48.17l.42.23a4.14,4.14,0,0,0,4.11-.28,2.93,2.93,0,0,1,.94-1.37,6.09,6.09,0,0,1,1.71-.92l.29-.11a12.33,12.33,0,0,0,2.69-1.58,23.87,23.87,0,0,1-2.83-.48c-.6-.13-1.21-.26-1.82-.35a26.5,26.5,0,0,0-7.38.18,1.07,1.07,0,0,1-.39.31,13.18,13.18,0,0,0-3.37,2.48,24.3,24.3,0,0,1-2.26,1.86Z" style="fill:#fff"></path><path d="M120.15,410s.1,0,.15,0a34.84,34.84,0,0,1,7.12-4.91,2.44,2.44,0,0,0,0-1.17,1,1,0,0,1-.43-.32,12.54,12.54,0,0,0-2.38-.14,9.61,9.61,0,0,1-2.08-.43c-1.44-.5-2.39.26-3.85.19a9,9,0,0,0-1.15-.08,2.81,2.81,0,0,0-1,.37,18.18,18.18,0,0,1-5.94,1.41,11.75,11.75,0,0,0-2.69,2.18c-.62.69-.75,1.44-1.68,1.77a2.77,2.77,0,0,0-1.48,1.17c-.39.58-.62,1.15-1.45,1.21,2.41-.19,4.64.25,7,.18A52.6,52.6,0,0,0,120.15,410Z" style="fill:#fff"></path><path d="M194.06,408c1.27,1.24,3.57,1.54,5.17,2.19.54.22,5.29,2.77,5.43,2.65a3,3,0,0,1,1.58-.68,6.73,6.73,0,0,1,1.42,0l.58,0a4.56,4.56,0,0,0,3.41-1.38,13.18,13.18,0,0,0,.91-1.11c.27-.36.54-.73.85-1.07,1.77-2,4.22-2.79,6.59-3.6a14.42,14.42,0,0,0,6.84-3.86c.56-.52,1.14-1,1.76-1.52a34.74,34.74,0,0,1-8.74-3.89l-.12-.07a4.56,4.56,0,0,0-1.5-.72,4.34,4.34,0,0,0-.9,0h-.23a14,14,0,0,0-2.8,1.38,11.81,11.81,0,0,1-4.32,1.83,13.12,13.12,0,0,1-2.42.05,4.28,4.28,0,0,0-4.15,1.19c-.28.24-.56.48-.86.69a7.44,7.44,0,0,1-6.42,1.05c-.48-.15-.92-.34-1.35-.52a9.05,9.05,0,0,0-1.46-.54,1.74,1.74,0,0,0-1.74.38l-.12.2a2.3,2.3,0,0,1-.73.89,2,2,0,0,1-1.23.35,4.35,4.35,0,0,1-.57,0l-5.26-.63h0c-2.92.92-5.81,2-8.64,3.17l7,1.42c2.51.51,7,2.23,9.39.79a4.6,4.6,0,0,1,.53-.31,2.46,2.46,0,0,1,.94-.12l5,0a11.74,11.74,0,0,0-1.83.48,1.9,1.9,0,0,0-.64.35.67.67,0,0,0-.21.67Z" style="fill:#fff"></path><path d="M127,411.8a8,8,0,0,0,1.58-.29l.52-.13a31.75,31.75,0,0,1,5.27-.6,20.56,20.56,0,0,0,6.51-1c.53-.2,1-.46,1.58-.72a11.5,11.5,0,0,1,3.7-1.32h.11a3.65,3.65,0,0,0,1.5-.51c.28-.2.42-.54.35-.69s-.45-.4-.7-.54l-3.59-2.06a4.05,4.05,0,0,1-1.75-1.58,5.53,5.53,0,0,1-.24-.61c0-.11-.09-.27-.13-.35a.91.91,0,0,1-.36-.34l-.84,0a25,25,0,0,0-8.21,1.08c-.37.14-.73.3-1.1.45a17.27,17.27,0,0,1-1.87.72,1.83,1.83,0,0,1,.07.32,4.62,4.62,0,0,1-.27,2.6,1,1,0,0,1-.47.51,32.4,32.4,0,0,0-6.47,4.28l3.12.6A7.78,7.78,0,0,0,127,411.8Z" style="fill:#fff"></path><path d="M346.32,383.76l.08,0a16.19,16.19,0,0,0,5.81-1.34h-9.88C343.68,382.92,345,383.37,346.32,383.76Z" style="fill:#fff"></path><path d="M150.43,407.78c.43-.12.86-.27,1.3-.41a15.18,15.18,0,0,1,3.15-.83,16.19,16.19,0,0,1,3,0,16.73,16.73,0,0,0,2.1.08,18.05,18.05,0,0,0,5.11-1.3,17.35,17.35,0,0,1,6.13-1.38,1.48,1.48,0,0,1,.13-.08c2.84-1.31,5.77-2.49,8.73-3.53a28.06,28.06,0,0,1-3.42-1.49,10.1,10.1,0,0,1-2,.43l-.4.05a7.56,7.56,0,0,0-2.39.53l-.33.18a5.36,5.36,0,0,1-.83.4,5.55,5.55,0,0,1-2.41.14c-1.79-.17-3.56-.25-5.28-.25a7.78,7.78,0,0,0-2.45.29c-.3.11-.59.25-.88.39a9.59,9.59,0,0,1-1.25.54,5.67,5.67,0,0,1-1.66.25,12.05,12.05,0,0,1-4.18-1,12.14,12.14,0,0,0-3.27-.92,19.67,19.67,0,0,1-5.56,1.05,1.21,1.21,0,0,1,0,.14,2.13,2.13,0,0,0,.14.35,2.39,2.39,0,0,0,.95.75A33.06,33.06,0,0,0,150.4,405a2.2,2.2,0,0,0,1.09.19,5.6,5.6,0,0,0,.81-.3.78.78,0,0,1,.81.11l-1.41,1c-.34.24-1.5.44-1.68.63s0,.88-.22,1.32A4.44,4.44,0,0,0,150.43,407.78Z" style="fill:#fff"></path><path d="M106.9,405.28c-.51,0-1,0-1.52,0a27.07,27.07,0,0,1-3.24-.18c-1.42-.15-2.82-.43-4.19-.7a25.42,25.42,0,0,0-7.43-.73.91.91,0,0,1-.33,0,10,10,0,0,1-2.35,1.73c-.12,0-.25.15-.23.27a.28.28,0,0,0,.1.14A6.72,6.72,0,0,0,89.32,407c.17.08.36.19.4.37s0,.2,0,.29a.47.47,0,0,0,.25.23A26.6,26.6,0,0,1,92.64,409c.41.28,1.91,2.05,2.26,2.06a3.49,3.49,0,0,1,1.47.45,3.35,3.35,0,0,0,.54.24,2.86,2.86,0,0,0,1.18-.07c1.18-.21,3.18-.24,3.9-1.35.34-.51.45-1.21,1-1.49.3-.16.67-.14,1-.27.65-.29.83-1.11,1.27-1.62S106.35,405.82,106.9,405.28Z" style="fill:#fff"></path><path d="M342.8,404.25c-2.18-1.09-4.42-2.08-6.69-3a39.23,39.23,0,0,0-6.68,1.7c-.9.29-1.79.57-2.69.84a51.47,51.47,0,0,1-16.82,1.95l.24.94a1,1,0,0,1-.42,1.08,7.59,7.59,0,0,1-4.24,1.15l-.3,0c-3.15,1.86-6.72,2.71-10.18,3.53a57,57,0,0,0-6.34,1.76,72.66,72.66,0,0,0,11.88.68l2-.07a36.59,36.59,0,0,1,8.35.31c.79.14,1.57.34,2.32.53a21.81,21.81,0,0,0,3.53.7,18.4,18.4,0,0,0,3.38-.14.92.92,0,0,1,.37,0l.37,0a25.89,25.89,0,0,1,3.86-.26,26.35,26.35,0,0,1,6.6,1.29,39.5,39.5,0,0,0,4.13,1c4.36.73,8.7-.11,13.29-1,1.45-.28,2.92-.56,4.4-.79a10.83,10.83,0,0,0-1.13-.12c-.39,0-.78,0-1.18,0a17.79,17.79,0,0,1-2-.09,18.63,18.63,0,0,1-4.34-1.26,16.1,16.1,0,0,0-4.09-.86c-2.44-.34-4.76-2-7.17-1.46a5,5,0,0,1-.92.18,3.93,3.93,0,0,1-1.12-.19,23.85,23.85,0,0,0-6.75-.48,9.82,9.82,0,0,1,6.23-1.8,10,10,0,0,0,2.83,0,49.74,49.74,0,0,0,5.69-1.74,1.09,1.09,0,0,1-.16-.5,1,1,0,0,1,.35-.79Z" style="fill:#fff"></path><path d="M199.73,385.53a14.08,14.08,0,0,1,1.74.86,7.46,7.46,0,0,0,2.29,1,7.13,7.13,0,0,0,3.23-.59c.55-.19,1.12-.38,1.71-.52a17.71,17.71,0,0,1,2.45-.37c.57-.06,1.13-.12,1.69-.22a22.27,22.27,0,0,0,7.28-3.27H201.46A4.84,4.84,0,0,1,199.73,385.53Z" style="fill:#fff"></path><path d="M322.58,384.16l-.38.07a2.29,2.29,0,0,0-.76.23,2.4,2.4,0,0,0-.32.32,4,4,0,0,1-.54.55,4.31,4.31,0,0,1-2,.77l-4.43.8a3.71,3.71,0,0,1-2,1.65l-.35.17a1.28,1.28,0,0,0-.54.51l.32.09,11.23,2.87a1,1,0,0,1,1-.33c2.09.5,4.2-.44,6.44-1.43a22.91,22.91,0,0,1,4.22-1.55,1,1,0,0,1,.45-.32l3.57-1.11a15.56,15.56,0,0,0,2.81-1.08c.4-.23.81-.5,1.24-.79s.63-.43,1-.63a32.85,32.85,0,0,1-5.84-2.55h-12l-.18.19A6.13,6.13,0,0,1,322.58,384.16Z" style="fill:#fff"></path><path d="M237.7,440.73a17.65,17.65,0,0,1,5.08,0,3,3,0,0,1,2,1.25,1.67,1.67,0,0,1,.16,1.41,1.8,1.8,0,0,1-.25.5,27.8,27.8,0,0,1,4.19.06l.81.05a105.55,105.55,0,0,0,15.18-.61c6.91-.6,14.05-1.21,21,.1a1,1,0,0,1,.8-.28c1.33.14,1.84-.86,2.42-1.71.34-.49,1.62-1.84,1.26-2.49-.24-.45-.87-.43-1.37-.53a7.72,7.72,0,0,1-1.66-.81c-1-.54-2.24,0-3.36,0-1.36,0-2.71,0-4.06,0-2.47,0-5.72-.6-8.12,0a41.06,41.06,0,0,1,15.26-.77c2.73.38,5.53,1,8.21.37,1.8-.45,3.09-1.56,4.71-2.35a20.51,20.51,0,0,1,3.25-1c1.35-.39,3.92-1.75,5.33-1.56a39.63,39.63,0,0,1-6.4-1.58,39.2,39.2,0,0,0-6.22-1.53c-.65-.08-1.32-.13-2-.19a16.64,16.64,0,0,1-5.3-1,15.92,15.92,0,0,1-1.43-.73,11.39,11.39,0,0,0-1.66-.8,11.14,11.14,0,0,0-4.49-.18l-.75.07a37.35,37.35,0,0,1-17.77-2.93,19.21,19.21,0,0,1-6.84,1.89l-20.92,3c-4.17,1.07-8.35,2.27-12.45,3.58a3.42,3.42,0,0,0-1.86,1,3.51,3.51,0,0,0-.25.6c-.07.18-.14.38-.23.59a20.87,20.87,0,0,1,2.94,1.11,9.6,9.6,0,0,0,6.22.93c2.59-.47,5.67.15,8.27.4a11.37,11.37,0,0,0-3.57,1c-.42.18-1.5.3-1.62.73s.62,1.21.69,1.57c.11.58-.13.65.36,1a3.65,3.65,0,0,0,1.48.15A24.63,24.63,0,0,0,237.7,440.73Z" style="fill:#fff"></path><path d="M158.26,438.87c-.32-.2-.62-.42-.91-.64l-.73-.52c-2.07-1.34-4.69-1.42-7.45-1.5l-1.57,0c-5.16-.24-10.18-1.53-15-2.77a43.55,43.55,0,0,1-5.93-1.84,6.69,6.69,0,0,1-1.94.67c-.2,0-.4.09-.59.15a4.35,4.35,0,0,0-2.36,1.6c-.19.26-.36.55-.52.82a9.2,9.2,0,0,1-.73,1.11c-1.26,1.63-3.11,2.31-4.9,3a78.66,78.66,0,0,0-7.34,3.1c.35,1.25,1.67,1.9,2.66,2.75a4.29,4.29,0,0,0,1.07.79,3.23,3.23,0,0,0,1.42.15l2.83-.17c1.67-.12,3.34-.28,5-.44l3.67-.34-2.41,1a11.59,11.59,0,0,1,2.7.61,19.07,19.07,0,0,0,3.12.31c2.58.13,5.17.17,7.75.12a18.6,18.6,0,0,0,4.47-.46c2.36-.63,4.45-2.09,6.83-2.64,1.67-.38,3.91.4,5.3-.6a2.7,2.7,0,0,1,1-2.79,4.36,4.36,0,0,1,1.53-.64Z" style="fill:#fff"></path><path d="M91,433.8a33.25,33.25,0,0,0,4.77-.49c-.93.45-2.69.92-3.32,1.73a6,6,0,0,0,2.51.11l4.08-.24a5,5,0,0,1,4.1,1.12l.39.28a10,10,0,0,0,4.5,1.52c1.59.19,3.65.6,5.1-.25,1.87-1.1,4.31-1,5.81-2.9a8.71,8.71,0,0,0,.58-.9,11.17,11.17,0,0,1,.64-1,6.35,6.35,0,0,1,3.45-2.36l.67-.16c.74-.17,1.5-.34,1.64-.73a.89.89,0,0,0-.37-.84,4.43,4.43,0,0,0-1.61-.74,37.49,37.49,0,0,0-6.61-1.69c-.79-.1-1.57-.14-2.4-.19s-1.35-.08-2-.15a30.13,30.13,0,0,1-6.82-1.56c-2.43-.84-4.84-.23-7.22.52l-1.46.45c-4.23,1.19-8.65,1.06-12.81.83a5.92,5.92,0,0,0-2.62.22,5.82,5.82,0,0,0-1.51,1.16,17.35,17.35,0,0,1-1.66,1.56c-.55.4-1.31.47-1.68,1.1-.12.22-.17.47-.27.7a1.71,1.71,0,0,1-1.23,1,7.69,7.69,0,0,0,4.85,1.56,1.92,1.92,0,0,1,1,.13c.21.12.35.33.56.46a1.71,1.71,0,0,0,.74.17l4,.3a1.06,1.06,0,0,0,.68-.12c.14-.11.2-.3.33-.42a1.13,1.13,0,0,1,.79-.17C89.36,433.83,90.16,433.83,91,433.8Z" style="fill:#fff"></path><path d="M180.93,432.25c-1.2-.54-2.36-1.16-3.49-1.77-2.85-1.54-5.53-3-8.51-3-.46,0-.91,0-1.37,0a9.64,9.64,0,0,1-3.45-.21,9.39,9.39,0,0,1-4.22-3.15c-1.54.07-3,.08-4.26.06-2,0-4-.13-6-.29a50.43,50.43,0,0,1-12.37-2.26L122.1,422a27.13,27.13,0,0,1-6.76-.42l-.43-.1a4,4,0,0,0-2-.18,4.24,4.24,0,0,0-1,.6l-.41.3a9.42,9.42,0,0,1-2.07,1.06,28.33,28.33,0,0,0,3.66.65c.65.06,1.29.1,1.94.14.82.05,1.68.1,2.53.21a39,39,0,0,1,7,1.77c.87.28,1.66.77,2.53,1a11.3,11.3,0,0,0,3.76,0,1.19,1.19,0,0,1,.13-.49l.9,0a1,1,0,0,0-.66-.49c-.15-.14.13-.33.34-.33l5.86-.1a12.92,12.92,0,0,1-3.6,1.14,2.26,2.26,0,0,0-1.33.5.26.26,0,0,0,.33.22,15.41,15.41,0,0,0-4.93,1.89,11.51,11.51,0,0,0,1.37,1.08,5.12,5.12,0,0,0,2.21.48c1.15.17,2,1.19,3.08,1.57a6.48,6.48,0,0,0,1.92.23c3.79.14,7.45,1.24,11.26,1.42.5,0,1,0,1.53,0,2.92.09,5.93.18,8.48,1.83.28.18.56.38.83.58a6.18,6.18,0,0,0,1.44.9,6.3,6.3,0,0,0,2.36.2l12.46-.41a1,1,0,0,1-.09-.35,1,1,0,0,1,.25-.73A14.29,14.29,0,0,1,180.93,432.25Z" style="fill:#fff"></path><path d="M435.08,410.82A16.54,16.54,0,0,1,425,408.71c-.59-.3-1.15-.6-1.72-.84a21.72,21.72,0,0,0-8.44-1.25c-3.19,0-6.42.13-9.6.4a1,1,0,0,1-.71.41,11.9,11.9,0,0,1-5.61-.49l-.21-.09a1.73,1.73,0,0,0-.58-.2,1.55,1.55,0,0,0-.33.15,5.82,5.82,0,0,0-2.06,1.43,11.68,11.68,0,0,0,1.68.08,38.56,38.56,0,0,1,9.07,1.3c.58.16,1.15.34,1.72.52l1.84.57a1.71,1.71,0,0,1,.79.41c.15.17.22.4.36.57.36.41,1,.37,1.51.54.85.28,1.4,1.16,2.26,1.43a6,6,0,0,0,2.15-.06c2.07-.12,4.06,1.3,6.11,1l-4.35-.09a4.61,4.61,0,0,0-1.23.08c-.37.09-.71.26-1.08.37a8.32,8.32,0,0,1-2.45.16,22.88,22.88,0,0,0-3.3.31l-8,1.12c-5.8.82-11.8,1.62-17.46.09a4.87,4.87,0,0,1-1.34-.53c-.36-.22-.66-.52-1-.73-1.73-1-4.74-.46-6.54.11a20.39,20.39,0,0,0-2.87,1.26c-.68.34-1.38.69-2.1,1l3.42.29c1.66.15,4.67.44,6.31,2.49a98.3,98.3,0,0,0,12.1,1.16,8.22,8.22,0,0,0,2.43-.16,8.45,8.45,0,0,0,2.51-1.44,13.56,13.56,0,0,1,2.32-1.45c2.66-1.19,5.67-.58,7.71,0l1.54.46a18.38,18.38,0,0,0,5.2,1.06c.61,0,1.24-.06,1.92-.12a13.84,13.84,0,0,1,3.58,0,1.17,1.17,0,0,1,.45-.13c2.34.05,4.51-1.15,6.8-2.41.85-.47,1.73-.95,2.62-1.37a21.51,21.51,0,0,1,8.45-2,40.31,40.31,0,0,1,4.82.24,31.25,31.25,0,0,0,5.86.14l.5-.07c-3-2.63-6.52-2.54-8-3.9a36.83,36.83,0,0,1-5.5.34Z" style="fill:#fff"></path><path d="M345.56,434.49a1.15,1.15,0,0,1,0-.31l-.53,0c-3.19.14-6.49.28-9.5-1.12-.35-.16-.69-.35-1-.54a5.18,5.18,0,0,0-5.07-.51,10.81,10.81,0,0,1-5.45.28l-.61-.08a29.6,29.6,0,0,0-11.58.88,2.89,2.89,0,0,1-1.1.62l-10.26,3a3.73,3.73,0,0,0-1.84.9,4.21,4.21,0,0,0-.28.45,5.05,5.05,0,0,1-.55.81,4.72,4.72,0,0,1-2.94,1.31,6.63,6.63,0,0,0-1.31.31,6.4,6.4,0,0,0-2.19,2l-.47.55a8.46,8.46,0,0,1-1.45,1.34,65.35,65.35,0,0,0,6.35,1.94l4.28,1.15a49.55,49.55,0,0,0,5.5,1.1c2,.28,3.08-.61,5-.91,2.6-.4,5.33.3,7.87-.37a11.55,11.55,0,0,0-5.84,2.39.33.33,0,0,0-.14.19c0,.17.19.28.36.31a25.64,25.64,0,0,0,3.26.49c3.07.2,5.91-1.34,8.86-2.26l5.27-.65c.77,0,1.54.05,2.31,0a14.46,14.46,0,0,0,4.41-.92l5.13-.72a9.68,9.68,0,0,1-.82-.61,1,1,0,0,1-.25-1.2,1,1,0,0,1,.48-.47,2.2,2.2,0,0,0-.53-.34,4.68,4.68,0,0,1-.93-.56,3.14,3.14,0,0,1-1.05-3.24,4.34,4.34,0,0,1,3-2.72c.35-.12.71-.22,1.06-.32a7.93,7.93,0,0,0,1.8-.67C345.27,435.65,345.74,435,345.56,434.49Z" style="fill:#fff"></path><path d="M424.73,424.36c-.28-.18-.53-.3-.53-.24a4.73,4.73,0,0,1-1.21-.42,4.5,4.5,0,0,1-1-.78c-.11-.11-.22-.22-.34-.32-1.1-.92-2.77-.77-4.54-.62-.68.06-1.39.13-2.12.13a20.19,20.19,0,0,1-5.76-1.15l-1.49-.44c-2.27-.64-6.41-1.33-8.08,1a4.38,4.38,0,0,1-1.12,1.39,4.09,4.09,0,0,1-1,.32,8.52,8.52,0,0,0-2.93,1.78,39.43,39.43,0,0,1,10.17.69,26.29,26.29,0,0,1-8.44.14,17.13,17.13,0,0,0-2.72-.51,8.71,8.71,0,0,1-3-.18,4.1,4.1,0,0,0,2.51-1.12c-1.1-.94-3.9-.57-5.29-.69q-3.6-.31-7.17-.89c-3.23,2.09-7,3-10.62,3.94l-2,.5,13.1,3.74a6,6,0,0,1,1.79.73c6.54,4.32,17.71-1.86,25.37-1.43a20.7,20.7,0,0,0,4.91.06,14,14,0,0,0,3.14-1.13c2.95-1.34,5.94-3,9.06-3.87A2.92,2.92,0,0,0,424.73,424.36Z" style="fill:#fff"></path><path d="M61.36,423a4.56,4.56,0,0,0,2-.11,1.78,1.78,0,0,1,1.08-.14,2.94,2.94,0,0,1,.57.43c.74.51,1.72.07,2.59-.16a10.54,10.54,0,0,1,2.57-.27l7.55-.18a5.25,5.25,0,0,1-2.77,1l-4.23.68c.6-.1,1.88.57,2.54.67a13.84,13.84,0,0,0,2.8.19,14.52,14.52,0,0,0,2.79-.38c.71-.17,1.68-.75,2.37-.25a7.66,7.66,0,0,1,3.45-.36c4,.23,8.22.35,12.16-.76.46-.13.93-.28,1.4-.43.74-.23,1.48-.46,2.23-.64l-.33-.13a69.26,69.26,0,0,0-8.49-2.94l-.53-.13a11.22,11.22,0,0,1-4-1.54,2.34,2.34,0,0,1-.57-.56l-4.44.73a23.26,23.26,0,0,1-3.82.42,9.26,9.26,0,0,1-2.7-.37,14.31,14.31,0,0,1-1.7-.67,12.93,12.93,0,0,0-1.61-.62,13,13,0,0,0-2.15-.28,11.51,11.51,0,0,1-2.8-.42,11.92,11.92,0,0,1-2.51-1.22c-.36-.22-.72-.43-1.09-.62a4.75,4.75,0,0,0-2-.58,5.42,5.42,0,0,1-3.77,2.4c-.45.09-.91.15-1.37.21a7.39,7.39,0,0,0-2.79.73,7.33,7.33,0,0,0-1.22,1,6.92,6.92,0,0,1-2.26,1.6,4.35,4.35,0,0,1-.86.22c.41-.07,2.31,1.39,2.78,1.61a14.25,14.25,0,0,0,4,1.64c1,.09,2-.34,3.19-.15C60.08,422.79,60.72,422.94,61.36,423Z" style="fill:#fff"></path><path d="M221.47,383.92c-.82.5-1.68,1-2.57,1.51l2,1.14a1.85,1.85,0,0,0,.2.1s.09-.06.17-.1a7.94,7.94,0,0,1,1.67-.49,2.1,2.1,0,0,1,.71-1,3.56,3.56,0,0,1,1.63-.56,63.65,63.65,0,0,1,11.54-.14,3.57,3.57,0,0,1,.92-.72,2.13,2.13,0,0,0,.48-.35c.12-.15,0-.55-.18-.94H223.27A6.54,6.54,0,0,1,221.47,383.92Z" style="fill:#fff"></path><path d="M239.85,384.52a3.24,3.24,0,0,1-1,.83,4.22,4.22,0,0,0,1.35.5l.17,0a2.36,2.36,0,0,1,2.2,1.58l.09.2a2.3,2.3,0,0,0,1.63,1.06,8.89,8.89,0,0,0,2.43,0h.2A66.49,66.49,0,0,1,264.41,390a6,6,0,0,1,2.73-1.86,21.81,21.81,0,0,1,5-1c.7-.09,1.4-.17,2.08-.29a27.56,27.56,0,0,0,5.27-1.45l-5.73-.79a6,6,0,0,1-2-.53,5.18,5.18,0,0,1-.81-.54,3.15,3.15,0,0,0-.7-.43,2.74,2.74,0,0,0-1,0,5.58,5.58,0,0,1-1.47,0,3.67,3.67,0,0,1-1.43-.64H240.16A2.4,2.4,0,0,1,239.85,384.52Z" style="fill:#fff"></path><path d="M220.73,412.9a2.17,2.17,0,0,1,.68.73,7.31,7.31,0,0,1,2.82-.38,3.76,3.76,0,0,1,.6.1.92.92,0,0,1,.55-.14,59.63,59.63,0,0,0,12.09-.73,3.2,3.2,0,0,0,1.15-.34,2.88,2.88,0,0,0,.62-.6,4.7,4.7,0,0,1,1.21-1.06c1.39-.76,2.86-.16,4,.31.91.37,1.76.71,2.34.43a3,3,0,0,0,.77-.68,5.43,5.43,0,0,1,1-.92,5.28,5.28,0,0,1,3-.67,11.83,11.83,0,0,0-3-.11h-.12a3,3,0,0,1-2.71-.72l-.14-.11c-1.61-1.23-3.85-1.35-6.39-1.37a1,1,0,0,1-.4-.1,6.29,6.29,0,0,1-2.82.67,6,6,0,0,1-2.72-.64c-.17-.08-.34-.18-.52-.28a3.63,3.63,0,0,0-.85-.41,3.54,3.54,0,0,0-1.92.38,7.22,7.22,0,0,1-2.25.56,7,7,0,0,1-1.65-.21,4.38,4.38,0,0,0-1.23-.16,2.45,2.45,0,0,0-.38,0,2.89,2.89,0,0,1-1.94-.24c-.64.24-1.3.47-1.94.69-2.22.76-4.33,1.47-5.74,3.05a11.18,11.18,0,0,0-.74.93c-.23.3-.46.6-.72.9l5.45.53A3.82,3.82,0,0,1,220.73,412.9Z" style="fill:#fff"></path><path d="M289.59,385.29l.62-.05a8,8,0,0,1,5.29.91l.7.32a23.47,23.47,0,0,0,6.57,1.52,1,1,0,0,1,.85-.46c1.89,0,3.8-.9,5.58-1.45.68-.21,2.38-.59,2.37-1.54,0-.68-1.45-1.72-1.93-2.14h-19.7c-1.57.93-3.18,1.8-4.81,2.61A18.1,18.1,0,0,0,289.59,385.29Z" style="fill:#fff"></path><path d="M189.69,383.38a4.6,4.6,0,0,1-.89.19,1.56,1.56,0,0,0-.55.12l-.12.16a2.15,2.15,0,0,1-2.07,1h-2.79a2.72,2.72,0,0,0-.34.41l-.17.25a3.46,3.46,0,0,1-3.77,1.88l-.51,0a4.77,4.77,0,0,0-2.52.73c.16.25.3.51.43.76a3.61,3.61,0,0,0,.66,1,4.74,4.74,0,0,0,1.13.59,4.75,4.75,0,0,1,1.79,1.07l5.93-.6a2.47,2.47,0,0,0,.71-.14,2.21,2.21,0,0,0,.57-.6l.36-.46a8.19,8.19,0,0,1,3.71-2.07l.3-.11a32,32,0,0,0,5.11-2.28c1.68-.92,2.61-1.89,2.78-2.86h-8.36A3.33,3.33,0,0,1,189.69,383.38Z" style="fill:#fff"></path><path d="M41.36,392.51l0,0a1,1,0,0,1,.73-.42,5.82,5.82,0,0,1,1.87.22c.23.05.45.11.67.14a9.83,9.83,0,0,0,2.59-.07l4.45-.52a1.54,1.54,0,0,1-.5-.59,2,2,0,0,1-.2-.9c0-.06,0-.11,0-.17s-.25-.27-1.16-.37a1,1,0,0,1-.69-.41,15.05,15.05,0,0,0-2.21.06l-1.16.08h-.53a6.38,6.38,0,0,1-3.88-1.08A34.29,34.29,0,0,0,34,392,17.93,17.93,0,0,0,41.36,392.51Z" style="fill:#fff"></path><path d="M107.29,383.86a4.86,4.86,0,0,0,1,0,8.62,8.62,0,0,1,.88,0,5.52,5.52,0,0,1,3.92,1.93c2.73-.35,5.52-.46,8.26-.56h.3a26.27,26.27,0,0,0,5.77-.66,26.29,26.29,0,0,0,5.05-2.16H105.27A3.68,3.68,0,0,0,107.29,383.86Z" style="fill:#fff"></path><path d="M67.65,396.71a10.7,10.7,0,0,1,5.65-.36l1.35.17c-.19-.14-.38-.27-.59-.4a1.76,1.76,0,0,1-.63-.63c-.43-.76-.26-1.46-1.43-1.41-.4,0-.78.12-1.18.15-.93.06-1.92-.33-2.78,0a1.35,1.35,0,0,0,.88-.61,1.3,1.3,0,0,1,.15-.23.88.88,0,0,1,.23-.14l1.14-.49c-.4.17-1.64-.59-2-.7a3.68,3.68,0,0,0-2.47,0,5.12,5.12,0,0,0-.52.27,6.57,6.57,0,0,1-.88.42,6.45,6.45,0,0,1-2.69.24,7.07,7.07,0,0,0-1.46,0c-.23,0-.45.09-.67.15a6,6,0,0,1-1.48.23A4.05,4.05,0,0,1,57,393.2l-.06,0-9.5,1.1a11.27,11.27,0,0,1-3.14.07h0a12.2,12.2,0,0,0,2,1.23c.95.51,1.91,1,2.88,1.52,5.58.44,11.59.85,16.34,1.49A5,5,0,0,1,67.65,396.71Z" style="fill:#fff"></path><path d="M67.87,385.58c-1.52.2-3.09.39-4.65.44a22.79,22.79,0,0,1-6.57-.78,1,1,0,0,1-.35-.06l-.18.13a23.55,23.55,0,0,0-4,3.14A1.9,1.9,0,0,1,53.22,390a1.3,1.3,0,0,0,0,.59.76.76,0,0,0,.72.31,3.22,3.22,0,0,1,.82,0,4.31,4.31,0,0,1,.91.51,2.59,2.59,0,0,0,2-.1,5.18,5.18,0,0,1,1.05-.35A16.23,16.23,0,0,1,62,391a3.24,3.24,0,0,0,2.49-.42,6.76,6.76,0,0,1,.71-.36c2-.87,4.25,0,5.77.73a4.85,4.85,0,0,1,2.4-2.07,5.4,5.4,0,0,1,.86-.19,2.17,2.17,0,0,0,.68-.17,2.45,2.45,0,0,0,.6-.55c.12-.13.23-.27.36-.39A6.32,6.32,0,0,1,78,386.18a12.84,12.84,0,0,0-1.42-.53C73.82,384.83,70.93,385.2,67.87,385.58Z" style="fill:#fff"></path><path d="M84.13,389c-.62-.21-1.24-.44-1.84-.71s-1-.48-1.52-.73A5.45,5.45,0,0,0,77.25,389c-.1.1-.19.21-.28.31a4,4,0,0,1-1.19,1,4.06,4.06,0,0,1-1.26.35,3.48,3.48,0,0,0-.56.12,3,3,0,0,0-1.35,1.26l.24.09c.24.1.49.19.72.31a2.7,2.7,0,0,1,1.62,1.93v.07c.62.4,1.12.77,1.6,1.12a15.29,15.29,0,0,0,2.25,1.47l5.68.7a2.78,2.78,0,0,0,1.67-.1,2.7,2.7,0,0,0,.72-1.11c.14-.3.29-.6.45-.88,1.43-2.34,4.18-2.74,6.62-3.1l.13,0a27.34,27.34,0,0,0-6.63-2.48c-1.15-.32-2.32-.66-3.48-1.06Z" style="fill:#fff"></path><path d="M201.39,436.1a1.15,1.15,0,0,1,.28.19,84.49,84.49,0,0,0,14.8-2.14,1,1,0,0,1,.66-.35l.47,0a1,1,0,0,0,.4-.29,2.48,2.48,0,0,0,.3-.67,5.35,5.35,0,0,1,.43-1,5.15,5.15,0,0,1,3-1.9c3.26-1.05,6.57-2,9.89-2.92L212,421.57a11.14,11.14,0,0,0-2.18-.43,1,1,0,0,1-.45.11,1.1,1.1,0,0,1-.36-.07,1.88,1.88,0,0,0-.33.05,5.19,5.19,0,0,0-.85.34q-.31.15-.63.27a11.83,11.83,0,0,1-2.69.65,56.2,56.2,0,0,1-18.3-.27c-.74-.13-1.49-.28-2.23-.43a40,40,0,0,0-6-.89l-.3,0a2.85,2.85,0,0,1-.41,0c-.38,0-.76,0-1.14,0a30,30,0,0,0-6.48,1.43c-1.24.37-2.53.76-3.83,1a33.67,33.67,0,0,1-3.39.55,5.56,5.56,0,0,0,2.23,1.44,8.14,8.14,0,0,0,2.77.13c.5,0,1-.06,1.51,0,3.47,0,6.5,1.67,9.44,3.25a27,27,0,0,0,6.49,2.8,1,1,0,0,1,.68.58l3.73.1a11,11,0,0,1,2.41.26,10.82,10.82,0,0,1,1.29.46l.74.29c.3.1.61.18.92.26l.64.17a26.82,26.82,0,0,1,2.77,1Z" style="fill:#fff"></path><path d="M274,382.58l9,1.24h0l.61-.29c.75-.36,1.5-.74,2.23-1.13H273.1A8.43,8.43,0,0,0,274,382.58Z" style="fill:#fff"></path><path d="M183.7,382.64a1,1,0,0,1,.48.21H186a2,2,0,0,0,.43,0l.09-.14a2.64,2.64,0,0,1,.23-.29h-5.09Z" style="fill:#fff"></path><path d="M168.16,384.74l.25.22a5.67,5.67,0,0,0,1.29,1,6,6,0,0,0,2,.32,7,7,0,0,1,2.68.49,6.84,6.84,0,0,1,4.06-1.36l.6,0a1.6,1.6,0,0,0,2-1l0-.07-.36,0a6.14,6.14,0,0,1-1.69-.37,6,6,0,0,1-1.22-.72l-.18-.12a11.52,11.52,0,0,0-1.16-.7H164.74A18.31,18.31,0,0,1,168.16,384.74Z" style="fill:#fff"></path><path d="M101.31,385.84a5.5,5.5,0,0,1-1.22.35,5.22,5.22,0,0,1-2.2-.26,7.06,7.06,0,0,0-.92-.21,7.28,7.28,0,0,0-2.66.36,11.58,11.58,0,0,1-2.4.45c-.3,0-.6,0-.9,0a4.67,4.67,0,0,0-1.33.09,9.17,9.17,0,0,0-2.07,1.05l-.32.19c.31.1.63.19.94.27,3.08.87,6.24,1.78,8.79,3.86a19.87,19.87,0,0,0,4.36-2.16c.78-.46,1.58-.95,2.4-1.37a25.48,25.48,0,0,1,6.67-2.25,3.47,3.47,0,0,0-1.34-.36c-.24,0-.47,0-.71,0a6,6,0,0,1-1.45,0,3.86,3.86,0,0,1-1.17-.4,9.07,9.07,0,0,0-4.22.31Z" style="fill:#fff"></path><path d="M381.91,433a4.1,4.1,0,0,0-1.22-.5l-15.38-4.38a1,1,0,0,1-.35.26,8.57,8.57,0,0,1-3.44.48,8.85,8.85,0,0,0-2.23.18,8.45,8.45,0,0,0-1.31.49c-.29.13-.58.25-.88.36a9.56,9.56,0,0,1-5.16.44l-.13,0a2.41,2.41,0,0,0-.52-.07c-.32.05-.71.62-1,1s-.45.62-.67.93a5.21,5.21,0,0,1,1.26.33c1.7.73,3.22,2,5,2.44,2.47.64,5.11-.12,7.61.31,2,.34,3.83,1.38,5.83,1.68,4.67.7,8.82-2.61,13.23-3.17A2.1,2.1,0,0,0,381.91,433Z" style="fill:#fff"></path><path d="M133.42,384.17q-1.11.57-2.25,1.11a5.53,5.53,0,0,1,2.31.71,7.08,7.08,0,0,1,.82.64l.34.28c1.53,1.2,3.67,1.35,6.1,1.4,1.33-1.88,3.87-2.31,6-2.65l.87-.14a22.89,22.89,0,0,0,3.88-1.11l-.16-.05a2.81,2.81,0,0,1-1.55-.9,3.46,3.46,0,0,1-.29-.45.71.71,0,0,0-.08-.15c0-.05-.15-.14-.54-.25a7.29,7.29,0,0,0-1.15-.21h-1.64a5.72,5.72,0,0,0-.81.14,1.06,1.06,0,0,1-.78-.14h-7.19c-.47.18-1,.36-1.41.57C135,383.34,134.23,383.76,133.42,384.17Z" style="fill:#fff"></path><path d="M191.31,436.77c2-.07,4-.14,6-.23h0a25.49,25.49,0,0,0-2.56-1l-.59-.16c-.35-.09-.71-.18-1.06-.3l-.84-.32a9,9,0,0,0-1.05-.38,8.68,8.68,0,0,0-2-.2l-5.58-.16a.94.94,0,0,1-.66-.29,12.28,12.28,0,0,0-5.76,3,6,6,0,0,0,.88.44Z" style="fill:#fff"></path><path d="M220.16,450.17A18.49,18.49,0,0,0,228,450c.58-.17,4.74-.92,4.64-1.56-.05-.36-.52-.44-.88-.44H228c2.73-.28,5.46-.57,8.18-.9a6.68,6.68,0,0,0,1.6-.32c1-.4,1.84-1.29,2.92-1.49.33-.06.71-.08.92-.34a1.37,1.37,0,0,0,.19-.6c.13-.6.67-1,.8-1.51-1.4-.53-3.24-.2-4.7-.06a13.6,13.6,0,0,1-6.42-.43,1,1,0,0,1-.63-1,3.18,3.18,0,0,0-.25-2.27c-.42-.49-1.25-.52-2.48-.49-.37,0-.74,0-1.09,0A13.56,13.56,0,0,1,222.1,437a12.12,12.12,0,0,0-4.1-1.25c-.29.1-.57.19-.85.26-8.46,2.15-17.26,2.44-25.77,2.72l-4.87.16c-1,0-2.76-.27-3.68.13-1.36.59,1.28,1,1.85,1.05l-3.07-.23a7.93,7.93,0,0,1-1.18-.15c-3.46-.8-7.16-.36-10.69-.24l-7.34.24-.79,0a1,1,0,0,1-.63.51l-5.33,1.35a2.64,2.64,0,0,0-.84.31.64.64,0,0,0-.22.5.66.66,0,0,0,.18.52,1,1,0,0,1,.31,1,.63.63,0,0,1-.08.23l.4.11c2.94.82,8.13.33,11.16-.07a36.06,36.06,0,0,1,9.94.23l9.75,1.24,5.61.72,10.22,1.31,12.19,1.56C216.2,449.48,218.18,449.89,220.16,450.17Z" style="fill:#fff"></path><path d="M417,382.58a15.21,15.21,0,0,0,1.91,0,14.54,14.54,0,0,1,3,.12,14.8,14.8,0,0,1,3.34,1.15,6.82,6.82,0,0,0,6.13.61c.36-.09.72-.19,1.09-.27a5.92,5.92,0,0,1,4.35.37,13,13,0,0,1,1.63-.36c1.62-.29,3.26-.53,4.9-.74a6.51,6.51,0,0,0-1.27-1.06H417.21Z" style="fill:#fff"></path><path d="M455.25,397.36l.1,0c1-.35,2.1-.71,3.18-1-7.28-1.29-17.49-1.54-20-2.91l-5.8.23L423,399.17a14,14,0,0,1-3.36,1.53,13.47,13.47,0,0,1-2.38.33l-.83.07c-3.34.35-6.52,1.77-9.6,3.14a7.05,7.05,0,0,0-1.32.74c3.09-.25,6.2-.37,9.31-.36a25.67,25.67,0,0,1,8.15,1h.06c0-.1.08-.2.13-.3a3.67,3.67,0,0,1,3.36-1.83,13.52,13.52,0,0,1,1.61.12,10.06,10.06,0,0,0,1.31.11l.81-.06a7.73,7.73,0,0,1,1.6,0,7.16,7.16,0,0,1,1.61.41l.55.18a7.1,7.1,0,0,0,3.11.21h.1c3.06-1.45,6.21-2.8,9.36-4C449.47,399.34,452.41,398.33,455.25,397.36Z" style="fill:#fff"></path><path d="M63.16,384c1.47,0,3-.23,4.46-.42,3.13-.4,6.37-.81,9.51.13A22.9,22.9,0,0,1,81,385.44c.7.36,1.37.7,2,1,.47.21,1,.39,1.45.57a10.37,10.37,0,0,0,2-1,10.77,10.77,0,0,1,2.57-1.27,6.59,6.59,0,0,1,1.89-.16h.76a11.1,11.1,0,0,0,2-.39,8.51,8.51,0,0,1,3.43-.41,8,8,0,0,1,1.17.26,2.54,2.54,0,0,0,2.19,0l.27-.1a9.74,9.74,0,0,1,2.6-.53c-.14-.17-.28-.35-.41-.53l-.31-.41H61.47s-1.56.38-3.94,1A21,21,0,0,0,63.16,384Z" style="fill:#fff"></path><path d="M254.52,407.93h.12a25,25,0,0,0,7.77.35,2.43,2.43,0,0,1,1.46.17,2.49,2.49,0,0,1,.74.6l.09.1c.81.87,2.34.81,3.48.61l.94-.18a9.37,9.37,0,0,1,4.06-.23,4.36,4.36,0,0,1,2.84,2.21,3.27,3.27,0,0,1,.33,1.18,2.5,2.5,0,0,1,2,1.26,2.72,2.72,0,0,1,.19.47,1,1,0,0,1,.41.12c.59-.08,1.17-.16,1.76-.22l.63-.07a24.63,24.63,0,0,0,3.34-.48l.07-.06a37.89,37.89,0,0,1,9.79-3.28,46.72,46.72,0,0,0,7.25-2.13c-.58-.15-1.16-.32-1.72-.48a25.32,25.32,0,0,0-3.32-.85l-.66-.09a7.67,7.67,0,0,1-3-.84,7.46,7.46,0,0,1-.92-.65,3.46,3.46,0,0,0-1-.64,3.74,3.74,0,0,0-1.19-.08c-2.75.1-5.52.09-8.25,0a4.34,4.34,0,0,1-4-2l-.18-.23c-1.62-2-4-3.59-7.63-5.1,0,0-.07,0-.11-.07a8.64,8.64,0,0,0-2.72.6c-.57.18-1.16.38-1.77.52a17.7,17.7,0,0,1-5.28.14c-.5,0-1-.07-1.49-.09a26.92,26.92,0,0,0-9.22,1.18l-.63.2c-.51.16-1,.33-1.57.46a.64.64,0,0,1-.08.14,14.11,14.11,0,0,1-5,3.54l-.31.13a4.75,4.75,0,0,0-1.15.58,10.83,10.83,0,0,1,6.29,1.76l.16.13a2.29,2.29,0,0,0,.42.29,2.36,2.36,0,0,0,.85,0h.14a13.31,13.31,0,0,1,5,.48A3,3,0,0,1,254.52,407.93Z" style="fill:#fff"></path><path d="M84.66,399.77l-.17,0L78.73,399l-4-.49a17.09,17.09,0,0,1-3.4-.44,6,6,0,0,0-.67-.24c-1-.22-2.19.66-2.86,1.28.44.2.91.36,1.36.53a41.34,41.34,0,0,0,8,1.72c-.46.22-1-.05-1.52.16s-.71.78-1.2.8a3,3,0,0,1-.42-.05c-.49-.05-.36.65-.63,1-.38.48-2.07,1.94-2.7,1.87l2.9.3a16.36,16.36,0,0,0,2.79.11,1.34,1.34,0,0,1,.28,0,5.75,5.75,0,0,0,1-.2,10.18,10.18,0,0,0,1.49-.61,7.94,7.94,0,0,1,3-.93,8.11,8.11,0,0,1,2.12.24l.47.09A3.27,3.27,0,0,0,87,404a4.67,4.67,0,0,0,1.06-1,10,10,0,0,1,.72-.74,8.7,8.7,0,0,0-1.4-.7A5.54,5.54,0,0,1,84.66,399.77Z" style="fill:#fff"></path><path d="M140.92,390.29a.49.49,0,0,1-.15,0c-2.18-.05-5.16-.11-7.36-1.84-.14-.1-.27-.22-.41-.33a4.48,4.48,0,0,0-.58-.46,5.26,5.26,0,0,0-2.29-.51,7.76,7.76,0,0,1-2.73-.57,30.09,30.09,0,0,1-5.66.61h-.29c-5.77.21-11.73.44-16.75,3a10,10,0,0,0-2.06,1.18c.27.38.88.16,1.35.22s.88.53,1.37.68,1.14,0,1.48.41c-1.75-.1-3.52-.16-5.28-.18a2.91,2.91,0,0,0-1.68.32c-.32.22-.54.56-.87.78a5.15,5.15,0,0,1-1.89.4c-.88.17-1.75.35-2.64.49l-.59.08a4.62,4.62,0,0,1,1.92,1.05l.33.37a3.69,3.69,0,0,0,.62.59,3.53,3.53,0,0,0,2.22.08l.48-.08c4.11-.56,8.22,1.07,11.53,2.38l6.83,2.7c1.92-.89,4-.61,6.1-.33a13.28,13.28,0,0,0,4.38.11,11.61,11.61,0,0,0,2.15-.77c.39-.17.79-.33,1.19-.48a26.67,26.67,0,0,1,8.85-1.21,42.46,42.46,0,0,0,5.14-.32l-.57-.18c-.72-.22-.56-.86-.87-1.38a2,2,0,0,0-2-.83c1.4-.48,3-.89,3.08-2.61a2.77,2.77,0,0,0-1.31-2.16,10.38,10.38,0,0,0-3-1.24Z" style="fill:#fff"></path><path d="M89.68,396.2a3.33,3.33,0,0,0-.4.51,5.52,5.52,0,0,0-.34.69c-.57,1.21-1.75,1.65-2.87,2.33a36.52,36.52,0,0,0,5.11.49c-.7.2-1.46.77-.7,1.32.47.34,1.23.11,1.76.11a31.52,31.52,0,0,1,6.1.83c1.32.26,2.69.53,4,.68A32.76,32.76,0,0,0,110,403a1,1,0,0,1,.48-.06c1.2-.16,2.4-.36,3.6-.57l-3.79-1.5c-3.25-1.29-6.92-2.75-10.52-2.25l-.45.06a5,5,0,0,1-3.59-.36,4.86,4.86,0,0,1-1-1l-.28-.3C93.72,396.4,91.35,396.06,89.68,396.2Z" style="fill:#fff"></path><path d="M92.14,417.33a69.85,69.85,0,0,1,8.74,3c1.63.64,3.22,1.27,4.81,1.82a11.53,11.53,0,0,0,4.66-1.59l.36-.26c.41-.3,2.45-.83,1.92-1.51a.91.91,0,0,0-.63-.24,21.72,21.72,0,0,1-4.21-.87l2.14,0a10,10,0,0,0,1.45-.05,5.58,5.58,0,0,1,1-.12,5.06,5.06,0,0,1,.78.12,10.68,10.68,0,0,0,3.69-.2,6.19,6.19,0,0,0-3.14,1.2c.32-.24,1.57.44,1.85.6a3.85,3.85,0,0,0,1.75.63,34.25,34.25,0,0,0,4.75.11l12.27-.29a4.58,4.58,0,0,1-.8-1,4.83,4.83,0,0,0-.34-.45,5.06,5.06,0,0,0-2.34-1.17c-.45-.14-.9-.28-1.33-.46a15.18,15.18,0,0,1-4.2-2.94,1.67,1.67,0,0,1-.12-.16l-.22,0-4.78-.91a1,1,0,0,1-.65-.43,48.94,48.94,0,0,1-10.15,1.26,25.61,25.61,0,0,1-6.49-.78,7.66,7.66,0,0,1-1.68.47l-2.77.49a6.28,6.28,0,0,1-1.21.14,3.35,3.35,0,0,1-.87-.11,4.68,4.68,0,0,1-.9-.39l-.16-.07a1,1,0,0,1-.53.2,4.3,4.3,0,0,0-2.22,1.33,5.75,5.75,0,0,1-3.24,1.77,15.91,15.91,0,0,0,2.27.67Z" style="fill:#fff"></path><path d="M65.84,412.89a10.11,10.11,0,0,0,2.09,1,10.07,10.07,0,0,0,2.33.34,12.58,12.58,0,0,1,2.54.34,13.38,13.38,0,0,1,1.9.73,12.87,12.87,0,0,0,1.46.57,12.7,12.7,0,0,0,5.62-.1L86.6,415a2.71,2.71,0,0,1,2.18-.49H89c.76.08,1.46-.56,2.29-1.28A10.37,10.37,0,0,1,93,411.92a9.1,9.1,0,0,0-3.49-2.27,1,1,0,0,1-.65-.77,3,3,0,0,0-2.83-2.39,1,1,0,0,1-.64-.25c-.37,0-.71-.08-1-.13l-.5-.1a6.27,6.27,0,0,0-1.61-.2,6.48,6.48,0,0,0-2.24.74,11.19,11.19,0,0,1-4.39.65,4.28,4.28,0,0,0-1.24.18c-.85.32-1.67,1.19-2.49.82.33.36.91.28,1.4.2a16.62,16.62,0,0,1,5.22-.1,11.19,11.19,0,0,0-4.31,1,4.45,4.45,0,0,1-.86.32,3.56,3.56,0,0,1-1.3,0l-2.34-.31a3.62,3.62,0,0,0-1.67,0,6.18,6.18,0,0,0-.91.5c-.58.32-4,1.63-2.51,2.42C65.05,412.42,65.45,412.65,65.84,412.89Z" style="fill:#fff"></path><path d="M279.13,401.19l.2.25a3.65,3.65,0,0,0,.9.93,3.57,3.57,0,0,0,1.65.32c2.68.12,5.4.13,8.07,0a5,5,0,0,1,1.9.17,5.39,5.39,0,0,1,1.61,1,5.6,5.6,0,0,0,.68.5,6,6,0,0,0,2.24.58l.7.1a27.16,27.16,0,0,1,3.58.9c.9.27,1.74.52,2.61.71a11,11,0,0,0,1.53.22,1,1,0,0,1,.56,0,6.26,6.26,0,0,0,2.67-.47l-.35-1.4a5.35,5.35,0,0,0-2.85-1.66c-.3-.06-.61-.1-.93-.15a5,5,0,0,1-3.4-1.41,5.55,5.55,0,0,1-.81-1.42c-.21-.47-.4-.91-.65-1a1.65,1.65,0,0,0-.46-.06,5.67,5.67,0,0,1-.58-.05,4.49,4.49,0,0,1-3.06-2.66,1.48,1.48,0,0,1-.21,0,38.43,38.43,0,0,0-6.43-.48c-.77,0-1.45-.21-2.19-.24s-1.83.53-.7,1a1.7,1.7,0,0,1,.76.44c-.05-.06-2.67-.44-2.94-.49-.94-.15-1.9-.16-2.86-.32a4,4,0,0,0-2.1,0c-.21.08-2.2,1.75-1.82,2A14.92,14.92,0,0,1,279.13,401.19Z" style="fill:#fff"></path><path d="M294.65,388a9.37,9.37,0,0,0-2-.74,8.86,8.86,0,0,0-2.3,0l-.65,0a20,20,0,0,1-7.45-.92,33.87,33.87,0,0,1-7.76,2.42c-.72.12-1.44.2-2.17.29a19.69,19.69,0,0,0-4.52.9,4.68,4.68,0,0,0-1.64,1l.28,0,.51,0a5.44,5.44,0,0,1,4.69,4.91,18.72,18.72,0,0,0,2.94,1.45c1,0,1.1-1.37,2.15-1.52a2.44,2.44,0,0,0,.54-.09c.17-.07.31-.27.23-.43s-.79-.14-.83-.47c2.42-.56,4.88-.17,7.31-.44a40,40,0,0,1,7-.19c.86.06,2.87.67,3.63.36s1.2-1.44,2-1.81a6.17,6.17,0,0,1,2.38-.34l4.51,0a.9.9,0,0,0-.21-.65,5.45,5.45,0,0,1,3.48-1.8c1.08-.12,2.43,0,2.95-1a27,27,0,0,0-3.7.23c-1.69.22-3.6.86-5.3.62a21.19,21.19,0,0,1-5.4-1.52C295.15,388.2,294.9,388.08,294.65,388Z" style="fill:#fff"></path><path d="M313.68,384.11a4.15,4.15,0,0,1,.39.76l4.12-.74a2.6,2.6,0,0,0,1.13-.36,2.06,2.06,0,0,0,.29-.3,3.77,3.77,0,0,1,.67-.64,3,3,0,0,1,1-.43h-8.81A13.07,13.07,0,0,1,313.68,384.11Z" style="fill:#fff"></path><path d="M204.87,389.36a5.63,5.63,0,0,1-.59.05,4.73,4.73,0,0,1-.83-.07,8.94,8.94,0,0,1-2.95-1.2,5.75,5.75,0,0,0-2.69-1,1,1,0,0,1-.36-.05,35,35,0,0,1-5.24,2.32l-.31.11a6.46,6.46,0,0,0-2.85,1.5c-.1.11-.19.23-.28.35a3.14,3.14,0,0,1-2.67,1.52l-5.54.56a2.39,2.39,0,0,1-.54,1.15,2.77,2.77,0,0,1-.62.53,3.49,3.49,0,0,1-.83,2.44,28.45,28.45,0,0,0,4.77,1.69.81.81,0,0,1,.38,0l5.46.66a1.7,1.7,0,0,0,.45,0s.05-.12.1-.2a3.35,3.35,0,0,1,.21-.36,3.59,3.59,0,0,1,3.84-1.2,10.94,10.94,0,0,1,1.8.65c.4.17.77.33,1.15.45a5.4,5.4,0,0,0,4.66-.76c.25-.19.49-.39.73-.59a8,8,0,0,1,1.7-1.2,7.66,7.66,0,0,1,3.85-.47,10.48,10.48,0,0,0,2,0,10.18,10.18,0,0,0,3.59-1.57l.61-.36a18.25,18.25,0,0,1-3.37-2.17c-1.66-1.24-3.23-2.42-5-2.47A1,1,0,0,1,204.87,389.36Z" style="fill:#fff"></path><path d="M177.42,392.3a6,6,0,0,1-1.69-.93,5.18,5.18,0,0,1-1.11-1.58,3.54,3.54,0,0,0-.64-1,3.68,3.68,0,0,0-2.33-.57,12.47,12.47,0,0,1-1.57-.16,4.71,4.71,0,0,1-.92,1.16l-.49.39a2,2,0,0,0-.61.58,1.87,1.87,0,0,0-.08.88l2.76,1a8.79,8.79,0,0,0,1.73.47,6.7,6.7,0,0,0,1.11,0h.77a17.25,17.25,0,0,1,3.86.75.68.68,0,0,1,.17.09.91.91,0,0,0,.13-.1.39.39,0,0,0,.1-.27C178.53,392.77,178.11,392.58,177.42,392.3Z" style="fill:#fff"></path><path d="M134.73,416.88a3.36,3.36,0,0,0,.76.18c1.94.24,3.92-.25,5.84.22-1,.12-2.08-.2-2.87.38-.42.31-.7.86-1.22.95a3,3,0,0,0-.52.08c-.17.08-.27.32-.13.43a.32.32,0,0,0,.24.06c1.12,0,1.62.51,2.65.89,1.38.56,2.88.4,4.28.84,1.22.38,2.26,1.25,3.52,1.45,1.08.18,2.24-.16,3.28.2a7,7,0,0,0,1.16.43,2.94,2.94,0,0,0,1.1-.13c4.2-1,8.39-.48,12.58-1.41,1.23-.28,2.48-.65,3.69-1a31.75,31.75,0,0,1,6.91-1.51,17.42,17.42,0,0,1,1.77,0c.77-.07,1.64-1.54,2-2.18a5.12,5.12,0,0,0-2.23-.27,7.4,7.4,0,0,1,3.76-.55,29,29,0,0,0,3.84.17,2.64,2.64,0,0,1,1.05,0,4.1,4.1,0,0,1,.48.21,4.47,4.47,0,0,0,3.37-.41,4.67,4.67,0,0,1,3.52-.5,5.14,5.14,0,0,1,.94.5,2.82,2.82,0,0,0,.48.27,3.62,3.62,0,0,0,1.72.12,8.51,8.51,0,0,1,1.6,0,4.89,4.89,0,0,1,2,.74l.18-.1.58-.23a3.59,3.59,0,0,0,1-.5,3.5,3.5,0,0,0,.53-.63l.79-1.06a44.52,44.52,0,0,0-10.64-4.32c-1.55-.4-3.15-.72-4.71-1L172.79,406a1,1,0,0,1-.51,0c-2.13-.43-4.28.34-6.56,1.15a19.72,19.72,0,0,1-5.69,1.42,20,20,0,0,1-2.34-.08,14,14,0,0,0-2.58,0,13.76,13.76,0,0,0-2.74.73c-.46.16-.92.31-1.38.44a9.42,9.42,0,0,1-2.67.43,5.56,5.56,0,0,1-2.12-.4,10.83,10.83,0,0,0-2.83,1.07,18.21,18.21,0,0,1-1.73.79,22.73,22.73,0,0,1-7.13,1.19,30,30,0,0,0-4.93.55l-.49.12-.82.19a8.61,8.61,0,0,0,2,1.21,10.72,10.72,0,0,0,1.17.4C132.6,415.62,133.63,416.48,134.73,416.88Z" style="fill:#fff"></path><path d="M396.56,404.93a.93.93,0,0,0-.1-1,2,2,0,0,0-1.21-.68,5.58,5.58,0,0,1-1.35-.42c-.09-.06-.19-.14-.16-.25s.13-.13.22-.16l7.54-2-2.09-.71a4.84,4.84,0,0,1,2.9-.21l3.16.43a7,7,0,0,1-2.65.93,11.3,11.3,0,0,0-4.32,2.1.62.62,0,0,0-.18.18c-.15.31.27.59.61.62s.78.08.87.41c0,.15,0,.34.09.46a.48.48,0,0,0,.35.13c.52.07,1.7.81,2.1.72.64-.13.73-.82,1.12-1.31a6.79,6.79,0,0,1,2.57-1.79c3.07-1.37,6.55-2.92,10.21-3.31l.88-.07a8.76,8.76,0,0,0,4.9-1.61l8.36-4.78a3.33,3.33,0,0,1-.27-.81,1.42,1.42,0,0,0-.05-.22,1.85,1.85,0,0,0-1.39-1.1,7.66,7.66,0,0,0-2.21-.07l-.43,0a51,51,0,0,1-11.35-1.18,9.6,9.6,0,0,1-4.13-1.5,27.63,27.63,0,0,0-6.45.57,26.85,26.85,0,0,1-7.56.52c-.59-.07-1.19-.18-1.79-.28-2-.34-3.81-.67-5.15.25l-.37.28a4.92,4.92,0,0,1-1,.64,4.18,4.18,0,0,1-1.84.37c-.35,0-.7,0-1-.05q-3-.24-6-.26c-1.51,0-3.89-.55-5.28.1-.27.13-.51.31-.76.46a6.21,6.21,0,0,1-2.41.6c.89.56,1.56,1.36,2.67,1.39,2.64.06,5.29,0,7.93-.05a51,51,0,0,1-8.28.35,10.33,10.33,0,0,0-3.64.1,12.1,12.1,0,0,1-1.52.47c-.48.07-1,0-1.43,0-1.73.14-3.21,1.88-4.9,2.44a7.47,7.47,0,0,0-1.81.77l.78,1.45a18.69,18.69,0,0,0,9.38,2.92h.42a13.34,13.34,0,0,1,1.64.12,12.79,12.79,0,0,1,2.07.58,119.59,119.59,0,0,0,20,5.06C394.82,406.28,396.17,405.7,396.56,404.93Z" style="fill:#fff"></path><path d="M375.85,413.56a22.28,22.28,0,0,1,5.5-.83c.84-.05,1.7-.11,2.52-.21a21.62,21.62,0,0,0,7.78-2.52,5.9,5.9,0,0,0,.86-.58.81.81,0,0,1-.14-.12,1,1,0,0,1-.12-1,121.91,121.91,0,0,1-18.56-4.81,11,11,0,0,0-1.81-.52,11.6,11.6,0,0,0-1.37-.1h-.44a20.28,20.28,0,0,1-6.62-1.34,14.45,14.45,0,0,1-4.93-3.17c-.7-.63-1.82-.61-2.51-1.25a1.51,1.51,0,0,0-.47-.37,1,1,0,0,0-.64,0l-2.78.72a2.49,2.49,0,0,0,1.05,1.52l-2.28-.69a1.39,1.39,0,0,0-.6-.09,3.53,3.53,0,0,0-.79.42c-.94.45-1.92-.49-2.94-.69s-2.11.33-3-.18a4.68,4.68,0,0,0-.72-.47,1.74,1.74,0,0,0-1.14.12l-3.42,1.15a1.34,1.34,0,0,0,.91.68c1,.37.81,1.13,1.5,1.75s2.42,1.16,3.42,1.67a1.69,1.69,0,0,1,1.05,1.36,1.66,1.66,0,0,1-.68,1.38c-.76.66-2.33,1.59-2.56,2.49a3.24,3.24,0,0,0,1.92.31c.5-.05,1-.19,1.49-.22a6.85,6.85,0,0,1,2.14.35,21.83,21.83,0,0,0-4.05.94c-1.56.47-3.1.95-4.63,1.51,2.4.79,4.78,1.67,7.17,2.5a15.48,15.48,0,0,0,3.06.84,15.18,15.18,0,0,0,1.81.08c.42,0,.85,0,1.27,0a13.75,13.75,0,0,1,5.19,1.34,1,1,0,0,1,.35.3,25.76,25.76,0,0,1,3.62.06c.76.07,1.52.18,2.29.29a15.38,15.38,0,0,0,5.43.17,15.14,15.14,0,0,0,3.7-1.48A22.86,22.86,0,0,1,375.85,413.56Z" style="fill:#fff"></path><path d="M406.89,383.62l.28.33.16.18a3.6,3.6,0,0,0,1.43-.6l.2-.11a10.42,10.42,0,0,1,2.44-1h-6.24A5.29,5.29,0,0,1,406.89,383.62Z" style="fill:#fff"></path><path d="M262.31,421.13a35.34,35.34,0,0,0,17.81,3.2l.73-.07a16.34,16.34,0,0,1,3.89-.05,5.88,5.88,0,0,0,3.09.14c2.2-.61,4.21-2,6.55-2.05a14.33,14.33,0,0,1,2.52.24c3.53.49,6.43-1.45,9.79-2,2.18-.37,4.62.34,6.72-.32,1-.31,2.43-1.92,3.38-1.86h-.21a22.92,22.92,0,0,1-3.86-.75c-.76-.19-1.47-.37-2.2-.51a35.89,35.89,0,0,0-7.9-.27l-2,.07a74.3,74.3,0,0,1-15.11-1.17,24.55,24.55,0,0,1-3.94.6l-.62.07a117.49,117.49,0,0,0-20.74,4.52c.39.09.78.21,1.17.32A1,1,0,0,1,262.31,421.13Z" style="fill:#fff"></path><path d="M276.6,414.92s-.19-.28-1.33-.2a1,1,0,0,1-1-1.41,1,1,0,0,0-.06-.86,2.35,2.35,0,0,0-1.49-1.15,7.68,7.68,0,0,0-3.22.24l-1,.19c-2.33.4-4.16,0-5.28-1.2l-.13-.14-.16-.17-.33,0A26.94,26.94,0,0,1,255,410a.87.87,0,0,1-.11.18,1.77,1.77,0,0,1-1,.58,8.05,8.05,0,0,1-2.11.19,3.93,3.93,0,0,0-2.05.34,3.72,3.72,0,0,0-.66.62A4.8,4.8,0,0,1,247.7,413c-1.38.67-2.75.11-4-.38s-1.8-.68-2.33-.4a3,3,0,0,0-.67.63,4,4,0,0,1-3,1.58,61.45,61.45,0,0,1-8.47.78,26,26,0,0,0,6.63,1.38,27.25,27.25,0,0,1,7.39,1.61,1,1,0,0,1,.57,1.22c0,.11.13.38.38.51a3.9,3.9,0,0,0,1.61.2l10.18-.13a159,159,0,0,1,20.52-5.1Z" style="fill:#fff"></path><path d="M209.26,419.34c.49-.37.82-.9,1.38-1.14s1-.2,1.56-.7c.18-.17.36-.33.54-.47a5,5,0,0,1,2.83-1,7.63,7.63,0,0,1,.83,0,5.46,5.46,0,0,0,.81,0,3.75,3.75,0,0,0,2.27-1.51,3.49,3.49,0,0,0-.79-.14l-7.57-.74a6.48,6.48,0,0,1-2.91.61c-.24,0-.47,0-.7,0a5.72,5.72,0,0,0-1,0,.82.82,0,0,0-.63.34,1,1,0,0,1-.3.41l-1.34,1.82a5.32,5.32,0,0,1-.85,1,4.6,4.6,0,0,1-1.3.73c1.15.22,2.19-.2,3.32.26.2.08.43.22.42.43s-.06.25,0,.34a.4.4,0,0,0,.13.07,3.64,3.64,0,0,0,3.08-.06A1.64,1.64,0,0,0,209.26,419.34Z" style="fill:#fff"></path><path d="M186.53,420.25a54.51,54.51,0,0,0,17.66.26l.32-.06-.88,0c-1,0-3,.15-4-1.37l-.06-.13a2.79,2.79,0,0,0-1.54-.72,7.44,7.44,0,0,0-1.24,0,5.32,5.32,0,0,1-2.67-.28,6.11,6.11,0,0,1-.75-.41,2.29,2.29,0,0,0-.54-.3,3.05,3.05,0,0,0-2,.45,10.3,10.3,0,0,1-1.5.56,9.13,9.13,0,0,1-2.79.14l-.79,0a22,22,0,0,0-5.25.71v0c1.29.18,2.58.44,3.84.69Q185.44,420.06,186.53,420.25Z" style="fill:#fff"></path><path d="M235.72,426.12l19.67-2.82a33,33,0,0,0,3.55-.64,28.24,28.24,0,0,0-3.43-.45A1.07,1.07,0,0,1,255,422l-9.12.12h-.34a4.9,4.9,0,0,1-2.17-.4,2.74,2.74,0,0,1-1.48-1.94,29.17,29.17,0,0,0-6.22-1.21,25.86,25.86,0,0,1-7.8-1.79c-.37-.17-.73-.36-1.08-.54a7.84,7.84,0,0,0-2.77-1,8,8,0,0,0-3.14.67h0a5.51,5.51,0,0,1-3.47,2.08,8.61,8.61,0,0,1-1.13,0c-.22,0-.44,0-.66,0a3,3,0,0,0-1.68.62c-.15.12-.29.25-.43.38a7.49,7.49,0,0,1-.89.71l23,6.41Z" style="fill:#fff"></path></g></g><g id="freepik--Tree--inject-20"><path d="M431.25,287.88l-9.59,1.26,8-13.58,15.51-10.87-16,8.47-4.8-10.22,2.52-5.65-3.51,4.61-6.64-4.9,6.15,6.38,5.06,10.78-9.44,14.26-13.56,5.8-22.12-76.7L362.37,202.6l4.22-18.09,0-.19,11.26-9.25L366,183,359.33,174l-3.64-8.74,2.25,9.36,0,.08.08.12,6.34,9.61-5.15,15.94-5.41-3.95L344,154.46l2-12,3.52-4.95-4.1,3.53-7.25-10.4-.9-10.69-.6,11v.21l.15.21,7.63,10.95-2.62,8.44-11.53-7.17,9.45,8.62,3.74,36.4-20.85-10.5L314.1,162.6l.7-6.17-1.92,5.33L305,158.51,296.35,150l7.07,8.93-6.74,4.2,7.86-3.19,8.2,3.37L319,178.58l-16.71,3.49-11.9-1.59,10.95,2.89-2,5.81,3.41-5.63L320.29,181l.08.05,24,16.53.29,2.88L332,202.82l-7.49-4,6.26,4.86-3.44,3.88,4.78-3.22,15-.15,22.92,16.82,11.88,70.67-62.44,72.63L311.13,387l-4.22,1.12-6.11,1.74,7.23.83-3.5,1-.51,1.8h-5.3L309.8,395l2.64-1.57,12.25,1.76,2.18,1.09,5.24,2.18L337,400a9,9,0,0,1-1.79-2.45,6.48,6.48,0,0,1,3.68-1.11,8.79,8.79,0,0,0,1.43.2,6.06,6.06,0,0,0,1.31-.3,4.55,4.55,0,0,1,3.16.34,2.36,2.36,0,0,0,1.23.42,2.67,2.67,0,0,0,.94-.4c2-1,4.13.14,6.09-1.27a3.5,3.5,0,0,1,.73-.47,2.56,2.56,0,0,1,1-.1c1.66,0,3.32.05,5,.1,1.42,0,2.15-.85,3.33-1.59l6.63-1.54-9.08-2.47,5.69-38.4,33.79-46.51L419.49,291l11.67-1.54,2.49,6-3.51,7.65,4.68-6.78,2.7.71-2.38-2-2.64-6.35,5.37-8.57Z" style="fill:#263238"></path><polygon points="392.87 293.13 386.81 301.51 391.31 298.88 343.73 361.49 338.14 378.74 341.32 361.14 379.96 308.99 338.05 362.35 331.01 389.21 328.62 384.54 330.4 367.13 325.24 384.54 319.17 389.21 320.91 366.87 314.44 383.14 319.49 364.35 381.94 291.72 370.05 221.05 347.13 204.23 332.1 204.37 327.32 207.6 330.76 203.72 324.5 198.87 331.99 202.82 344.68 200.46 344.39 197.58 320.37 181.05 320.29 181 302.73 183.55 299.33 189.18 301.3 183.37 290.35 180.48 302.25 182.07 318.96 178.58 312.74 163.35 304.54 159.99 296.68 163.17 303.42 158.96 296.34 150.04 304.98 158.51 312.88 161.75 314.8 156.43 314.11 162.6 322.62 178.11 343.46 188.61 339.72 152.21 330.28 143.59 341.81 150.76 344.43 142.31 336.65 131.16 336.66 130.94 337.26 119.97 338.17 130.67 345.37 141 341.89 153.92 349.96 200.17 370.78 215.79 361.03 206.06 378.37 219.78 397.95 293.26 385.62 256.37 392.87 293.13" style="fill:#fafafa;opacity:0.2"></polygon></g><g id="freepik--Plants--inject-20"><path d="M414.23,371.43s5.62-1.88,7.58,0,0,6.21,3.32,8.59,5.09,4.83,3,8.42-3.52,7.87-2.63,9.3-1.32,6.45-1.32,6.45,2-2.2-2-4.16-7.47-4.77-7.3-9,.67-2.68-2.77-7.34S414.23,371.43,414.23,371.43Z" style="fill:#407BFF"></path><path d="M382.59,382.25a4.75,4.75,0,0,1,3.73,2.67c1,2.42-1.11,4.46.34,6.34s2.3,3.14,1.45,4.76-3.83,5.36-3,6.64-.26,3-.26,3a1.92,1.92,0,0,0-1.44-2.38c-2-.6-3.66-2.93-3.49-6.06s-1.11-6-2.22-8.7S382.59,382.25,382.59,382.25Z" style="fill:#407BFF"></path><path d="M259.88,370.91c.82.79-.61,3.07-.41,4.13s.81,2.41,1,3.78.61,2.33,1.82,2.78.77,1.38,1.82,1.87,1.26,1.65,1.51,1.91,0,1.11,0,1.11,1.51-.55,1.56-1.71a12.63,12.63,0,0,1,.66-3.48,6.7,6.7,0,0,0,0-4.29c-.56-2.22.5-3.33-.86-4.79a7.52,7.52,0,0,0-5.55-2A4.61,4.61,0,0,0,259.88,370.91Z" style="fill:#407BFF"></path><path d="M235,391c2.51.31,3.86,1.55,6.95,1.26a25,25,0,0,1,5.86-.11,15.77,15.77,0,0,0,5.44-.5c1.75-.47,3.9,0,5.38-.65,1.09-.47-.68-.93-1.05-1-1.09-.24-2.21-.33-3.28-.66s-1.67-1.45-2.64-2a8.51,8.51,0,0,0-1.85-.6c-1.33-.39-2.54-1.18-3.92-1.32a8.61,8.61,0,0,0-5.16,1.24c-.49.35-2.54,1.71-2.55,2.4A23.58,23.58,0,0,1,235,391Z" style="fill:#263238"></path><path d="M253.57,376.4c-1.61,1.72-3.15,6.16-1,8.17s.31,1.9,1,3.33,1.22,2.7,2.42,3.09a12.67,12.67,0,0,0,6.76,0,13.89,13.89,0,0,1-3.78-4.2c-1.16-2.32-.15-1.42-1-3.83S253.57,376.4,253.57,376.4Z" style="fill:#407BFF"></path><path d="M316.15,394.9s-1.24,3.76-.56,4.72,2.23,2.06,1.34,4-1.55,3.56-.64,4.78.71,3.27,1.68,5.14a2.56,2.56,0,0,1,0,2.94,52.51,52.51,0,0,0,2.49-4.83c.78-1.89,2.39-3.11,2.39-5.26s1.61-3.36,0-5.65.53-3-2.39-4.66S316.15,394.9,316.15,394.9Z" style="fill:#407BFF"></path><path d="M280.48,389.14c2.83,2.17,3.16,3.93,2.52,5.94s.25,3.49.28,5.78-1.68,4.28-2.8,5.65a9.05,9.05,0,0,0-1.75,6c.3,1.81-3.09,3.46-3.09,3.46s3.29-2.58.77-4.33-4.62-6.05-4-8,.94-3.28.67-7.52S280.48,389.14,280.48,389.14Z" style="fill:#407BFF"></path><path d="M285.73,426.44s6.72-2.56,8.6-2.64,8.83,0,8.83,0,2.2-1.92,3.28-2.07,4.33-.72,6.19.46,8.82,0,8.87,0c-.69.12-1.44,1-2,1.34a28.17,28.17,0,0,1-3.5,1.55,54.88,54.88,0,0,0-7.52,4.13,2.73,2.73,0,0,0-.73.62c-.21.29-.3.65-.52.93-.68.87-2.05.49-3.05,0l-4.2-1.89a11.83,11.83,0,0,0-4.52-1.46,32.3,32.3,0,0,1-4-.23c-1.35-.17-2.69-.35-4-.54A5,5,0,0,0,285.73,426.44Z" style="fill:#263238"></path><path d="M319.82,404a1,1,0,0,1,.6.81A2.2,2.2,0,0,0,320,403a8.09,8.09,0,0,1-2-4.37c-.34-2-.16-5.55-1.58-8.06s-3.33-2.94-6.76-2.74a12.93,12.93,0,0,0-6.47,2.74s-3-5.46-3.82-6-2.41-2.6-3.93-3.51-5.25-.61-6.13-.73-4.66,1-6.51,4.34a32.44,32.44,0,0,1-4.21,5.88c-1.51,1.93.21,6.34.31,8.36s-2.12,4.74-2.12,4.74h1s2.12-4.13,2-4.64-.3-5.55.31-7.36,5.14-6.86,6.76-7.08,5.54-1.09,6.55-.69,5.45,7.34,7.24,9.48-.38,8.17-1.08,10.39,2.13,21,2.13,21l-3.55.86s7.67,2.07,7.57.82,5.35-2.64,5.35-2.64a26.63,26.63,0,0,0-2.73-2.77c-1.61-1.41-.8-2.52-1.71-4.33s-1.11-7.77-1.87-9.79.86-5.85,2.37-8.07.1-5.14.1-6.56,2.42-2.12,5.35-1.7,2,.9,2.82,2.25S318.21,403.18,319.82,404Z" style="fill:#407BFF"></path><path d="M319.82,404a1,1,0,0,1,.6.81A2.2,2.2,0,0,0,320,403a8.09,8.09,0,0,1-2-4.37c-.34-2-.16-5.55-1.58-8.06s-3.33-2.94-6.76-2.74a12.93,12.93,0,0,0-6.47,2.74s-3-5.46-3.82-6-2.41-2.6-3.93-3.51-5.25-.61-6.13-.73-4.66,1-6.51,4.34a32.44,32.44,0,0,1-4.21,5.88c-1.51,1.93.21,6.34.31,8.36s-2.12,4.74-2.12,4.74h1s2.12-4.13,2-4.64-.3-5.55.31-7.36,5.14-6.86,6.76-7.08,5.54-1.09,6.55-.69,5.45,7.34,7.24,9.48-.38,8.17-1.08,10.39,2.13,21,2.13,21l-3.55.86s7.67,2.07,7.57.82,5.35-2.64,5.35-2.64a26.63,26.63,0,0,0-2.73-2.77c-1.61-1.41-.8-2.52-1.71-4.33s-1.11-7.77-1.87-9.79.86-5.85,2.37-8.07.1-5.14.1-6.56,2.42-2.12,5.35-1.7,2,.9,2.82,2.25S318.21,403.18,319.82,404Z" style="opacity:0.4"></path><path d="M264.12,380.9a1.86,1.86,0,0,0-.26-1.16c-.6-.66-.7-2.25-.83-5.7s-3.2-4.24-5.22-6.05-5.45-4.75-7.57-2.43-6.45,6.46-6.05,8.78.1,4,.51,5.85-1.92,7.29-1.92,7.29l-1.8,1.39s2.61-.31,3.72.56,5.85,0,5.85,0l-1.73-1.17a75.94,75.94,0,0,0-.49-8.07c-.41-2-1-4.84-.43-5.85s1.13-1.51,2.95-1,2.12,3.23,2,5.29.7,2.78,1.81,4,1.16,1.62,1.16,1.62-.25-2.63-.75-2.78-.71-1.46-.71-2.83a16,16,0,0,0-.92-5.89c-.83-1.82-4.64-2.22-4.64-2.22,1.1-.81,2.94-2.62,4.64-1.92s3.75,1.72,6.44,2.72.74,2.22,1.44,4,.1,3.43,1.69,4.39a2,2,0,0,1,.84,1.16Z" style="fill:#407BFF"></path><path d="M264.12,380.9a1.86,1.86,0,0,0-.26-1.16c-.6-.66-.7-2.25-.83-5.7s-3.2-4.24-5.22-6.05-5.45-4.75-7.57-2.43-6.45,6.46-6.05,8.78.1,4,.51,5.85-1.92,7.29-1.92,7.29l-1.8,1.39s2.61-.31,3.72.56,5.85,0,5.85,0l-1.73-1.17a75.94,75.94,0,0,0-.49-8.07c-.41-2-1-4.84-.43-5.85s1.13-1.51,2.95-1,2.12,3.23,2,5.29.7,2.78,1.81,4,1.16,1.62,1.16,1.62-.25-2.63-.75-2.78-.71-1.46-.71-2.83a16,16,0,0,0-.92-5.89c-.83-1.82-4.64-2.22-4.64-2.22,1.1-.81,2.94-2.62,4.64-1.92s3.75,1.72,6.44,2.72.74,2.22,1.44,4,.1,3.43,1.69,4.39a2,2,0,0,1,.84,1.16Z" style="opacity:0.4"></path><path d="M382.59,414.14a24.73,24.73,0,0,0,9.92,2.45c5-.06,8.36-1,11.6-1.22s8.51-.72,8-1.23-6.34-4.67-10.74-5a11.63,11.63,0,0,0-8.86,2.65C390.32,413.47,382.59,414.14,382.59,414.14Z" style="fill:#263238"></path><path d="M393.55,412.87s6.07-11.35,3-15.51-2.53-11.67-3-12.16-.51-6.42-3.06-6.86-9,4.83-7.9,6.53.75,6.59.75,6.59a8.89,8.89,0,0,0-2.21-3.7c-1.7-1.7,1.39-5.8,1.46-7.41s3.61-3.48,6.44-4.67a5.8,5.8,0,0,1,6.91,2.66,53.61,53.61,0,0,1,1.49,5.32s6.29-8.49,8.95-11.89,4.88-2.14,6.92-1.58,4.42,1.07,5.27,2.94,2.05,9.52,2.05,9.52-2.19-4.42-3.65-7.48-8.1-3.06-8.69-2.72-3.15,5.6-4.34,7.9-3.75,3.51-3.32,6.14.94,8.22,2.81,12.25.5,12,2.75,14.11a25.36,25.36,0,0,0-3.61.76c-1.87.54-5,1.71-5.75.87S393.55,412.87,393.55,412.87Z" style="fill:#407BFF"></path><path d="M393.55,412.87s6.07-11.35,3-15.51-2.53-11.67-3-12.16-.51-6.42-3.06-6.86-9,4.83-7.9,6.53.75,6.59.75,6.59a8.89,8.89,0,0,0-2.21-3.7c-1.7-1.7,1.39-5.8,1.46-7.41s3.61-3.48,6.44-4.67a5.8,5.8,0,0,1,6.91,2.66,53.61,53.61,0,0,1,1.49,5.32s6.29-8.49,8.95-11.89,4.88-2.14,6.92-1.58,4.42,1.07,5.27,2.94,2.05,9.52,2.05,9.52-2.19-4.42-3.65-7.48-8.1-3.06-8.69-2.72-3.15,5.6-4.34,7.9-3.75,3.51-3.32,6.14.94,8.22,2.81,12.25.5,12,2.75,14.11a25.36,25.36,0,0,0-3.61.76c-1.87.54-5,1.71-5.75.87S393.55,412.87,393.55,412.87Z" style="opacity:0.4"></path></g><g id="freepik--Hoe--inject-20"><path d="M122.42,314.08a590.64,590.64,0,0,1,1.28,90.42c-.18,2.59-.3,4-.3,4l-8,.29s4.83-40.89-.63-94.7c-4.36-43.05,3.46-53.91,3.46-53.91l.39-.17c4.19-1.72,8.62,1.08,8.62,1.08C121.44,268.42,119.82,286.63,122.42,314.08Z" style="fill:#407BFF"></path><path d="M122.42,314.08a590.64,590.64,0,0,1,1.28,90.42l-6.17.23s4.82-40.9-.63-94.71c-3-29.52-.26-43.9,1.76-50,4.19-1.72,8.62,1.08,8.62,1.08C121.44,268.42,119.82,286.63,122.42,314.08Z" style="fill:#fff;opacity:0.15"></path><path d="M156.21,413.41h-.1l-1.22.13-.76.06c-6.07.55-24.49,1.83-42.27-.8A3.7,3.7,0,0,1,108.5,409l.06-.85a2.56,2.56,0,0,1,2.55-2.37H131a2.68,2.68,0,0,1,.88.16l.07,0A224.76,224.76,0,0,0,156.21,413.41Z" style="fill:#263238"></path><path d="M113.49,407.08s1.82-1.67,2-6.06l8.74.42a21.69,21.69,0,0,1,.8,6.28C124.81,410.23,113.49,407.08,113.49,407.08Z" style="fill:#263238"></path><path d="M156.21,413.41h-.1c-.37.05-.78.09-1.22.13l-.76.06c-7.95.59-24.68.2-24.68.2a40.7,40.7,0,0,1-18.6-7.37,6.59,6.59,0,0,1,3.15,0c1.44,2,9.28,4.56,10.64,3.68a3.37,3.37,0,0,0,1.26-3c0-.44,6-1.1,6-1.1l.07,0A224.76,224.76,0,0,0,156.21,413.41Z" style="fill:#fff;opacity:0.2"></path></g><g id="freepik--Character--inject-20"><path d="M173.58,255.79s-6.13-.9-8.43,0-5.16,13.75-3.7,14.61,1.72-5.23,2.3-5-1.47,10.08-.77,11,1.85-2,2.49-7.46c0,0-1.08,7.72-.13,8.1s2.07-7.91,2.07-7.91-.79,7.75.3,7.93,1.4-8.51,1.4-8.51-.32,6.71.64,6.77,1.85-14.11,1.85-14.11Z" style="fill:#407BFF"></path><path d="M173.57,255.79l-.22.61-1.75,4.81s-.9,14.17-1.86,14.11c-.75-.05-.7-4.27-.67-6-.1,2.1-.48,7.9-1.37,7.76s-.4-6.82-.3-7.81c-.15,1-1.17,8.15-2.06,7.79-.71-.28-.3-4.58,0-6.8a30.53,30.53,0,0,1-.87,4.27h0c-.5,1.7-1,2.4-1.44,1.89s-.1-2.41.19-4.62c.38-2.94.9-6.21.57-6.35s-.38.75-.58,1.77v0c-.32,1.65-.75,3.76-1.71,3.18-1.46-.86,1.4-13.72,3.7-14.61S173.57,255.79,173.57,255.79Z" style="fill:#fff;opacity:0.5"></path><path d="M173.35,256.4l-1.75,4.81s-.9,14.17-1.86,14.11c-.75-.05-.7-4.27-.67-6-.1,2.1-.48,7.9-1.37,7.76s-.4-6.82-.3-7.81c-.15,1-1.17,8.15-2.06,7.79-.71-.28-.3-4.58,0-6.8a30.53,30.53,0,0,1-.87,4.27h0c-.71.14-1.1-1-1.25-2.73.38-2.94.9-6.21.57-6.35s-.38.75-.58,1.77c.23-3.65.91-7.55,1.69-8.8C166.12,256.37,171.22,256.32,173.35,256.4Z" style="opacity:0.1"></path><path d="M174.1,257.21s-6.09-.18-8.23,1-3.43,14.25-1.9,14.94,1.07-5.4,1.66-5.21-.25,10.19.54,11,1.57-2.17,1.55-7.7c0,0-.15,7.8.83,8.07s1.1-8.1,1.1-8.1.13,7.78,1.21,7.84.37-8.61.37-8.61.48,6.69,1.42,6.65.16-14.23.16-14.23Z" style="fill:#407BFF"></path><path d="M173.35,260.46l-.55,2.36s.5,8.9.24,12.63c-.07,1-.2,1.59-.39,1.6s-.58-.72-.78-1.7a39.83,39.83,0,0,1-.61-4.48c.06.84.18,2.69.19,4.41,0,2-.11,3.75-.6,3.73s-.88-2.25-1-4.32c-.14-1.81-.17-3.52-.17-3.52s0,1.58-.12,3.35c-.14,2.29-.42,4.9-1,4.75-.71-.2-.83-4.4-.84-6.66v-.32c0,.1,0,.2,0,.3-.1,4.63-.82,7.05-1.54,6.31s.06-10.8-.53-11,0,6-1.66,5.21-.24-13.79,1.9-14.94,8.23-1,8.23-1Z" style="fill:#fff;opacity:0.5"></path><path d="M172.8,262.82s.5,8.9.24,12.63a7.09,7.09,0,0,1-1.17-.1,39.83,39.83,0,0,1-.61-4.48c.06.84.18,2.69.19,4.41a5.87,5.87,0,0,1-1.64-.59c-.14-1.81-.17-3.52-.17-3.52s0,1.58-.12,3.35a5.09,5.09,0,0,1-1.81-1.91v0c-2.06-3.75-.13-9.85-.13-9.85-1,.43-2.34-.85-1.47-.49a2.56,2.56,0,0,0,2-.4c-2.43,0-2.56-1.7-.78-.81,1.21.61,4.22-.07,6-.58Z" style="opacity:0.1"></path><path d="M214,189.92c6.91-1,15.06-1.55,21.14-5,.42-.25.52-.57.45-.1-.33-2.61-3.35-6.1-5.35-8.58-2.9-3.4-6.15-6.78-9.39-10l2.92-3.8a84.09,84.09,0,0,1,11.69,8.74c13.43,11.81,11.47,21.43-6,25.92a81.1,81.1,0,0,1-14.69,2.47l-.79-9.65Z" style="fill:#b65b52"></path><path d="M216.29,189.09c5.33-.05,18.48-4.39,18.48-4.39l5.13,9.36s-16.63,10-24.41,9S216.29,189.09,216.29,189.09Z" style="fill:#407BFF"></path><path d="M239.89,194.06s-12.65,7.63-21,8.9a12.1,12.1,0,0,1-3.36.11c-4.93-.64-3.3-6.08-1.44-10l0-.05a36.71,36.71,0,0,1,2.21-3.95c5.33-.05,18.48-4.39,18.48-4.39Z" style="fill:#fff;opacity:0.7000000000000001"></path><path d="M223.87,163,221,156.26l-5.34,6s2.89,5.82,5.83,4.2Z" style="fill:#b55b52"></path><polygon points="215.18 152.07 212.35 158.82 215.69 162.3 221.03 156.26 215.18 152.07" style="fill:#b55b52"></polygon><polygon points="233.88 184.7 235.32 184.11 241.11 194.75 237.49 196.87 233.88 184.7" style="fill:#407BFF"></polygon><polygon points="233.88 184.7 235.32 184.11 241.11 194.75 237.49 196.87 233.88 184.7" style="fill:#fff;opacity:0.5"></polygon><path d="M218.85,203a12.1,12.1,0,0,1-3.36.11c-4.93-.64-3.3-6.08-1.44-10l0-.05S218,196,218.85,203Z" style="opacity:0.1"></path><polygon points="225.2 407.42 218.18 409.4 216.5 398.48 215.6 392.64 222.63 390.65 223.82 398.48 225.2 407.42" style="fill:#b55b52"></polygon><polygon points="184.83 407.99 177.6 408.95 177.53 398.48 177.48 391.97 184.72 391.02 184.78 398.48 184.83 407.99" style="fill:#b55b52"></polygon><polygon points="184.72 391.02 184.78 398.48 177.53 398.48 177.48 391.97 184.72 391.02" style="opacity:0.2"></polygon><polygon points="223.82 398.48 216.5 398.48 215.6 392.64 222.63 390.65 223.82 398.48" style="opacity:0.2"></polygon><path d="M200.48,411.22c-4.23-1-7.36-1.16-10.68-2.46-3.52-1.83-1.54-11.06-3.84-10.28a6.72,6.72,0,0,0-2.89,1.51s-4.77-1.16-6.81-.48,0,5.1-1.29,10.76l-.71,2.74a1,1,0,0,0,1,1.32c2.88,0,7,0,10.66.07,4.22.11,6.91-.09,11.87,0C200.78,414.52,201.72,411.53,200.48,411.22Z" style="fill:#407BFF"></path><path d="M200.48,411.22c-4.23-1-7.36-1.16-10.68-2.46-3.52-1.83-1.54-11.06-3.84-10.28a6.72,6.72,0,0,0-2.89,1.51s-4.77-1.16-6.81-.48,0,5.1-1.29,10.76l-.71,2.74a1,1,0,0,0,1,1.32c2.88,0,7,0,10.66.07,4.22.11,6.91-.09,11.87,0C200.78,414.52,201.72,411.53,200.48,411.22Z" style="opacity:0.4"></path><path d="M186.11,403a.18.18,0,0,1,.1-.18c.34-.16,3.32-1.57,4.19-1a.54.54,0,0,1,.27.46,1,1,0,0,1-.35.83c-.83.69-2.91.34-4.08.08h0A.18.18,0,0,1,186.11,403Zm.72-.08c1.6.31,2.81.27,3.27-.11a.65.65,0,0,0,.23-.55.24.24,0,0,0-.1-.19l-.07,0C189.62,401.82,188,402.38,186.83,402.9Z" style="fill:#263238"></path><path d="M186.18,403.1a.17.17,0,0,1-.07-.16,4.93,4.93,0,0,1,1.24-2.77,1.31,1.31,0,0,1,1-.27c.47.06.6.3.62.5.11.82-1.7,2.35-2.59,2.72a.15.15,0,0,1-.13,0Zm2.09-2.86a.92.92,0,0,0-.71.2,4.11,4.11,0,0,0-1.05,2.22c.92-.52,2.15-1.72,2.09-2.22,0,0,0-.1-.16-.16Z" style="fill:#263238"></path><path d="M189.8,408.88l-1,.05.23-.3a.2.2,0,0,0,0-.2.22.22,0,0,0-.16-.12l-1.09-.11.47-.56a.21.21,0,0,0,0-.2.23.23,0,0,0-.16-.13l-.92-.15.59-.64a.2.2,0,0,0,.05-.19.22.22,0,0,0-.14-.14l-.84-.21.68-.74a.2.2,0,0,0,0-.18.17.17,0,0,0-.12-.14l-1-.4.81-.94a.23.23,0,0,0,0-.18.24.24,0,0,0-.12-.14l-.86-.38.74-.9a.2.2,0,0,0-.3-.26l-.82,1-1-.46a.2.2,0,0,0-.27.1.2.2,0,0,0,.1.26l.94.42-.86,1a.23.23,0,0,0,0,.18.19.19,0,0,0,.13.14l.85.32-.79.91a.24.24,0,0,0,0,.2.22.22,0,0,0,.15.13l1.06.27-.67.74a.2.2,0,0,0,.11.33l.85.15-.6.65a.18.18,0,0,0,0,.2.2.2,0,0,0,.16.13l1.07.11-.47.56a.22.22,0,0,0,0,.22.19.19,0,0,0,.18.11h0l1.26-.05-.47.63a.2.2,0,0,0,0,.28.21.21,0,0,0,.12,0,.21.21,0,0,0,.16-.08l.67-.89,1.37,0a.21.21,0,0,0,0-.41Zm-4.53-4.78.75-.9.72.32-.74.85Zm.18,1.53.67-.78.91.34-.62.68ZM186,407l.57-.63.72.18-.54.58Zm.39,1.1.5-.54.84.14-.42.5Zm.74.95.36-.43,1,.1-.2.28Z" style="fill:#263238"></path><path d="M176.75,187.28a160.25,160.25,0,0,1-.6,23.84c-.53,5.53-1.27,10.76-2.05,15.48-1.83,11.07-3.9,19.36-4.2,22.25l37.8,5.22c13.79-38.54,8.59-65,8.59-65s-7.85-.66-19.41-1.55A175.86,175.86,0,0,0,176.75,187.28Z" style="fill:#407BFF"></path><path d="M207.7,254.07l-37.8-5.22c.29-2.89,2.37-11.18,4.2-22.25.78-4.72,1.52-9.95,2-15.48.07-.73.14-1.46.2-2.2.35-4.21.58-8.57.61-13,0-2.86,0-5.74-.2-8.63a174.37,174.37,0,0,1,20.12.25c11.56.89,19.42,1.55,19.42,1.55S221.48,215.53,207.7,254.07Z" style="fill:#fff;opacity:0.7000000000000001"></path><path d="M176.34,208.92c.35-4.21.58-8.57.61-13C178.83,198.64,181.23,203.91,176.34,208.92Z" style="opacity:0.1"></path><path d="M206.75,191.05s-2.65,3-4.49,3c-2.6,0-11.29-6.81-11.29-6.81,2.36-1.34,3.84-4.69,4.74-8.32a49.23,49.23,0,0,0,1.27-9l7.61,10.56c-1.51,2.83-2.57,5.94-.58,8.45h0A7.83,7.83,0,0,0,206.75,191.05Z" style="fill:#b55b52"></path><path d="M204,189a25.28,25.28,0,0,1-8.3-10,49.23,49.23,0,0,0,1.27-9l7.61,10.56C203.08,183.33,202,186.44,204,189Z" style="opacity:0.2"></path><path d="M216.91,163.66c.41,2.84-1,8.33-4.45,5.9S216.21,158.76,216.91,163.66Z" style="fill:#263238"></path><path d="M214.5,175.65a22.19,22.19,0,0,1-1.56,3.39c-3,5.31-10.09,6.68-14.42,3a9.1,9.1,0,0,1-2.12-2.62c-2.42-4.44-1.16-8.4.4-15.29a9.75,9.75,0,0,1,15.51-5.64C217.14,162.24,216.64,169.9,214.5,175.65Z" style="fill:#b55b52"></path><path d="M202.3,161.13l1.28-7.77s-8.18-2-8.51,2.32c-4.95,1.53-3.95,9,1.63,13.52,3.82-2.15,4.5-8.72,4.5-8.72C201.53,160.7,201.91,160.92,202.3,161.13Z" style="fill:#263238"></path><path d="M192.54,169a6.66,6.66,0,0,0,2.1,4.66c1.73,1.59,3.68.31,4.11-1.88.39-2-.05-5.18-2.22-5.93A3.05,3.05,0,0,0,192.54,169Z" style="fill:#b55b52"></path><path d="M206.57,168.91c-.16.55,0,1.08.36,1.18s.79-.26.95-.81,0-1.08-.36-1.19S206.73,168.36,206.57,168.91Z" style="fill:#263238"></path><path d="M212.83,170.67c-.16.55,0,1.08.37,1.18s.78-.26.94-.82,0-1.08-.36-1.18S213,170.12,212.83,170.67Z" style="fill:#263238"></path><path d="M210.76,170.38a19.75,19.75,0,0,0,1.37,5.31,3.42,3.42,0,0,1-2.77-.3Z" style="fill:#a02724"></path><path d="M208.26,165.3a.34.34,0,0,0-.34,0,2.76,2.76,0,0,1-2.43.32.34.34,0,0,0-.45.17.33.33,0,0,0,.17.44,3.37,3.37,0,0,0,3.07-.37.32.32,0,0,0,.1-.46A.34.34,0,0,0,208.26,165.3Z" style="fill:#263238"></path><path d="M214.48,166.65a.35.35,0,0,0-.2,0,.34.34,0,0,0-.16.45,3.34,3.34,0,0,0,2.39,1.93.35.35,0,0,0,.38-.29.34.34,0,0,0-.28-.38,2.61,2.61,0,0,1-1.88-1.55A.37.37,0,0,0,214.48,166.65Z" style="fill:#263238"></path><path d="M214.5,175.65a22.19,22.19,0,0,1-1.56,3.39c-3,5.31-10.09,6.68-14.42,3-2.22-2.78-2.54-7.22-.26-14.54l1.45-1.82s-.9,5,0,7.1c0,0,4.23-1.11,6.52,1.55v.55h.51a4.91,4.91,0,0,1,3.71,2.94A6.81,6.81,0,0,0,214.5,175.65Z" style="fill:#263238"></path><path d="M214.5,175.65a22.19,22.19,0,0,1-1.56,3.39c-3,5.31-10.09,6.68-14.42,3-2.22-2.78-2.54-7.22-.26-14.54l1.45-1.82s-.9,5,0,7.1c0,0,4.23-1.11,6.52,1.55v.55h.51a4.91,4.91,0,0,1,3.71,2.94A6.81,6.81,0,0,0,214.5,175.65Z" style="fill:#263238"></path><path d="M203.54,174.43a5.63,5.63,0,0,0-.75-.11.17.17,0,0,0,0,.34,4.52,4.52,0,0,1,3.56,2,.16.16,0,0,0,.23.07.18.18,0,0,0,.07-.23A4.69,4.69,0,0,0,203.54,174.43Z" style="fill:#b55b52"></path><path d="M200.56,160.57s1.21,2.11,3.63.48c0,0,5.53,3.95,7.94.62,0,0,.11,3.37,4.26,2.54,0,0,1.82.4,2.12-2.06s-1.26-2.72-1.26-2.72,1.18-2.17-2.75-5.43-6.56-1.34-6.56-1.34-5-3.51-8.66.83S200.56,160.57,200.56,160.57Z" style="fill:#263238"></path><path d="M209.88,164.47a.11.11,0,0,1-.12-.09.12.12,0,0,1,.08-.15,3.08,3.08,0,0,0,2.16-3.57.12.12,0,0,1,.1-.14.12.12,0,0,1,.15.09,3.39,3.39,0,0,1-2.34,3.85Z" style="fill:#263238"></path><path d="M208.44,153.68a.11.11,0,0,1-.09,0,3.31,3.31,0,0,1,0-4.18.14.14,0,0,1,.18,0,.12.12,0,0,1,0,.17,3.07,3.07,0,0,0,0,3.87.12.12,0,0,1,0,.17A.12.12,0,0,1,208.44,153.68Z" style="fill:#263238"></path><path d="M217.25,166.78h0a.12.12,0,0,1-.1-.14,4.84,4.84,0,0,0-.72-3.49.13.13,0,0,1,0-.18.12.12,0,0,1,.17,0,5,5,0,0,1,.76,3.68A.13.13,0,0,1,217.25,166.78Z" style="fill:#263238"></path><path d="M201.64,154.32l0,0c-.09,0-2.23-1.05-2.85-2.35a.14.14,0,0,1,.06-.17.13.13,0,0,1,.17.06c.57,1.22,2.7,2.23,2.72,2.24a.11.11,0,0,1,.06.16A.12.12,0,0,1,201.64,154.32Z" style="fill:#263238"></path><path d="M209.3,153.27c-1.62,0-3.1-2.22-3.17-2.33a.12.12,0,0,1,0-.17.13.13,0,0,1,.17,0s1.83,2.76,3.49,2.13a.11.11,0,0,1,.16.07.13.13,0,0,1-.07.16A1.69,1.69,0,0,1,209.3,153.27Z" style="fill:#263238"></path><path d="M219.71,160.76a.13.13,0,0,1-.12-.07,2.5,2.5,0,0,0-2.14-1.1,3.27,3.27,0,0,1-1,0,.12.12,0,0,1-.1-.12.13.13,0,0,1,.11-.13,6.36,6.36,0,0,1,1,0,1.71,1.71,0,0,0,1.41-1.18.14.14,0,0,1,.16-.08.13.13,0,0,1,.08.16,1.83,1.83,0,0,1-1.08,1.18,2.58,2.58,0,0,1,1.78,1.15.13.13,0,0,1-.06.17Z" style="fill:#263238"></path><path d="M204.59,163.06s.78,1.86-.07,1.8S204.59,163.06,204.59,163.06Z" style="fill:#fff;opacity:0.7000000000000001"></path><path d="M201.68,167.18s.78,1.86-.06,1.79S201.68,167.18,201.68,167.18Z" style="fill:#fff;opacity:0.7000000000000001"></path><path d="M214.13,173.76s.78,1.86-.06,1.79S214.13,173.76,214.13,173.76Z" style="fill:#fff;opacity:0.7000000000000001"></path><path d="M202.26,194.07s-2.11,1.92-4.53,3.78c-2.9-1.94-9.63-7-8.81-10.8.56-1.07,3.58-1.43,3.58-1.43S195.21,190.16,202.26,194.07Z" style="fill:#407BFF"></path><path d="M202.26,194.07a20.54,20.54,0,0,1,3.47,4.73c2.46-1.2,2.17-8.52,1.43-9.41a8.17,8.17,0,0,0-3.79-1.5A6.7,6.7,0,0,1,202.26,194.07Z" style="fill:#407BFF"></path><g style="opacity:0.5"><path d="M202.26,194.07s-2.11,1.92-4.53,3.78c-2.9-1.94-9.63-7-8.81-10.8.56-1.07,3.58-1.43,3.58-1.43S195.21,190.16,202.26,194.07Z" style="fill:#fff"></path><path d="M202.26,194.07a20.54,20.54,0,0,1,3.47,4.73c2.46-1.2,2.17-8.52,1.43-9.41a8.17,8.17,0,0,0-3.79-1.5A6.7,6.7,0,0,1,202.26,194.07Z" style="fill:#fff"></path></g><path d="M169.9,248.85c-3.83,16.63,2.75,147.4,2.75,147.4h12.72l5.43-109,20,109,13.59-1c-8.88-84.42-16.74-134.82-16.74-134.82l0-6.37Z" style="fill:#407BFF"></path><path d="M169.9,248.85c-3.83,16.63,2.75,147.4,2.75,147.4h12.72l5.43-109,20,109,13.59-1c-8.88-84.42-16.74-134.82-16.74-134.82l0-6.37Z" style="opacity:0.2"></path><path d="M195.07,310.46l-4.26-23.19.82-12.27S197.47,296.28,195.07,310.46Z" style="opacity:0.2"></path><path d="M219,231.79c-5.89,13.75-23.82,10.89-27.42-5.16a30.32,30.32,0,0,1-.26-11.15c1.4-9.37,7.68-17.42,18.68-14.35a14.9,14.9,0,0,1,10,9.14c.18.42.33.85.47,1.28l.18.54,0,.09C222.36,218.11,221.7,225.38,219,231.79Z" style="fill:#407BFF"></path><path d="M220.2,219.71a7.85,7.85,0,0,1,0,1.28c0-.42,0-.84,0-1.28-.39-10.62-8.39-15-12.43-14.62a9.91,9.91,0,0,0-6.34,3.21c7.28-5.69,13.36.49,13.15,1.13s-3.24-.54-4.3-.79a16.8,16.8,0,0,0-4.25-.31c-3.2.25-8.52,3-7.24,12s5.11,12.92,5.11,12.92c-5.53-1.53-7.41-9.44-7.41-9.44.39,6.08,6.73,14.89,15.83,11.78S220.2,219.71,220.2,219.71Z" style="opacity:0.15"></path><path d="M208.44,208.71A11.47,11.47,0,0,1,219,216.6c1.53,4.28-1.8,13.47-9.34,14.36s-11.57-8.17-10.4-15.83S208.44,208.71,208.44,208.71Z" style="fill:#407BFF"></path><path d="M209.86,209.43c-2.78-.21-4.17,7-2.09,10.95s3.93,5.86,6.94,4.57C221.94,221.83,218.32,210.07,209.86,209.43Z" style="opacity:0.15"></path><path d="M211.86,210.93c-1.11,0-.92,1.46-.22,3a20,20,0,0,1,1.55,7.79c0,2.93,1.18,2.84,1.86,2.46C220.62,221.09,217.9,211,211.86,210.93Z" style="fill:#407BFF"></path><path d="M209.51,223.81a11.68,11.68,0,0,1-3.27-7.08c-.31-5,1.18-7.36,2.76-7.56a2.31,2.31,0,0,0-2.36.44c-1.07.74.35-.49-.22-.57a6.19,6.19,0,0,0-5.81,3.25c-1.91,3.36-1.12,10,1,12.05s-1.31-4.16-.51-6.7.64,4.66,2.39,6.33S209.51,223.81,209.51,223.81Z" style="fill:#fff;opacity:0.15"></path><path d="M219.94,210.27c-3.83-8.89-17.41-14-24.69-3.5-4.65,6.69-4.52,14.65-3.71,19.86a30.32,30.32,0,0,1-.26-11.15c1.4-9.37,7.68-17.42,18.68-14.35A14.9,14.9,0,0,1,219.94,210.27Z" style="fill:#fff;opacity:0.2"></path><polygon points="199.35 216.59 199.94 224.14 194.59 225.07 193.46 215.99 199.35 216.59" style="fill:#b55b52"></polygon><path d="M187.34,219.84l6.12-3.85,1.13,9.08s-5.93,2.11-7.38-.94Z" style="fill:#b55b52"></path><path d="M179.77,196.64a123.09,123.09,0,0,0-9.2,9.63c-1.93,2.44-4,4.91-4.76,7.69,0,.06-.05-.05-.14-.19,1.84,1.88,6.36,2.83,9.44,3.59,4.38.95,9,1.67,13.54,2.28l0,4.79a82.63,82.63,0,0,1-14.59.12c-17.84-1.27-22.11-10.11-10.93-24.25a81.28,81.28,0,0,1,10.19-10.86l6.47,7.2Z" style="fill:#b65b52"></path><path d="M176.75,187.28c-8.11.36-20.75,20.53-20.62,25.63l10.31.55a31.89,31.89,0,0,1,10.31-9.23s3.76-1.16,4-7.85S176.75,187.28,176.75,187.28Z" style="fill:#407BFF"></path><path d="M176.75,187.28c-8.11.36-20.75,20.53-20.62,25.63l10.31.55a31.89,31.89,0,0,1,10.31-9.23s3.76-1.16,4-7.85S176.75,187.28,176.75,187.28Z" style="fill:#fff;opacity:0.7000000000000001"></path><polygon points="155.11 211.76 167.49 213.46 167.49 214.68 155.11 216.8 155.11 211.76" style="fill:#407BFF"></polygon><polygon points="155.11 211.76 167.49 213.46 167.49 214.68 155.11 216.8 155.11 211.76" style="fill:#fff;opacity:0.5"></polygon><path d="M240.48,411.22c-4.22-1-7.36-1.16-10.68-2.46-3.51-1.83-1.54-11.06-3.84-10.28a6.83,6.83,0,0,0-2.89,1.51s-4.77-1.16-6.81-.48,0,5.1-1.29,10.76l-.71,2.74a1.05,1.05,0,0,0,1,1.32c2.88,0,7,0,10.66.07,4.23.11,6.91-.09,11.87,0C240.79,414.52,241.73,411.53,240.48,411.22Z" style="fill:#407BFF"></path><path d="M240.48,411.22c-4.22-1-7.36-1.16-10.68-2.46-3.51-1.83-1.54-11.06-3.84-10.28a6.83,6.83,0,0,0-2.89,1.51s-4.77-1.16-6.81-.48,0,5.1-1.29,10.76l-.71,2.74a1.05,1.05,0,0,0,1,1.32c2.88,0,7,0,10.66.07,4.23.11,6.91-.09,11.87,0C240.79,414.52,241.73,411.53,240.48,411.22Z" style="opacity:0.4"></path><path d="M226.11,403a.22.22,0,0,1,.1-.18c.34-.16,3.33-1.57,4.2-1a.56.56,0,0,1,.27.46,1,1,0,0,1-.36.83c-.82.69-2.91.34-4.07.08h0A.18.18,0,0,1,226.11,403Zm.72-.08c1.6.31,2.81.27,3.27-.11a.65.65,0,0,0,.23-.55.2.2,0,0,0-.1-.19l-.06,0C229.62,401.82,228,402.38,226.83,402.9Z" style="fill:#263238"></path><path d="M226.18,403.1a.2.2,0,0,1-.07-.16c0-.08.28-2,1.24-2.77a1.32,1.32,0,0,1,1-.27c.47.06.6.3.62.5.11.82-1.69,2.35-2.59,2.72a.15.15,0,0,1-.13,0Zm2.09-2.86a.93.93,0,0,0-.71.2,4.11,4.11,0,0,0-1.05,2.22c.92-.52,2.15-1.72,2.09-2.22,0,0,0-.1-.15-.16Z" style="fill:#263238"></path><path d="M229.8,408.88l-1,.05.22-.3a.2.2,0,0,0-.14-.32l-1.08-.11.46-.56a.21.21,0,0,0,0-.2.23.23,0,0,0-.16-.13l-.92-.15.6-.64a.22.22,0,0,0,0-.19.2.2,0,0,0-.14-.14l-.84-.21.68-.74a.24.24,0,0,0,.05-.18.2.2,0,0,0-.13-.14l-1-.4.82-.94a.21.21,0,0,0-.07-.32l-.86-.38.74-.9a.2.2,0,0,0-.31-.26l-.81,1-1-.46a.2.2,0,1,0-.16.36l.93.42-.86,1a.23.23,0,0,0,0,.18.2.2,0,0,0,.13.14l.85.32-.78.91a.21.21,0,0,0,0,.2.2.2,0,0,0,.14.13l1.07.27-.68.74a.2.2,0,0,0,.11.33l.86.15-.61.65a.18.18,0,0,0,0,.2.21.21,0,0,0,.17.13l1.06.11-.47.56a.22.22,0,0,0,0,.22.21.21,0,0,0,.18.11h0l1.26-.05-.47.63a.2.2,0,0,0,0,.28.25.25,0,0,0,.12,0,.21.21,0,0,0,.16-.08l.67-.89,1.37,0a.21.21,0,0,0,.19-.21A.2.2,0,0,0,229.8,408.88Zm-4.53-4.78.75-.9.72.32-.74.85Zm.18,1.53.67-.78.91.34-.62.68ZM226,407l.58-.63.71.18-.54.58Zm.39,1.1.51-.54.83.14-.41.5Zm.74.95.36-.43,1,.1-.21.28Z" style="fill:#263238"></path><polygon points="171.88 393.9 186.11 393.52 185.7 396.62 172.11 396.62 171.88 393.9" style="fill:#407BFF"></polygon><polygon points="171.88 393.9 186.11 393.52 185.7 396.62 172.11 396.62 171.88 393.9" style="fill:#fff;opacity:0.5"></polygon><polygon points="210.27 394.04 224.42 393.69 224.65 396.53 210.72 396.53 210.27 394.04" style="fill:#407BFF"></polygon><polygon points="210.27 394.04 224.42 393.69 224.65 396.53 210.72 396.53 210.27 394.04" style="fill:#fff;opacity:0.5"></polygon></g></svg>
