<svg xmlns="http://www.w3.org/2000/svg" viewBox="0 0 500 500"><g id="freepik--background-complete--inject-300"><polygon points="79.13 443.54 79.13 480.77 133.58 480.77 193.64 480.77 193.64 443.54 79.13 443.54" style="fill:#f5f5f5"></polygon><polygon points="74.32 433.13 74.32 443.54 197.64 443.54 197.64 433.13 133.58 433.13 74.32 433.13" style="fill:#e0e0e0"></polygon><polygon points="135.98 480.77 193.64 480.77 193.64 443.54 197.64 443.54 197.64 433.13 133.58 433.13 133.58 442.57 135.98 480.77" style="fill:#e0e0e0"></polygon><rect x="95.14" y="449.54" width="23.22" height="5.6" style="fill:#e0e0e0"></rect><rect x="92.15" y="462.15" width="29.82" height="11.84" style="fill:#fff"></rect><polygon points="96.74 395.94 96.74 433.18 151.19 433.18 211.25 433.18 211.25 395.94 96.74 395.94" style="fill:#f5f5f5"></polygon><polygon points="91.94 385.53 91.94 395.94 215.26 395.94 215.26 385.53 151.19 385.53 91.94 385.53" style="fill:#e0e0e0"></polygon><polygon points="153.6 433.18 211.25 433.18 211.25 395.94 215.26 395.94 215.26 385.53 151.19 385.53 151.19 394.98 153.6 433.18" style="fill:#e0e0e0"></polygon><rect x="112.76" y="401.94" width="23.22" height="5.61" style="fill:#e0e0e0"></rect><rect x="109.77" y="414.56" width="29.82" height="11.84" style="fill:#fff"></rect><rect x="52.51" y="176.4" width="48.65" height="12.87" style="fill:#f5f5f5"></rect><path d="M80.59,200.93s0-.09,0-.24l0-.66c0-.6,0-1.45,0-2.53,0-2.22,0-5.42-.08-9.44l.15.15-48.65.09.25-.24h0v3.29c0,1.09,0,2.17,0,3.25v6.33l-.24-.25,34.67.11,10.23.07,2.77,0,.72,0a1.33,1.33,0,0,1,.26,0h-.22l-.7,0L77,201l-10.18.07-34.84.11H31.7v-.24c0-2.07,0-4.19,0-6.33v-6.54h0l.25-.25,48.65.09h.15v.16c0,4.06-.06,7.29-.08,9.53,0,1.07,0,1.9,0,2.5,0,.26,0,.47,0,.63A.85.85,0,0,1,80.59,200.93Z" style="fill:#e0e0e0"></path><rect x="352.05" y="401.69" width="48.65" height="12.87" style="fill:#f5f5f5"></rect><path d="M380.13,428.11a2.07,2.07,0,0,1,0-.23l0-.66c0-.6,0-1.45,0-2.53,0-2.22,0-5.42-.08-9.45l.15.15-48.65.1.25-.25h0v6.53c0,2.15,0,4.27,0,6.33l-.24-.24,34.67.11,10.23.07,2.77,0,.73,0h.25s-.07,0-.22,0l-.7,0-2.71,0-10.18.07-34.84.11h-.24v-.25c0-2.06,0-4.18,0-6.33v-6.53h0l.25-.24,48.65.09h.15v.15c0,4.07-.06,7.29-.08,9.54,0,1.07,0,1.9,0,2.5,0,.26,0,.47,0,.63S380.14,428.12,380.13,428.11Z" style="fill:#e0e0e0"></path><path d="M239.49,112.53s0-.09,0-.24l0-.66c0-.6,0-1.45,0-2.53,0-2.22-.05-5.42-.09-9.45l.15.16-48.65.09.25-.25h0v6.53c0,2.15,0,4.27,0,6.34l-.24-.25,34.67.11,10.24.07,2.76,0,.73,0a.72.72,0,0,1,.25,0h-.22l-.7,0-2.71,0-10.18.07-34.84.11h-.24v-.24c0-2.07,0-4.19,0-6.34V99.66h0l.25-.24,48.65.09h.16v.15c0,4.07-.06,7.3-.08,9.54,0,1.07,0,1.9,0,2.5v.63A.85.85,0,0,1,239.49,112.53Z" style="fill:#e0e0e0"></path><path d="M246.09,99.65a1.1,1.1,0,0,1,0-.24c0-.19,0-.41,0-.68,0-.64,0-1.5,0-2.58,0-2.26-.06-5.45-.1-9.37l.18.18L216.86,87l.25-.25h0v6.62q0,3.24,0,6.24l-.23-.23,20.91.11,6.09.07,1.64,0,.59,0a3.28,3.28,0,0,1-.53,0l-1.59,0-6,.07-21.07.11h-.24v-.24q0-3,0-6.24V86.79h0c-.05.06.47-.47.25-.24l29.23.07h.18v.17c0,4-.08,7.19-.1,9.48,0,1.06,0,1.91,0,2.54S246.1,99.67,246.09,99.65Z" style="fill:#e0e0e0"></path><path d="M463.52,241.31a2.07,2.07,0,0,1,0-.23c0-.17,0-.39,0-.66,0-.61,0-1.45,0-2.53,0-2.23,0-5.42-.08-9.45l.15.15-48.65.1.25-.25h0V235q0,3.22,0,6.33l-.24-.24,34.67.11,10.23.07,2.77,0,.73,0h.25s-.07,0-.22,0h-.7l-2.71,0-10.18.06-34.84.11h-.24v-.25c0-2.07,0-4.18,0-6.33v-6.52h0l.25-.25,48.65.1h.15v.15c0,4.07-.06,7.29-.08,9.53,0,1.07,0,1.91,0,2.5,0,.26,0,.47,0,.64S463.53,241.32,463.52,241.31Z" style="fill:#e0e0e0"></path><path d="M470.12,228.44a1.35,1.35,0,0,1,0-.24c0-.19,0-.41,0-.69,0-.63,0-1.49,0-2.58,0-2.25-.06-5.44-.1-9.36l.18.18-29.23.07c-.22.22.3-.3.24-.25h0v6.61c0,2.15,0,4.24,0,6.24l-.23-.23,20.91.11,6.09.06,1.64,0,.59,0a3.28,3.28,0,0,1-.53,0l-1.6,0-6,.07-21.07.11h-.24v-.24c0-2,0-4.09,0-6.24v-6.61h0l.25-.25,29.23.07h.18v.18c0,4-.08,7.19-.1,9.47,0,1.07,0,1.92,0,2.54S470.13,228.45,470.12,228.44Z" style="fill:#e0e0e0"></path></g><g id="freepik--Floor--inject-300"><path d="M455.46,480.39c0,.14-94.68.26-211.45.26s-211.47-.12-211.47-.26,94.66-.26,211.47-.26S455.46,480.24,455.46,480.39Z" style="fill:#263238"></path></g><g id="freepik--Picture--inject-300"><rect x="359.29" y="24.54" width="98.73" height="128.74" style="fill:#455a64"></rect><path d="M458,24.54a1.66,1.66,0,0,1-.27.35l-.85,1-3.33,3.69,0,.05h-.06c-8.59.09-25.45.15-44.81.15s-36.24-.06-44.82-.15h-.06l0-.05-3.33-3.69-.85-1a1.66,1.66,0,0,1-.27-.35,1.6,1.6,0,0,1,.32.3l.9.91,3.43,3.6-.1,0c8.58-.09,25.45-.15,44.82-.15s36.22.06,44.81.15l-.1,0,3.43-3.6.9-.91A1.6,1.6,0,0,1,458,24.54Z" style="fill:#263238"></path><path d="M359.29,153.29a1.66,1.66,0,0,1,.27-.35l.85-1,3.33-3.69,0,0h.06c8.59-.09,25.45-.15,44.81-.15s36.23.06,44.82.15h.06l0,0L456.9,152l.85,1a1.66,1.66,0,0,1,.27.35,1.6,1.6,0,0,1-.32-.3l-.9-.91-3.43-3.6.1,0c-8.59.09-25.45.15-44.82.15s-36.22-.06-44.81-.15l.1,0-3.43,3.6-.9.91A1.6,1.6,0,0,1,359.29,153.29Z" style="fill:#263238"></path><rect x="363.84" y="29.45" width="89.63" height="118.94" style="fill:#fff"></rect><path d="M377.87,113.6c2.66-2.56,6.6-3.29,10.28-3.2s7.33.88,11,.84c5.88-.08,11.75-2.28,17.55-1.26,1.86.32,3.74,1,5.58.58,1.61-.35,3-1.46,4.54-1.94,4.09-1.23,8.69,2,12.61.32v26.55H377.87Z" style="fill:#FF725E"></path><path d="M379.11,114.67c-.16,0-.29-15.73-.29-35.12s.13-35.13.29-35.13.28,15.73.28,35.13S379.26,114.67,379.11,114.67Z" style="fill:#263238"></path><path d="M381.91,114.67c-.16,0-.29-15.73-.29-35.12s.13-35.13.29-35.13.29,15.73.29,35.13S382.07,114.67,381.91,114.67Z" style="fill:#263238"></path><path d="M384.71,114.67c-.15,0-.28-15.73-.28-35.12s.13-35.13.28-35.13.29,15.73.29,35.13S384.87,114.67,384.71,114.67Z" style="fill:#263238"></path><path d="M387.52,114.67c-.16,0-.29-15.73-.29-35.12s.13-35.13.29-35.13.28,15.73.28,35.13S387.67,114.67,387.52,114.67Z" style="fill:#263238"></path><path d="M390.32,114.67c-.16,0-.29-15.73-.29-35.12s.13-35.13.29-35.13.29,15.73.29,35.13S390.48,114.67,390.32,114.67Z" style="fill:#263238"></path><path d="M393.12,114.67c-.15,0-.28-15.73-.28-35.12s.13-35.13.28-35.13.29,15.73.29,35.13S393.28,114.67,393.12,114.67Z" style="fill:#263238"></path><path d="M395.93,114.67c-.16,0-.29-15.73-.29-35.12s.13-35.13.29-35.13.28,15.73.28,35.13S396.09,114.67,395.93,114.67Z" style="fill:#263238"></path><path d="M398.73,114.67c-.16,0-.29-15.73-.29-35.12s.13-35.13.29-35.13.29,15.73.29,35.13S398.89,114.67,398.73,114.67Z" style="fill:#263238"></path><path d="M401.53,114.67c-.15,0-.28-15.73-.28-35.12s.13-35.13.28-35.13.29,15.73.29,35.13S401.69,114.67,401.53,114.67Z" style="fill:#263238"></path><path d="M404.34,114.67c-.16,0-.29-15.73-.29-35.12s.13-35.13.29-35.13.28,15.73.28,35.13S404.5,114.67,404.34,114.67Z" style="fill:#263238"></path><path d="M407.14,114.67c-.16,0-.28-15.73-.28-35.12s.12-35.13.28-35.13.29,15.73.29,35.13S407.3,114.67,407.14,114.67Z" style="fill:#263238"></path><path d="M409.94,114.67c-.15,0-.28-15.73-.28-35.12s.13-35.13.28-35.13.29,15.73.29,35.13S410.1,114.67,409.94,114.67Z" style="fill:#263238"></path><path d="M412.75,114.67c-.16,0-.29-15.73-.29-35.12s.13-35.13.29-35.13.28,15.73.28,35.13S412.91,114.67,412.75,114.67Z" style="fill:#263238"></path><path d="M415.55,114.67c-.16,0-.28-15.73-.28-35.12s.12-35.13.28-35.13.29,15.73.29,35.13S415.71,114.67,415.55,114.67Z" style="fill:#263238"></path><path d="M418.36,114.67c-.16,0-.29-15.73-.29-35.12s.13-35.13.29-35.13.28,15.73.28,35.13S418.51,114.67,418.36,114.67Z" style="fill:#263238"></path><path d="M421.16,114.67c-.16,0-.29-15.73-.29-35.12s.13-35.13.29-35.13.28,15.73.28,35.13S421.32,114.67,421.16,114.67Z" style="fill:#263238"></path><path d="M424,114.67c-.16,0-.28-15.73-.28-35.12s.12-35.13.28-35.13.29,15.73.29,35.13S424.12,114.67,424,114.67Z" style="fill:#263238"></path><path d="M426.77,114.67c-.16,0-.29-15.73-.29-35.12s.13-35.13.29-35.13.28,15.73.28,35.13S426.92,114.67,426.77,114.67Z" style="fill:#263238"></path><path d="M429.57,114.67c-.16,0-.29-15.73-.29-35.12s.13-35.13.29-35.13.29,15.73.29,35.13S429.73,114.67,429.57,114.67Z" style="fill:#263238"></path><path d="M432.37,114.67c-.16,0-.28-15.73-.28-35.12s.12-35.13.28-35.13.29,15.73.29,35.13S432.53,114.67,432.37,114.67Z" style="fill:#263238"></path><path d="M435.18,114.67c-.16,0-.29-15.73-.29-35.12s.13-35.13.29-35.13.28,15.73.28,35.13S435.33,114.67,435.18,114.67Z" style="fill:#263238"></path><path d="M438,114.67c-.16,0-.29-15.73-.29-35.12s.13-35.13.29-35.13.29,15.73.29,35.13S438.14,114.67,438,114.67Z" style="fill:#263238"></path></g><g id="freepik--Plant--inject-300"><path d="M445.42,256.32c-11.68,6.05-20.63,16.46-27.07,27.92s-10.58,24.05-14.69,36.54l-3.6,64.42c13.59-23.12,24.49-50.29,27.44-76.93l-9-.81c6.06-.92,11.15-5.31,14.38-10.52s4.91-11.21,6.53-17.13l-11,1.64A40.87,40.87,0,0,0,445.42,256.32Z" style="fill:#455a64"></path><g style="opacity:0.30000000000000004"><path d="M445.42,256.32c-11.68,6.05-20.63,16.46-27.07,27.92s-10.58,24.05-14.69,36.54l-3.6,64.42c13.59-23.12,24.49-50.29,27.44-76.93l-9-.81c6.06-.92,11.15-5.31,14.38-10.52s4.91-11.21,6.53-17.13l-11,1.64A40.87,40.87,0,0,0,445.42,256.32Z"></path></g><path d="M398.05,400.29s-29.49-35.29-29.15-69h11.92S367.88,322.79,368.9,318s1.37-22.8,1.37-22.8L381.16,298S373,293.87,372,287.4,374.35,251,374.35,251s13.27,13.95,17.36,28.24,14.8,31,11.65,74.53S398.05,400.29,398.05,400.29Z" style="fill:#455a64"></path><path d="M413,403.62s31.95-21.28,39-48.44l-9.57-2.61s12.26-4,12.48-8.06,3.89-18.63,3.89-18.63l-9.35-.2s7.46-1.49,9.7-6.47,6.05-29.8,6.05-29.8-13.73,8.32-20.14,18.91S426.43,330,419.43,365.7,413,403.62,413,403.62Z" style="fill:#455a64"></path><path d="M382.4,281.76a1.62,1.62,0,0,1,.11.36l.25,1.09c.22,1,.54,2.39.94,4.19s.88,4.05,1.39,6.64,1.14,5.55,1.74,8.83c1.26,6.54,2.59,14.37,4,23.07s2.66,18.31,3.84,28.41,2.05,19.75,2.74,28.54,1.14,16.71,1.41,23.37c.16,3.33.24,6.34.32,9s.14,4.93.16,6.79,0,3.28.05,4.29v1.12a2.79,2.79,0,0,1,0,.38,2.28,2.28,0,0,1,0-.38c0-.28,0-.65-.05-1.12,0-1-.08-2.44-.14-4.28s-.13-4.14-.25-6.79-.21-5.65-.4-9c-.31-6.65-.84-14.56-1.52-23.34s-1.63-18.42-2.78-28.52-2.49-19.69-3.8-28.4-2.63-16.52-3.85-23.07c-.57-3.28-1.16-6.24-1.65-8.84s-.93-4.84-1.31-6.66-.64-3.22-.84-4.21c-.08-.46-.15-.82-.2-1.09A3.58,3.58,0,0,1,382.4,281.76Z" style="fill:#263238"></path><path d="M394,421.9s-27-30.62-35.36-49.12l6.32-2.71c-4.58.76-9.28-1.21-12.83-4.2s-6.17-6.93-8.73-10.81l8.33-1.41a30.93,30.93,0,0,1-18.2-14.1c9.83,1.62,18.73,7,26.06,13.77a130.1,130.1,0,0,1,15.79,18.29,63.29,63.29,0,0,1,6.13,10.09C386,391.07,394,410.66,394,421.9Z" style="fill:#455a64"></path><path d="M452.47,307.23a1.56,1.56,0,0,1-.13.31c-.1.23-.24.52-.41.89-.4.81-.95,1.95-1.65,3.4-1.45,2.94-3.5,7.21-6,12.52S439,336,435.87,343.12s-6.3,15-9.53,23.31-6.11,16.36-8.64,23.67-4.66,14-6.39,19.56-3.09,10.14-4,13.29c-.46,1.54-.82,2.76-1.07,3.62l-.29.93a1.72,1.72,0,0,1-.12.32,2.17,2.17,0,0,1,.07-.33l.24-.95c.23-.87.55-2.09,1-3.65.85-3.16,2.15-7.72,3.84-13.33s3.81-12.27,6.29-19.61,5.39-15.36,8.6-23.7,6.5-16.21,9.58-23.32,6-13.45,8.54-18.74,4.62-9.54,6.13-12.45l1.73-3.35c.19-.36.35-.65.46-.87A2,2,0,0,1,452.47,307.23Z" style="fill:#263238"></path><path d="M396.25,435a2.42,2.42,0,0,1-.13-.56c-.07-.43-.15-1-.26-1.63s-.23-1.57-.42-2.57-.35-2.14-.62-3.38c-.49-2.51-1.18-5.47-2.06-8.73s-2-6.78-3.4-10.43-2.88-7-4.34-10.07-2.93-5.71-4.22-7.91c-.63-1.11-1.25-2.09-1.77-2.95s-1-1.61-1.39-2.21l-.87-1.39a2,2,0,0,1-.28-.51,2.86,2.86,0,0,1,.36.45l1,1.34c.42.58.92,1.3,1.46,2.16s1.2,1.82,1.84,2.92c1.34,2.19,2.82,4.86,4.34,7.89s3,6.44,4.4,10.1,2.48,7.22,3.37,10.49,1.52,6.25,2,8.78c.25,1.25.4,2.4.55,3.41s.26,1.87.33,2.59.12,1.2.17,1.64A2.24,2.24,0,0,1,396.25,435Z" style="fill:#263238"></path><rect x="372.8" y="427.82" width="59.06" height="12.05" style="fill:#FF725E"></rect><polygon points="378.42 439.87 384.81 480.39 420.5 480.39 426.45 439.87 378.42 439.87" style="fill:#FF725E"></polygon><path d="M428.23,439.87c0,.14-11.17.26-25,.26s-24.95-.12-24.95-.26,11.17-.26,24.95-.26S428.23,439.72,428.23,439.87Z" style="fill:#263238"></path></g><g id="freepik--Plug--inject-300"><rect x="408.44" y="193.19" width="22.19" height="22.09" rx="3.07" style="fill:#e0e0e0"></rect><path d="M411.51,215.27a2.29,2.29,0,0,1-.85-.06,3.12,3.12,0,0,1-1.92-1.47,3.26,3.26,0,0,1-.43-1.74c0-.64,0-1.34,0-2.08,0-1.51,0-3.21,0-5.09s0-4,0-6.16V197a5.14,5.14,0,0,1,.17-1.8,3.32,3.32,0,0,1,2.94-2.23l16.22,0a3.45,3.45,0,0,1,2.14.78,3.41,3.41,0,0,1,1.14,1.94,17.18,17.18,0,0,1,.05,2.13v2c0,2.71,0,5.33,0,7.82,0,1.24,0,2.46,0,3.64a6.88,6.88,0,0,1-.13,1.79,3.23,3.23,0,0,1-.93,1.53,3.3,3.3,0,0,1-1.52.8,7.51,7.51,0,0,1-1.62.07h-3l-8.93-.08-2.42,0a4.67,4.67,0,0,1-.85-.06,8,8,0,0,1,.85-.05l2.42-.05,8.93-.08,3,0a6.88,6.88,0,0,0,1.52-.08,2.83,2.83,0,0,0,1.33-.71,2.78,2.78,0,0,0,.79-1.33,6.42,6.42,0,0,0,.1-1.67c0-1.18,0-2.4,0-3.64,0-2.49,0-5.11,0-7.82v-2a19.24,19.24,0,0,0-.05-2,2.82,2.82,0,0,0-2.77-2.29l-16.19,0a2.84,2.84,0,0,0-2.53,1.9,4.71,4.71,0,0,0-.17,1.65c0,.57,0,1.14,0,1.69,0,2.21,0,4.27,0,6.16s0,3.58,0,5.09-.21,2.82.33,3.72a3.08,3.08,0,0,0,1.78,1.47C411.22,215.26,411.51,215.24,411.51,215.27Z" style="fill:#263238"></path><path d="M412,204.23a7.57,7.57,0,1,0,7.56-7.53A7.54,7.54,0,0,0,412,204.23Z" style="fill:#e0e0e0"></path><path d="M412,204.23a1.52,1.52,0,0,1,0-.48,5.52,5.52,0,0,1,.17-1.39,7.47,7.47,0,0,1,2.74-4.27,7.74,7.74,0,0,1,7.34-1.16,7.67,7.67,0,0,1,3.63,2.69,7.67,7.67,0,0,1,0,9.22,7.67,7.67,0,0,1-3.63,2.69,7.74,7.74,0,0,1-7.34-1.16,7.53,7.53,0,0,1-2.74-4.27,5.57,5.57,0,0,1-.17-1.39,1.52,1.52,0,0,1,0-.48c.06,0,0,.67.33,1.82a7.58,7.58,0,0,0,2.77,4,7.27,7.27,0,0,0,3.11,1.34,7.4,7.4,0,0,0,3.84-.33,7.2,7.2,0,0,0,3.39-2.55,7.2,7.2,0,0,0,0-8.61,7.24,7.24,0,0,0-3.39-2.54,7.51,7.51,0,0,0-3.84-.34,7.41,7.41,0,0,0-3.11,1.35,7.58,7.58,0,0,0-2.77,4C412,203.56,412,204.23,412,204.23Z" style="fill:#263238"></path><ellipse cx="422.49" cy="204.25" rx="1.59" ry="1.59" style="fill:#263238"></ellipse><ellipse cx="416.83" cy="204.25" rx="1.59" ry="1.59" style="fill:#263238"></ellipse></g><g id="freepik--Device--inject-300"><rect x="65.55" y="44.55" width="155.33" height="309.58" rx="14.8" style="fill:#263238"></rect><rect x="-9.11" y="124.12" width="304.65" height="150.44" rx="13.4" transform="translate(342.55 56.13) rotate(90)" style="fill:#263238"></rect><path d="M132.06,56.77a1.74,1.74,0,0,1,0-3.48h22.21a1.74,1.74,0,0,1,0,3.48Z" style="fill:#455a64"></path><path d="M120.15,56.77A1.74,1.74,0,1,1,121.87,55,1.73,1.73,0,0,1,120.15,56.77Z" style="fill:#263238"></path><path d="M126.5,56.77A1.74,1.74,0,1,1,128.23,55,1.73,1.73,0,0,1,126.5,56.77Z" style="fill:#455a64"></path><path d="M166.28,56.77A1.74,1.74,0,1,1,168,55,1.74,1.74,0,0,1,166.28,56.77Z" style="fill:#455a64"></path><path d="M159.92,56.77A1.74,1.74,0,1,1,161.65,55,1.73,1.73,0,0,1,159.92,56.77Z" style="fill:#263238"></path><path d="M201.58,49.1H179.77a7.77,7.77,0,0,0-7.45,5.64L172,56a8.32,8.32,0,0,1-8,6H122.45a8.31,8.31,0,0,1-8-6l-.37-1.28a7.78,7.78,0,0,0-7.46-5.64H86.86A15.42,15.42,0,0,0,71.5,64.57V333A14.5,14.5,0,0,0,86,347.56h115.9a13.13,13.13,0,0,0,13.08-13.17V62.54A13.39,13.39,0,0,0,201.58,49.1Z" style="fill:#f5f5f5"></path><path d="M221.72,111.84h.17a0,0,0,0,1,0,0v35.58a0,0,0,0,1,0,0h-.17a.85.85,0,0,1-.85-.85V112.69a.85.85,0,0,1,.85-.85Z" transform="translate(442.77 259.26) rotate(180)" style="fill:#455a64"></path><path d="M65.37,133.77h.18a0,0,0,0,1,0,0v22.53a0,0,0,0,1,0,0h-.18a.88.88,0,0,1-.88-.88V134.64A.88.88,0,0,1,65.37,133.77Z" style="fill:#263238"></path><path d="M65.37,104.34h.18a0,0,0,0,1,0,0v22.53a0,0,0,0,1,0,0h-.18a.88.88,0,0,1-.88-.88V105.21A.88.88,0,0,1,65.37,104.34Z" style="fill:#263238"></path><path d="M65.4,82.24h.15a0,0,0,0,1,0,0V92.72a0,0,0,0,1,0,0H65.4a.76.76,0,0,1-.76-.76V83A.76.76,0,0,1,65.4,82.24Z" style="fill:#263238"></path></g><g id="freepik--Battery--inject-300"><path d="M172.58,258h-55a7.31,7.31,0,0,1-7.3-7.3v-104a7.31,7.31,0,0,1,7.3-7.3h55a7.32,7.32,0,0,1,7.31,7.3v104A7.32,7.32,0,0,1,172.58,258Zm-55-117.61a6.31,6.31,0,0,0-6.3,6.3v104a6.31,6.31,0,0,0,6.3,6.3h55a6.31,6.31,0,0,0,6.31-6.3v-104a6.31,6.31,0,0,0-6.31-6.3Z" style="fill:#263238"></path><path d="M131.91,129.63h26.32a3.1,3.1,0,0,1,3.1,3.1v7.11a0,0,0,0,1,0,0H128.81a0,0,0,0,1,0,0v-7.11A3.1,3.1,0,0,1,131.91,129.63Z" style="fill:#263238"></path><path d="M114.56,236.11h61a0,0,0,0,1,0,0v12.41a4.72,4.72,0,0,1-4.72,4.72H119.29a4.72,4.72,0,0,1-4.72-4.72V236.11A0,0,0,0,1,114.56,236.11Z" style="fill:#FF725E"></path></g><g id="freepik--Texts--inject-300"><path d="M140.89,192.36a3.4,3.4,0,0,1,1,2.5,3.67,3.67,0,0,1-2.18,3.41,6,6,0,0,1-2.65.52,8.56,8.56,0,0,1-2.63-.41,5.68,5.68,0,0,1-2.06-1.15l.84-1.45a4.78,4.78,0,0,0,1.68,1,6.23,6.23,0,0,0,2.17.38,3.55,3.55,0,0,0,2.22-.61,2,2,0,0,0,.79-1.67,1.92,1.92,0,0,0-.79-1.65,3.94,3.94,0,0,0-2.37-.59h-1v-1.28l3.21-4h-6.14V185.8h8.42V187L138,191.19A4.57,4.57,0,0,1,140.89,192.36Z" style="fill:#263238"></path><path d="M144,191.72a4.27,4.27,0,0,1,0-5.06,2.87,2.87,0,0,1,4.29,0,4.39,4.39,0,0,1,0,5.08,2.85,2.85,0,0,1-4.29,0Zm3.46-.72a3.72,3.72,0,0,0,0-3.62,1.64,1.64,0,0,0-2.62,0,3.62,3.62,0,0,0,0,3.6,1.64,1.64,0,0,0,2.62,0Zm6.38-5.2h1.41l-8.72,12.84h-1.4Zm-1.76,12a4.39,4.39,0,0,1,0-5.08,2.66,2.66,0,0,1,2.15-1,2.69,2.69,0,0,1,2.15,1,4.31,4.31,0,0,1,0,5.06,2.88,2.88,0,0,1-4.3,0Zm3.45-.74a3.62,3.62,0,0,0,0-3.6,1.53,1.53,0,0,0-1.3-.66,1.56,1.56,0,0,0-1.32.65,3.72,3.72,0,0,0,0,3.62,1.56,1.56,0,0,0,1.32.65A1.53,1.53,0,0,0,155.54,197.05Z" style="fill:#263238"></path><path d="M111.5,272H113v5h3.14v1.17H111.5Z" style="fill:#263238"></path><path d="M118.07,277.9a3.16,3.16,0,0,1,0-5.59,3.66,3.66,0,0,1,1.76-.42,3.62,3.62,0,0,1,1.75.42,3.17,3.17,0,0,1,1.23,1.15,3.1,3.1,0,0,1,.45,1.65,3.06,3.06,0,0,1-.45,1.64,3.17,3.17,0,0,1-1.23,1.15,3.62,3.62,0,0,1-1.75.42A3.66,3.66,0,0,1,118.07,277.9Zm2.76-1.06a1.81,1.81,0,0,0,.7-.7,2.1,2.1,0,0,0,.26-1,2,2,0,0,0-.26-1,1.84,1.84,0,0,0-.7-.71,2.12,2.12,0,0,0-2,0,1.84,1.84,0,0,0-.7.71,2,2,0,0,0-.26,1,2.1,2.1,0,0,0,.26,1,1.81,1.81,0,0,0,.7.7,2.05,2.05,0,0,0,2,0Z" style="fill:#263238"></path><path d="M133.61,272l-2.05,6.21H130l-1.38-4.2-1.42,4.2h-1.55L123.6,272h1.5l1.41,4.37L128,272h1.34l1.43,4.4,1.46-4.4Z" style="fill:#263238"></path><path d="M142.52,275.55a1.54,1.54,0,0,1,.3,1,1.42,1.42,0,0,1-.64,1.25,3.24,3.24,0,0,1-1.86.44h-3.24V272h3.06a3,3,0,0,1,1.75.44,1.37,1.37,0,0,1,.62,1.18,1.52,1.52,0,0,1-.22.8,1.5,1.5,0,0,1-.61.56A1.73,1.73,0,0,1,142.52,275.55Zm-4-2.47v1.47H140a1.38,1.38,0,0,0,.81-.19.61.61,0,0,0,.28-.55.59.59,0,0,0-.28-.54,1.38,1.38,0,0,0-.81-.19Zm2.55,3.86a.61.61,0,0,0,.29-.57c0-.52-.38-.77-1.15-.77h-1.69v1.53h1.69A1.54,1.54,0,0,0,141.07,276.94Z" style="fill:#263238"></path><path d="M148.05,276.88h-2.91l-.56,1.33H143.1l2.79-6.21h1.43l2.8,6.21H148.6Zm-.46-1.09-1-2.38-1,2.38Z" style="fill:#263238"></path><path d="M151.76,273.17h-2V272h5.46v1.17h-2v5h-1.45Z" style="fill:#263238"></path><path d="M157.38,273.17h-2V272h5.46v1.17h-2v5h-1.44Z" style="fill:#263238"></path><path d="M166.46,277.06v1.15h-4.85V272h4.73v1.15h-3.29v1.35H166v1.12h-2.9v1.44Z" style="fill:#263238"></path><path d="M171.6,278.21l-1.21-1.73h-1.33v1.73h-1.45V272h2.71a3.36,3.36,0,0,1,1.44.28,2,2,0,0,1,1.28,2,2.05,2.05,0,0,1-.34,1.19,2.15,2.15,0,0,1-.95.77l1.41,2Zm-.37-4.76a1.56,1.56,0,0,0-1-.28h-1.18v2.17h1.18a1.5,1.5,0,0,0,1-.29,1,1,0,0,0,.34-.79A1,1,0,0,0,171.23,273.45Z" style="fill:#263238"></path><path d="M177.1,276v2.2h-1.45V276l-2.42-4h1.54l1.67,2.76,1.67-2.76h1.42Z" style="fill:#263238"></path></g><g id="freepik--Character--inject-300"><path d="M279.17,67a5.24,5.24,0,0,1,5.65-2.22,7.13,7.13,0,0,1,8.78.89,6.48,6.48,0,0,1,6.28.39,6.58,6.58,0,0,1,2.88,5.62,5.45,5.45,0,0,1,5.31,3.27,5.52,5.52,0,0,1-1.42,6.11,5.15,5.15,0,0,1-3,9.8L279.63,73.07A5.31,5.31,0,0,1,279.17,67Z" style="fill:#263238"></path><path d="M304.37,91.63a21.77,21.77,0,0,0-19.94-21.79l-1.12-.1c-12.14-.28-16.88,10.6-16.83,22.82l-2.64,45.2h0L281.67,156l6.72-12,2.39-12s11.77-.87,12.87-12.54C304.19,113.92,304.35,102.22,304.37,91.63Z" style="fill:#ffbf9d"></path><path d="M290.88,132.09A28.13,28.13,0,0,1,276,126.35s2.45,9,14.13,8.9Z" style="fill:#ff9a6c"></path><path d="M300.11,102.18a1.67,1.67,0,0,1-1.74,1.55,1.59,1.59,0,0,1-1.58-1.65,1.67,1.67,0,0,1,1.73-1.55A1.6,1.6,0,0,1,300.11,102.18Z" style="fill:#263238"></path><path d="M301.48,97.75c-.22.2-1.4-.84-3.19-1s-3.17.65-3.34.41.15-.48.76-.85a4.5,4.5,0,0,1,2.7-.6,4.4,4.4,0,0,1,2.51,1C301.44,97.25,301.59,97.66,301.48,97.75Z" style="fill:#263238"></path><path d="M284.75,101.69a1.67,1.67,0,0,1-1.74,1.55,1.59,1.59,0,0,1-1.59-1.64,1.68,1.68,0,0,1,1.74-1.56A1.61,1.61,0,0,1,284.75,101.69Z" style="fill:#263238"></path><path d="M284.42,96.1c-.22.2-1.4-.84-3.19-1s-3.17.64-3.34.41.15-.48.76-.85a4.5,4.5,0,0,1,2.7-.6,4.27,4.27,0,0,1,2.51,1C284.37,95.6,284.53,96,284.42,96.1Z" style="fill:#263238"></path><path d="M289.21,109.89a11.07,11.07,0,0,1,2.94-.29c.46,0,.9-.07,1-.37a2.3,2.3,0,0,0-.19-1.39c-.34-1.14-.69-2.34-1.06-3.6-1.47-5.13-2.49-9.32-2.28-9.38s1.56,4,3,9.17c.35,1.27.69,2.47,1,3.62a2.68,2.68,0,0,1,.08,1.82,1.13,1.13,0,0,1-.8.61,2.68,2.68,0,0,1-.78,0A12,12,0,0,1,289.21,109.89Z" style="fill:#263238"></path><path d="M283.85,110.7c.29,0,.14,2,1.68,3.47s3.63,1.48,3.62,1.75-.49.34-1.37.3a4.85,4.85,0,0,1-3-1.35,4.27,4.27,0,0,1-1.28-2.91C283.46,111.14,283.72,110.68,283.85,110.7Z" style="fill:#263238"></path><path d="M284.86,91c-.25.45-1.75-.1-3.62-.22s-3.46.14-3.61-.34c-.07-.23.28-.63,1-1a5.65,5.65,0,0,1,2.83-.51,5.4,5.4,0,0,1,2.68.93C284.72,90.31,285,90.75,284.86,91Z" style="fill:#263238"></path><path d="M301.48,92.79c-.32.41-1.55,0-3,0s-2.74.27-3-.15c-.13-.21.07-.62.62-1a4.37,4.37,0,0,1,4.88.15C301.45,92.17,301.62,92.59,301.48,92.79Z" style="fill:#263238"></path><path d="M303.69,86.18s-2.46-7.57-5.83-9.57c-4.08-2.41-6.29,2.13-10.25.66s-7.84-3.79-12.24-1c-4.81,3.07-2.89,5.66-3.59,10.82-2.86,20.93-7.17,26.56-7.44,16.57,0-1.09-2.95-2.2-3-6.82-.09-6,.28-13.23,1.95-17.34,1.4-3.46,3.62-5.75,7.45-8.16,6.06-3.81,13.9-3.26,19.18-2.28S304.93,77.06,303.69,86.18Z" style="fill:#263238"></path><path d="M266.58,103.55a3.18,3.18,0,0,0-3.15-3.34c-2.19,0-4.7,1.07-4.93,5.59-.4,8,7.68,6.75,7.7,6.52S266.44,106.9,266.58,103.55Z" style="fill:#ffbf9d"></path><path d="M264.62,109.22s-.14.09-.38.19a1.39,1.39,0,0,1-1,0c-.83-.35-1.47-1.73-1.43-3.18a4.52,4.52,0,0,1,.49-2,1.59,1.59,0,0,1,1.09-1,.7.7,0,0,1,.8.42c.1.23,0,.38.08.4s.18-.13.13-.46a.89.89,0,0,0-.29-.52,1,1,0,0,0-.75-.24A2,2,0,0,0,261.8,104a4.9,4.9,0,0,0-.59,2.21c0,1.62.72,3.17,1.85,3.56a1.49,1.49,0,0,0,1.28-.15C264.6,109.42,264.65,109.24,264.62,109.22Z" style="fill:#ff9a6c"></path><path d="M266.53,88a7.69,7.69,0,0,0,3.24,1.84,2.6,2.6,0,0,0,3-1.6c.14-.55.06-1.2.46-1.6s1.26-.25,1.92-.13a5.1,5.1,0,0,0,5.57-3.22,2.12,2.12,0,0,0,2.83.5,11.11,11.11,0,0,0,2.35-2.15,3.31,3.31,0,0,1,2.84-1.15,7.6,7.6,0,0,0,1.7.53c1.05,0,1.66-1.2,1.9-2.22s.47-2.24,1.4-2.73,1.9-.07,2.85.15,2.2.1,2.53-.82a1.9,1.9,0,0,0-.24-1.48A5.15,5.15,0,0,0,293,71.42,7,7,0,0,0,280.29,69a7.09,7.09,0,0,0-11.53,1.66,5.25,5.25,0,0,0-5.5,1.39,5.32,5.32,0,0,0-.9,5.64,5,5,0,0,0-3,3.69c-.16,1.65,1.3,3.43,2.93,3.12a3,3,0,0,0,.81,3.85,3,3,0,0,0,3.87-.6" style="fill:#263238"></path><path d="M261.71,84.45a1.87,1.87,0,0,0,.36,1.57,2.6,2.6,0,0,0,1.52,1.09,2.76,2.76,0,0,0,2.32-.48l-.34-.08A8,8,0,0,0,267,88.68a4.54,4.54,0,0,0,1.37,1A3.11,3.11,0,0,0,270,90a3.15,3.15,0,0,0,2.4-1.13,4.9,4.9,0,0,0,.78-1.61c.11-.41.14-.64.11-.64s-.12.2-.28.58a5.78,5.78,0,0,1-.86,1.46,3.24,3.24,0,0,1-4.78-.28,8.15,8.15,0,0,1-1.36-2l-.12-.24-.21.17a2.45,2.45,0,0,1-2,.45,2.26,2.26,0,0,1-1.37-.88A3.85,3.85,0,0,1,261.71,84.45Z" style="fill:#455a64"></path><path d="M278.21,67.43s.21.07.55.25a2.87,2.87,0,0,1,1.15,1.16L280,69l.12-.14a10,10,0,0,1,4.1-2.81,7.54,7.54,0,0,1,3.18-.43,6.42,6.42,0,0,1,3.29,1.24,6.58,6.58,0,0,1,1.84,2.07,5.57,5.57,0,0,1,.68,2.48v.26l.25,0a4.44,4.44,0,0,1,3.27.68,4.36,4.36,0,0,1,1.64,2.09,5.87,5.87,0,0,1,.3,2.41,1.72,1.72,0,0,0,.15-.65,4.25,4.25,0,0,0-.21-1.85,4.49,4.49,0,0,0-1.68-2.3,4.84,4.84,0,0,0-3.55-.8l.25.21a5.9,5.9,0,0,0-.7-2.7,6.94,6.94,0,0,0-2-2.22,6.78,6.78,0,0,0-3.52-1.32,8,8,0,0,0-3.36.5,9.71,9.71,0,0,0-4.15,3l.2,0a2.75,2.75,0,0,0-1.3-1.16A1.15,1.15,0,0,0,278.21,67.43Z" style="fill:#455a64"></path><path d="M284.2,431.85l-7,25.31s22.44,15.92,21.57,20.73l-47.8-12.4,9.42-39.9Z" style="fill:#455a64"></path><path d="M262.9,451.18a2,2,0,0,0-1.91,2,2,2,0,0,0,1.86,2,2.16,2.16,0,0,0,2-2.08c-.09-1-1.2-2.09-2.15-1.84" style="fill:#e0e0e0"></path><g style="opacity:0.6000000000000001"><path d="M250.93,465.49l1.1-4,45.42,13.38s1.9,1.51,1.28,3Z" style="fill:#fff"></path></g><path d="M278,457.11c-.07.24-1.26.05-2.6.53s-2.19,1.33-2.38,1.18.49-1.46,2.12-2S278.1,456.9,278,457.11Z" style="fill:#263238"></path><path d="M282.49,460.56c0,.25-1.11.4-2.15,1.22s-1.53,1.84-1.76,1.77-.05-1.48,1.26-2.47S282.54,460.33,282.49,460.56Z" style="fill:#263238"></path><path d="M283.84,467.52c-.23,0-.26-1.3.66-2.47s2.14-1.41,2.19-1.18-.8.76-1.54,1.73S284.08,467.56,283.84,467.52Z" style="fill:#263238"></path><path d="M279,451.16c-.15.19-1.14-.42-2.48-.67s-2.47-.08-2.54-.32,1.12-.85,2.7-.53S279.15,451,279,451.16Z" style="fill:#263238"></path><path d="M267.45,437.81l-1.11,26.32s25.42,10,25.67,14.89l-49.27-.4.1-41.07Z" style="fill:#455a64"></path><path d="M251.12,461.79a2.09,2.09,0,0,0-1.41,2.37,1.93,1.93,0,0,0,2.25,1.47,2.21,2.21,0,0,0,1.48-2.52,2,2,0,0,0-2.5-1.26" style="fill:#e0e0e0"></path><g style="opacity:0.6000000000000001"><path d="M242.74,478.62l.16-4.14,47.18,1.93s2.19,1,1.93,2.61Z" style="fill:#fff"></path></g><path d="M267.14,463.87c0,.25-1.21.35-2.4,1.15s-1.83,1.83-2.05,1.73.15-1.54,1.6-2.47S267.19,463.64,267.14,463.87Z" style="fill:#263238"></path><path d="M272.29,466.13c0,.24-1,.66-1.82,1.71S269.4,470,269.16,470s-.38-1.43.67-2.71S272.29,465.89,272.29,466.13Z" style="fill:#263238"></path><path d="M275.18,472.57c-.22.05-.55-1.2.08-2.56s1.76-1.9,1.86-1.69-.6.94-1.1,2.06S275.42,472.55,275.18,472.57Z" style="fill:#263238"></path><path d="M266.75,457.85c-.1.22-1.2-.13-2.56-.05s-2.43.53-2.55.31.9-1.1,2.5-1.17S266.87,457.65,266.75,457.85Z" style="fill:#263238"></path><path d="M267.38,457.55a43.38,43.38,0,0,1,.07,6.33l-.2-.31c2.88,1.14,6.71,2.67,10.77,4.65a57.74,57.74,0,0,1,10.92,6.52,11.66,11.66,0,0,1,2.7,2.86c.51.82.45,1.45.37,1.42a3.74,3.74,0,0,0-.63-1.23,13.94,13.94,0,0,0-2.79-2.56A69.84,69.84,0,0,0,277.67,469c-4-2-7.82-3.57-10.64-4.83l-.21-.09v-.22A44.12,44.12,0,0,1,267.38,457.55Z" style="fill:#263238"></path><path d="M244.86,245.79l-4.79,34.92L245,354.33s-3,35.71-4.91,55.87c-1.62,17.51,1,48,1,48h28.48l10.19-101.68,6.33-63.42,11-28.86C287.59,263,265.8,254.13,244.86,245.79Z" style="fill:#263238"></path><polygon points="309.15 256.48 309.62 367.81 280.81 444.71 279.49 449.34 262.47 445.08 275.12 263.11 309.15 256.48" style="fill:#263238"></polygon><path d="M289.51,279.43a3.15,3.15,0,0,1,0,.46c0,.34,0,.79,0,1.36,0,1.23-.1,3-.18,5.24-.13,4.55-.48,11.13-1,19.25-1,16.24-3,38.66-6,63.33S276,416,273.62,432.14c-1.22,8-2.22,14.54-2.91,19.07-.35,2.23-.62,4-.82,5.18-.09.57-.17,1-.23,1.35a1.67,1.67,0,0,1-.1.46,4,4,0,0,1,0-.47c0-.33.09-.78.17-1.35.16-1.22.39-3,.7-5.2.64-4.54,1.56-11.06,2.7-19.1,2.29-16.13,5.52-38.41,8.5-63.08s5.05-47.06,6.2-63.29c.56-8.11,1-14.68,1.19-19.23.13-2.25.23-4,.3-5.23,0-.58.07-1,.09-1.36A1.79,1.79,0,0,1,289.51,279.43Z" style="fill:#455a64"></path><path d="M322.78,185.61l7-4.62s3.77-8,6.4-9,13.19-5,13.19-5,1.5,2.84-2.26,5a76.94,76.94,0,0,0-7,4.49s.58,8.07-4.69,10.38l-10.28,4.48Z" style="fill:#ffbf9d"></path><path d="M350,191a12.91,12.91,0,0,1-6.29,2.81c-3.95.63-11.73-.09-12,0s-4.58,3.92-4.58,3.92l-2.44-9.39,17.61-11.58L355,181.51l-3.16,5.42-4.43-.84L346.35,189Z" style="fill:#ffbf9d"></path><polygon points="327.18 180.68 330.38 198.25 303.57 212.81 302.47 188.52 327.18 180.68" style="fill:#FF725E"></polygon><path d="M294.46,149.53c.51,1.19,7.52,23.54,9.86,35.06,1.9,9.32,5.08,67.54,5.08,67.54v13c-16.41,6.22-40.35,2.67-65.87-2.93L241,254.8s4.8-30.89,2.78-43.24-1.72-39.38-.71-51.73c.8-9.86,14.67-20.49,19.79-24.58l1.31-3.11,25.18,7.17.64,3.75Z" style="fill:#FF725E"></path><path d="M370.51,201.35h10.73a2.77,2.77,0,0,1,2.77,2.77v.44a2.77,2.77,0,0,1-2.77,2.77H370.51a0,0,0,0,1,0,0v-6A0,0,0,0,1,370.51,201.35Z" transform="translate(754.53 408.68) rotate(180)" style="fill:#e0e0e0"></path><path d="M356.89,180.32l9.71-11.14a.74.74,0,0,0-.08-1l-9.3-7.85a.73.73,0,0,0-1,.07L337,182.31a.73.73,0,0,0,.07,1l9.09,7.95a.73.73,0,0,0,1-.06l9.76-10.9" style="fill:#455a64"></path><path d="M342.41,188.05c-.29.27-3.31,3.26-3.31,3.26l-2.22-2.14,3.18-3.18Z" style="fill:#e0e0e0"></path><path d="M384.9,203h5.91a0,0,0,0,1,0,0v1.91a0,0,0,0,1,0,0H384.9A.88.88,0,0,1,384,204v-.14A.88.88,0,0,1,384.9,203Z" transform="translate(774.82 407.88) rotate(180)" style="fill:#263238"></path><path d="M346.25,211.58,354.2,210s6-7.08,9.8-7.79,8.66-3.54,8.66-3.54,2.24.11,2.12,2.16c-.07,1.22-1.14,1.72-1.87,2.45l-4.63,2.82s9.46-1.23,10.59.36.32,3-1.88,3.54a33.49,33.49,0,0,1-4.53.85s3,3.58.58,5.52c0,0,.18,3.36-2.64,4.07a5.79,5.79,0,0,1-5.22,3.36c-1.91,0-5.22.24-7.86-.53s-9.47,2.29-9.47,2.29Z" style="fill:#ffbf9d"></path><g style="opacity:0.30000000000000004"><path d="M252.28,175.79s5.63,45.48,28.2,59.67c6.19,3.89,28.2,4,28.2,4v-14Z"></path></g><path d="M267.63,144.73c9.1,1.33,15.82,23.27,15.82,23.27l16.75,38.09s33.15,2.83,39.74,2.83c3,0,8.7-1.53,9.16-1.53l.25.47c3.39,6.2,3,18,3,18s-15.27,4.44-25.64,5.89c-13,1.8-41.41-.93-46.68-6.06s-33.53-57-33.15-65.63" style="fill:#FF725E"></path><path d="M246.9,160.11s0,.26.06.74a14,14,0,0,0,.43,2.12,65.71,65.71,0,0,0,2.84,7.85c2.81,6.68,7.39,16.14,13.53,27.57,3.07,5.72,6.51,11.94,10.47,18.45q1.49,2.44,3.1,4.91c.55.82,1.11,1.64,1.71,2.43a8,8,0,0,0,2.06,2.08,21.4,21.4,0,0,0,5.63,2.32c2,.57,4.07,1,6.17,1.41a128.22,128.22,0,0,0,13,1.66,132,132,0,0,0,13.71.41,63.93,63.93,0,0,0,7-.52c2.34-.33,4.69-.76,7-1.25,4.71-1,9.46-2.15,14.24-3.42l4.34-1.21-.18.25a64.25,64.25,0,0,0-.56-9.54,25.5,25.5,0,0,0-2.68-8.86l.23.14c-1,.17-2.14.46-3.2.68s-2.16.44-3.24.6a29.77,29.77,0,0,1-6.53.11c-4.28-.23-8.47-.53-12.57-.83-8.2-.62-16-1.26-23.38-1.89h-.13l-.06-.13-16.68-38.12h0c-2.85-8.75-6.27-15.32-9.47-19.12a13.53,13.53,0,0,0-4.35-3.58,10.05,10.05,0,0,0-1.85-.61l.49.08a6.53,6.53,0,0,1,1.4.45,13.22,13.22,0,0,1,4.43,3.55c3.27,3.8,6.75,10.36,9.65,19.14v0L300.4,206l-.18-.13c7.36.61,15.18,1.25,23.37,1.85,4.1.3,8.29.59,12.57.82a30,30,0,0,0,6.42-.11c1.07-.17,2.14-.37,3.22-.6s2.09-.5,3.3-.7l.13,0,.09.16a25.82,25.82,0,0,1,2.74,9,64,64,0,0,1,.57,9.62v.19l-.18,0-4.36,1.21c-4.78,1.28-9.54,2.46-14.27,3.43-2.36.48-4.72.92-7.08,1.25a65.2,65.2,0,0,1-7.07.52,135.76,135.76,0,0,1-13.76-.42,129.52,129.52,0,0,1-13.09-1.69c-2.11-.39-4.19-.85-6.21-1.43a21.71,21.71,0,0,1-5.75-2.39,8.48,8.48,0,0,1-2.17-2.18c-.61-.81-1.17-1.64-1.72-2.46-1.09-1.65-2.11-3.3-3.1-4.93-3.95-6.54-7.37-12.78-10.43-18.5-6.1-11.46-10.63-20.95-13.39-27.68a62.21,62.21,0,0,1-2.75-7.89,13,13,0,0,1-.38-2.14C246.89,160.36,246.9,160.11,246.9,160.11Z" style="fill:#263238"></path><path d="M345,221.93c-.28,0-.55,0-.83,0-5.93-.33-11.3-4.5-12.76-9.9a12.28,12.28,0,0,1,2.17-10.38,8.72,8.72,0,0,1-.56-6.26,13.55,13.55,0,0,1,5.46-7.05l.43.62a12.81,12.81,0,0,0-5.17,6.64,7.93,7.93,0,0,0,.36,5.41,10.4,10.4,0,0,1,4.42-3.05c2.11-.71,4.8-.4,5.64,1.59a3.62,3.62,0,0,1-.48,3.38,5.14,5.14,0,0,1-3.59,2.14,6.19,6.19,0,0,1-4.77-1.23,6.36,6.36,0,0,1-1.34-1.49,11.47,11.47,0,0,0-1.84,9.48c1.38,5.11,6.46,9,12.07,9.35a16.87,16.87,0,0,0,14.08-7c.63-.87,1.2-1.82,1.76-2.73a24.79,24.79,0,0,1,3-4.21c1.92-2.06,5.11-3.62,7.9-2.43l-.3.69c-2.45-1.05-5.31.38-7.06,2.25a24.7,24.7,0,0,0-2.86,4.08c-.57.93-1.15,1.89-1.8,2.79A17.53,17.53,0,0,1,345,221.93ZM334.5,201.7a5.9,5.9,0,0,0,1.32,1.53,5.41,5.41,0,0,0,4.19,1.08,4.39,4.39,0,0,0,3.08-1.82,2.89,2.89,0,0,0,.41-2.66c-.64-1.52-2.9-1.79-4.71-1.18A9.73,9.73,0,0,0,334.5,201.7Z" style="fill:#e0e0e0"></path><polygon points="364.68 168.5 346.35 189.01 338.37 182.27 356.51 161.69 364.68 168.5" style="fill:#263238"></polygon><path d="M355.31,180c.29,0,2.79.45,3.37,1.26s0,3.25-1.69,3.34-3.71-.55-4.35-1.66S352.23,179.7,355.31,180Z" style="fill:#ffbf9d"></path><path d="M346.52,185.35a1.84,1.84,0,0,1,1.81-1.94c2.47-.1,7.87-.15,8.68,1.24,1.06,1.8.48,3-1.44,3.16s-7.12-.18-8.46-1.36A1.62,1.62,0,0,1,346.52,185.35Z" style="fill:#ffbf9d"></path><path d="M346,186.4s.19-.91,2.78.4,5.77,1.58,5,3a3.19,3.19,0,0,1-4.61,1.45C347,190.1,343.82,189.29,346,186.4Z" style="fill:#ffbf9d"></path><path d="M303.61,180.18c.15,0,.89,6,1.65,13.37S306.54,207,306.39,207s-.88-6-1.64-13.37S303.47,180.2,303.61,180.18Z" style="fill:#263238"></path><path d="M293.35,216.13a14.84,14.84,0,0,1,2.56-5.54,15.07,15.07,0,0,1,4.22-4.41c.11.12-1.92,1.95-3.79,4.71S293.5,216.19,293.35,216.13Z" style="fill:#263238"></path><path d="M262.85,135.25a4.17,4.17,0,0,1,1.08.26l2.87.88,9.42,3c3.69,1.17,7,2.19,9.46,2.92l2.87.88a4.66,4.66,0,0,1,1,.38,4,4,0,0,1-1.09-.19c-.69-.15-1.69-.39-2.92-.72-2.45-.64-5.82-1.6-9.51-2.77s-7-2.31-9.39-3.16c-1.2-.43-2.16-.79-2.82-1A5,5,0,0,1,262.85,135.25Z" style="fill:#263238"></path></g></svg>